STARTFONT 2.1
COMMENT
COMMENT Converted from OpenType font "ipag.ttf" by "otf2bdf 3.0".
COMMENT
FONT -FreeType-IPAGothic-Medium-R-Normal--8-80-72-72-P-75-ISO10646-1
SIZE 8 72 72
FONTBOUNDINGBOX 8 9 0 -2
STARTPROPERTIES 19
FOUNDRY "FreeType"
FAMILY_NAME "IPAGothic"
WEIGHT_NAME "Medium"
SLANT "R"
SETWIDTH_NAME "Normal"
ADD_STYLE_NAME ""
PIXEL_SIZE 8
POINT_SIZE 80
RESOLUTION_X 72
RESOLUTION_Y 72
SPACING "P"
AVERAGE_WIDTH 75
CHARSET_REGISTRY "ISO10646"
CHARSET_ENCODING "1"
FONT_ASCENT 7
FONT_DESCENT 0
COPYRIGHT "Copyright(c) Information-technology Promotion Agency, Japan (IPA), 2003-2011. You must accept "http://ipafont.ipa.go.jp/ipa_font_license_v1.html" to use this product."
_OTF_FONTFILE "ipag.ttf"
_OTF_PSNAME "IPAGothic"
ENDPROPERTIES
CHARS 11158
STARTCHAR 0020
ENCODING 32
SWIDTH 500 0
DWIDTH 4 0
BBX 0 0 0 0
BITMAP
ENDCHAR
STARTCHAR 0021
ENCODING 33
SWIDTH 500 0
DWIDTH 4 0
BBX 1 6 1 0
BITMAP
80
80
80
80
00
80
ENDCHAR
STARTCHAR 0022
ENCODING 34
SWIDTH 500 0
DWIDTH 4 0
BBX 2 2 1 5
BITMAP
C0
40
ENDCHAR
STARTCHAR 0023
ENCODING 35
SWIDTH 500 0
DWIDTH 4 0
BBX 4 6 0 0
BITMAP
60
70
60
A0
E0
A0
ENDCHAR
STARTCHAR 0024
ENCODING 36
SWIDTH 500 0
DWIDTH 4 0
BBX 4 7 0 0
BITMAP
40
E0
C0
60
50
D0
60
ENDCHAR
STARTCHAR 0025
ENCODING 37
SWIDTH 500 0
DWIDTH 4 0
BBX 4 8 0 -1
BITMAP
D0
E0
E0
C0
30
70
B0
B0
ENDCHAR
STARTCHAR 0026
ENCODING 38
SWIDTH 500 0
DWIDTH 4 0
BBX 4 6 0 0
BITMAP
60
A0
40
D0
A0
70
ENDCHAR
STARTCHAR 0027
ENCODING 39
SWIDTH 500 0
DWIDTH 4 0
BBX 1 1 1 5
BITMAP
80
ENDCHAR
STARTCHAR 0028
ENCODING 40
SWIDTH 500 0
DWIDTH 4 0
BBX 2 8 1 -1
BITMAP
40
80
80
80
80
80
80
40
ENDCHAR
STARTCHAR 0029
ENCODING 41
SWIDTH 500 0
DWIDTH 4 0
BBX 2 8 1 -1
BITMAP
80
80
40
40
40
40
80
80
ENDCHAR
STARTCHAR 002A
ENCODING 42
SWIDTH 500 0
DWIDTH 4 0
BBX 4 4 0 1
BITMAP
40
D0
60
40
ENDCHAR
STARTCHAR 002B
ENCODING 43
SWIDTH 500 0
DWIDTH 4 0
BBX 4 4 0 1
BITMAP
40
40
F0
40
ENDCHAR
STARTCHAR 002C
ENCODING 44
SWIDTH 500 0
DWIDTH 4 0
BBX 1 1 1 -1
BITMAP
80
ENDCHAR
STARTCHAR 002D
ENCODING 45
SWIDTH 500 0
DWIDTH 4 0
BBX 4 1 0 2
BITMAP
F0
ENDCHAR
STARTCHAR 002E
ENCODING 46
SWIDTH 500 0
DWIDTH 4 0
BBX 1 1 1 0
BITMAP
80
ENDCHAR
STARTCHAR 002F
ENCODING 47
SWIDTH 500 0
DWIDTH 4 0
BBX 4 6 0 0
BITMAP
10
20
20
40
40
80
ENDCHAR
STARTCHAR 0030
ENCODING 48
SWIDTH 500 0
DWIDTH 4 0
BBX 4 6 0 0
BITMAP
60
A0
D0
D0
60
60
ENDCHAR
STARTCHAR 0031
ENCODING 49
SWIDTH 500 0
DWIDTH 4 0
BBX 1 6 1 0
BITMAP
80
80
80
80
80
80
ENDCHAR
STARTCHAR 0032
ENCODING 50
SWIDTH 500 0
DWIDTH 4 0
BBX 4 6 0 0
BITMAP
60
90
20
40
80
F0
ENDCHAR
STARTCHAR 0033
ENCODING 51
SWIDTH 500 0
DWIDTH 4 0
BBX 4 6 0 0
BITMAP
60
20
60
10
90
60
ENDCHAR
STARTCHAR 0034
ENCODING 52
SWIDTH 500 0
DWIDTH 4 0
BBX 4 6 0 0
BITMAP
20
60
60
A0
F0
20
ENDCHAR
STARTCHAR 0035
ENCODING 53
SWIDTH 500 0
DWIDTH 4 0
BBX 4 6 0 0
BITMAP
60
80
60
10
90
60
ENDCHAR
STARTCHAR 0036
ENCODING 54
SWIDTH 500 0
DWIDTH 4 0
BBX 4 6 0 0
BITMAP
60
80
E0
90
90
60
ENDCHAR
STARTCHAR 0037
ENCODING 55
SWIDTH 500 0
DWIDTH 4 0
BBX 4 6 0 0
BITMAP
F0
20
20
20
40
40
ENDCHAR
STARTCHAR 0038
ENCODING 56
SWIDTH 500 0
DWIDTH 4 0
BBX 4 6 0 0
BITMAP
60
90
60
90
90
60
ENDCHAR
STARTCHAR 0039
ENCODING 57
SWIDTH 500 0
DWIDTH 4 0
BBX 4 6 0 0
BITMAP
60
A0
70
10
A0
60
ENDCHAR
STARTCHAR 003A
ENCODING 58
SWIDTH 500 0
DWIDTH 4 0
BBX 1 4 1 0
BITMAP
80
00
00
80
ENDCHAR
STARTCHAR 003B
ENCODING 59
SWIDTH 500 0
DWIDTH 4 0
BBX 1 5 1 -1
BITMAP
80
00
00
80
80
ENDCHAR
STARTCHAR 003C
ENCODING 60
SWIDTH 500 0
DWIDTH 4 0
BBX 4 6 0 0
BITMAP
10
60
80
40
20
10
ENDCHAR
STARTCHAR 003D
ENCODING 61
SWIDTH 500 0
DWIDTH 4 0
BBX 4 2 0 2
BITMAP
F0
F0
ENDCHAR
STARTCHAR 003E
ENCODING 62
SWIDTH 500 0
DWIDTH 4 0
BBX 3 6 0 0
BITMAP
80
40
20
20
40
80
ENDCHAR
STARTCHAR 003F
ENCODING 63
SWIDTH 500 0
DWIDTH 4 0
BBX 4 6 0 0
BITMAP
60
90
20
40
00
40
ENDCHAR
STARTCHAR 0040
ENCODING 64
SWIDTH 500 0
DWIDTH 4 0
BBX 4 6 0 0
BITMAP
60
F0
F0
F0
C0
60
ENDCHAR
STARTCHAR 0041
ENCODING 65
SWIDTH 500 0
DWIDTH 4 0
BBX 4 6 0 0
BITMAP
60
60
60
60
A0
90
ENDCHAR
STARTCHAR 0042
ENCODING 66
SWIDTH 500 0
DWIDTH 4 0
BBX 3 6 1 0
BITMAP
C0
C0
C0
A0
A0
C0
ENDCHAR
STARTCHAR 0043
ENCODING 67
SWIDTH 500 0
DWIDTH 4 0
BBX 4 6 0 0
BITMAP
60
A0
80
80
90
60
ENDCHAR
STARTCHAR 0044
ENCODING 68
SWIDTH 500 0
DWIDTH 4 0
BBX 4 6 0 0
BITMAP
E0
A0
90
90
A0
E0
ENDCHAR
STARTCHAR 0045
ENCODING 69
SWIDTH 500 0
DWIDTH 4 0
BBX 3 6 1 0
BITMAP
C0
80
C0
80
80
E0
ENDCHAR
STARTCHAR 0046
ENCODING 70
SWIDTH 500 0
DWIDTH 4 0
BBX 2 6 1 0
BITMAP
C0
80
C0
80
80
80
ENDCHAR
STARTCHAR 0047
ENCODING 71
SWIDTH 500 0
DWIDTH 4 0
BBX 4 6 0 0
BITMAP
60
A0
80
B0
90
70
ENDCHAR
STARTCHAR 0048
ENCODING 72
SWIDTH 500 0
DWIDTH 4 0
BBX 4 6 0 0
BITMAP
90
90
F0
90
90
90
ENDCHAR
STARTCHAR 0049
ENCODING 73
SWIDTH 500 0
DWIDTH 4 0
BBX 2 6 1 0
BITMAP
C0
80
80
80
80
C0
ENDCHAR
STARTCHAR 004A
ENCODING 74
SWIDTH 500 0
DWIDTH 4 0
BBX 3 6 0 0
BITMAP
20
20
20
20
A0
60
ENDCHAR
STARTCHAR 004B
ENCODING 75
SWIDTH 500 0
DWIDTH 4 0
BBX 3 6 1 0
BITMAP
40
40
80
40
40
20
ENDCHAR
STARTCHAR 004C
ENCODING 76
SWIDTH 500 0
DWIDTH 4 0
BBX 3 6 1 0
BITMAP
80
80
80
80
80
E0
ENDCHAR
STARTCHAR 004D
ENCODING 77
SWIDTH 500 0
DWIDTH 4 0
BBX 4 6 0 0
BITMAP
90
90
F0
F0
F0
D0
ENDCHAR
STARTCHAR 004E
ENCODING 78
SWIDTH 500 0
DWIDTH 4 0
BBX 4 6 0 0
BITMAP
90
D0
D0
D0
B0
90
ENDCHAR
STARTCHAR 004F
ENCODING 79
SWIDTH 500 0
DWIDTH 4 0
BBX 4 6 0 0
BITMAP
60
A0
90
90
A0
60
ENDCHAR
STARTCHAR 0050
ENCODING 80
SWIDTH 500 0
DWIDTH 4 0
BBX 3 6 1 0
BITMAP
C0
A0
A0
C0
80
80
ENDCHAR
STARTCHAR 0051
ENCODING 81
SWIDTH 500 0
DWIDTH 4 0
BBX 4 6 0 -1
BITMAP
60
A0
90
90
90
60
ENDCHAR
STARTCHAR 0052
ENCODING 82
SWIDTH 500 0
DWIDTH 4 0
BBX 3 6 1 0
BITMAP
C0
A0
C0
C0
C0
A0
ENDCHAR
STARTCHAR 0053
ENCODING 83
SWIDTH 500 0
DWIDTH 4 0
BBX 4 6 0 0
BITMAP
60
80
40
20
90
60
ENDCHAR
STARTCHAR 0054
ENCODING 84
SWIDTH 500 0
DWIDTH 4 0
BBX 4 6 0 0
BITMAP
F0
40
40
40
40
40
ENDCHAR
STARTCHAR 0055
ENCODING 85
SWIDTH 500 0
DWIDTH 4 0
BBX 4 6 0 0
BITMAP
90
90
90
90
90
60
ENDCHAR
STARTCHAR 0056
ENCODING 86
SWIDTH 500 0
DWIDTH 4 0
BBX 4 6 0 0
BITMAP
90
A0
A0
60
60
60
ENDCHAR
STARTCHAR 0057
ENCODING 87
SWIDTH 500 0
DWIDTH 4 0
BBX 4 6 0 0
BITMAP
D0
D0
F0
60
60
A0
ENDCHAR
STARTCHAR 0058
ENCODING 88
SWIDTH 500 0
DWIDTH 4 0
BBX 4 6 0 0
BITMAP
A0
60
60
60
60
90
ENDCHAR
STARTCHAR 0059
ENCODING 89
SWIDTH 500 0
DWIDTH 4 0
BBX 4 6 0 0
BITMAP
90
60
60
40
40
40
ENDCHAR
STARTCHAR 005A
ENCODING 90
SWIDTH 500 0
DWIDTH 4 0
BBX 3 6 1 0
BITMAP
C0
40
40
80
80
E0
ENDCHAR
STARTCHAR 005B
ENCODING 91
SWIDTH 500 0
DWIDTH 4 0
BBX 2 8 1 -1
BITMAP
C0
80
80
80
80
80
80
C0
ENDCHAR
STARTCHAR 005C
ENCODING 92
SWIDTH 500 0
DWIDTH 4 0
BBX 4 6 0 0
BITMAP
A0
60
F0
40
F0
40
ENDCHAR
STARTCHAR 005D
ENCODING 93
SWIDTH 500 0
DWIDTH 4 0
BBX 2 8 1 -1
BITMAP
C0
40
40
40
40
40
40
C0
ENDCHAR
STARTCHAR 005E
ENCODING 94
SWIDTH 500 0
DWIDTH 4 0
BBX 2 1 1 5
BITMAP
C0
ENDCHAR
STARTCHAR 005F
ENCODING 95
SWIDTH 500 0
DWIDTH 4 0
BBX 0 0 0 -1
BITMAP
ENDCHAR
STARTCHAR 0060
ENCODING 96
SWIDTH 500 0
DWIDTH 4 0
BBX 1 1 1 5
BITMAP
80
ENDCHAR
STARTCHAR 0061
ENCODING 97
SWIDTH 500 0
DWIDTH 4 0
BBX 4 4 0 0
BITMAP
60
20
E0
70
ENDCHAR
STARTCHAR 0062
ENCODING 98
SWIDTH 500 0
DWIDTH 4 0
BBX 3 6 1 0
BITMAP
80
80
C0
A0
A0
C0
ENDCHAR
STARTCHAR 0063
ENCODING 99
SWIDTH 500 0
DWIDTH 4 0
BBX 3 4 0 0
BITMAP
60
80
A0
60
ENDCHAR
STARTCHAR 0064
ENCODING 100
SWIDTH 500 0
DWIDTH 4 0
BBX 3 6 0 0
BITMAP
20
20
60
A0
A0
60
ENDCHAR
STARTCHAR 0065
ENCODING 101
SWIDTH 500 0
DWIDTH 4 0
BBX 3 4 0 0
BITMAP
60
60
A0
60
ENDCHAR
STARTCHAR 0066
ENCODING 102
SWIDTH 500 0
DWIDTH 4 0
BBX 2 6 1 0
BITMAP
40
80
C0
80
80
80
ENDCHAR
STARTCHAR 0067
ENCODING 103
SWIDTH 500 0
DWIDTH 4 0
BBX 3 5 0 -1
BITMAP
60
A0
60
20
60
ENDCHAR
STARTCHAR 0068
ENCODING 104
SWIDTH 500 0
DWIDTH 4 0
BBX 2 6 1 0
BITMAP
80
80
C0
C0
C0
C0
ENDCHAR
STARTCHAR 0069
ENCODING 105
SWIDTH 500 0
DWIDTH 4 0
BBX 1 6 1 0
BITMAP
80
00
80
80
80
80
ENDCHAR
STARTCHAR 006A
ENCODING 106
SWIDTH 500 0
DWIDTH 4 0
BBX 2 7 1 -1
BITMAP
40
00
40
40
40
40
80
ENDCHAR
STARTCHAR 006B
ENCODING 107
SWIDTH 500 0
DWIDTH 4 0
BBX 2 6 1 0
BITMAP
80
80
C0
80
C0
C0
ENDCHAR
STARTCHAR 006C
ENCODING 108
SWIDTH 500 0
DWIDTH 4 0
BBX 1 6 2 0
BITMAP
80
80
80
80
80
80
ENDCHAR
STARTCHAR 006D
ENCODING 109
SWIDTH 500 0
DWIDTH 4 0
BBX 4 4 0 0
BITMAP
F0
D0
D0
D0
ENDCHAR
STARTCHAR 006E
ENCODING 110
SWIDTH 500 0
DWIDTH 4 0
BBX 2 4 1 0
BITMAP
C0
C0
C0
C0
ENDCHAR
STARTCHAR 006F
ENCODING 111
SWIDTH 500 0
DWIDTH 4 0
BBX 3 4 0 0
BITMAP
60
A0
A0
60
ENDCHAR
STARTCHAR 0070
ENCODING 112
SWIDTH 500 0
DWIDTH 4 0
BBX 3 5 1 -1
BITMAP
C0
A0
A0
C0
80
ENDCHAR
STARTCHAR 0071
ENCODING 113
SWIDTH 500 0
DWIDTH 4 0
BBX 3 5 0 -1
BITMAP
60
A0
A0
60
20
ENDCHAR
STARTCHAR 0072
ENCODING 114
SWIDTH 500 0
DWIDTH 4 0
BBX 2 4 1 0
BITMAP
C0
80
80
80
ENDCHAR
STARTCHAR 0073
ENCODING 115
SWIDTH 500 0
DWIDTH 4 0
BBX 3 4 0 0
BITMAP
60
80
E0
60
ENDCHAR
STARTCHAR 0074
ENCODING 116
SWIDTH 500 0
DWIDTH 4 0
BBX 2 5 1 0
BITMAP
80
C0
80
80
40
ENDCHAR
STARTCHAR 0075
ENCODING 117
SWIDTH 500 0
DWIDTH 4 0
BBX 2 4 1 0
BITMAP
C0
C0
C0
C0
ENDCHAR
STARTCHAR 0076
ENCODING 118
SWIDTH 500 0
DWIDTH 4 0
BBX 3 4 0 0
BITMAP
A0
60
60
40
ENDCHAR
STARTCHAR 0077
ENCODING 119
SWIDTH 500 0
DWIDTH 4 0
BBX 4 4 0 0
BITMAP
D0
F0
60
60
ENDCHAR
STARTCHAR 0078
ENCODING 120
SWIDTH 500 0
DWIDTH 4 0
BBX 3 4 0 0
BITMAP
60
60
60
A0
ENDCHAR
STARTCHAR 0079
ENCODING 121
SWIDTH 500 0
DWIDTH 4 0
BBX 3 5 0 -1
BITMAP
A0
60
60
40
40
ENDCHAR
STARTCHAR 007A
ENCODING 122
SWIDTH 500 0
DWIDTH 4 0
BBX 2 4 1 0
BITMAP
C0
40
80
C0
ENDCHAR
STARTCHAR 007B
ENCODING 123
SWIDTH 500 0
DWIDTH 4 0
BBX 2 6 1 0
BITMAP
40
40
80
40
40
40
ENDCHAR
STARTCHAR 007C
ENCODING 124
SWIDTH 500 0
DWIDTH 4 0
BBX 1 8 1 -1
BITMAP
80
80
80
80
80
80
80
80
ENDCHAR
STARTCHAR 007D
ENCODING 125
SWIDTH 500 0
DWIDTH 4 0
BBX 1 6 1 0
BITMAP
80
80
80
80
80
80
ENDCHAR
STARTCHAR 007E
ENCODING 126
SWIDTH 500 0
DWIDTH 4 0
BBX 2 1 1 5
BITMAP
C0
ENDCHAR
STARTCHAR 00A0
ENCODING 160
SWIDTH 500 0
DWIDTH 4 0
BBX 0 0 0 0
BITMAP
ENDCHAR
STARTCHAR 00A1
ENCODING 161
SWIDTH 500 0
DWIDTH 4 0
BBX 1 6 1 0
BITMAP
80
80
80
80
80
80
ENDCHAR
STARTCHAR 00A2
ENCODING 162
SWIDTH 1000 0
DWIDTH 8 0
BBX 4 6 2 0
BITMAP
20
F0
C0
D0
60
80
ENDCHAR
STARTCHAR 00A3
ENCODING 163
SWIDTH 1000 0
DWIDTH 8 0
BBX 5 7 1 0
BITMAP
30
28
40
70
20
E0
F8
ENDCHAR
STARTCHAR 00A4
ENCODING 164
SWIDTH 500 0
DWIDTH 4 0
BBX 2 2 1 2
BITMAP
C0
C0
ENDCHAR
STARTCHAR 00A5
ENCODING 165
SWIDTH 1000 0
DWIDTH 8 0
BBX 4 6 2 0
BITMAP
90
60
F0
F0
40
40
ENDCHAR
STARTCHAR 00A6
ENCODING 166
SWIDTH 500 0
DWIDTH 4 0
BBX 1 8 1 -1
BITMAP
80
80
80
80
80
80
80
80
ENDCHAR
STARTCHAR 00A7
ENCODING 167
SWIDTH 1000 0
DWIDTH 8 0
BBX 4 8 2 -1
BITMAP
60
90
40
A0
50
20
90
60
ENDCHAR
STARTCHAR 00A8
ENCODING 168
SWIDTH 1000 0
DWIDTH 8 0
BBX 2 1 3 5
BITMAP
C0
ENDCHAR
STARTCHAR 00A9
ENCODING 169
SWIDTH 500 0
DWIDTH 4 0
BBX 4 3 0 2
BITMAP
60
F0
70
ENDCHAR
STARTCHAR 00AA
ENCODING 170
SWIDTH 500 0
DWIDTH 4 0
BBX 3 4 0 2
BITMAP
40
C0
E0
E0
ENDCHAR
STARTCHAR 00AB
ENCODING 171
SWIDTH 500 0
DWIDTH 4 0
BBX 2 3 1 1
BITMAP
80
C0
C0
ENDCHAR
STARTCHAR 00AC
ENCODING 172
SWIDTH 1000 0
DWIDTH 8 0
BBX 6 4 1 1
BITMAP
FC
04
04
04
ENDCHAR
STARTCHAR 00AD
ENCODING 173
SWIDTH 500 0
DWIDTH 4 0
BBX 4 1 0 2
BITMAP
F0
ENDCHAR
STARTCHAR 00AE
ENCODING 174
SWIDTH 500 0
DWIDTH 4 0
BBX 4 4 0 1
BITMAP
60
F0
F0
60
ENDCHAR
STARTCHAR 00AF
ENCODING 175
SWIDTH 500 0
DWIDTH 4 0
BBX 2 1 1 5
BITMAP
C0
ENDCHAR
STARTCHAR 00B0
ENCODING 176
SWIDTH 1000 0
DWIDTH 8 0
BBX 1 2 1 5
BITMAP
80
80
ENDCHAR
STARTCHAR 00B1
ENCODING 177
SWIDTH 1000 0
DWIDTH 8 0
BBX 6 6 1 0
BITMAP
20
20
FC
20
00
FC
ENDCHAR
STARTCHAR 00B2
ENCODING 178
SWIDTH 500 0
DWIDTH 4 0
BBX 2 4 0 3
BITMAP
40
40
80
40
ENDCHAR
STARTCHAR 00B3
ENCODING 179
SWIDTH 500 0
DWIDTH 4 0
BBX 1 3 1 4
BITMAP
80
80
80
ENDCHAR
STARTCHAR 00B4
ENCODING 180
SWIDTH 1000 0
DWIDTH 8 0
BBX 1 1 3 5
BITMAP
80
ENDCHAR
STARTCHAR 00B6
ENCODING 182
SWIDTH 1000 0
DWIDTH 8 0
BBX 3 8 2 -1
BITMAP
E0
E0
E0
60
60
60
60
40
ENDCHAR
STARTCHAR 00B7
ENCODING 183
SWIDTH 500 0
DWIDTH 4 0
BBX 2 1 1 3
BITMAP
C0
ENDCHAR
STARTCHAR 00B8
ENCODING 184
SWIDTH 500 0
DWIDTH 4 0
BBX 2 2 1 -1
BITMAP
80
C0
ENDCHAR
STARTCHAR 00B9
ENCODING 185
SWIDTH 500 0
DWIDTH 4 0
BBX 1 3 1 4
BITMAP
80
80
80
ENDCHAR
STARTCHAR 00BA
ENCODING 186
SWIDTH 500 0
DWIDTH 4 0
BBX 3 4 0 2
BITMAP
40
A0
40
E0
ENDCHAR
STARTCHAR 00BB
ENCODING 187
SWIDTH 500 0
DWIDTH 4 0
BBX 2 3 1 1
BITMAP
80
C0
80
ENDCHAR
STARTCHAR 00BC
ENCODING 188
SWIDTH 500 0
DWIDTH 4 0
BBX 4 8 0 -1
BITMAP
A0
A0
A0
40
60
60
70
80
ENDCHAR
STARTCHAR 00BD
ENCODING 189
SWIDTH 500 0
DWIDTH 4 0
BBX 4 8 0 -1
BITMAP
A0
A0
A0
40
70
50
A0
B0
ENDCHAR
STARTCHAR 00BE
ENCODING 190
SWIDTH 500 0
DWIDTH 4 0
BBX 4 7 0 -1
BITMAP
D0
60
60
E0
60
60
B0
ENDCHAR
STARTCHAR 00BF
ENCODING 191
SWIDTH 500 0
DWIDTH 4 0
BBX 4 6 0 0
BITMAP
20
40
40
80
90
60
ENDCHAR
STARTCHAR 00C0
ENCODING 192
SWIDTH 500 0
DWIDTH 4 0
BBX 4 7 0 0
BITMAP
40
60
60
60
60
A0
90
ENDCHAR
STARTCHAR 00C1
ENCODING 193
SWIDTH 500 0
DWIDTH 4 0
BBX 4 7 0 0
BITMAP
40
60
60
60
60
A0
90
ENDCHAR
STARTCHAR 00C2
ENCODING 194
SWIDTH 500 0
DWIDTH 4 0
BBX 4 7 0 0
BITMAP
60
60
60
60
60
A0
90
ENDCHAR
STARTCHAR 00C3
ENCODING 195
SWIDTH 500 0
DWIDTH 4 0
BBX 4 7 0 0
BITMAP
60
60
60
60
60
A0
90
ENDCHAR
STARTCHAR 00C4
ENCODING 196
SWIDTH 500 0
DWIDTH 4 0
BBX 4 7 0 0
BITMAP
60
60
60
60
60
A0
90
ENDCHAR
STARTCHAR 00C5
ENCODING 197
SWIDTH 500 0
DWIDTH 4 0
BBX 4 7 0 0
BITMAP
60
20
60
60
60
A0
90
ENDCHAR
STARTCHAR 00C6
ENCODING 198
SWIDTH 500 0
DWIDTH 4 0
BBX 4 6 0 0
BITMAP
70
60
B0
60
A0
B0
ENDCHAR
STARTCHAR 00C7
ENCODING 199
SWIDTH 500 0
DWIDTH 4 0
BBX 4 7 0 -1
BITMAP
60
A0
80
80
90
60
60
ENDCHAR
STARTCHAR 00C8
ENCODING 200
SWIDTH 500 0
DWIDTH 4 0
BBX 3 7 1 0
BITMAP
80
C0
80
C0
80
80
E0
ENDCHAR
STARTCHAR 00C9
ENCODING 201
SWIDTH 500 0
DWIDTH 4 0
BBX 3 7 1 0
BITMAP
80
C0
80
C0
80
80
E0
ENDCHAR
STARTCHAR 00CA
ENCODING 202
SWIDTH 500 0
DWIDTH 4 0
BBX 3 7 1 0
BITMAP
C0
C0
80
C0
80
80
E0
ENDCHAR
STARTCHAR 00CB
ENCODING 203
SWIDTH 500 0
DWIDTH 4 0
BBX 3 7 1 0
BITMAP
C0
C0
80
C0
80
80
E0
ENDCHAR
STARTCHAR 00CC
ENCODING 204
SWIDTH 500 0
DWIDTH 4 0
BBX 1 7 1 0
BITMAP
80
80
80
80
80
80
80
ENDCHAR
STARTCHAR 00CD
ENCODING 205
SWIDTH 500 0
DWIDTH 4 0
BBX 1 7 1 0
BITMAP
80
80
80
80
80
80
80
ENDCHAR
STARTCHAR 00CE
ENCODING 206
SWIDTH 500 0
DWIDTH 4 0
BBX 2 7 1 0
BITMAP
C0
80
80
80
80
80
80
ENDCHAR
STARTCHAR 00CF
ENCODING 207
SWIDTH 500 0
DWIDTH 4 0
BBX 2 7 1 0
BITMAP
C0
80
80
80
80
80
80
ENDCHAR
STARTCHAR 00D0
ENCODING 208
SWIDTH 500 0
DWIDTH 4 0
BBX 4 6 0 0
BITMAP
60
A0
D0
90
A0
60
ENDCHAR
STARTCHAR 00D1
ENCODING 209
SWIDTH 500 0
DWIDTH 4 0
BBX 4 7 0 0
BITMAP
60
90
D0
D0
D0
B0
90
ENDCHAR
STARTCHAR 00D2
ENCODING 210
SWIDTH 500 0
DWIDTH 4 0
BBX 4 7 0 0
BITMAP
40
60
A0
90
90
A0
60
ENDCHAR
STARTCHAR 00D3
ENCODING 211
SWIDTH 500 0
DWIDTH 4 0
BBX 4 7 0 0
BITMAP
40
60
A0
90
90
A0
60
ENDCHAR
STARTCHAR 00D4
ENCODING 212
SWIDTH 500 0
DWIDTH 4 0
BBX 4 7 0 0
BITMAP
60
60
A0
90
90
A0
60
ENDCHAR
STARTCHAR 00D5
ENCODING 213
SWIDTH 500 0
DWIDTH 4 0
BBX 4 7 0 0
BITMAP
60
60
A0
90
90
A0
60
ENDCHAR
STARTCHAR 00D6
ENCODING 214
SWIDTH 500 0
DWIDTH 4 0
BBX 4 7 0 0
BITMAP
60
60
A0
90
90
A0
60
ENDCHAR
STARTCHAR 00D7
ENCODING 215
SWIDTH 1000 0
DWIDTH 8 0
BBX 4 4 2 2
BITMAP
90
60
60
90
ENDCHAR
STARTCHAR 00D8
ENCODING 216
SWIDTH 500 0
DWIDTH 4 0
BBX 4 7 0 0
BITMAP
10
60
B0
D0
D0
60
60
ENDCHAR
STARTCHAR 00D9
ENCODING 217
SWIDTH 500 0
DWIDTH 4 0
BBX 4 7 0 0
BITMAP
40
90
90
90
90
90
60
ENDCHAR
STARTCHAR 00DA
ENCODING 218
SWIDTH 500 0
DWIDTH 4 0
BBX 4 7 0 0
BITMAP
40
90
90
90
90
90
60
ENDCHAR
STARTCHAR 00DB
ENCODING 219
SWIDTH 500 0
DWIDTH 4 0
BBX 4 7 0 0
BITMAP
60
90
90
90
90
90
60
ENDCHAR
STARTCHAR 00DC
ENCODING 220
SWIDTH 500 0
DWIDTH 4 0
BBX 4 7 0 0
BITMAP
60
90
90
90
90
90
60
ENDCHAR
STARTCHAR 00DD
ENCODING 221
SWIDTH 500 0
DWIDTH 4 0
BBX 4 7 0 0
BITMAP
40
90
60
60
40
40
40
ENDCHAR
STARTCHAR 00DE
ENCODING 222
SWIDTH 500 0
DWIDTH 4 0
BBX 3 6 1 0
BITMAP
80
C0
A0
C0
80
80
ENDCHAR
STARTCHAR 00DF
ENCODING 223
SWIDTH 500 0
DWIDTH 4 0
BBX 3 6 1 0
BITMAP
C0
C0
C0
A0
A0
C0
ENDCHAR
STARTCHAR 00E0
ENCODING 224
SWIDTH 500 0
DWIDTH 4 0
BBX 4 4 0 1
BITMAP
60
20
E0
70
ENDCHAR
STARTCHAR 00E1
ENCODING 225
SWIDTH 500 0
DWIDTH 4 0
BBX 4 4 0 1
BITMAP
60
20
E0
70
ENDCHAR
STARTCHAR 00E2
ENCODING 226
SWIDTH 500 0
DWIDTH 4 0
BBX 4 4 0 1
BITMAP
60
20
E0
70
ENDCHAR
STARTCHAR 00E3
ENCODING 227
SWIDTH 500 0
DWIDTH 4 0
BBX 4 6 0 0
BITMAP
20
40
60
20
E0
70
ENDCHAR
STARTCHAR 00E4
ENCODING 228
SWIDTH 500 0
DWIDTH 4 0
BBX 4 5 0 0
BITMAP
60
60
20
E0
70
ENDCHAR
STARTCHAR 00E5
ENCODING 229
SWIDTH 500 0
DWIDTH 4 0
BBX 4 6 0 0
BITMAP
60
00
60
20
E0
70
ENDCHAR
STARTCHAR 00E6
ENCODING 230
SWIDTH 500 0
DWIDTH 4 0
BBX 4 4 0 0
BITMAP
E0
70
D0
E0
ENDCHAR
STARTCHAR 00E7
ENCODING 231
SWIDTH 500 0
DWIDTH 4 0
BBX 3 5 0 -1
BITMAP
60
80
A0
60
60
ENDCHAR
STARTCHAR 00E8
ENCODING 232
SWIDTH 500 0
DWIDTH 4 0
BBX 3 4 0 1
BITMAP
60
60
A0
60
ENDCHAR
STARTCHAR 00E9
ENCODING 233
SWIDTH 500 0
DWIDTH 4 0
BBX 3 4 0 1
BITMAP
60
60
A0
60
ENDCHAR
STARTCHAR 00EA
ENCODING 234
SWIDTH 500 0
DWIDTH 4 0
BBX 3 4 0 1
BITMAP
60
60
A0
60
ENDCHAR
STARTCHAR 00EB
ENCODING 235
SWIDTH 500 0
DWIDTH 4 0
BBX 3 5 0 0
BITMAP
60
60
60
A0
60
ENDCHAR
STARTCHAR 00EC
ENCODING 236
SWIDTH 500 0
DWIDTH 4 0
BBX 1 4 1 1
BITMAP
80
80
80
80
ENDCHAR
STARTCHAR 00ED
ENCODING 237
SWIDTH 500 0
DWIDTH 4 0
BBX 1 4 2 1
BITMAP
80
80
80
80
ENDCHAR
STARTCHAR 00EE
ENCODING 238
SWIDTH 500 0
DWIDTH 4 0
BBX 1 4 1 1
BITMAP
80
80
80
80
ENDCHAR
STARTCHAR 00EF
ENCODING 239
SWIDTH 500 0
DWIDTH 4 0
BBX 2 5 1 0
BITMAP
C0
80
80
80
80
ENDCHAR
STARTCHAR 00F0
ENCODING 240
SWIDTH 500 0
DWIDTH 4 0
BBX 3 6 0 0
BITMAP
60
20
60
A0
A0
60
ENDCHAR
STARTCHAR 00F1
ENCODING 241
SWIDTH 500 0
DWIDTH 4 0
BBX 2 6 1 0
BITMAP
40
80
C0
C0
C0
C0
ENDCHAR
STARTCHAR 00F2
ENCODING 242
SWIDTH 500 0
DWIDTH 4 0
BBX 3 4 0 1
BITMAP
60
A0
A0
60
ENDCHAR
STARTCHAR 00F3
ENCODING 243
SWIDTH 500 0
DWIDTH 4 0
BBX 3 4 0 1
BITMAP
60
A0
A0
60
ENDCHAR
STARTCHAR 00F4
ENCODING 244
SWIDTH 500 0
DWIDTH 4 0
BBX 3 4 0 1
BITMAP
60
A0
A0
60
ENDCHAR
STARTCHAR 00F5
ENCODING 245
SWIDTH 500 0
DWIDTH 4 0
BBX 3 6 0 0
BITMAP
20
40
60
A0
A0
60
ENDCHAR
STARTCHAR 00F6
ENCODING 246
SWIDTH 500 0
DWIDTH 4 0
BBX 3 5 0 0
BITMAP
60
60
A0
A0
60
ENDCHAR
STARTCHAR 00F7
ENCODING 247
SWIDTH 1000 0
DWIDTH 8 0
BBX 6 5 1 0
BITMAP
20
00
FC
00
20
ENDCHAR
STARTCHAR 00F8
ENCODING 248
SWIDTH 500 0
DWIDTH 4 0
BBX 3 4 0 1
BITMAP
60
E0
E0
60
ENDCHAR
STARTCHAR 00F9
ENCODING 249
SWIDTH 500 0
DWIDTH 4 0
BBX 2 4 1 1
BITMAP
C0
C0
C0
C0
ENDCHAR
STARTCHAR 00FA
ENCODING 250
SWIDTH 500 0
DWIDTH 4 0
BBX 2 4 1 1
BITMAP
C0
C0
C0
C0
ENDCHAR
STARTCHAR 00FB
ENCODING 251
SWIDTH 500 0
DWIDTH 4 0
BBX 2 4 1 1
BITMAP
C0
C0
C0
C0
ENDCHAR
STARTCHAR 00FC
ENCODING 252
SWIDTH 500 0
DWIDTH 4 0
BBX 2 5 1 0
BITMAP
C0
C0
C0
C0
C0
ENDCHAR
STARTCHAR 00FD
ENCODING 253
SWIDTH 500 0
DWIDTH 4 0
BBX 3 5 0 0
BITMAP
A0
60
20
40
40
ENDCHAR
STARTCHAR 00FE
ENCODING 254
SWIDTH 500 0
DWIDTH 4 0
BBX 3 7 1 -1
BITMAP
80
80
C0
A0
A0
C0
80
ENDCHAR
STARTCHAR 00FF
ENCODING 255
SWIDTH 500 0
DWIDTH 4 0
BBX 3 6 0 -1
BITMAP
60
A0
60
20
40
40
ENDCHAR
STARTCHAR 0100
ENCODING 256
SWIDTH 500 0
DWIDTH 4 0
BBX 4 7 0 0
BITMAP
60
60
60
60
60
A0
90
ENDCHAR
STARTCHAR 0101
ENCODING 257
SWIDTH 500 0
DWIDTH 4 0
BBX 4 5 0 0
BITMAP
60
60
20
E0
70
ENDCHAR
STARTCHAR 0102
ENCODING 258
SWIDTH 500 0
DWIDTH 4 0
BBX 4 7 0 0
BITMAP
60
60
60
60
60
A0
90
ENDCHAR
STARTCHAR 0103
ENCODING 259
SWIDTH 500 0
DWIDTH 4 0
BBX 4 5 0 0
BITMAP
60
60
20
E0
70
ENDCHAR
STARTCHAR 0104
ENCODING 260
SWIDTH 500 0
DWIDTH 4 0
BBX 4 7 0 -1
BITMAP
60
60
60
60
A0
90
10
ENDCHAR
STARTCHAR 0105
ENCODING 261
SWIDTH 500 0
DWIDTH 4 0
BBX 4 5 0 -1
BITMAP
60
20
E0
70
30
ENDCHAR
STARTCHAR 0106
ENCODING 262
SWIDTH 500 0
DWIDTH 4 0
BBX 4 7 0 0
BITMAP
40
60
A0
80
80
90
60
ENDCHAR
STARTCHAR 0107
ENCODING 263
SWIDTH 500 0
DWIDTH 4 0
BBX 3 4 0 1
BITMAP
60
80
A0
60
ENDCHAR
STARTCHAR 0108
ENCODING 264
SWIDTH 500 0
DWIDTH 4 0
BBX 4 7 0 0
BITMAP
60
60
A0
80
80
90
60
ENDCHAR
STARTCHAR 0109
ENCODING 265
SWIDTH 500 0
DWIDTH 4 0
BBX 3 4 0 1
BITMAP
60
80
A0
60
ENDCHAR
STARTCHAR 010C
ENCODING 268
SWIDTH 500 0
DWIDTH 4 0
BBX 4 7 0 0
BITMAP
60
60
A0
80
80
90
60
ENDCHAR
STARTCHAR 010D
ENCODING 269
SWIDTH 500 0
DWIDTH 4 0
BBX 3 4 0 1
BITMAP
60
80
A0
60
ENDCHAR
STARTCHAR 010E
ENCODING 270
SWIDTH 500 0
DWIDTH 4 0
BBX 3 7 1 0
BITMAP
C0
C0
C0
A0
A0
C0
C0
ENDCHAR
STARTCHAR 010F
ENCODING 271
SWIDTH 500 0
DWIDTH 4 0
BBX 4 7 0 0
BITMAP
10
30
20
60
A0
A0
60
ENDCHAR
STARTCHAR 0111
ENCODING 273
SWIDTH 500 0
DWIDTH 4 0
BBX 4 6 0 0
BITMAP
20
30
60
A0
A0
60
ENDCHAR
STARTCHAR 0112
ENCODING 274
SWIDTH 500 0
DWIDTH 4 0
BBX 3 7 1 0
BITMAP
C0
C0
80
C0
80
80
E0
ENDCHAR
STARTCHAR 0113
ENCODING 275
SWIDTH 500 0
DWIDTH 4 0
BBX 3 5 0 0
BITMAP
60
60
60
A0
60
ENDCHAR
STARTCHAR 0118
ENCODING 280
SWIDTH 500 0
DWIDTH 4 0
BBX 3 7 1 -1
BITMAP
C0
80
C0
80
80
E0
C0
ENDCHAR
STARTCHAR 0119
ENCODING 281
SWIDTH 500 0
DWIDTH 4 0
BBX 3 5 0 -1
BITMAP
60
E0
A0
40
60
ENDCHAR
STARTCHAR 011A
ENCODING 282
SWIDTH 500 0
DWIDTH 4 0
BBX 3 7 1 0
BITMAP
C0
C0
80
C0
80
80
E0
ENDCHAR
STARTCHAR 011B
ENCODING 283
SWIDTH 500 0
DWIDTH 4 0
BBX 3 4 0 1
BITMAP
60
60
A0
60
ENDCHAR
STARTCHAR 011C
ENCODING 284
SWIDTH 500 0
DWIDTH 4 0
BBX 4 7 0 0
BITMAP
60
60
A0
80
B0
90
70
ENDCHAR
STARTCHAR 011D
ENCODING 285
SWIDTH 500 0
DWIDTH 4 0
BBX 3 5 0 0
BITMAP
60
A0
60
20
60
ENDCHAR
STARTCHAR 0124
ENCODING 292
SWIDTH 500 0
DWIDTH 4 0
BBX 4 7 0 0
BITMAP
60
90
90
F0
90
90
90
ENDCHAR
STARTCHAR 0125
ENCODING 293
SWIDTH 500 0
DWIDTH 4 0
BBX 2 7 1 0
BITMAP
C0
80
80
C0
C0
C0
C0
ENDCHAR
STARTCHAR 0127
ENCODING 295
SWIDTH 500 0
DWIDTH 4 0
BBX 3 6 0 0
BITMAP
80
C0
60
A0
A0
A0
ENDCHAR
STARTCHAR 012A
ENCODING 298
SWIDTH 500 0
DWIDTH 4 0
BBX 2 7 1 0
BITMAP
C0
80
80
80
80
80
80
ENDCHAR
STARTCHAR 012B
ENCODING 299
SWIDTH 500 0
DWIDTH 4 0
BBX 2 5 1 0
BITMAP
C0
80
80
80
80
ENDCHAR
STARTCHAR 0134
ENCODING 308
SWIDTH 500 0
DWIDTH 4 0
BBX 4 7 0 0
BITMAP
30
20
20
20
20
A0
60
ENDCHAR
STARTCHAR 0135
ENCODING 309
SWIDTH 500 0
DWIDTH 4 0
BBX 2 5 1 0
BITMAP
40
40
40
40
80
ENDCHAR
STARTCHAR 0139
ENCODING 313
SWIDTH 500 0
DWIDTH 4 0
BBX 3 7 1 0
BITMAP
80
80
80
80
80
80
E0
ENDCHAR
STARTCHAR 013A
ENCODING 314
SWIDTH 500 0
DWIDTH 4 0
BBX 1 7 1 0
BITMAP
80
80
80
80
80
80
80
ENDCHAR
STARTCHAR 013D
ENCODING 317
SWIDTH 500 0
DWIDTH 4 0
BBX 3 7 1 0
BITMAP
40
C0
80
80
80
80
E0
ENDCHAR
STARTCHAR 013E
ENCODING 318
SWIDTH 500 0
DWIDTH 4 0
BBX 2 7 2 0
BITMAP
40
80
80
80
80
80
80
ENDCHAR
STARTCHAR 0141
ENCODING 321
SWIDTH 500 0
DWIDTH 4 0
BBX 4 6 0 0
BITMAP
80
80
40
80
80
70
ENDCHAR
STARTCHAR 0142
ENCODING 322
SWIDTH 500 0
DWIDTH 4 0
BBX 2 6 1 0
BITMAP
80
80
40
80
80
80
ENDCHAR
STARTCHAR 0143
ENCODING 323
SWIDTH 500 0
DWIDTH 4 0
BBX 4 7 0 0
BITMAP
40
90
D0
D0
D0
B0
90
ENDCHAR
STARTCHAR 0144
ENCODING 324
SWIDTH 500 0
DWIDTH 4 0
BBX 2 4 1 1
BITMAP
C0
C0
C0
C0
ENDCHAR
STARTCHAR 0147
ENCODING 327
SWIDTH 500 0
DWIDTH 4 0
BBX 4 7 0 0
BITMAP
60
90
D0
D0
D0
B0
90
ENDCHAR
STARTCHAR 0148
ENCODING 328
SWIDTH 500 0
DWIDTH 4 0
BBX 2 4 1 1
BITMAP
C0
C0
C0
C0
ENDCHAR
STARTCHAR 014B
ENCODING 331
SWIDTH 500 0
DWIDTH 4 0
BBX 2 5 1 -1
BITMAP
C0
C0
C0
C0
40
ENDCHAR
STARTCHAR 014C
ENCODING 332
SWIDTH 500 0
DWIDTH 4 0
BBX 4 7 0 0
BITMAP
60
60
A0
90
90
A0
60
ENDCHAR
STARTCHAR 014D
ENCODING 333
SWIDTH 500 0
DWIDTH 4 0
BBX 3 5 0 0
BITMAP
60
60
A0
A0
60
ENDCHAR
STARTCHAR 0150
ENCODING 336
SWIDTH 500 0
DWIDTH 4 0
BBX 4 7 0 0
BITMAP
60
60
A0
90
90
A0
60
ENDCHAR
STARTCHAR 0151
ENCODING 337
SWIDTH 500 0
DWIDTH 4 0
BBX 3 5 0 0
BITMAP
20
60
A0
A0
60
ENDCHAR
STARTCHAR 0152
ENCODING 338
SWIDTH 500 0
DWIDTH 4 0
BBX 4 6 0 0
BITMAP
70
A0
B0
A0
A0
70
ENDCHAR
STARTCHAR 0153
ENCODING 339
SWIDTH 500 0
DWIDTH 4 0
BBX 4 4 0 0
BITMAP
60
B0
D0
60
ENDCHAR
STARTCHAR 0154
ENCODING 340
SWIDTH 500 0
DWIDTH 4 0
BBX 3 7 1 0
BITMAP
80
C0
A0
C0
C0
C0
A0
ENDCHAR
STARTCHAR 0155
ENCODING 341
SWIDTH 500 0
DWIDTH 4 0
BBX 2 4 1 1
BITMAP
C0
80
80
80
ENDCHAR
STARTCHAR 0158
ENCODING 344
SWIDTH 500 0
DWIDTH 4 0
BBX 3 7 1 0
BITMAP
C0
C0
A0
C0
C0
C0
A0
ENDCHAR
STARTCHAR 0159
ENCODING 345
SWIDTH 500 0
DWIDTH 4 0
BBX 2 4 1 1
BITMAP
C0
80
80
80
ENDCHAR
STARTCHAR 015A
ENCODING 346
SWIDTH 500 0
DWIDTH 4 0
BBX 4 7 0 0
BITMAP
40
60
80
40
20
90
60
ENDCHAR
STARTCHAR 015B
ENCODING 347
SWIDTH 500 0
DWIDTH 4 0
BBX 3 4 0 1
BITMAP
60
80
E0
60
ENDCHAR
STARTCHAR 015C
ENCODING 348
SWIDTH 500 0
DWIDTH 4 0
BBX 4 7 0 0
BITMAP
60
60
80
40
20
90
60
ENDCHAR
STARTCHAR 015D
ENCODING 349
SWIDTH 500 0
DWIDTH 4 0
BBX 3 4 0 1
BITMAP
60
80
E0
60
ENDCHAR
STARTCHAR 015E
ENCODING 350
SWIDTH 500 0
DWIDTH 4 0
BBX 4 6 0 -1
BITMAP
60
80
40
30
60
20
ENDCHAR
STARTCHAR 015F
ENCODING 351
SWIDTH 500 0
DWIDTH 4 0
BBX 2 4 1 -1
BITMAP
C0
40
C0
80
ENDCHAR
STARTCHAR 0160
ENCODING 352
SWIDTH 500 0
DWIDTH 4 0
BBX 4 7 0 0
BITMAP
60
60
80
40
20
90
60
ENDCHAR
STARTCHAR 0161
ENCODING 353
SWIDTH 500 0
DWIDTH 4 0
BBX 3 4 0 1
BITMAP
60
80
E0
60
ENDCHAR
STARTCHAR 0162
ENCODING 354
SWIDTH 500 0
DWIDTH 4 0
BBX 4 6 0 -1
BITMAP
F0
40
40
40
40
40
ENDCHAR
STARTCHAR 0163
ENCODING 355
SWIDTH 500 0
DWIDTH 4 0
BBX 2 5 1 -1
BITMAP
80
C0
80
40
40
ENDCHAR
STARTCHAR 0164
ENCODING 356
SWIDTH 500 0
DWIDTH 4 0
BBX 4 7 0 0
BITMAP
60
F0
40
40
40
40
40
ENDCHAR
STARTCHAR 0165
ENCODING 357
SWIDTH 500 0
DWIDTH 4 0
BBX 2 7 1 0
BITMAP
40
00
80
C0
80
80
40
ENDCHAR
STARTCHAR 016A
ENCODING 362
SWIDTH 500 0
DWIDTH 4 0
BBX 4 7 0 0
BITMAP
60
90
90
90
90
90
60
ENDCHAR
STARTCHAR 016B
ENCODING 363
SWIDTH 500 0
DWIDTH 4 0
BBX 2 5 1 0
BITMAP
C0
C0
C0
C0
C0
ENDCHAR
STARTCHAR 016C
ENCODING 364
SWIDTH 500 0
DWIDTH 4 0
BBX 4 7 0 0
BITMAP
60
90
90
90
90
90
60
ENDCHAR
STARTCHAR 016D
ENCODING 365
SWIDTH 500 0
DWIDTH 4 0
BBX 2 5 1 0
BITMAP
C0
C0
C0
C0
C0
ENDCHAR
STARTCHAR 016E
ENCODING 366
SWIDTH 500 0
DWIDTH 4 0
BBX 4 7 0 0
BITMAP
60
90
90
90
90
90
60
ENDCHAR
STARTCHAR 016F
ENCODING 367
SWIDTH 500 0
DWIDTH 4 0
BBX 2 6 1 0
BITMAP
C0
00
C0
C0
C0
C0
ENDCHAR
STARTCHAR 0170
ENCODING 368
SWIDTH 500 0
DWIDTH 4 0
BBX 4 7 0 0
BITMAP
60
90
90
90
90
90
60
ENDCHAR
STARTCHAR 0171
ENCODING 369
SWIDTH 500 0
DWIDTH 4 0
BBX 2 4 1 1
BITMAP
C0
C0
C0
C0
ENDCHAR
STARTCHAR 0179
ENCODING 377
SWIDTH 500 0
DWIDTH 4 0
BBX 3 7 1 0
BITMAP
80
C0
40
40
80
80
E0
ENDCHAR
STARTCHAR 017A
ENCODING 378
SWIDTH 500 0
DWIDTH 4 0
BBX 2 4 1 1
BITMAP
C0
40
80
C0
ENDCHAR
STARTCHAR 017B
ENCODING 379
SWIDTH 500 0
DWIDTH 4 0
BBX 3 7 1 0
BITMAP
80
C0
40
40
80
80
E0
ENDCHAR
STARTCHAR 017C
ENCODING 380
SWIDTH 500 0
DWIDTH 4 0
BBX 2 5 1 0
BITMAP
80
C0
40
80
C0
ENDCHAR
STARTCHAR 017D
ENCODING 381
SWIDTH 500 0
DWIDTH 4 0
BBX 3 7 1 0
BITMAP
C0
C0
40
40
80
80
E0
ENDCHAR
STARTCHAR 017E
ENCODING 382
SWIDTH 500 0
DWIDTH 4 0
BBX 2 4 1 1
BITMAP
C0
40
80
C0
ENDCHAR
STARTCHAR 0193
ENCODING 403
SWIDTH 500 0
DWIDTH 4 0
BBX 4 7 0 0
BITMAP
10
60
A0
80
A0
A0
60
ENDCHAR
STARTCHAR 01C2
ENCODING 450
SWIDTH 500 0
DWIDTH 4 0
BBX 2 7 1 -1
BITMAP
80
80
C0
80
C0
80
80
ENDCHAR
STARTCHAR 01CD
ENCODING 461
SWIDTH 1000 0
DWIDTH 8 0
BBX 5 7 1 0
BITMAP
30
30
30
50
78
48
88
ENDCHAR
STARTCHAR 01CE
ENCODING 462
SWIDTH 1000 0
DWIDTH 8 0
BBX 4 5 2 0
BITMAP
60
90
70
90
F0
ENDCHAR
STARTCHAR 01D0
ENCODING 464
SWIDTH 1000 0
DWIDTH 8 0
BBX 1 4 3 1
BITMAP
80
80
80
80
ENDCHAR
STARTCHAR 01D1
ENCODING 465
SWIDTH 1000 0
DWIDTH 8 0
BBX 6 7 1 0
BITMAP
30
30
48
84
84
48
30
ENDCHAR
STARTCHAR 01D2
ENCODING 466
SWIDTH 1000 0
DWIDTH 8 0
BBX 4 5 2 0
BITMAP
60
90
90
90
60
ENDCHAR
STARTCHAR 01D4
ENCODING 468
SWIDTH 1000 0
DWIDTH 8 0
BBX 4 4 2 1
BITMAP
90
90
90
70
ENDCHAR
STARTCHAR 01D6
ENCODING 470
SWIDTH 1000 0
DWIDTH 8 0
BBX 4 6 2 0
BITMAP
60
A0
90
90
90
70
ENDCHAR
STARTCHAR 01D8
ENCODING 472
SWIDTH 1000 0
DWIDTH 8 0
BBX 4 6 2 0
BITMAP
20
A0
90
90
90
70
ENDCHAR
STARTCHAR 01DA
ENCODING 474
SWIDTH 1000 0
DWIDTH 8 0
BBX 4 6 2 0
BITMAP
60
A0
90
90
90
70
ENDCHAR
STARTCHAR 01DC
ENCODING 476
SWIDTH 1000 0
DWIDTH 8 0
BBX 4 6 2 0
BITMAP
40
A0
90
90
90
70
ENDCHAR
STARTCHAR 01F8
ENCODING 504
SWIDTH 500 0
DWIDTH 4 0
BBX 4 7 0 0
BITMAP
40
90
D0
D0
D0
B0
90
ENDCHAR
STARTCHAR 01F9
ENCODING 505
SWIDTH 500 0
DWIDTH 4 0
BBX 2 4 1 1
BITMAP
C0
C0
C0
C0
ENDCHAR
STARTCHAR 01FD
ENCODING 509
SWIDTH 500 0
DWIDTH 4 0
BBX 4 4 0 1
BITMAP
E0
70
D0
E0
ENDCHAR
STARTCHAR 0250
ENCODING 592
SWIDTH 500 0
DWIDTH 4 0
BBX 3 4 0 0
BITMAP
E0
60
A0
60
ENDCHAR
STARTCHAR 0251
ENCODING 593
SWIDTH 500 0
DWIDTH 4 0
BBX 4 4 0 0
BITMAP
60
A0
A0
70
ENDCHAR
STARTCHAR 0252
ENCODING 594
SWIDTH 500 0
DWIDTH 4 0
BBX 4 4 0 0
BITMAP
E0
90
90
60
ENDCHAR
STARTCHAR 0253
ENCODING 595
SWIDTH 500 0
DWIDTH 4 0
BBX 3 6 1 0
BITMAP
C0
80
C0
A0
A0
C0
ENDCHAR
STARTCHAR 0254
ENCODING 596
SWIDTH 500 0
DWIDTH 4 0
BBX 3 4 0 0
BITMAP
60
20
A0
60
ENDCHAR
STARTCHAR 0255
ENCODING 597
SWIDTH 500 0
DWIDTH 4 0
BBX 3 4 0 0
BITMAP
60
80
A0
60
ENDCHAR
STARTCHAR 0256
ENCODING 598
SWIDTH 500 0
DWIDTH 4 0
BBX 4 7 0 -1
BITMAP
20
20
60
A0
A0
60
10
ENDCHAR
STARTCHAR 0257
ENCODING 599
SWIDTH 500 0
DWIDTH 4 0
BBX 4 6 0 0
BITMAP
10
20
60
A0
A0
60
ENDCHAR
STARTCHAR 0258
ENCODING 600
SWIDTH 500 0
DWIDTH 4 0
BBX 3 4 0 0
BITMAP
60
60
A0
60
ENDCHAR
STARTCHAR 0259
ENCODING 601
SWIDTH 500 0
DWIDTH 4 0
BBX 2 4 1 0
BITMAP
C0
40
C0
C0
ENDCHAR
STARTCHAR 025A
ENCODING 602
SWIDTH 500 0
DWIDTH 4 0
BBX 4 4 0 0
BITMAP
40
30
E0
40
ENDCHAR
STARTCHAR 025C
ENCODING 604
SWIDTH 500 0
DWIDTH 4 0
BBX 3 4 1 0
BITMAP
C0
40
20
C0
ENDCHAR
STARTCHAR 025E
ENCODING 606
SWIDTH 500 0
DWIDTH 4 0
BBX 4 4 0 0
BITMAP
60
A0
90
60
ENDCHAR
STARTCHAR 025F
ENCODING 607
SWIDTH 500 0
DWIDTH 4 0
BBX 2 5 1 -1
BITMAP
80
80
C0
80
80
ENDCHAR
STARTCHAR 0260
ENCODING 608
SWIDTH 500 0
DWIDTH 4 0
BBX 4 7 0 -1
BITMAP
10
20
60
A0
60
20
60
ENDCHAR
STARTCHAR 0261
ENCODING 609
SWIDTH 500 0
DWIDTH 4 0
BBX 3 5 0 -1
BITMAP
60
A0
60
20
60
ENDCHAR
STARTCHAR 0264
ENCODING 612
SWIDTH 500 0
DWIDTH 4 0
BBX 4 4 0 0
BITMAP
F0
40
60
60
ENDCHAR
STARTCHAR 0265
ENCODING 613
SWIDTH 500 0
DWIDTH 4 0
BBX 2 5 1 -1
BITMAP
C0
C0
C0
C0
40
ENDCHAR
STARTCHAR 0266
ENCODING 614
SWIDTH 500 0
DWIDTH 4 0
BBX 2 6 1 0
BITMAP
C0
80
C0
C0
C0
C0
ENDCHAR
STARTCHAR 0267
ENCODING 615
SWIDTH 500 0
DWIDTH 4 0
BBX 2 7 1 -1
BITMAP
C0
80
C0
C0
C0
C0
40
ENDCHAR
STARTCHAR 0268
ENCODING 616
SWIDTH 500 0
DWIDTH 4 0
BBX 2 6 1 0
BITMAP
80
00
80
C0
80
80
ENDCHAR
STARTCHAR 026C
ENCODING 620
SWIDTH 500 0
DWIDTH 4 0
BBX 1 6 1 0
BITMAP
80
80
80
80
80
80
ENDCHAR
STARTCHAR 026D
ENCODING 621
SWIDTH 500 0
DWIDTH 4 0
BBX 1 7 2 -1
BITMAP
80
80
80
80
80
80
80
ENDCHAR
STARTCHAR 026E
ENCODING 622
SWIDTH 500 0
DWIDTH 4 0
BBX 3 7 1 -1
BITMAP
80
80
C0
C0
C0
A0
C0
ENDCHAR
STARTCHAR 026F
ENCODING 623
SWIDTH 500 0
DWIDTH 4 0
BBX 4 4 0 0
BITMAP
D0
D0
D0
F0
ENDCHAR
STARTCHAR 0270
ENCODING 624
SWIDTH 500 0
DWIDTH 4 0
BBX 4 5 0 -1
BITMAP
D0
D0
D0
F0
10
ENDCHAR
STARTCHAR 0271
ENCODING 625
SWIDTH 500 0
DWIDTH 4 0
BBX 4 5 0 -1
BITMAP
F0
D0
D0
D0
30
ENDCHAR
STARTCHAR 0272
ENCODING 626
SWIDTH 500 0
DWIDTH 4 0
BBX 4 5 0 -1
BITMAP
60
50
50
50
80
ENDCHAR
STARTCHAR 0273
ENCODING 627
SWIDTH 500 0
DWIDTH 4 0
BBX 4 5 0 -1
BITMAP
E0
A0
A0
A0
10
ENDCHAR
STARTCHAR 0275
ENCODING 629
SWIDTH 500 0
DWIDTH 4 0
BBX 3 4 0 0
BITMAP
60
60
A0
60
ENDCHAR
STARTCHAR 0279
ENCODING 633
SWIDTH 500 0
DWIDTH 4 0
BBX 2 4 1 0
BITMAP
40
40
40
C0
ENDCHAR
STARTCHAR 027A
ENCODING 634
SWIDTH 500 0
DWIDTH 4 0
BBX 2 6 1 0
BITMAP
40
40
40
40
40
C0
ENDCHAR
STARTCHAR 027B
ENCODING 635
SWIDTH 500 0
DWIDTH 4 0
BBX 3 5 1 -1
BITMAP
40
40
40
C0
60
ENDCHAR
STARTCHAR 027D
ENCODING 637
SWIDTH 500 0
DWIDTH 4 0
BBX 2 5 1 -1
BITMAP
C0
80
80
80
C0
ENDCHAR
STARTCHAR 027E
ENCODING 638
SWIDTH 500 0
DWIDTH 4 0
BBX 2 4 1 0
BITMAP
C0
80
80
80
ENDCHAR
STARTCHAR 0281
ENCODING 641
SWIDTH 500 0
DWIDTH 4 0
BBX 2 4 1 0
BITMAP
C0
C0
C0
C0
ENDCHAR
STARTCHAR 0282
ENCODING 642
SWIDTH 500 0
DWIDTH 4 0
BBX 2 5 1 -1
BITMAP
C0
80
C0
C0
80
ENDCHAR
STARTCHAR 0283
ENCODING 643
SWIDTH 500 0
DWIDTH 4 0
BBX 2 7 1 -1
BITMAP
40
80
80
80
80
80
80
ENDCHAR
STARTCHAR 0284
ENCODING 644
SWIDTH 500 0
DWIDTH 4 0
BBX 2 7 1 -1
BITMAP
40
80
80
80
C0
80
80
ENDCHAR
STARTCHAR 0288
ENCODING 648
SWIDTH 500 0
DWIDTH 4 0
BBX 2 6 1 -1
BITMAP
80
C0
80
80
80
40
ENDCHAR
STARTCHAR 0289
ENCODING 649
SWIDTH 500 0
DWIDTH 4 0
BBX 4 4 0 0
BITMAP
A0
F0
A0
60
ENDCHAR
STARTCHAR 028A
ENCODING 650
SWIDTH 500 0
DWIDTH 4 0
BBX 4 4 0 0
BITMAP
F0
A0
90
60
ENDCHAR
STARTCHAR 028B
ENCODING 651
SWIDTH 500 0
DWIDTH 4 0
BBX 3 4 1 0
BITMAP
C0
A0
C0
C0
ENDCHAR
STARTCHAR 028C
ENCODING 652
SWIDTH 500 0
DWIDTH 4 0
BBX 3 4 0 0
BITMAP
40
60
60
A0
ENDCHAR
STARTCHAR 028D
ENCODING 653
SWIDTH 500 0
DWIDTH 4 0
BBX 4 4 0 0
BITMAP
60
60
F0
D0
ENDCHAR
STARTCHAR 028E
ENCODING 654
SWIDTH 500 0
DWIDTH 4 0
BBX 3 6 0 0
BITMAP
20
20
40
60
60
A0
ENDCHAR
STARTCHAR 0290
ENCODING 656
SWIDTH 500 0
DWIDTH 4 0
BBX 3 5 1 -1
BITMAP
C0
40
80
C0
20
ENDCHAR
STARTCHAR 0291
ENCODING 657
SWIDTH 500 0
DWIDTH 4 0
BBX 3 5 1 -1
BITMAP
C0
40
E0
E0
80
ENDCHAR
STARTCHAR 0292
ENCODING 658
SWIDTH 500 0
DWIDTH 4 0
BBX 2 4 1 0
BITMAP
C0
80
C0
C0
ENDCHAR
STARTCHAR 0294
ENCODING 660
SWIDTH 500 0
DWIDTH 4 0
BBX 2 6 1 0
BITMAP
C0
40
40
40
80
80
ENDCHAR
STARTCHAR 0295
ENCODING 661
SWIDTH 500 0
DWIDTH 4 0
BBX 2 6 1 0
BITMAP
C0
80
80
80
40
40
ENDCHAR
STARTCHAR 0298
ENCODING 664
SWIDTH 500 0
DWIDTH 4 0
BBX 4 4 0 0
BITMAP
60
D0
D0
60
ENDCHAR
STARTCHAR 029D
ENCODING 669
SWIDTH 500 0
DWIDTH 4 0
BBX 3 7 0 -1
BITMAP
20
00
20
20
20
E0
C0
ENDCHAR
STARTCHAR 02A1
ENCODING 673
SWIDTH 500 0
DWIDTH 4 0
BBX 2 6 1 0
BITMAP
C0
40
40
C0
C0
80
ENDCHAR
STARTCHAR 02A2
ENCODING 674
SWIDTH 500 0
DWIDTH 4 0
BBX 2 6 1 0
BITMAP
C0
80
80
C0
C0
40
ENDCHAR
STARTCHAR 02C7
ENCODING 711
SWIDTH 500 0
DWIDTH 4 0
BBX 2 1 1 5
BITMAP
C0
ENDCHAR
STARTCHAR 02C8
ENCODING 712
SWIDTH 500 0
DWIDTH 4 0
BBX 0 0 1 6
BITMAP
ENDCHAR
STARTCHAR 02CC
ENCODING 716
SWIDTH 500 0
DWIDTH 4 0
BBX 0 0 1 -1
BITMAP
ENDCHAR
STARTCHAR 02D0
ENCODING 720
SWIDTH 500 0
DWIDTH 4 0
BBX 1 4 1 0
BITMAP
80
00
00
80
ENDCHAR
STARTCHAR 02D1
ENCODING 721
SWIDTH 500 0
DWIDTH 4 0
BBX 1 1 1 3
BITMAP
80
ENDCHAR
STARTCHAR 02D8
ENCODING 728
SWIDTH 500 0
DWIDTH 4 0
BBX 2 1 1 5
BITMAP
C0
ENDCHAR
STARTCHAR 02D9
ENCODING 729
SWIDTH 500 0
DWIDTH 4 0
BBX 1 1 1 5
BITMAP
80
ENDCHAR
STARTCHAR 02DB
ENCODING 731
SWIDTH 500 0
DWIDTH 4 0
BBX 2 2 1 -1
BITMAP
80
C0
ENDCHAR
STARTCHAR 02DC
ENCODING 732
SWIDTH 500 0
DWIDTH 4 0
BBX 2 1 1 5
BITMAP
C0
ENDCHAR
STARTCHAR 02DD
ENCODING 733
SWIDTH 500 0
DWIDTH 4 0
BBX 2 1 1 5
BITMAP
C0
ENDCHAR
STARTCHAR 02DE
ENCODING 734
SWIDTH 500 0
DWIDTH 4 0
BBX 2 2 1 2
BITMAP
80
40
ENDCHAR
STARTCHAR 02E5
ENCODING 741
SWIDTH 500 0
DWIDTH 4 0
BBX 2 8 1 -1
BITMAP
C0
40
40
40
40
40
40
40
ENDCHAR
STARTCHAR 02E6
ENCODING 742
SWIDTH 500 0
DWIDTH 4 0
BBX 2 8 1 -1
BITMAP
40
40
C0
40
40
40
40
40
ENDCHAR
STARTCHAR 02E7
ENCODING 743
SWIDTH 500 0
DWIDTH 4 0
BBX 2 8 1 -1
BITMAP
40
40
40
40
C0
40
40
40
ENDCHAR
STARTCHAR 02E8
ENCODING 744
SWIDTH 500 0
DWIDTH 4 0
BBX 2 8 1 -1
BITMAP
40
40
40
40
40
C0
40
40
ENDCHAR
STARTCHAR 02E9
ENCODING 745
SWIDTH 500 0
DWIDTH 4 0
BBX 2 8 1 -1
BITMAP
40
40
40
40
40
40
40
C0
ENDCHAR
STARTCHAR 0300
ENCODING 768
SWIDTH 500 0
DWIDTH 4 0
BBX 1 1 1 6
BITMAP
80
ENDCHAR
STARTCHAR 0301
ENCODING 769
SWIDTH 500 0
DWIDTH 4 0
BBX 1 1 1 6
BITMAP
80
ENDCHAR
STARTCHAR 0302
ENCODING 770
SWIDTH 500 0
DWIDTH 4 0
BBX 2 1 1 6
BITMAP
C0
ENDCHAR
STARTCHAR 0303
ENCODING 771
SWIDTH 500 0
DWIDTH 4 0
BBX 2 1 1 6
BITMAP
C0
ENDCHAR
STARTCHAR 0304
ENCODING 772
SWIDTH 500 0
DWIDTH 4 0
BBX 2 1 1 6
BITMAP
C0
ENDCHAR
STARTCHAR 0306
ENCODING 774
SWIDTH 500 0
DWIDTH 4 0
BBX 2 1 1 6
BITMAP
C0
ENDCHAR
STARTCHAR 0308
ENCODING 776
SWIDTH 500 0
DWIDTH 4 0
BBX 2 1 1 6
BITMAP
C0
ENDCHAR
STARTCHAR 030B
ENCODING 779
SWIDTH 500 0
DWIDTH 4 0
BBX 2 1 1 6
BITMAP
C0
ENDCHAR
STARTCHAR 030C
ENCODING 780
SWIDTH 500 0
DWIDTH 4 0
BBX 2 1 1 6
BITMAP
C0
ENDCHAR
STARTCHAR 030F
ENCODING 783
SWIDTH 500 0
DWIDTH 4 0
BBX 2 1 1 6
BITMAP
C0
ENDCHAR
STARTCHAR 0318
ENCODING 792
SWIDTH 500 0
DWIDTH 4 0
BBX 1 1 1 -1
BITMAP
80
ENDCHAR
STARTCHAR 0319
ENCODING 793
SWIDTH 500 0
DWIDTH 4 0
BBX 1 1 2 -1
BITMAP
80
ENDCHAR
STARTCHAR 031A
ENCODING 794
SWIDTH 500 0
DWIDTH 4 0
BBX 2 1 2 6
BITMAP
C0
ENDCHAR
STARTCHAR 031C
ENCODING 796
SWIDTH 500 0
DWIDTH 4 0
BBX 0 0 1 -1
BITMAP
ENDCHAR
STARTCHAR 031D
ENCODING 797
SWIDTH 500 0
DWIDTH 4 0
BBX 2 1 1 -1
BITMAP
C0
ENDCHAR
STARTCHAR 031E
ENCODING 798
SWIDTH 500 0
DWIDTH 4 0
BBX 2 1 1 -1
BITMAP
C0
ENDCHAR
STARTCHAR 031F
ENCODING 799
SWIDTH 500 0
DWIDTH 4 0
BBX 2 1 1 -1
BITMAP
C0
ENDCHAR
STARTCHAR 0320
ENCODING 800
SWIDTH 500 0
DWIDTH 4 0
BBX 2 1 1 -1
BITMAP
C0
ENDCHAR
STARTCHAR 0324
ENCODING 804
SWIDTH 500 0
DWIDTH 4 0
BBX 2 1 1 -1
BITMAP
C0
ENDCHAR
STARTCHAR 0325
ENCODING 805
SWIDTH 500 0
DWIDTH 4 0
BBX 2 1 1 -1
BITMAP
C0
ENDCHAR
STARTCHAR 0329
ENCODING 809
SWIDTH 500 0
DWIDTH 4 0
BBX 0 0 1 -1
BITMAP
ENDCHAR
STARTCHAR 032A
ENCODING 810
SWIDTH 500 0
DWIDTH 4 0
BBX 2 1 1 -1
BITMAP
C0
ENDCHAR
STARTCHAR 032C
ENCODING 812
SWIDTH 500 0
DWIDTH 4 0
BBX 2 1 1 -1
BITMAP
C0
ENDCHAR
STARTCHAR 032F
ENCODING 815
SWIDTH 500 0
DWIDTH 4 0
BBX 2 1 1 -1
BITMAP
C0
ENDCHAR
STARTCHAR 0330
ENCODING 816
SWIDTH 500 0
DWIDTH 4 0
BBX 2 1 1 -1
BITMAP
C0
ENDCHAR
STARTCHAR 0334
ENCODING 820
SWIDTH 500 0
DWIDTH 4 0
BBX 2 2 1 2
BITMAP
40
80
ENDCHAR
STARTCHAR 0339
ENCODING 825
SWIDTH 500 0
DWIDTH 4 0
BBX 0 0 2 -1
BITMAP
ENDCHAR
STARTCHAR 033A
ENCODING 826
SWIDTH 500 0
DWIDTH 4 0
BBX 2 1 1 -1
BITMAP
C0
ENDCHAR
STARTCHAR 033B
ENCODING 827
SWIDTH 500 0
DWIDTH 4 0
BBX 2 1 1 -1
BITMAP
C0
ENDCHAR
STARTCHAR 033C
ENCODING 828
SWIDTH 500 0
DWIDTH 4 0
BBX 2 1 1 -1
BITMAP
C0
ENDCHAR
STARTCHAR 033D
ENCODING 829
SWIDTH 500 0
DWIDTH 4 0
BBX 1 1 1 6
BITMAP
80
ENDCHAR
STARTCHAR 0361
ENCODING 865
SWIDTH 500 0
DWIDTH 4 0
BBX 4 1 0 6
BITMAP
F0
ENDCHAR
STARTCHAR 0391
ENCODING 913
SWIDTH 1000 0
DWIDTH 8 0
BBX 5 6 1 0
BITMAP
30
30
50
78
48
88
ENDCHAR
STARTCHAR 0392
ENCODING 914
SWIDTH 1000 0
DWIDTH 8 0
BBX 4 6 2 0
BITMAP
F0
90
E0
90
90
F0
ENDCHAR
STARTCHAR 0393
ENCODING 915
SWIDTH 1000 0
DWIDTH 8 0
BBX 4 6 2 0
BITMAP
F0
80
80
80
80
80
ENDCHAR
STARTCHAR 0394
ENCODING 916
SWIDTH 1000 0
DWIDTH 8 0
BBX 6 6 1 0
BITMAP
30
30
50
48
88
FC
ENDCHAR
STARTCHAR 0395
ENCODING 917
SWIDTH 1000 0
DWIDTH 8 0
BBX 4 6 2 0
BITMAP
F0
80
F0
80
80
F0
ENDCHAR
STARTCHAR 0396
ENCODING 918
SWIDTH 1000 0
DWIDTH 8 0
BBX 4 6 2 0
BITMAP
F0
10
20
40
80
F0
ENDCHAR
STARTCHAR 0397
ENCODING 919
SWIDTH 1000 0
DWIDTH 8 0
BBX 4 6 2 0
BITMAP
90
90
F0
90
90
90
ENDCHAR
STARTCHAR 0398
ENCODING 920
SWIDTH 1000 0
DWIDTH 8 0
BBX 6 6 1 0
BITMAP
30
48
B4
84
48
30
ENDCHAR
STARTCHAR 0399
ENCODING 921
SWIDTH 1000 0
DWIDTH 8 0
BBX 1 6 3 0
BITMAP
80
80
80
80
80
80
ENDCHAR
STARTCHAR 039A
ENCODING 922
SWIDTH 1000 0
DWIDTH 8 0
BBX 4 6 2 0
BITMAP
90
A0
C0
A0
90
90
ENDCHAR
STARTCHAR 039B
ENCODING 923
SWIDTH 1000 0
DWIDTH 8 0
BBX 5 6 1 0
BITMAP
30
30
50
48
48
88
ENDCHAR
STARTCHAR 039C
ENCODING 924
SWIDTH 1000 0
DWIDTH 8 0
BBX 6 6 1 0
BITMAP
84
CC
CC
D4
B4
B4
ENDCHAR
STARTCHAR 039D
ENCODING 925
SWIDTH 1000 0
DWIDTH 8 0
BBX 4 6 2 0
BITMAP
90
D0
D0
B0
B0
90
ENDCHAR
STARTCHAR 039E
ENCODING 926
SWIDTH 1000 0
DWIDTH 8 0
BBX 4 6 2 0
BITMAP
F0
00
F0
00
00
F0
ENDCHAR
STARTCHAR 039F
ENCODING 927
SWIDTH 1000 0
DWIDTH 8 0
BBX 6 6 1 0
BITMAP
30
48
84
84
48
30
ENDCHAR
STARTCHAR 03A0
ENCODING 928
SWIDTH 1000 0
DWIDTH 8 0
BBX 4 6 2 0
BITMAP
F0
90
90
90
90
90
ENDCHAR
STARTCHAR 03A1
ENCODING 929
SWIDTH 1000 0
DWIDTH 8 0
BBX 4 6 2 0
BITMAP
F0
90
90
F0
80
80
ENDCHAR
STARTCHAR 03A3
ENCODING 931
SWIDTH 1000 0
DWIDTH 8 0
BBX 4 6 2 0
BITMAP
F0
80
40
40
80
F0
ENDCHAR
STARTCHAR 03A4
ENCODING 932
SWIDTH 1000 0
DWIDTH 8 0
BBX 4 6 2 0
BITMAP
F0
40
40
40
40
40
ENDCHAR
STARTCHAR 03A5
ENCODING 933
SWIDTH 1000 0
DWIDTH 8 0
BBX 4 6 2 0
BITMAP
90
90
60
40
40
40
ENDCHAR
STARTCHAR 03A6
ENCODING 934
SWIDTH 1000 0
DWIDTH 8 0
BBX 6 6 1 0
BITMAP
20
78
A4
A4
68
30
ENDCHAR
STARTCHAR 03A7
ENCODING 935
SWIDTH 1000 0
DWIDTH 8 0
BBX 4 6 2 0
BITMAP
90
A0
60
60
90
90
ENDCHAR
STARTCHAR 03A8
ENCODING 936
SWIDTH 1000 0
DWIDTH 8 0
BBX 4 6 2 0
BITMAP
D0
D0
D0
D0
60
40
ENDCHAR
STARTCHAR 03A9
ENCODING 937
SWIDTH 1000 0
DWIDTH 8 0
BBX 6 6 1 0
BITMAP
78
48
84
88
70
FC
ENDCHAR
STARTCHAR 03B1
ENCODING 945
SWIDTH 1000 0
DWIDTH 8 0
BBX 4 4 2 0
BITMAP
F0
A0
B0
D0
ENDCHAR
STARTCHAR 03B2
ENCODING 946
SWIDTH 1000 0
DWIDTH 8 0
BBX 4 7 2 -1
BITMAP
30
50
90
A0
90
E0
80
ENDCHAR
STARTCHAR 03B3
ENCODING 947
SWIDTH 1000 0
DWIDTH 8 0
BBX 4 5 2 -1
BITMAP
C0
50
20
40
40
ENDCHAR
STARTCHAR 03B4
ENCODING 948
SWIDTH 1000 0
DWIDTH 8 0
BBX 4 6 2 0
BITMAP
60
50
60
90
A0
E0
ENDCHAR
STARTCHAR 03B5
ENCODING 949
SWIDTH 1000 0
DWIDTH 8 0
BBX 4 4 2 0
BITMAP
70
60
80
E0
ENDCHAR
STARTCHAR 03B6
ENCODING 950
SWIDTH 1000 0
DWIDTH 8 0
BBX 4 7 2 -1
BITMAP
50
60
40
80
80
60
60
ENDCHAR
STARTCHAR 03B7
ENCODING 951
SWIDTH 1000 0
DWIDTH 8 0
BBX 4 5 2 -1
BITMAP
F0
50
90
A0
20
ENDCHAR
STARTCHAR 03B8
ENCODING 952
SWIDTH 1000 0
DWIDTH 8 0
BBX 4 6 2 0
BITMAP
70
90
F0
90
A0
E0
ENDCHAR
STARTCHAR 03B9
ENCODING 953
SWIDTH 1000 0
DWIDTH 8 0
BBX 2 4 3 0
BITMAP
80
80
80
C0
ENDCHAR
STARTCHAR 03BA
ENCODING 954
SWIDTH 1000 0
DWIDTH 8 0
BBX 4 4 2 0
BITMAP
50
60
C0
B0
ENDCHAR
STARTCHAR 03BB
ENCODING 955
SWIDTH 1000 0
DWIDTH 8 0
BBX 4 6 2 0
BITMAP
60
20
20
60
A0
90
ENDCHAR
STARTCHAR 03BC
ENCODING 956
SWIDTH 1000 0
DWIDTH 8 0
BBX 5 5 2 -1
BITMAP
90
A0
A8
D0
80
ENDCHAR
STARTCHAR 03BD
ENCODING 957
SWIDTH 1000 0
DWIDTH 8 0
BBX 4 4 2 0
BITMAP
90
90
A0
C0
ENDCHAR
STARTCHAR 03BE
ENCODING 958
SWIDTH 1000 0
DWIDTH 8 0
BBX 4 7 2 -1
BITMAP
70
80
70
80
80
60
60
ENDCHAR
STARTCHAR 03BF
ENCODING 959
SWIDTH 1000 0
DWIDTH 8 0
BBX 4 4 2 0
BITMAP
70
90
90
60
ENDCHAR
STARTCHAR 03C0
ENCODING 960
SWIDTH 1000 0
DWIDTH 8 0
BBX 4 4 2 0
BITMAP
F0
60
A0
B0
ENDCHAR
STARTCHAR 03C1
ENCODING 961
SWIDTH 1000 0
DWIDTH 8 0
BBX 4 5 2 -1
BITMAP
60
90
90
E0
80
ENDCHAR
STARTCHAR 03C2
ENCODING 962
SWIDTH 500 0
DWIDTH 4 0
BBX 3 5 0 -1
BITMAP
60
80
40
20
60
ENDCHAR
STARTCHAR 03C3
ENCODING 963
SWIDTH 1000 0
DWIDTH 8 0
BBX 4 4 2 0
BITMAP
70
90
90
60
ENDCHAR
STARTCHAR 03C4
ENCODING 964
SWIDTH 1000 0
DWIDTH 8 0
BBX 4 4 2 0
BITMAP
F0
40
40
60
ENDCHAR
STARTCHAR 03C5
ENCODING 965
SWIDTH 1000 0
DWIDTH 8 0
BBX 4 4 2 0
BITMAP
D0
90
90
E0
ENDCHAR
STARTCHAR 03C6
ENCODING 966
SWIDTH 1000 0
DWIDTH 8 0
BBX 4 7 2 -1
BITMAP
20
20
D0
D0
D0
60
40
ENDCHAR
STARTCHAR 03C7
ENCODING 967
SWIDTH 1000 0
DWIDTH 8 0
BBX 4 5 2 -1
BITMAP
D0
20
40
40
B0
ENDCHAR
STARTCHAR 03C8
ENCODING 968
SWIDTH 1000 0
DWIDTH 8 0
BBX 4 7 2 -1
BITMAP
20
20
D0
D0
D0
60
40
ENDCHAR
STARTCHAR 03C9
ENCODING 969
SWIDTH 1000 0
DWIDTH 8 0
BBX 6 4 1 0
BITMAP
48
A4
A8
58
ENDCHAR
STARTCHAR 0401
ENCODING 1025
SWIDTH 1000 0
DWIDTH 8 0
BBX 4 7 2 0
BITMAP
A0
F0
80
F0
80
80
F0
ENDCHAR
STARTCHAR 0410
ENCODING 1040
SWIDTH 1000 0
DWIDTH 8 0
BBX 5 6 1 0
BITMAP
30
30
50
78
48
88
ENDCHAR
STARTCHAR 0411
ENCODING 1041
SWIDTH 1000 0
DWIDTH 8 0
BBX 4 6 2 0
BITMAP
F0
80
F0
90
90
F0
ENDCHAR
STARTCHAR 0412
ENCODING 1042
SWIDTH 1000 0
DWIDTH 8 0
BBX 4 6 2 0
BITMAP
F0
90
E0
90
90
F0
ENDCHAR
STARTCHAR 0413
ENCODING 1043
SWIDTH 1000 0
DWIDTH 8 0
BBX 4 6 2 0
BITMAP
F0
80
80
80
80
80
ENDCHAR
STARTCHAR 0414
ENCODING 1044
SWIDTH 1000 0
DWIDTH 8 0
BBX 6 6 1 0
BITMAP
38
48
48
48
48
FC
ENDCHAR
STARTCHAR 0415
ENCODING 1045
SWIDTH 1000 0
DWIDTH 8 0
BBX 4 6 2 0
BITMAP
F0
80
F0
80
80
F0
ENDCHAR
STARTCHAR 0416
ENCODING 1046
SWIDTH 1000 0
DWIDTH 8 0
BBX 6 6 1 0
BITMAP
A4
A8
78
68
A8
A4
ENDCHAR
STARTCHAR 0417
ENCODING 1047
SWIDTH 1000 0
DWIDTH 8 0
BBX 4 6 2 0
BITMAP
F0
10
60
10
90
F0
ENDCHAR
STARTCHAR 0418
ENCODING 1048
SWIDTH 1000 0
DWIDTH 8 0
BBX 4 6 2 0
BITMAP
90
90
B0
D0
90
90
ENDCHAR
STARTCHAR 0419
ENCODING 1049
SWIDTH 1000 0
DWIDTH 8 0
BBX 4 7 2 0
BITMAP
60
90
90
B0
D0
90
90
ENDCHAR
STARTCHAR 041A
ENCODING 1050
SWIDTH 1000 0
DWIDTH 8 0
BBX 4 6 2 0
BITMAP
90
90
E0
A0
90
90
ENDCHAR
STARTCHAR 041B
ENCODING 1051
SWIDTH 1000 0
DWIDTH 8 0
BBX 5 6 1 0
BITMAP
38
28
28
28
48
C8
ENDCHAR
STARTCHAR 041C
ENCODING 1052
SWIDTH 1000 0
DWIDTH 8 0
BBX 6 6 1 0
BITMAP
84
CC
CC
D4
B4
B4
ENDCHAR
STARTCHAR 041D
ENCODING 1053
SWIDTH 1000 0
DWIDTH 8 0
BBX 4 6 2 0
BITMAP
90
90
F0
90
90
90
ENDCHAR
STARTCHAR 041E
ENCODING 1054
SWIDTH 1000 0
DWIDTH 8 0
BBX 6 6 1 0
BITMAP
30
48
84
84
48
30
ENDCHAR
STARTCHAR 041F
ENCODING 1055
SWIDTH 1000 0
DWIDTH 8 0
BBX 4 6 2 0
BITMAP
F0
90
90
90
90
90
ENDCHAR
STARTCHAR 0420
ENCODING 1056
SWIDTH 1000 0
DWIDTH 8 0
BBX 4 6 2 0
BITMAP
F0
90
90
F0
80
80
ENDCHAR
STARTCHAR 0421
ENCODING 1057
SWIDTH 1000 0
DWIDTH 8 0
BBX 5 6 1 0
BITMAP
70
48
80
80
48
78
ENDCHAR
STARTCHAR 0422
ENCODING 1058
SWIDTH 1000 0
DWIDTH 8 0
BBX 4 6 2 0
BITMAP
F0
40
40
40
40
40
ENDCHAR
STARTCHAR 0423
ENCODING 1059
SWIDTH 1000 0
DWIDTH 8 0
BBX 4 6 2 0
BITMAP
90
90
50
20
20
C0
ENDCHAR
STARTCHAR 0424
ENCODING 1060
SWIDTH 1000 0
DWIDTH 8 0
BBX 6 6 1 0
BITMAP
20
78
A4
A4
78
20
ENDCHAR
STARTCHAR 0425
ENCODING 1061
SWIDTH 1000 0
DWIDTH 8 0
BBX 4 6 2 0
BITMAP
90
A0
60
60
90
90
ENDCHAR
STARTCHAR 0426
ENCODING 1062
SWIDTH 1000 0
DWIDTH 8 0
BBX 5 6 2 0
BITMAP
90
90
90
90
90
F8
ENDCHAR
STARTCHAR 0427
ENCODING 1063
SWIDTH 1000 0
DWIDTH 8 0
BBX 4 6 2 0
BITMAP
90
90
90
F0
10
10
ENDCHAR
STARTCHAR 0428
ENCODING 1064
SWIDTH 1000 0
DWIDTH 8 0
BBX 6 6 1 0
BITMAP
A4
A4
A4
A4
A4
FC
ENDCHAR
STARTCHAR 0429
ENCODING 1065
SWIDTH 1000 0
DWIDTH 8 0
BBX 6 6 1 0
BITMAP
A4
A4
A4
A4
A4
FC
ENDCHAR
STARTCHAR 042A
ENCODING 1066
SWIDTH 1000 0
DWIDTH 8 0
BBX 6 6 1 0
BITMAP
C0
40
78
44
44
78
ENDCHAR
STARTCHAR 042B
ENCODING 1067
SWIDTH 1000 0
DWIDTH 8 0
BBX 6 6 1 0
BITMAP
84
84
F4
94
94
F4
ENDCHAR
STARTCHAR 042C
ENCODING 1068
SWIDTH 1000 0
DWIDTH 8 0
BBX 4 6 2 0
BITMAP
80
80
F0
90
90
F0
ENDCHAR
STARTCHAR 042D
ENCODING 1069
SWIDTH 1000 0
DWIDTH 8 0
BBX 5 6 2 0
BITMAP
70
90
E8
08
90
F0
ENDCHAR
STARTCHAR 042E
ENCODING 1070
SWIDTH 1000 0
DWIDTH 8 0
BBX 6 6 1 0
BITMAP
B8
A4
C4
C4
A4
98
ENDCHAR
STARTCHAR 042F
ENCODING 1071
SWIDTH 1000 0
DWIDTH 8 0
BBX 4 6 2 0
BITMAP
F0
90
F0
50
90
90
ENDCHAR
STARTCHAR 0430
ENCODING 1072
SWIDTH 1000 0
DWIDTH 8 0
BBX 4 4 2 0
BITMAP
E0
70
90
F0
ENDCHAR
STARTCHAR 0431
ENCODING 1073
SWIDTH 1000 0
DWIDTH 8 0
BBX 4 6 2 0
BITMAP
20
C0
E0
90
90
60
ENDCHAR
STARTCHAR 0432
ENCODING 1074
SWIDTH 1000 0
DWIDTH 8 0
BBX 4 4 2 0
BITMAP
E0
E0
90
E0
ENDCHAR
STARTCHAR 0433
ENCODING 1075
SWIDTH 1000 0
DWIDTH 8 0
BBX 3 4 3 0
BITMAP
E0
80
80
80
ENDCHAR
STARTCHAR 0434
ENCODING 1076
SWIDTH 1000 0
DWIDTH 8 0
BBX 4 4 2 0
BITMAP
70
50
90
F0
ENDCHAR
STARTCHAR 0435
ENCODING 1077
SWIDTH 1000 0
DWIDTH 8 0
BBX 4 4 2 0
BITMAP
60
F0
90
60
ENDCHAR
STARTCHAR 0436
ENCODING 1078
SWIDTH 1000 0
DWIDTH 8 0
BBX 5 4 1 0
BITMAP
A8
68
78
A8
ENDCHAR
STARTCHAR 0437
ENCODING 1079
SWIDTH 1000 0
DWIDTH 8 0
BBX 4 4 2 0
BITMAP
60
60
10
E0
ENDCHAR
STARTCHAR 0438
ENCODING 1080
SWIDTH 1000 0
DWIDTH 8 0
BBX 4 4 2 0
BITMAP
90
B0
D0
90
ENDCHAR
STARTCHAR 0439
ENCODING 1081
SWIDTH 1000 0
DWIDTH 8 0
BBX 4 6 2 0
BITMAP
A0
60
90
B0
D0
90
ENDCHAR
STARTCHAR 043A
ENCODING 1082
SWIDTH 1000 0
DWIDTH 8 0
BBX 4 4 2 0
BITMAP
A0
A0
E0
90
ENDCHAR
STARTCHAR 043B
ENCODING 1083
SWIDTH 1000 0
DWIDTH 8 0
BBX 5 4 1 0
BITMAP
38
28
A8
48
ENDCHAR
STARTCHAR 043C
ENCODING 1084
SWIDTH 1000 0
DWIDTH 8 0
BBX 4 4 2 0
BITMAP
90
F0
F0
D0
ENDCHAR
STARTCHAR 043D
ENCODING 1085
SWIDTH 1000 0
DWIDTH 8 0
BBX 4 4 2 0
BITMAP
90
F0
90
90
ENDCHAR
STARTCHAR 043E
ENCODING 1086
SWIDTH 1000 0
DWIDTH 8 0
BBX 4 4 2 0
BITMAP
F0
90
90
60
ENDCHAR
STARTCHAR 043F
ENCODING 1087
SWIDTH 1000 0
DWIDTH 8 0
BBX 4 4 2 0
BITMAP
F0
90
90
90
ENDCHAR
STARTCHAR 0440
ENCODING 1088
SWIDTH 1000 0
DWIDTH 8 0
BBX 4 5 2 -1
BITMAP
F0
90
90
F0
80
ENDCHAR
STARTCHAR 0441
ENCODING 1089
SWIDTH 1000 0
DWIDTH 8 0
BBX 4 4 2 0
BITMAP
F0
80
90
60
ENDCHAR
STARTCHAR 0442
ENCODING 1090
SWIDTH 1000 0
DWIDTH 8 0
BBX 4 4 2 0
BITMAP
F0
40
40
40
ENDCHAR
STARTCHAR 0443
ENCODING 1091
SWIDTH 1000 0
DWIDTH 8 0
BBX 4 5 2 -1
BITMAP
90
60
60
20
C0
ENDCHAR
STARTCHAR 0444
ENCODING 1092
SWIDTH 1000 0
DWIDTH 8 0
BBX 6 7 1 -1
BITMAP
20
20
78
A4
A4
78
20
ENDCHAR
STARTCHAR 0445
ENCODING 1093
SWIDTH 1000 0
DWIDTH 8 0
BBX 4 4 2 0
BITMAP
90
60
60
90
ENDCHAR
STARTCHAR 0446
ENCODING 1094
SWIDTH 1000 0
DWIDTH 8 0
BBX 4 4 2 0
BITMAP
90
90
90
F0
ENDCHAR
STARTCHAR 0447
ENCODING 1095
SWIDTH 1000 0
DWIDTH 8 0
BBX 4 4 2 0
BITMAP
90
90
F0
10
ENDCHAR
STARTCHAR 0448
ENCODING 1096
SWIDTH 1000 0
DWIDTH 8 0
BBX 5 4 2 0
BITMAP
48
48
48
F8
ENDCHAR
STARTCHAR 0449
ENCODING 1097
SWIDTH 1000 0
DWIDTH 8 0
BBX 5 4 2 0
BITMAP
50
50
50
F8
ENDCHAR
STARTCHAR 044A
ENCODING 1098
SWIDTH 1000 0
DWIDTH 8 0
BBX 4 4 2 0
BITMAP
80
70
90
70
ENDCHAR
STARTCHAR 044B
ENCODING 1099
SWIDTH 1000 0
DWIDTH 8 0
BBX 4 4 2 0
BITMAP
90
F0
B0
F0
ENDCHAR
STARTCHAR 044C
ENCODING 1100
SWIDTH 1000 0
DWIDTH 8 0
BBX 4 4 2 0
BITMAP
80
F0
90
E0
ENDCHAR
STARTCHAR 044D
ENCODING 1101
SWIDTH 1000 0
DWIDTH 8 0
BBX 4 4 2 0
BITMAP
F0
70
90
60
ENDCHAR
STARTCHAR 044E
ENCODING 1102
SWIDTH 1000 0
DWIDTH 8 0
BBX 6 5 1 0
BITMAP
18
BC
E4
A4
98
ENDCHAR
STARTCHAR 044F
ENCODING 1103
SWIDTH 1000 0
DWIDTH 8 0
BBX 4 4 2 0
BITMAP
70
70
50
90
ENDCHAR
STARTCHAR 0451
ENCODING 1105
SWIDTH 1000 0
DWIDTH 8 0
BBX 4 5 2 0
BITMAP
A0
60
F0
90
60
ENDCHAR
STARTCHAR 1E3E
ENCODING 7742
SWIDTH 500 0
DWIDTH 4 0
BBX 4 7 0 0
BITMAP
40
90
90
F0
F0
F0
D0
ENDCHAR
STARTCHAR 1E3F
ENCODING 7743
SWIDTH 500 0
DWIDTH 4 0
BBX 4 4 0 1
BITMAP
F0
D0
D0
D0
ENDCHAR
STARTCHAR 1F70
ENCODING 8048
SWIDTH 500 0
DWIDTH 4 0
BBX 4 4 0 1
BITMAP
60
A0
A0
70
ENDCHAR
STARTCHAR 1F71
ENCODING 8049
SWIDTH 500 0
DWIDTH 4 0
BBX 4 4 0 1
BITMAP
60
A0
A0
70
ENDCHAR
STARTCHAR 1F72
ENCODING 8050
SWIDTH 500 0
DWIDTH 4 0
BBX 3 4 0 1
BITMAP
60
40
80
60
ENDCHAR
STARTCHAR 1F73
ENCODING 8051
SWIDTH 500 0
DWIDTH 4 0
BBX 3 4 0 1
BITMAP
60
40
80
60
ENDCHAR
STARTCHAR 2010
ENCODING 8208
SWIDTH 1000 0
DWIDTH 8 0
BBX 2 1 3 2
BITMAP
C0
ENDCHAR
STARTCHAR 2013
ENCODING 8211
SWIDTH 500 0
DWIDTH 4 0
BBX 2 1 1 2
BITMAP
C0
ENDCHAR
STARTCHAR 2014
ENCODING 8212
SWIDTH 1000 0
DWIDTH 8 0
BBX 6 1 1 2
BITMAP
FC
ENDCHAR
STARTCHAR 2015
ENCODING 8213
SWIDTH 1000 0
DWIDTH 8 0
BBX 6 1 1 2
BITMAP
FC
ENDCHAR
STARTCHAR 2016
ENCODING 8214
SWIDTH 1000 0
DWIDTH 8 0
BBX 2 8 3 -1
BITMAP
C0
C0
C0
C0
C0
C0
C0
C0
ENDCHAR
STARTCHAR 2018
ENCODING 8216
SWIDTH 1000 0
DWIDTH 8 0
BBX 1 1 6 6
BITMAP
80
ENDCHAR
STARTCHAR 2019
ENCODING 8217
SWIDTH 1000 0
DWIDTH 8 0
BBX 1 1 1 5
BITMAP
80
ENDCHAR
STARTCHAR 201C
ENCODING 8220
SWIDTH 1000 0
DWIDTH 8 0
BBX 2 2 5 5
BITMAP
80
C0
ENDCHAR
STARTCHAR 201D
ENCODING 8221
SWIDTH 1000 0
DWIDTH 8 0
BBX 2 2 1 5
BITMAP
C0
40
ENDCHAR
STARTCHAR 2020
ENCODING 8224
SWIDTH 1000 0
DWIDTH 8 0
BBX 4 6 2 -1
BITMAP
60
F0
40
40
40
40
ENDCHAR
STARTCHAR 2021
ENCODING 8225
SWIDTH 1000 0
DWIDTH 8 0
BBX 4 8 2 -1
BITMAP
40
F0
40
40
40
40
F0
40
ENDCHAR
STARTCHAR 2022
ENCODING 8226
SWIDTH 500 0
DWIDTH 4 0
BBX 2 2 1 2
BITMAP
C0
C0
ENDCHAR
STARTCHAR 2025
ENCODING 8229
SWIDTH 1000 0
DWIDTH 8 0
BBX 4 1 2 3
BITMAP
90
ENDCHAR
STARTCHAR 2026
ENCODING 8230
SWIDTH 1000 0
DWIDTH 8 0
BBX 6 1 1 2
BITMAP
A4
ENDCHAR
STARTCHAR 2030
ENCODING 8240
SWIDTH 1000 0
DWIDTH 8 0
BBX 8 8 0 -1
BITMAP
48
D0
D0
60
3A
5D
5A
80
ENDCHAR
STARTCHAR 2032
ENCODING 8242
SWIDTH 1000 0
DWIDTH 8 0
BBX 1 1 0 5
BITMAP
80
ENDCHAR
STARTCHAR 2033
ENCODING 8243
SWIDTH 1000 0
DWIDTH 8 0
BBX 3 1 0 5
BITMAP
A0
ENDCHAR
STARTCHAR 203B
ENCODING 8251
SWIDTH 1000 0
DWIDTH 8 0
BBX 6 6 1 0
BITMAP
B4
48
30
B4
48
B4
ENDCHAR
STARTCHAR 203C
ENCODING 8252
SWIDTH 500 0
DWIDTH 4 0
BBX 2 6 1 0
BITMAP
C0
C0
C0
C0
00
C0
ENDCHAR
STARTCHAR 203E
ENCODING 8254
SWIDTH 1000 0
DWIDTH 8 0
BBX 0 0 0 7
BITMAP
ENDCHAR
STARTCHAR 203F
ENCODING 8255
SWIDTH 500 0
DWIDTH 4 0
BBX 2 1 1 -1
BITMAP
C0
ENDCHAR
STARTCHAR 2042
ENCODING 8258
SWIDTH 500 0
DWIDTH 4 0
BBX 4 4 0 2
BITMAP
40
00
00
F0
ENDCHAR
STARTCHAR 2047
ENCODING 8263
SWIDTH 500 0
DWIDTH 4 0
BBX 4 7 0 0
BITMAP
F0
F0
50
A0
A0
00
A0
ENDCHAR
STARTCHAR 2048
ENCODING 8264
SWIDTH 500 0
DWIDTH 4 0
BBX 4 6 0 0
BITMAP
D0
50
60
A0
00
50
ENDCHAR
STARTCHAR 2049
ENCODING 8265
SWIDTH 500 0
DWIDTH 4 0
BBX 4 6 0 0
BITMAP
B0
90
A0
A0
00
A0
ENDCHAR
STARTCHAR 2051
ENCODING 8273
SWIDTH 1000 0
DWIDTH 8 0
BBX 2 6 3 0
BITMAP
C0
C0
00
00
C0
C0
ENDCHAR
STARTCHAR 20AC
ENCODING 8364
SWIDTH 500 0
DWIDTH 4 0
BBX 4 6 0 0
BITMAP
60
80
E0
E0
90
60
ENDCHAR
STARTCHAR 2103
ENCODING 8451
SWIDTH 1000 0
DWIDTH 8 0
BBX 6 6 1 0
BITMAP
B8
C4
40
40
44
38
ENDCHAR
STARTCHAR 210F
ENCODING 8463
SWIDTH 500 0
DWIDTH 4 0
BBX 4 6 0 0
BITMAP
40
C0
B0
D0
A0
A0
ENDCHAR
STARTCHAR 2113
ENCODING 8467
SWIDTH 500 0
DWIDTH 4 0
BBX 3 6 0 0
BITMAP
20
60
60
60
40
E0
ENDCHAR
STARTCHAR 2116
ENCODING 8470
SWIDTH 1000 0
DWIDTH 8 0
BBX 7 6 1 0
BITMAP
A0
A0
B8
F4
F4
BA
ENDCHAR
STARTCHAR 2121
ENCODING 8481
SWIDTH 1000 0
DWIDTH 8 0
BBX 8 6 0 0
BITMAP
E0
5C
54
5C
54
5B
ENDCHAR
STARTCHAR 2127
ENCODING 8487
SWIDTH 500 0
DWIDTH 4 0
BBX 4 6 0 0
BITMAP
F0
60
A0
90
90
60
ENDCHAR
STARTCHAR 212B
ENCODING 8491
SWIDTH 1000 0
DWIDTH 8 0
BBX 5 7 1 0
BITMAP
30
30
30
30
48
78
88
ENDCHAR
STARTCHAR 2135
ENCODING 8501
SWIDTH 500 0
DWIDTH 4 0
BBX 4 6 0 0
BITMAP
A0
90
60
A0
90
90
ENDCHAR
STARTCHAR 2153
ENCODING 8531
SWIDTH 500 0
DWIDTH 4 0
BBX 4 7 0 0
BITMAP
A0
A0
C0
40
70
A0
B0
ENDCHAR
STARTCHAR 2154
ENCODING 8532
SWIDTH 500 0
DWIDTH 4 0
BBX 4 6 0 0
BITMAP
C0
60
C0
70
A0
B0
ENDCHAR
STARTCHAR 2155
ENCODING 8533
SWIDTH 500 0
DWIDTH 4 0
BBX 4 8 0 -1
BITMAP
A0
A0
A0
40
70
C0
B0
B0
ENDCHAR
STARTCHAR 2160
ENCODING 8544
SWIDTH 1000 0
DWIDTH 8 0
BBX 1 6 3 0
BITMAP
80
80
80
80
80
80
ENDCHAR
STARTCHAR 2161
ENCODING 8545
SWIDTH 1000 0
DWIDTH 8 0
BBX 2 6 3 0
BITMAP
C0
C0
C0
C0
C0
C0
ENDCHAR
STARTCHAR 2162
ENCODING 8546
SWIDTH 1000 0
DWIDTH 8 0
BBX 4 6 2 0
BITMAP
D0
D0
D0
D0
D0
D0
ENDCHAR
STARTCHAR 2163
ENCODING 8547
SWIDTH 1000 0
DWIDTH 8 0
BBX 6 6 1 0
BITMAP
C4
A4
A8
A8
98
90
ENDCHAR
STARTCHAR 2164
ENCODING 8548
SWIDTH 1000 0
DWIDTH 8 0
BBX 5 6 1 0
BITMAP
88
48
48
50
30
30
ENDCHAR
STARTCHAR 2165
ENCODING 8549
SWIDTH 1000 0
DWIDTH 8 0
BBX 6 6 1 0
BITMAP
94
94
94
64
64
24
ENDCHAR
STARTCHAR 2166
ENCODING 8550
SWIDTH 1000 0
DWIDTH 8 0
BBX 6 6 1 0
BITMAP
AC
AC
AC
AC
CC
4C
ENDCHAR
STARTCHAR 2167
ENCODING 8551
SWIDTH 1000 0
DWIDTH 8 0
BBX 7 6 0 0
BITMAP
9E
9E
6E
6E
6E
2E
ENDCHAR
STARTCHAR 2168
ENCODING 8552
SWIDTH 1000 0
DWIDTH 8 0
BBX 6 6 1 0
BITMAP
A4
98
98
98
A8
A4
ENDCHAR
STARTCHAR 2169
ENCODING 8553
SWIDTH 1000 0
DWIDTH 8 0
BBX 4 6 2 0
BITMAP
90
A0
60
60
90
90
ENDCHAR
STARTCHAR 216A
ENCODING 8554
SWIDTH 1000 0
DWIDTH 8 0
BBX 6 6 1 0
BITMAP
94
64
64
64
A4
94
ENDCHAR
STARTCHAR 216B
ENCODING 8555
SWIDTH 1000 0
DWIDTH 8 0
BBX 6 6 1 0
BITMAP
AC
AC
4C
4C
AC
AC
ENDCHAR
STARTCHAR 2170
ENCODING 8560
SWIDTH 1000 0
DWIDTH 8 0
BBX 1 6 3 0
BITMAP
80
00
80
80
80
80
ENDCHAR
STARTCHAR 2171
ENCODING 8561
SWIDTH 1000 0
DWIDTH 8 0
BBX 2 6 3 0
BITMAP
C0
00
C0
C0
C0
C0
ENDCHAR
STARTCHAR 2172
ENCODING 8562
SWIDTH 1000 0
DWIDTH 8 0
BBX 4 6 2 0
BITMAP
D0
00
D0
D0
D0
D0
ENDCHAR
STARTCHAR 2173
ENCODING 8563
SWIDTH 1000 0
DWIDTH 8 0
BBX 5 6 2 0
BITMAP
80
00
C8
D0
B0
A0
ENDCHAR
STARTCHAR 2174
ENCODING 8564
SWIDTH 1000 0
DWIDTH 8 0
BBX 4 4 2 0
BITMAP
90
A0
60
60
ENDCHAR
STARTCHAR 2175
ENCODING 8565
SWIDTH 1000 0
DWIDTH 8 0
BBX 5 6 1 0
BITMAP
08
00
98
A8
68
28
ENDCHAR
STARTCHAR 2176
ENCODING 8566
SWIDTH 1000 0
DWIDTH 8 0
BBX 6 6 1 0
BITMAP
14
00
B4
B4
D4
54
ENDCHAR
STARTCHAR 2177
ENCODING 8567
SWIDTH 1000 0
DWIDTH 8 0
BBX 6 6 1 0
BITMAP
1C
00
BC
DC
DC
5C
ENDCHAR
STARTCHAR 2178
ENCODING 8568
SWIDTH 1000 0
DWIDTH 8 0
BBX 5 6 2 0
BITMAP
80
00
D0
B0
B0
C8
ENDCHAR
STARTCHAR 2179
ENCODING 8569
SWIDTH 1000 0
DWIDTH 8 0
BBX 4 4 2 0
BITMAP
90
60
60
90
ENDCHAR
STARTCHAR 217A
ENCODING 8570
SWIDTH 1000 0
DWIDTH 8 0
BBX 5 6 1 0
BITMAP
08
00
98
68
68
98
ENDCHAR
STARTCHAR 217B
ENCODING 8571
SWIDTH 1000 0
DWIDTH 8 0
BBX 6 6 1 0
BITMAP
0C
00
AC
4C
4C
AC
ENDCHAR
STARTCHAR 2190
ENCODING 8592
SWIDTH 1000 0
DWIDTH 8 0
BBX 7 2 0 2
BITMAP
40
FE
ENDCHAR
STARTCHAR 2191
ENCODING 8593
SWIDTH 1000 0
DWIDTH 8 0
BBX 2 7 3 0
BITMAP
80
C0
80
80
80
80
80
ENDCHAR
STARTCHAR 2192
ENCODING 8594
SWIDTH 1000 0
DWIDTH 8 0
BBX 7 2 1 2
BITMAP
08
FE
ENDCHAR
STARTCHAR 2193
ENCODING 8595
SWIDTH 1000 0
DWIDTH 8 0
BBX 2 7 3 -1
BITMAP
80
80
80
80
80
C0
80
ENDCHAR
STARTCHAR 2194
ENCODING 8596
SWIDTH 500 0
DWIDTH 4 0
BBX 4 2 0 2
BITMAP
A0
F0
ENDCHAR
STARTCHAR 2196
ENCODING 8598
SWIDTH 500 0
DWIDTH 4 0
BBX 3 6 1 0
BITMAP
80
C0
80
40
40
20
ENDCHAR
STARTCHAR 2197
ENCODING 8599
SWIDTH 500 0
DWIDTH 4 0
BBX 3 6 0 0
BITMAP
20
60
40
40
80
80
ENDCHAR
STARTCHAR 2198
ENCODING 8600
SWIDTH 500 0
DWIDTH 4 0
BBX 3 6 0 0
BITMAP
80
80
40
40
20
60
ENDCHAR
STARTCHAR 2199
ENCODING 8601
SWIDTH 500 0
DWIDTH 4 0
BBX 3 6 1 0
BITMAP
20
40
40
80
80
C0
ENDCHAR
STARTCHAR 21C4
ENCODING 8644
SWIDTH 500 0
DWIDTH 4 0
BBX 4 6 0 0
BITMAP
20
70
20
40
E0
40
ENDCHAR
STARTCHAR 21D2
ENCODING 8658
SWIDTH 1000 0
DWIDTH 8 0
BBX 7 5 1 0
BITMAP
08
FC
02
FC
08
ENDCHAR
STARTCHAR 21D4
ENCODING 8660
SWIDTH 1000 0
DWIDTH 8 0
BBX 8 5 0 0
BITMAP
24
7E
81
7E
24
ENDCHAR
STARTCHAR 21E6
ENCODING 8678
SWIDTH 500 0
DWIDTH 4 0
BBX 3 4 1 1
BITMAP
80
E0
E0
80
ENDCHAR
STARTCHAR 21E7
ENCODING 8679
SWIDTH 500 0
DWIDTH 4 0
BBX 2 5 1 1
BITMAP
C0
C0
80
80
80
ENDCHAR
STARTCHAR 21E8
ENCODING 8680
SWIDTH 500 0
DWIDTH 4 0
BBX 3 4 0 1
BITMAP
20
E0
E0
20
ENDCHAR
STARTCHAR 21E9
ENCODING 8681
SWIDTH 500 0
DWIDTH 4 0
BBX 2 5 1 0
BITMAP
80
80
80
C0
C0
ENDCHAR
STARTCHAR 2200
ENCODING 8704
SWIDTH 1000 0
DWIDTH 8 0
BBX 6 7 1 -1
BITMAP
84
84
78
48
50
30
20
ENDCHAR
STARTCHAR 2202
ENCODING 8706
SWIDTH 1000 0
DWIDTH 8 0
BBX 4 6 2 0
BITMAP
60
10
F0
90
A0
E0
ENDCHAR
STARTCHAR 2203
ENCODING 8707
SWIDTH 1000 0
DWIDTH 8 0
BBX 6 6 1 0
BITMAP
FC
04
04
FC
04
FC
ENDCHAR
STARTCHAR 2205
ENCODING 8709
SWIDTH 500 0
DWIDTH 4 0
BBX 4 4 0 1
BITMAP
60
B0
D0
60
ENDCHAR
STARTCHAR 2207
ENCODING 8711
SWIDTH 1000 0
DWIDTH 8 0
BBX 6 6 1 -1
BITMAP
FC
88
48
50
30
30
ENDCHAR
STARTCHAR 2208
ENCODING 8712
SWIDTH 1000 0
DWIDTH 8 0
BBX 6 6 1 0
BITMAP
7C
80
80
FC
80
7C
ENDCHAR
STARTCHAR 2209
ENCODING 8713
SWIDTH 500 0
DWIDTH 4 0
BBX 4 6 0 0
BITMAP
70
A0
A0
F0
70
40
ENDCHAR
STARTCHAR 220B
ENCODING 8715
SWIDTH 1000 0
DWIDTH 8 0
BBX 6 6 1 0
BITMAP
F8
04
04
FC
04
F8
ENDCHAR
STARTCHAR 2212
ENCODING 8722
SWIDTH 500 0
DWIDTH 4 0
BBX 4 1 0 2
BITMAP
F0
ENDCHAR
STARTCHAR 2213
ENCODING 8723
SWIDTH 500 0
DWIDTH 4 0
BBX 4 6 0 0
BITMAP
F0
00
40
40
F0
40
ENDCHAR
STARTCHAR 221A
ENCODING 8730
SWIDTH 1000 0
DWIDTH 8 0
BBX 7 7 0 0
BITMAP
0E
10
10
10
60
E0
20
ENDCHAR
STARTCHAR 221D
ENCODING 8733
SWIDTH 1000 0
DWIDTH 8 0
BBX 6 4 1 1
BITMAP
CC
B0
B0
CC
ENDCHAR
STARTCHAR 221E
ENCODING 8734
SWIDTH 1000 0
DWIDTH 8 0
BBX 6 4 1 1
BITMAP
CC
B4
B4
CC
ENDCHAR
STARTCHAR 221F
ENCODING 8735
SWIDTH 1000 0
DWIDTH 8 0
BBX 6 7 1 0
BITMAP
80
80
80
80
80
80
FC
ENDCHAR
STARTCHAR 2220
ENCODING 8736
SWIDTH 1000 0
DWIDTH 8 0
BBX 6 7 1 0
BITMAP
04
08
10
20
40
80
FC
ENDCHAR
STARTCHAR 2225
ENCODING 8741
SWIDTH 1000 0
DWIDTH 8 0
BBX 4 6 2 1
BITMAP
50
50
60
A0
C0
80
ENDCHAR
STARTCHAR 2226
ENCODING 8742
SWIDTH 500 0
DWIDTH 4 0
BBX 4 7 0 -1
BITMAP
50
60
60
A0
B0
C0
80
ENDCHAR
STARTCHAR 2227
ENCODING 8743
SWIDTH 1000 0
DWIDTH 8 0
BBX 6 6 1 1
BITMAP
30
50
48
88
84
84
ENDCHAR
STARTCHAR 2228
ENCODING 8744
SWIDTH 1000 0
DWIDTH 8 0
BBX 6 6 1 -1
BITMAP
84
84
88
48
50
30
ENDCHAR
STARTCHAR 2229
ENCODING 8745
SWIDTH 1000 0
DWIDTH 8 0
BBX 6 6 1 0
BITMAP
78
84
84
84
84
84
ENDCHAR
STARTCHAR 222A
ENCODING 8746
SWIDTH 1000 0
DWIDTH 8 0
BBX 6 6 1 0
BITMAP
84
84
84
84
84
78
ENDCHAR
STARTCHAR 222B
ENCODING 8747
SWIDTH 1000 0
DWIDTH 8 0
BBX 4 6 2 0
BITMAP
30
20
40
40
40
C0
ENDCHAR
STARTCHAR 222C
ENCODING 8748
SWIDTH 1000 0
DWIDTH 8 0
BBX 6 6 1 0
BITMAP
2C
48
48
48
50
F0
ENDCHAR
STARTCHAR 222E
ENCODING 8750
SWIDTH 1000 0
DWIDTH 8 0
BBX 4 6 2 0
BITMAP
30
40
E0
E0
40
C0
ENDCHAR
STARTCHAR 2234
ENCODING 8756
SWIDTH 1000 0
DWIDTH 8 0
BBX 6 5 1 1
BITMAP
30
00
00
00
CC
ENDCHAR
STARTCHAR 2235
ENCODING 8757
SWIDTH 1000 0
DWIDTH 8 0
BBX 6 5 1 1
BITMAP
CC
00
00
00
30
ENDCHAR
STARTCHAR 223D
ENCODING 8765
SWIDTH 1000 0
DWIDTH 8 0
BBX 6 4 1 1
BITMAP
CC
94
A4
CC
ENDCHAR
STARTCHAR 2243
ENCODING 8771
SWIDTH 500 0
DWIDTH 4 0
BBX 4 3 0 1
BITMAP
F0
00
F0
ENDCHAR
STARTCHAR 2245
ENCODING 8773
SWIDTH 500 0
DWIDTH 4 0
BBX 4 4 0 1
BITMAP
F0
00
F0
F0
ENDCHAR
STARTCHAR 2248
ENCODING 8776
SWIDTH 500 0
DWIDTH 4 0
BBX 4 2 0 2
BITMAP
E0
F0
ENDCHAR
STARTCHAR 2252
ENCODING 8786
SWIDTH 1000 0
DWIDTH 8 0
BBX 6 6 1 0
BITMAP
40
00
FC
FC
00
08
ENDCHAR
STARTCHAR 2260
ENCODING 8800
SWIDTH 1000 0
DWIDTH 8 0
BBX 6 6 1 0
BITMAP
10
10
FC
20
FC
40
ENDCHAR
STARTCHAR 2261
ENCODING 8801
SWIDTH 1000 0
DWIDTH 8 0
BBX 6 4 1 1
BITMAP
FC
00
FC
FC
ENDCHAR
STARTCHAR 2262
ENCODING 8802
SWIDTH 500 0
DWIDTH 4 0
BBX 4 6 0 0
BITMAP
20
F0
20
F0
F0
40
ENDCHAR
STARTCHAR 2266
ENCODING 8806
SWIDTH 1000 0
DWIDTH 8 0
BBX 6 6 1 1
BITMAP
18
E0
30
08
FC
FC
ENDCHAR
STARTCHAR 2267
ENCODING 8807
SWIDTH 1000 0
DWIDTH 8 0
BBX 6 6 1 1
BITMAP
60
1C
30
40
FC
FC
ENDCHAR
STARTCHAR 226A
ENCODING 8810
SWIDTH 1000 0
DWIDTH 8 0
BBX 6 8 1 -1
BITMAP
14
28
50
A0
A0
50
28
14
ENDCHAR
STARTCHAR 226B
ENCODING 8811
SWIDTH 1000 0
DWIDTH 8 0
BBX 6 8 1 -1
BITMAP
A0
50
28
14
14
28
50
A0
ENDCHAR
STARTCHAR 2276
ENCODING 8822
SWIDTH 500 0
DWIDTH 4 0
BBX 3 6 0 0
BITMAP
20
C0
60
40
20
C0
ENDCHAR
STARTCHAR 2277
ENCODING 8823
SWIDTH 500 0
DWIDTH 4 0
BBX 3 6 1 0
BITMAP
80
60
C0
40
80
60
ENDCHAR
STARTCHAR 2282
ENCODING 8834
SWIDTH 1000 0
DWIDTH 8 0
BBX 6 6 1 0
BITMAP
7C
80
80
80
80
7C
ENDCHAR
STARTCHAR 2283
ENCODING 8835
SWIDTH 1000 0
DWIDTH 8 0
BBX 6 6 1 0
BITMAP
F8
04
04
04
04
F8
ENDCHAR
STARTCHAR 2284
ENCODING 8836
SWIDTH 500 0
DWIDTH 4 0
BBX 4 6 0 0
BITMAP
70
A0
C0
C0
70
40
ENDCHAR
STARTCHAR 2285
ENCODING 8837
SWIDTH 500 0
DWIDTH 4 0
BBX 4 6 0 0
BITMAP
E0
60
50
50
E0
40
ENDCHAR
STARTCHAR 2286
ENCODING 8838
SWIDTH 1000 0
DWIDTH 8 0
BBX 6 6 1 0
BITMAP
FC
80
80
FC
00
FC
ENDCHAR
STARTCHAR 2287
ENCODING 8839
SWIDTH 1000 0
DWIDTH 8 0
BBX 6 6 1 0
BITMAP
FC
04
04
FC
00
FC
ENDCHAR
STARTCHAR 228A
ENCODING 8842
SWIDTH 500 0
DWIDTH 4 0
BBX 4 6 0 0
BITMAP
70
80
80
80
70
F0
ENDCHAR
STARTCHAR 228B
ENCODING 8843
SWIDTH 500 0
DWIDTH 4 0
BBX 4 6 0 0
BITMAP
E0
10
10
10
E0
F0
ENDCHAR
STARTCHAR 2295
ENCODING 8853
SWIDTH 500 0
DWIDTH 4 0
BBX 4 4 0 1
BITMAP
60
90
F0
60
ENDCHAR
STARTCHAR 2296
ENCODING 8854
SWIDTH 500 0
DWIDTH 4 0
BBX 4 5 0 0
BITMAP
60
90
F0
90
60
ENDCHAR
STARTCHAR 2297
ENCODING 8855
SWIDTH 500 0
DWIDTH 4 0
BBX 4 4 0 1
BITMAP
60
F0
F0
60
ENDCHAR
STARTCHAR 22A5
ENCODING 8869
SWIDTH 1000 0
DWIDTH 8 0
BBX 7 7 1 0
BITMAP
20
20
20
20
20
20
FE
ENDCHAR
STARTCHAR 22BF
ENCODING 8895
SWIDTH 1000 0
DWIDTH 8 0
BBX 6 6 1 1
BITMAP
0C
14
24
44
84
FC
ENDCHAR
STARTCHAR 22DA
ENCODING 8922
SWIDTH 500 0
DWIDTH 4 0
BBX 4 7 0 -1
BITMAP
20
40
30
F0
80
60
40
ENDCHAR
STARTCHAR 22DB
ENCODING 8923
SWIDTH 500 0
DWIDTH 4 0
BBX 4 7 0 -1
BITMAP
40
20
C0
F0
10
60
20
ENDCHAR
STARTCHAR 2305
ENCODING 8965
SWIDTH 500 0
DWIDTH 4 0
BBX 4 4 0 1
BITMAP
F0
00
60
A0
ENDCHAR
STARTCHAR 2306
ENCODING 8966
SWIDTH 500 0
DWIDTH 4 0
BBX 4 4 0 1
BITMAP
F0
F0
00
E0
ENDCHAR
STARTCHAR 2312
ENCODING 8978
SWIDTH 1000 0
DWIDTH 8 0
BBX 8 2 0 5
BITMAP
3C
C3
ENDCHAR
STARTCHAR 2318
ENCODING 8984
SWIDTH 1000 0
DWIDTH 8 0
BBX 8 8 0 -1
BITMAP
42
A5
7E
24
24
7E
A5
42
ENDCHAR
STARTCHAR 23BE
ENCODING 9150
SWIDTH 1000 0
DWIDTH 8 0
BBX 4 7 4 -1
BITMAP
F0
80
80
80
80
80
80
ENDCHAR
STARTCHAR 23BF
ENCODING 9151
SWIDTH 1000 0
DWIDTH 8 0
BBX 4 7 4 0
BITMAP
80
80
80
80
80
80
F0
ENDCHAR
STARTCHAR 23C0
ENCODING 9152
SWIDTH 1000 0
DWIDTH 8 0
BBX 6 7 1 0
BITMAP
78
A4
A4
A4
A4
68
10
ENDCHAR
STARTCHAR 23C1
ENCODING 9153
SWIDTH 1000 0
DWIDTH 8 0
BBX 8 8 0 -1
BITMAP
FF
10
7C
92
92
52
34
08
ENDCHAR
STARTCHAR 23C2
ENCODING 9154
SWIDTH 1000 0
DWIDTH 8 0
BBX 8 7 0 0
BITMAP
3C
52
92
92
54
38
FF
ENDCHAR
STARTCHAR 23C3
ENCODING 9155
SWIDTH 1000 0
DWIDTH 8 0
BBX 6 6 1 0
BITMAP
20
70
68
A8
A4
FC
ENDCHAR
STARTCHAR 23C4
ENCODING 9156
SWIDTH 1000 0
DWIDTH 8 0
BBX 8 7 0 -1
BITMAP
FF
10
18
38
54
92
7E
ENDCHAR
STARTCHAR 23C5
ENCODING 9157
SWIDTH 1000 0
DWIDTH 8 0
BBX 8 7 0 0
BITMAP
10
38
34
54
92
7E
FF
ENDCHAR
STARTCHAR 23C6
ENCODING 9158
SWIDTH 1000 0
DWIDTH 8 0
BBX 6 6 1 0
BITMAP
20
20
E0
1C
20
20
ENDCHAR
STARTCHAR 23C7
ENCODING 9159
SWIDTH 1000 0
DWIDTH 8 0
BBX 8 7 0 -1
BITMAP
FF
10
10
70
0E
10
10
ENDCHAR
STARTCHAR 23C8
ENCODING 9160
SWIDTH 1000 0
DWIDTH 8 0
BBX 8 7 0 0
BITMAP
10
10
70
1E
10
10
FF
ENDCHAR
STARTCHAR 23C9
ENCODING 9161
SWIDTH 1000 0
DWIDTH 8 0
BBX 8 7 0 -1
BITMAP
FF
10
10
10
10
10
10
ENDCHAR
STARTCHAR 23CA
ENCODING 9162
SWIDTH 1000 0
DWIDTH 8 0
BBX 8 7 0 0
BITMAP
10
10
10
10
10
10
FF
ENDCHAR
STARTCHAR 23CB
ENCODING 9163
SWIDTH 1000 0
DWIDTH 8 0
BBX 4 7 0 -1
BITMAP
F0
10
10
10
10
10
10
ENDCHAR
STARTCHAR 23CC
ENCODING 9164
SWIDTH 1000 0
DWIDTH 8 0
BBX 4 7 0 0
BITMAP
10
10
10
10
10
10
F0
ENDCHAR
STARTCHAR 23CE
ENCODING 9166
SWIDTH 1000 0
DWIDTH 8 0
BBX 6 6 1 0
BITMAP
0C
14
14
F4
B8
40
ENDCHAR
STARTCHAR 2423
ENCODING 9251
SWIDTH 1000 0
DWIDTH 8 0
BBX 6 1 1 1
BITMAP
FC
ENDCHAR
STARTCHAR 2460
ENCODING 9312
SWIDTH 1000 0
DWIDTH 8 0
BBX 8 8 0 -1
BITMAP
3C
52
92
91
91
92
52
3C
ENDCHAR
STARTCHAR 2461
ENCODING 9313
SWIDTH 1000 0
DWIDTH 8 0
BBX 8 7 0 0
BITMAP
3C
5A
A5
89
91
7E
3C
ENDCHAR
STARTCHAR 2462
ENCODING 9314
SWIDTH 1000 0
DWIDTH 8 0
BBX 8 8 0 -1
BITMAP
1C
62
9A
85
99
A6
5E
3C
ENDCHAR
STARTCHAR 2463
ENCODING 9315
SWIDTH 1000 0
DWIDTH 8 0
BBX 8 8 0 -1
BITMAP
3C
4A
9A
A9
BD
8A
4A
3C
ENDCHAR
STARTCHAR 2464
ENCODING 9316
SWIDTH 1000 0
DWIDTH 8 0
BBX 8 7 0 0
BITMAP
3C
5E
A1
99
85
5A
3C
ENDCHAR
STARTCHAR 2465
ENCODING 9317
SWIDTH 1000 0
DWIDTH 8 0
BBX 8 7 0 -1
BITMAP
3C
5A
A1
B9
A5
5A
3C
ENDCHAR
STARTCHAR 2466
ENCODING 9318
SWIDTH 1000 0
DWIDTH 8 0
BBX 8 7 0 -1
BITMAP
7C
7E
89
89
89
52
3C
ENDCHAR
STARTCHAR 2467
ENCODING 9319
SWIDTH 1000 0
DWIDTH 8 0
BBX 8 8 0 -1
BITMAP
3C
5A
A6
A9
BD
A6
5A
3C
ENDCHAR
STARTCHAR 2468
ENCODING 9320
SWIDTH 1000 0
DWIDTH 8 0
BBX 8 8 0 -1
BITMAP
3C
5A
A6
A5
9D
9A
42
3C
ENDCHAR
STARTCHAR 2469
ENCODING 9321
SWIDTH 1000 0
DWIDTH 8 0
BBX 8 7 0 0
BITMAP
3C
6E
B5
B5
B5
6E
3C
ENDCHAR
STARTCHAR 246A
ENCODING 9322
SWIDTH 1000 0
DWIDTH 8 0
BBX 8 7 0 0
BITMAP
3C
66
A5
A5
A5
66
3C
ENDCHAR
STARTCHAR 246B
ENCODING 9323
SWIDTH 1000 0
DWIDTH 8 0
BBX 8 7 0 0
BITMAP
3C
6E
B5
A5
B9
6E
3C
ENDCHAR
STARTCHAR 246C
ENCODING 9324
SWIDTH 1000 0
DWIDTH 8 0
BBX 8 7 0 0
BITMAP
3C
6E
B5
A5
AD
6E
3C
ENDCHAR
STARTCHAR 246D
ENCODING 9325
SWIDTH 1000 0
DWIDTH 8 0
BBX 8 7 0 0
BITMAP
3C
66
AD
AD
B5
7E
3C
ENDCHAR
STARTCHAR 246E
ENCODING 9326
SWIDTH 1000 0
DWIDTH 8 0
BBX 8 7 0 0
BITMAP
3C
6E
B1
AD
A5
6E
3C
ENDCHAR
STARTCHAR 246F
ENCODING 9327
SWIDTH 1000 0
DWIDTH 8 0
BBX 8 7 0 0
BITMAP
3C
6E
B5
B1
AD
6E
3C
ENDCHAR
STARTCHAR 2470
ENCODING 9328
SWIDTH 1000 0
DWIDTH 8 0
BBX 8 7 0 0
BITMAP
3C
7E
A5
A9
A9
6A
3C
ENDCHAR
STARTCHAR 2471
ENCODING 9329
SWIDTH 1000 0
DWIDTH 8 0
BBX 8 7 0 0
BITMAP
3C
6E
B5
AD
B5
6E
3C
ENDCHAR
STARTCHAR 2472
ENCODING 9330
SWIDTH 1000 0
DWIDTH 8 0
BBX 8 7 0 0
BITMAP
3C
6E
B5
AD
A5
6E
3C
ENDCHAR
STARTCHAR 2473
ENCODING 9331
SWIDTH 1000 0
DWIDTH 8 0
BBX 8 7 0 0
BITMAP
3C
76
DB
AB
AB
76
3C
ENDCHAR
STARTCHAR 24D0
ENCODING 9424
SWIDTH 1000 0
DWIDTH 8 0
BBX 8 7 0 0
BITMAP
3C
42
99
99
BD
42
3C
ENDCHAR
STARTCHAR 24D1
ENCODING 9425
SWIDTH 1000 0
DWIDTH 8 0
BBX 8 8 0 -1
BITMAP
3C
62
AA
B5
A5
9A
42
3C
ENDCHAR
STARTCHAR 24D2
ENCODING 9426
SWIDTH 1000 0
DWIDTH 8 0
BBX 8 7 0 0
BITMAP
3C
42
99
A1
99
42
3C
ENDCHAR
STARTCHAR 24D3
ENCODING 9427
SWIDTH 1000 0
DWIDTH 8 0
BBX 8 8 0 -1
BITMAP
3C
4A
9A
A9
A9
9A
42
3C
ENDCHAR
STARTCHAR 24D4
ENCODING 9428
SWIDTH 1000 0
DWIDTH 8 0
BBX 8 6 0 0
BITMAP
7C
42
99
9D
42
3C
ENDCHAR
STARTCHAR 24D5
ENCODING 9429
SWIDTH 1000 0
DWIDTH 8 0
BBX 8 7 0 0
BITMAP
3C
42
89
99
91
52
3C
ENDCHAR
STARTCHAR 24D6
ENCODING 9430
SWIDTH 1000 0
DWIDTH 8 0
BBX 8 8 0 -1
BITMAP
3C
42
9A
A9
99
9A
42
3C
ENDCHAR
STARTCHAR 24D7
ENCODING 9431
SWIDTH 1000 0
DWIDTH 8 0
BBX 8 7 0 -1
BITMAP
3C
62
99
A5
A5
42
3C
ENDCHAR
STARTCHAR 24D8
ENCODING 9432
SWIDTH 1000 0
DWIDTH 8 0
BBX 8 6 0 0
BITMAP
7C
52
91
91
52
3C
ENDCHAR
STARTCHAR 24D9
ENCODING 9433
SWIDTH 1000 0
DWIDTH 8 0
BBX 8 8 0 -1
BITMAP
3C
4A
82
89
89
8A
5A
3C
ENDCHAR
STARTCHAR 24DA
ENCODING 9434
SWIDTH 1000 0
DWIDTH 8 0
BBX 8 7 0 -1
BITMAP
3C
62
A9
99
A9
42
3C
ENDCHAR
STARTCHAR 24DB
ENCODING 9435
SWIDTH 1000 0
DWIDTH 8 0
BBX 8 6 0 0
BITMAP
7C
52
91
91
52
3C
ENDCHAR
STARTCHAR 24DC
ENCODING 9436
SWIDTH 1000 0
DWIDTH 8 0
BBX 8 8 0 -1
BITMAP
3C
42
BE
B5
B5
B6
42
3C
ENDCHAR
STARTCHAR 24DD
ENCODING 9437
SWIDTH 1000 0
DWIDTH 8 0
BBX 8 8 0 -1
BITMAP
3C
42
9A
A9
A9
AA
42
3C
ENDCHAR
STARTCHAR 24DE
ENCODING 9438
SWIDTH 1000 0
DWIDTH 8 0
BBX 8 8 0 -1
BITMAP
3C
42
9A
A5
A5
9A
42
3C
ENDCHAR
STARTCHAR 24DF
ENCODING 9439
SWIDTH 1000 0
DWIDTH 8 0
BBX 8 8 0 -1
BITMAP
3C
42
9E
A5
9D
A2
42
3C
ENDCHAR
STARTCHAR 24E0
ENCODING 9440
SWIDTH 1000 0
DWIDTH 8 0
BBX 8 8 0 -1
BITMAP
3C
42
BA
A9
B9
8A
42
3C
ENDCHAR
STARTCHAR 24E1
ENCODING 9441
SWIDTH 1000 0
DWIDTH 8 0
BBX 8 7 0 -1
BITMAP
3C
42
9D
91
91
42
3C
ENDCHAR
STARTCHAR 24E2
ENCODING 9442
SWIDTH 1000 0
DWIDTH 8 0
BBX 8 8 0 -1
BITMAP
3C
42
9A
A1
99
9A
42
3C
ENDCHAR
STARTCHAR 24E3
ENCODING 9443
SWIDTH 1000 0
DWIDTH 8 0
BBX 8 8 0 -1
BITMAP
3C
42
92
99
91
92
5A
3C
ENDCHAR
STARTCHAR 24E4
ENCODING 9444
SWIDTH 1000 0
DWIDTH 8 0
BBX 8 8 0 -1
BITMAP
3C
42
AA
A9
A9
9A
42
3C
ENDCHAR
STARTCHAR 24E5
ENCODING 9445
SWIDTH 1000 0
DWIDTH 8 0
BBX 8 7 0 -1
BITMAP
3C
42
A5
99
99
42
3C
ENDCHAR
STARTCHAR 24E6
ENCODING 9446
SWIDTH 1000 0
DWIDTH 8 0
BBX 8 7 0 -1
BITMAP
3C
42
D5
BD
A5
42
3C
ENDCHAR
STARTCHAR 24E7
ENCODING 9447
SWIDTH 1000 0
DWIDTH 8 0
BBX 8 8 0 -1
BITMAP
3C
42
AA
99
99
A6
42
3C
ENDCHAR
STARTCHAR 24E8
ENCODING 9448
SWIDTH 1000 0
DWIDTH 8 0
BBX 8 7 0 0
BITMAP
3C
42
A5
99
89
52
3C
ENDCHAR
STARTCHAR 24E9
ENCODING 9449
SWIDTH 1000 0
DWIDTH 8 0
BBX 8 8 0 -1
BITMAP
3C
42
9A
89
91
BA
42
3C
ENDCHAR
STARTCHAR 24EB
ENCODING 9451
SWIDTH 1000 0
DWIDTH 8 0
BBX 8 7 0 0
BITMAP
3C
5A
DB
DB
DB
5A
3C
ENDCHAR
STARTCHAR 24EC
ENCODING 9452
SWIDTH 1000 0
DWIDTH 8 0
BBX 8 7 0 0
BITMAP
3C
52
DF
DB
D7
5E
3C
ENDCHAR
STARTCHAR 24ED
ENCODING 9453
SWIDTH 1000 0
DWIDTH 8 0
BBX 8 7 0 0
BITMAP
3C
52
DF
DF
DF
5E
3C
ENDCHAR
STARTCHAR 24EE
ENCODING 9454
SWIDTH 1000 0
DWIDTH 8 0
BBX 8 7 0 0
BITMAP
3C
5A
DB
DB
DB
5A
3C
ENDCHAR
STARTCHAR 24EF
ENCODING 9455
SWIDTH 1000 0
DWIDTH 8 0
BBX 8 7 0 0
BITMAP
3C
52
DF
D3
DF
5E
3C
ENDCHAR
STARTCHAR 24F0
ENCODING 9456
SWIDTH 1000 0
DWIDTH 8 0
BBX 8 7 0 0
BITMAP
3C
52
DF
DF
DF
5E
3C
ENDCHAR
STARTCHAR 24F1
ENCODING 9457
SWIDTH 1000 0
DWIDTH 8 0
BBX 8 7 0 0
BITMAP
3C
52
DB
DB
DF
56
3C
ENDCHAR
STARTCHAR 24F2
ENCODING 9458
SWIDTH 1000 0
DWIDTH 8 0
BBX 8 7 0 0
BITMAP
3C
5E
DF
D3
EF
5E
3C
ENDCHAR
STARTCHAR 24F3
ENCODING 9459
SWIDTH 1000 0
DWIDTH 8 0
BBX 8 7 0 0
BITMAP
3C
52
DF
DF
DF
5E
3C
ENDCHAR
STARTCHAR 24F4
ENCODING 9460
SWIDTH 1000 0
DWIDTH 8 0
BBX 8 7 0 0
BITMAP
3C
4A
F5
F5
D5
7E
3C
ENDCHAR
STARTCHAR 24F5
ENCODING 9461
SWIDTH 1000 0
DWIDTH 8 0
BBX 8 8 0 -1
BITMAP
3C
7E
D2
91
91
D2
7E
3C
ENDCHAR
STARTCHAR 24F6
ENCODING 9462
SWIDTH 1000 0
DWIDTH 8 0
BBX 8 8 0 -1
BITMAP
3C
7E
EB
89
91
DE
7E
3C
ENDCHAR
STARTCHAR 24F7
ENCODING 9463
SWIDTH 1000 0
DWIDTH 8 0
BBX 8 8 0 -1
BITMAP
3C
7E
DA
89
99
DE
7E
3C
ENDCHAR
STARTCHAR 24F8
ENCODING 9464
SWIDTH 1000 0
DWIDTH 8 0
BBX 8 8 0 -1
BITMAP
3C
7E
CA
99
A9
FE
7E
3C
ENDCHAR
STARTCHAR 24F9
ENCODING 9465
SWIDTH 1000 0
DWIDTH 8 0
BBX 8 8 0 -1
BITMAP
3C
7E
DA
A1
99
DA
7E
3C
ENDCHAR
STARTCHAR 24FA
ENCODING 9466
SWIDTH 1000 0
DWIDTH 8 0
BBX 8 8 0 -1
BITMAP
3C
7E
DA
99
A5
DA
7E
3C
ENDCHAR
STARTCHAR 24FB
ENCODING 9467
SWIDTH 1000 0
DWIDTH 8 0
BBX 8 8 0 -1
BITMAP
3C
7E
DF
89
89
D2
7E
3C
ENDCHAR
STARTCHAR 24FC
ENCODING 9468
SWIDTH 1000 0
DWIDTH 8 0
BBX 8 8 0 -1
BITMAP
3C
7E
DA
A9
BD
DA
7E
3C
ENDCHAR
STARTCHAR 24FD
ENCODING 9469
SWIDTH 1000 0
DWIDTH 8 0
BBX 8 8 0 -1
BITMAP
3C
7E
DA
A5
9D
DA
7E
3C
ENDCHAR
STARTCHAR 24FE
ENCODING 9470
SWIDTH 1000 0
DWIDTH 8 0
BBX 8 8 0 -1
BITMAP
3C
7E
EE
B5
B5
EE
7E
3C
ENDCHAR
STARTCHAR 2500
ENCODING 9472
SWIDTH 1000 0
DWIDTH 8 0
BBX 8 1 0 2
BITMAP
FF
ENDCHAR
STARTCHAR 2501
ENCODING 9473
SWIDTH 1000 0
DWIDTH 8 0
BBX 8 1 0 3
BITMAP
FF
ENDCHAR
STARTCHAR 2502
ENCODING 9474
SWIDTH 1000 0
DWIDTH 8 0
BBX 1 6 3 0
BITMAP
80
80
80
80
80
80
ENDCHAR
STARTCHAR 2503
ENCODING 9475
SWIDTH 1000 0
DWIDTH 8 0
BBX 1 8 3 -1
BITMAP
80
80
80
80
80
80
80
80
ENDCHAR
STARTCHAR 250C
ENCODING 9484
SWIDTH 1000 0
DWIDTH 8 0
BBX 4 3 4 -1
BITMAP
F0
80
80
ENDCHAR
STARTCHAR 250F
ENCODING 9487
SWIDTH 1000 0
DWIDTH 8 0
BBX 4 5 4 -1
BITMAP
F0
80
80
80
80
ENDCHAR
STARTCHAR 2510
ENCODING 9488
SWIDTH 1000 0
DWIDTH 8 0
BBX 4 3 0 -1
BITMAP
F0
10
10
ENDCHAR
STARTCHAR 2513
ENCODING 9491
SWIDTH 1000 0
DWIDTH 8 0
BBX 4 5 0 -1
BITMAP
F0
10
10
10
10
ENDCHAR
STARTCHAR 2514
ENCODING 9492
SWIDTH 1000 0
DWIDTH 8 0
BBX 4 4 4 3
BITMAP
80
80
80
F0
ENDCHAR
STARTCHAR 2517
ENCODING 9495
SWIDTH 1000 0
DWIDTH 8 0
BBX 4 4 4 3
BITMAP
80
80
80
F0
ENDCHAR
STARTCHAR 2518
ENCODING 9496
SWIDTH 1000 0
DWIDTH 8 0
BBX 4 4 0 3
BITMAP
10
10
10
F0
ENDCHAR
STARTCHAR 251B
ENCODING 9499
SWIDTH 1000 0
DWIDTH 8 0
BBX 4 4 0 3
BITMAP
10
10
10
F0
ENDCHAR
STARTCHAR 251C
ENCODING 9500
SWIDTH 1000 0
DWIDTH 8 0
BBX 4 6 4 0
BITMAP
80
80
80
F0
80
80
ENDCHAR
STARTCHAR 251D
ENCODING 9501
SWIDTH 1000 0
DWIDTH 8 0
BBX 4 6 4 0
BITMAP
80
80
F0
80
80
80
ENDCHAR
STARTCHAR 2520
ENCODING 9504
SWIDTH 1000 0
DWIDTH 8 0
BBX 4 8 4 -1
BITMAP
80
80
80
80
F0
80
80
80
ENDCHAR
STARTCHAR 2523
ENCODING 9507
SWIDTH 1000 0
DWIDTH 8 0
BBX 4 8 4 -1
BITMAP
80
80
80
F0
80
80
80
80
ENDCHAR
STARTCHAR 2524
ENCODING 9508
SWIDTH 1000 0
DWIDTH 8 0
BBX 4 6 0 0
BITMAP
10
10
10
F0
10
10
ENDCHAR
STARTCHAR 2525
ENCODING 9509
SWIDTH 1000 0
DWIDTH 8 0
BBX 4 6 0 0
BITMAP
10
10
F0
10
10
10
ENDCHAR
STARTCHAR 2528
ENCODING 9512
SWIDTH 1000 0
DWIDTH 8 0
BBX 4 8 0 -1
BITMAP
10
10
10
10
F0
10
10
10
ENDCHAR
STARTCHAR 252B
ENCODING 9515
SWIDTH 1000 0
DWIDTH 8 0
BBX 4 8 0 -1
BITMAP
10
10
10
F0
10
10
10
10
ENDCHAR
STARTCHAR 252C
ENCODING 9516
SWIDTH 1000 0
DWIDTH 8 0
BBX 8 3 0 -1
BITMAP
FF
10
10
ENDCHAR
STARTCHAR 252F
ENCODING 9519
SWIDTH 1000 0
DWIDTH 8 0
BBX 8 4 0 -1
BITMAP
FF
10
10
10
ENDCHAR
STARTCHAR 2530
ENCODING 9520
SWIDTH 1000 0
DWIDTH 8 0
BBX 8 4 0 -1
BITMAP
FF
10
10
10
ENDCHAR
STARTCHAR 2533
ENCODING 9523
SWIDTH 1000 0
DWIDTH 8 0
BBX 8 5 0 -1
BITMAP
FF
10
10
10
10
ENDCHAR
STARTCHAR 2534
ENCODING 9524
SWIDTH 1000 0
DWIDTH 8 0
BBX 8 4 0 3
BITMAP
10
10
10
FF
ENDCHAR
STARTCHAR 2537
ENCODING 9527
SWIDTH 1000 0
DWIDTH 8 0
BBX 8 3 0 4
BITMAP
10
10
FF
ENDCHAR
STARTCHAR 2538
ENCODING 9528
SWIDTH 1000 0
DWIDTH 8 0
BBX 8 5 0 2
BITMAP
10
10
10
10
FF
ENDCHAR
STARTCHAR 253B
ENCODING 9531
SWIDTH 1000 0
DWIDTH 8 0
BBX 8 4 0 3
BITMAP
10
10
10
FF
ENDCHAR
STARTCHAR 253C
ENCODING 9532
SWIDTH 1000 0
DWIDTH 8 0
BBX 8 6 0 0
BITMAP
10
10
10
FF
10
10
ENDCHAR
STARTCHAR 253F
ENCODING 9535
SWIDTH 1000 0
DWIDTH 8 0
BBX 8 6 0 0
BITMAP
10
10
FF
10
10
10
ENDCHAR
STARTCHAR 2542
ENCODING 9538
SWIDTH 1000 0
DWIDTH 8 0
BBX 8 8 0 -1
BITMAP
10
10
10
10
FF
10
10
10
ENDCHAR
STARTCHAR 254B
ENCODING 9547
SWIDTH 1000 0
DWIDTH 8 0
BBX 8 8 0 -1
BITMAP
10
10
10
FF
10
10
10
10
ENDCHAR
STARTCHAR 25A0
ENCODING 9632
SWIDTH 1000 0
DWIDTH 8 0
BBX 6 6 1 0
BITMAP
FC
FC
FC
FC
FC
FC
ENDCHAR
STARTCHAR 25A1
ENCODING 9633
SWIDTH 1000 0
DWIDTH 8 0
BBX 6 6 1 0
BITMAP
FC
84
84
84
84
FC
ENDCHAR
STARTCHAR 25B1
ENCODING 9649
SWIDTH 500 0
DWIDTH 4 0
BBX 4 2 0 2
BITMAP
70
E0
ENDCHAR
STARTCHAR 25B2
ENCODING 9650
SWIDTH 1000 0
DWIDTH 8 0
BBX 6 6 1 0
BITMAP
20
30
30
78
78
FC
ENDCHAR
STARTCHAR 25B3
ENCODING 9651
SWIDTH 1000 0
DWIDTH 8 0
BBX 6 6 1 1
BITMAP
30
50
48
88
88
FC
ENDCHAR
STARTCHAR 25B6
ENCODING 9654
SWIDTH 500 0
DWIDTH 4 0
BBX 2 4 1 1
BITMAP
80
C0
C0
80
ENDCHAR
STARTCHAR 25B7
ENCODING 9655
SWIDTH 500 0
DWIDTH 4 0
BBX 2 4 1 1
BITMAP
80
C0
C0
80
ENDCHAR
STARTCHAR 25BC
ENCODING 9660
SWIDTH 1000 0
DWIDTH 8 0
BBX 6 6 1 0
BITMAP
FC
78
78
30
30
20
ENDCHAR
STARTCHAR 25BD
ENCODING 9661
SWIDTH 1000 0
DWIDTH 8 0
BBX 6 6 1 -1
BITMAP
FC
88
88
48
50
30
ENDCHAR
STARTCHAR 25C0
ENCODING 9664
SWIDTH 500 0
DWIDTH 4 0
BBX 2 4 1 1
BITMAP
40
C0
C0
40
ENDCHAR
STARTCHAR 25C1
ENCODING 9665
SWIDTH 500 0
DWIDTH 4 0
BBX 3 4 0 1
BITMAP
20
E0
60
20
ENDCHAR
STARTCHAR 25C6
ENCODING 9670
SWIDTH 1000 0
DWIDTH 8 0
BBX 6 6 1 0
BITMAP
30
78
FC
FC
78
30
ENDCHAR
STARTCHAR 25C7
ENCODING 9671
SWIDTH 1000 0
DWIDTH 8 0
BBX 6 6 1 0
BITMAP
30
48
84
84
48
30
ENDCHAR
STARTCHAR 25C9
ENCODING 9673
SWIDTH 500 0
DWIDTH 4 0
BBX 4 4 0 1
BITMAP
60
F0
F0
60
ENDCHAR
STARTCHAR 25CB
ENCODING 9675
SWIDTH 1000 0
DWIDTH 8 0
BBX 6 6 1 0
BITMAP
78
84
84
84
84
78
ENDCHAR
STARTCHAR 25CE
ENCODING 9678
SWIDTH 1000 0
DWIDTH 8 0
BBX 6 6 1 0
BITMAP
78
B4
CC
CC
B4
78
ENDCHAR
STARTCHAR 25CF
ENCODING 9679
SWIDTH 1000 0
DWIDTH 8 0
BBX 6 7 1 0
BITMAP
78
FC
FC
FC
FC
FC
78
ENDCHAR
STARTCHAR 25D0
ENCODING 9680
SWIDTH 500 0
DWIDTH 4 0
BBX 4 4 0 1
BITMAP
60
D0
D0
60
ENDCHAR
STARTCHAR 25D1
ENCODING 9681
SWIDTH 500 0
DWIDTH 4 0
BBX 4 4 0 1
BITMAP
60
B0
B0
60
ENDCHAR
STARTCHAR 25D2
ENCODING 9682
SWIDTH 500 0
DWIDTH 4 0
BBX 4 4 0 1
BITMAP
60
90
F0
60
ENDCHAR
STARTCHAR 25D3
ENCODING 9683
SWIDTH 500 0
DWIDTH 4 0
BBX 4 4 0 1
BITMAP
60
F0
90
60
ENDCHAR
STARTCHAR 25E6
ENCODING 9702
SWIDTH 500 0
DWIDTH 4 0
BBX 2 2 1 2
BITMAP
C0
C0
ENDCHAR
STARTCHAR 25EF
ENCODING 9711
SWIDTH 1000 0
DWIDTH 8 0
BBX 8 8 0 -1
BITMAP
3C
42
82
81
81
82
42
3C
ENDCHAR
STARTCHAR 2600
ENCODING 9728
SWIDTH 1000 0
DWIDTH 8 0
BBX 8 6 0 0
BITMAP
42
18
3C
FF
1C
42
ENDCHAR
STARTCHAR 2601
ENCODING 9729
SWIDTH 1000 0
DWIDTH 8 0
BBX 6 5 1 0
BITMAP
70
74
FC
FC
DC
ENDCHAR
STARTCHAR 2602
ENCODING 9730
SWIDTH 1000 0
DWIDTH 8 0
BBX 8 7 0 0
BITMAP
3C
7E
91
10
10
10
10
ENDCHAR
STARTCHAR 2603
ENCODING 9731
SWIDTH 1000 0
DWIDTH 8 0
BBX 8 8 0 -1
BITMAP
91
1C
6E
DC
47
92
92
7E
ENDCHAR
STARTCHAR 2605
ENCODING 9733
SWIDTH 1000 0
DWIDTH 8 0
BBX 6 6 1 1
BITMAP
20
30
FC
78
78
48
ENDCHAR
STARTCHAR 2606
ENCODING 9734
SWIDTH 1000 0
DWIDTH 8 0
BBX 6 7 1 0
BITMAP
20
30
FC
88
48
78
88
ENDCHAR
STARTCHAR 260E
ENCODING 9742
SWIDTH 1000 0
DWIDTH 8 0
BBX 8 6 0 0
BITMAP
7E
EB
34
24
66
7E
ENDCHAR
STARTCHAR 2616
ENCODING 9750
SWIDTH 1000 0
DWIDTH 8 0
BBX 6 7 1 0
BITMAP
30
48
84
84
84
84
FC
ENDCHAR
STARTCHAR 2617
ENCODING 9751
SWIDTH 1000 0
DWIDTH 8 0
BBX 6 6 1 0
BITMAP
78
FC
FC
FC
FC
FC
ENDCHAR
STARTCHAR 261E
ENCODING 9758
SWIDTH 1000 0
DWIDTH 8 0
BBX 6 4 1 1
BITMAP
AC
D8
A8
F0
ENDCHAR
STARTCHAR 2640
ENCODING 9792
SWIDTH 1000 0
DWIDTH 8 0
BBX 4 7 2 0
BITMAP
60
90
90
60
F0
40
40
ENDCHAR
STARTCHAR 2642
ENCODING 9794
SWIDTH 1000 0
DWIDTH 8 0
BBX 6 6 1 0
BITMAP
1C
0C
14
E0
A0
E0
ENDCHAR
STARTCHAR 2660
ENCODING 9824
SWIDTH 500 0
DWIDTH 4 0
BBX 4 4 0 2
BITMAP
60
F0
F0
60
ENDCHAR
STARTCHAR 2661
ENCODING 9825
SWIDTH 500 0
DWIDTH 4 0
BBX 4 4 0 1
BITMAP
F0
90
A0
60
ENDCHAR
STARTCHAR 2662
ENCODING 9826
SWIDTH 500 0
DWIDTH 4 0
BBX 3 4 0 1
BITMAP
60
A0
A0
60
ENDCHAR
STARTCHAR 2663
ENCODING 9827
SWIDTH 500 0
DWIDTH 4 0
BBX 4 5 0 1
BITMAP
60
60
F0
F0
60
ENDCHAR
STARTCHAR 2664
ENCODING 9828
SWIDTH 500 0
DWIDTH 4 0
BBX 4 4 0 1
BITMAP
60
A0
90
60
ENDCHAR
STARTCHAR 2665
ENCODING 9829
SWIDTH 500 0
DWIDTH 4 0
BBX 4 4 0 1
BITMAP
F0
F0
60
60
ENDCHAR
STARTCHAR 2666
ENCODING 9830
SWIDTH 500 0
DWIDTH 4 0
BBX 2 4 1 1
BITMAP
C0
C0
C0
C0
ENDCHAR
STARTCHAR 2667
ENCODING 9831
SWIDTH 500 0
DWIDTH 4 0
BBX 4 4 0 1
BITMAP
60
A0
90
60
ENDCHAR
STARTCHAR 2668
ENCODING 9832
SWIDTH 1000 0
DWIDTH 8 0
BBX 8 6 0 0
BITMAP
10
58
34
6E
95
7E
ENDCHAR
STARTCHAR 2669
ENCODING 9833
SWIDTH 500 0
DWIDTH 4 0
BBX 1 3 1 2
BITMAP
80
80
80
ENDCHAR
STARTCHAR 266A
ENCODING 9834
SWIDTH 1000 0
DWIDTH 8 0
BBX 5 7 2 -1
BITMAP
40
70
48
48
50
C0
C0
ENDCHAR
STARTCHAR 266B
ENCODING 9835
SWIDTH 500 0
DWIDTH 4 0
BBX 4 4 0 1
BITMAP
70
50
50
F0
ENDCHAR
STARTCHAR 266C
ENCODING 9836
SWIDTH 500 0
DWIDTH 4 0
BBX 4 4 0 1
BITMAP
70
50
50
F0
ENDCHAR
STARTCHAR 266D
ENCODING 9837
SWIDTH 1000 0
DWIDTH 8 0
BBX 3 6 3 -1
BITMAP
80
80
E0
A0
A0
C0
ENDCHAR
STARTCHAR 266E
ENCODING 9838
SWIDTH 500 0
DWIDTH 4 0
BBX 2 4 1 1
BITMAP
80
C0
C0
40
ENDCHAR
STARTCHAR 266F
ENCODING 9839
SWIDTH 1000 0
DWIDTH 8 0
BBX 4 6 2 0
BITMAP
A0
B0
E0
A0
F0
A0
ENDCHAR
STARTCHAR 2713
ENCODING 10003
SWIDTH 1000 0
DWIDTH 8 0
BBX 5 6 2 0
BITMAP
08
10
10
A0
C0
80
ENDCHAR
STARTCHAR 2756
ENCODING 10070
SWIDTH 1000 0
DWIDTH 8 0
BBX 6 6 1 0
BITMAP
30
30
CC
CC
30
30
ENDCHAR
STARTCHAR 2776
ENCODING 10102
SWIDTH 1000 0
DWIDTH 8 0
BBX 8 8 0 -1
BITMAP
3C
6E
FE
FF
FF
7E
7E
3C
ENDCHAR
STARTCHAR 2777
ENCODING 10103
SWIDTH 1000 0
DWIDTH 8 0
BBX 8 7 0 0
BITMAP
3C
66
DB
FF
EF
5E
3C
ENDCHAR
STARTCHAR 2778
ENCODING 10104
SWIDTH 1000 0
DWIDTH 8 0
BBX 8 8 0 -1
BITMAP
1C
7E
7E
FB
FF
DA
66
3C
ENDCHAR
STARTCHAR 2779
ENCODING 10105
SWIDTH 1000 0
DWIDTH 8 0
BBX 8 8 0 -1
BITMAP
3C
76
E6
F7
D7
76
76
3C
ENDCHAR
STARTCHAR 277A
ENCODING 10106
SWIDTH 1000 0
DWIDTH 8 0
BBX 8 7 0 0
BITMAP
3C
62
FF
FF
FB
7E
3C
ENDCHAR
STARTCHAR 277B
ENCODING 10107
SWIDTH 1000 0
DWIDTH 8 0
BBX 8 7 0 -1
BITMAP
3C
7E
DF
DF
DB
66
3C
ENDCHAR
STARTCHAR 277C
ENCODING 10108
SWIDTH 1000 0
DWIDTH 8 0
BBX 8 7 0 -1
BITMAP
7C
7A
F7
F7
FF
6E
3C
ENDCHAR
STARTCHAR 277D
ENCODING 10109
SWIDTH 1000 0
DWIDTH 8 0
BBX 8 8 0 -1
BITMAP
3C
66
5A
FF
DB
DA
66
3C
ENDCHAR
STARTCHAR 277E
ENCODING 10110
SWIDTH 1000 0
DWIDTH 8 0
BBX 8 8 0 -1
BITMAP
3C
66
DA
DB
E3
7E
7E
3C
ENDCHAR
STARTCHAR 277F
ENCODING 10111
SWIDTH 1000 0
DWIDTH 8 0
BBX 8 7 0 0
BITMAP
3C
5E
DF
DD
DF
5E
3C
ENDCHAR
STARTCHAR 2934
ENCODING 10548
SWIDTH 500 0
DWIDTH 4 0
BBX 3 6 0 1
BITMAP
60
20
20
20
20
C0
ENDCHAR
STARTCHAR 2935
ENCODING 10549
SWIDTH 500 0
DWIDTH 4 0
BBX 3 6 0 -1
BITMAP
C0
20
20
20
20
60
ENDCHAR
STARTCHAR 29BF
ENCODING 10687
SWIDTH 1000 0
DWIDTH 8 0
BBX 6 6 1 0
BITMAP
78
84
B4
B4
84
78
ENDCHAR
STARTCHAR 29FA
ENCODING 10746
SWIDTH 500 0
DWIDTH 4 0
BBX 4 4 0 1
BITMAP
60
60
F0
60
ENDCHAR
STARTCHAR 29FB
ENCODING 10747
SWIDTH 500 0
DWIDTH 4 0
BBX 4 4 0 1
BITMAP
E0
E0
F0
E0
ENDCHAR
STARTCHAR 3000
ENCODING 12288
SWIDTH 1000 0
DWIDTH 8 0
BBX 0 0 0 0
BITMAP
ENDCHAR
STARTCHAR 3001
ENCODING 12289
SWIDTH 1000 0
DWIDTH 8 0
BBX 1 1 1 0
BITMAP
80
ENDCHAR
STARTCHAR 3002
ENCODING 12290
SWIDTH 1000 0
DWIDTH 8 0
BBX 3 3 0 -1
BITMAP
40
A0
40
ENDCHAR
STARTCHAR 3003
ENCODING 12291
SWIDTH 1000 0
DWIDTH 8 0
BBX 4 4 2 1
BITMAP
50
60
A0
C0
ENDCHAR
STARTCHAR 3005
ENCODING 12293
SWIDTH 1000 0
DWIDTH 8 0
BBX 5 5 1 0
BITMAP
20
38
48
B0
10
ENDCHAR
STARTCHAR 3006
ENCODING 12294
SWIDTH 1000 0
DWIDTH 8 0
BBX 6 6 1 0
BITMAP
04
68
50
A8
C0
80
ENDCHAR
STARTCHAR 3007
ENCODING 12295
SWIDTH 1000 0
DWIDTH 8 0
BBX 6 6 1 0
BITMAP
78
84
84
84
84
78
ENDCHAR
STARTCHAR 3008
ENCODING 12296
SWIDTH 1000 0
DWIDTH 8 0
BBX 3 8 4 -1
BITMAP
20
20
40
80
80
40
20
20
ENDCHAR
STARTCHAR 3009
ENCODING 12297
SWIDTH 1000 0
DWIDTH 8 0
BBX 3 8 0 -1
BITMAP
80
40
20
20
20
20
40
80
ENDCHAR
STARTCHAR 300A
ENCODING 12298
SWIDTH 1000 0
DWIDTH 8 0
BBX 4 8 4 -1
BITMAP
50
60
A0
C0
C0
A0
60
50
ENDCHAR
STARTCHAR 300B
ENCODING 12299
SWIDTH 1000 0
DWIDTH 8 0
BBX 4 8 0 -1
BITMAP
C0
60
60
50
50
60
60
C0
ENDCHAR
STARTCHAR 300C
ENCODING 12300
SWIDTH 1000 0
DWIDTH 8 0
BBX 2 6 5 1
BITMAP
C0
80
80
80
80
80
ENDCHAR
STARTCHAR 300D
ENCODING 12301
SWIDTH 1000 0
DWIDTH 8 0
BBX 2 6 1 -1
BITMAP
40
40
40
40
40
C0
ENDCHAR
STARTCHAR 300E
ENCODING 12302
SWIDTH 1000 0
DWIDTH 8 0
BBX 3 6 5 1
BITMAP
E0
E0
80
80
80
80
ENDCHAR
STARTCHAR 300F
ENCODING 12303
SWIDTH 1000 0
DWIDTH 8 0
BBX 3 6 0 -1
BITMAP
20
60
60
60
E0
E0
ENDCHAR
STARTCHAR 3010
ENCODING 12304
SWIDTH 1000 0
DWIDTH 8 0
BBX 1 8 6 -1
BITMAP
80
80
80
80
80
80
80
80
ENDCHAR
STARTCHAR 3011
ENCODING 12305
SWIDTH 1000 0
DWIDTH 8 0
BBX 1 8 1 -1
BITMAP
80
80
80
80
80
80
80
80
ENDCHAR
STARTCHAR 3012
ENCODING 12306
SWIDTH 1000 0
DWIDTH 8 0
BBX 6 7 1 -1
BITMAP
FC
00
FC
20
20
20
20
ENDCHAR
STARTCHAR 3013
ENCODING 12307
SWIDTH 1000 0
DWIDTH 8 0
BBX 6 4 1 1
BITMAP
FC
00
00
FC
ENDCHAR
STARTCHAR 3014
ENCODING 12308
SWIDTH 1000 0
DWIDTH 8 0
BBX 2 7 5 0
BITMAP
C0
80
80
80
80
80
40
ENDCHAR
STARTCHAR 3015
ENCODING 12309
SWIDTH 1000 0
DWIDTH 8 0
BBX 2 7 1 0
BITMAP
C0
40
40
40
40
40
80
ENDCHAR
STARTCHAR 3016
ENCODING 12310
SWIDTH 1000 0
DWIDTH 8 0
BBX 2 8 5 -1
BITMAP
C0
C0
80
80
80
80
C0
C0
ENDCHAR
STARTCHAR 3017
ENCODING 12311
SWIDTH 1000 0
DWIDTH 8 0
BBX 2 8 1 -1
BITMAP
C0
C0
C0
C0
C0
C0
C0
C0
ENDCHAR
STARTCHAR 3018
ENCODING 12312
SWIDTH 1000 0
DWIDTH 8 0
BBX 3 8 5 -1
BITMAP
20
E0
C0
80
80
80
E0
60
ENDCHAR
STARTCHAR 3019
ENCODING 12313
SWIDTH 1000 0
DWIDTH 8 0
BBX 3 8 0 -1
BITMAP
80
E0
60
60
60
60
A0
C0
ENDCHAR
STARTCHAR 301C
ENCODING 12316
SWIDTH 1000 0
DWIDTH 8 0
BBX 6 2 1 2
BITMAP
E0
1C
ENDCHAR
STARTCHAR 301D
ENCODING 12317
SWIDTH 1000 0
DWIDTH 8 0
BBX 1 2 6 4
BITMAP
80
80
ENDCHAR
STARTCHAR 301F
ENCODING 12319
SWIDTH 1000 0
DWIDTH 8 0
BBX 3 3 0 -1
BITMAP
80
60
40
ENDCHAR
STARTCHAR 3020
ENCODING 12320
SWIDTH 1000 0
DWIDTH 8 0
BBX 8 4 0 1
BITMAP
7E
7E
B5
7E
ENDCHAR
STARTCHAR 3033
ENCODING 12339
SWIDTH 1000 0
DWIDTH 8 0
BBX 3 7 2 -1
BITMAP
20
20
40
40
40
80
80
ENDCHAR
STARTCHAR 3034
ENCODING 12340
SWIDTH 1000 0
DWIDTH 8 0
BBX 5 7 2 -1
BITMAP
20
20
40
48
50
80
80
ENDCHAR
STARTCHAR 3035
ENCODING 12341
SWIDTH 1000 0
DWIDTH 8 0
BBX 4 7 2 0
BITMAP
80
80
40
40
20
20
10
ENDCHAR
STARTCHAR 303B
ENCODING 12347
SWIDTH 1000 0
DWIDTH 8 0
BBX 2 5 3 1
BITMAP
C0
80
80
40
80
ENDCHAR
STARTCHAR 303C
ENCODING 12348
SWIDTH 1000 0
DWIDTH 8 0
BBX 6 6 1 0
BITMAP
FC
8C
94
A4
C4
FC
ENDCHAR
STARTCHAR 303D
ENCODING 12349
SWIDTH 1000 0
DWIDTH 8 0
BBX 6 6 1 -1
BITMAP
F0
10
10
08
08
04
ENDCHAR
STARTCHAR 3041
ENCODING 12353
SWIDTH 1000 0
DWIDTH 8 0
BBX 5 5 1 0
BITMAP
20
50
78
A8
E8
ENDCHAR
STARTCHAR 3042
ENCODING 12354
SWIDTH 1000 0
DWIDTH 8 0
BBX 6 6 1 0
BITMAP
C8
70
38
E4
A4
C8
ENDCHAR
STARTCHAR 3043
ENCODING 12355
SWIDTH 1000 0
DWIDTH 8 0
BBX 4 4 2 0
BITMAP
90
90
C0
C0
ENDCHAR
STARTCHAR 3044
ENCODING 12356
SWIDTH 1000 0
DWIDTH 8 0
BBX 6 5 1 0
BITMAP
88
88
84
A0
60
ENDCHAR
STARTCHAR 3045
ENCODING 12357
SWIDTH 1000 0
DWIDTH 8 0
BBX 4 5 2 0
BITMAP
60
60
90
10
60
ENDCHAR
STARTCHAR 3046
ENCODING 12358
SWIDTH 1000 0
DWIDTH 8 0
BBX 4 6 2 0
BITMAP
60
70
90
10
10
60
ENDCHAR
STARTCHAR 3047
ENCODING 12359
SWIDTH 1000 0
DWIDTH 8 0
BBX 4 5 2 0
BITMAP
60
20
40
60
B0
ENDCHAR
STARTCHAR 3048
ENCODING 12360
SWIDTH 1000 0
DWIDTH 8 0
BBX 6 6 1 0
BITMAP
30
00
70
20
70
DC
ENDCHAR
STARTCHAR 3049
ENCODING 12361
SWIDTH 1000 0
DWIDTH 8 0
BBX 5 5 2 0
BITMAP
80
D8
70
90
B0
ENDCHAR
STARTCHAR 304A
ENCODING 12362
SWIDTH 1000 0
DWIDTH 8 0
BBX 6 6 1 0
BITMAP
40
F4
40
78
C4
D8
ENDCHAR
STARTCHAR 304B
ENCODING 12363
SWIDTH 1000 0
DWIDTH 8 0
BBX 6 6 1 0
BITMAP
20
38
D4
50
90
B0
ENDCHAR
STARTCHAR 304C
ENCODING 12364
SWIDTH 1000 0
DWIDTH 8 0
BBX 6 6 1 1
BITMAP
24
38
D4
50
90
B0
ENDCHAR
STARTCHAR 304D
ENCODING 12365
SWIDTH 1000 0
DWIDTH 8 0
BBX 6 6 1 0
BITMAP
28
74
F8
08
00
70
ENDCHAR
STARTCHAR 304E
ENCODING 12366
SWIDTH 1000 0
DWIDTH 8 0
BBX 6 6 1 1
BITMAP
2C
74
F8
08
00
70
ENDCHAR
STARTCHAR 304F
ENCODING 12367
SWIDTH 1000 0
DWIDTH 8 0
BBX 3 6 2 0
BITMAP
20
40
80
80
40
20
ENDCHAR
STARTCHAR 3050
ENCODING 12368
SWIDTH 1000 0
DWIDTH 8 0
BBX 5 6 2 0
BITMAP
28
50
80
80
40
20
ENDCHAR
STARTCHAR 3051
ENCODING 12369
SWIDTH 1000 0
DWIDTH 8 0
BBX 6 6 1 0
BITMAP
08
B8
8C
88
88
90
ENDCHAR
STARTCHAR 3052
ENCODING 12370
SWIDTH 1000 0
DWIDTH 8 0
BBX 7 6 1 1
BITMAP
0E
B8
8C
88
88
90
ENDCHAR
STARTCHAR 3053
ENCODING 12371
SWIDTH 1000 0
DWIDTH 8 0
BBX 6 6 1 0
BITMAP
78
10
00
40
80
7C
ENDCHAR
STARTCHAR 3054
ENCODING 12372
SWIDTH 1000 0
DWIDTH 8 0
BBX 7 6 1 0
BITMAP
7E
10
00
40
80
7C
ENDCHAR
STARTCHAR 3055
ENCODING 12373
SWIDTH 1000 0
DWIDTH 8 0
BBX 5 6 1 0
BITMAP
20
F8
10
18
80
70
ENDCHAR
STARTCHAR 3056
ENCODING 12374
SWIDTH 1000 0
DWIDTH 8 0
BBX 6 6 1 1
BITMAP
24
F8
10
18
80
70
ENDCHAR
STARTCHAR 3057
ENCODING 12375
SWIDTH 1000 0
DWIDTH 8 0
BBX 5 6 2 0
BITMAP
80
80
80
80
88
70
ENDCHAR
STARTCHAR 3058
ENCODING 12376
SWIDTH 1000 0
DWIDTH 8 0
BBX 5 6 2 0
BITMAP
88
90
80
80
88
70
ENDCHAR
STARTCHAR 3059
ENCODING 12377
SWIDTH 1000 0
DWIDTH 8 0
BBX 4 6 2 0
BITMAP
20
F0
E0
60
20
40
ENDCHAR
STARTCHAR 305A
ENCODING 12378
SWIDTH 1000 0
DWIDTH 8 0
BBX 4 6 2 0
BITMAP
20
F0
E0
60
20
40
ENDCHAR
STARTCHAR 305B
ENCODING 12379
SWIDTH 1000 0
DWIDTH 8 0
BBX 6 6 1 0
BITMAP
48
4C
F8
58
40
78
ENDCHAR
STARTCHAR 305C
ENCODING 12380
SWIDTH 1000 0
DWIDTH 8 0
BBX 7 6 1 0
BITMAP
4E
4C
F8
58
40
78
ENDCHAR
STARTCHAR 305D
ENCODING 12381
SWIDTH 1000 0
DWIDTH 8 0
BBX 5 6 1 0
BITMAP
78
10
78
A0
20
38
ENDCHAR
STARTCHAR 305E
ENCODING 12382
SWIDTH 1000 0
DWIDTH 8 0
BBX 6 6 1 0
BITMAP
7C
14
78
A0
20
38
ENDCHAR
STARTCHAR 305F
ENCODING 12383
SWIDTH 1000 0
DWIDTH 8 0
BBX 6 6 1 0
BITMAP
40
E0
5C
80
A0
9C
ENDCHAR
STARTCHAR 3060
ENCODING 12384
SWIDTH 1000 0
DWIDTH 8 0
BBX 6 6 1 0
BITMAP
48
E0
5C
80
A0
9C
ENDCHAR
STARTCHAR 3061
ENCODING 12385
SWIDTH 1000 0
DWIDTH 8 0
BBX 6 6 1 0
BITMAP
40
F0
40
7C
04
38
ENDCHAR
STARTCHAR 3062
ENCODING 12386
SWIDTH 1000 0
DWIDTH 8 0
BBX 7 6 1 0
BITMAP
46
F0
40
7C
04
38
ENDCHAR
STARTCHAR 3063
ENCODING 12387
SWIDTH 1000 0
DWIDTH 8 0
BBX 5 4 1 0
BITMAP
F8
08
08
30
ENDCHAR
STARTCHAR 3064
ENCODING 12388
SWIDTH 1000 0
DWIDTH 8 0
BBX 6 5 1 0
BITMAP
F8
04
04
08
30
ENDCHAR
STARTCHAR 3065
ENCODING 12389
SWIDTH 1000 0
DWIDTH 8 0
BBX 6 7 1 0
BITMAP
04
04
F8
04
04
08
30
ENDCHAR
STARTCHAR 3066
ENCODING 12390
SWIDTH 1000 0
DWIDTH 8 0
BBX 6 6 1 0
BITMAP
0C
F0
20
20
20
18
ENDCHAR
STARTCHAR 3067
ENCODING 12391
SWIDTH 1000 0
DWIDTH 8 0
BBX 6 6 1 0
BITMAP
0C
F4
28
20
20
18
ENDCHAR
STARTCHAR 3068
ENCODING 12392
SWIDTH 1000 0
DWIDTH 8 0
BBX 5 6 1 0
BITMAP
40
20
38
C0
80
78
ENDCHAR
STARTCHAR 3069
ENCODING 12393
SWIDTH 1000 0
DWIDTH 8 0
BBX 5 6 1 0
BITMAP
40
20
38
C0
80
78
ENDCHAR
STARTCHAR 306A
ENCODING 12394
SWIDTH 1000 0
DWIDTH 8 0
BBX 6 6 1 0
BITMAP
40
E4
48
88
B8
3C
ENDCHAR
STARTCHAR 306B
ENCODING 12395
SWIDTH 1000 0
DWIDTH 8 0
BBX 6 6 1 0
BITMAP
80
98
80
80
A0
9C
ENDCHAR
STARTCHAR 306C
ENCODING 12396
SWIDTH 1000 0
DWIDTH 8 0
BBX 6 6 1 0
BITMAP
90
A8
E4
E4
DC
98
ENDCHAR
STARTCHAR 306D
ENCODING 12397
SWIDTH 1000 0
DWIDTH 8 0
BBX 6 6 1 0
BITMAP
40
DC
64
44
DC
58
ENDCHAR
STARTCHAR 306E
ENCODING 12398
SWIDTH 1000 0
DWIDTH 8 0
BBX 6 6 1 0
BITMAP
78
A4
A4
A4
A4
D8
ENDCHAR
STARTCHAR 306F
ENCODING 12399
SWIDTH 1000 0
DWIDTH 8 0
BBX 6 6 1 0
BITMAP
88
BC
88
88
B8
BC
ENDCHAR
STARTCHAR 3070
ENCODING 12400
SWIDTH 1000 0
DWIDTH 8 0
BBX 6 6 1 1
BITMAP
8C
BC
88
88
B8
BC
ENDCHAR
STARTCHAR 3071
ENCODING 12401
SWIDTH 1000 0
DWIDTH 8 0
BBX 7 7 1 0
BITMAP
06
8E
BC
88
88
B8
BC
ENDCHAR
STARTCHAR 3072
ENCODING 12402
SWIDTH 1000 0
DWIDTH 8 0
BBX 6 6 1 0
BITMAP
20
C8
8C
88
88
70
ENDCHAR
STARTCHAR 3073
ENCODING 12403
SWIDTH 1000 0
DWIDTH 8 0
BBX 7 6 1 0
BITMAP
26
C8
8C
88
88
70
ENDCHAR
STARTCHAR 3074
ENCODING 12404
SWIDTH 1000 0
DWIDTH 8 0
BBX 7 6 1 0
BITMAP
26
C8
8C
88
88
70
ENDCHAR
STARTCHAR 3075
ENCODING 12405
SWIDTH 1000 0
DWIDTH 8 0
BBX 6 6 1 0
BITMAP
20
10
20
A4
94
70
ENDCHAR
STARTCHAR 3076
ENCODING 12406
SWIDTH 1000 0
DWIDTH 8 0
BBX 6 6 1 0
BITMAP
24
10
20
A4
94
70
ENDCHAR
STARTCHAR 3077
ENCODING 12407
SWIDTH 1000 0
DWIDTH 8 0
BBX 6 6 1 0
BITMAP
24
14
20
A4
94
70
ENDCHAR
STARTCHAR 3078
ENCODING 12408
SWIDTH 1000 0
DWIDTH 8 0
BBX 6 4 1 1
BITMAP
20
50
88
04
ENDCHAR
STARTCHAR 3079
ENCODING 12409
SWIDTH 1000 0
DWIDTH 8 0
BBX 6 4 1 2
BITMAP
2C
50
88
04
ENDCHAR
STARTCHAR 307A
ENCODING 12410
SWIDTH 1000 0
DWIDTH 8 0
BBX 6 5 1 1
BITMAP
0C
2C
50
88
04
ENDCHAR
STARTCHAR 307B
ENCODING 12411
SWIDTH 1000 0
DWIDTH 8 0
BBX 6 6 1 0
BITMAP
BC
88
BC
88
B8
BC
ENDCHAR
STARTCHAR 307C
ENCODING 12412
SWIDTH 1000 0
DWIDTH 8 0
BBX 6 6 1 1
BITMAP
B8
88
BC
88
B8
BC
ENDCHAR
STARTCHAR 307D
ENCODING 12413
SWIDTH 1000 0
DWIDTH 8 0
BBX 7 7 1 0
BITMAP
06
BE
88
BC
88
B8
BC
ENDCHAR
STARTCHAR 307E
ENCODING 12414
SWIDTH 1000 0
DWIDTH 8 0
BBX 6 6 1 0
BITMAP
10
F8
78
10
70
7C
ENDCHAR
STARTCHAR 307F
ENCODING 12415
SWIDTH 1000 0
DWIDTH 8 0
BBX 6 6 1 0
BITMAP
70
20
28
FC
C8
90
ENDCHAR
STARTCHAR 3080
ENCODING 12416
SWIDTH 1000 0
DWIDTH 8 0
BBX 7 6 1 0
BITMAP
40
E4
C2
C0
C8
78
ENDCHAR
STARTCHAR 3081
ENCODING 12417
SWIDTH 1000 0
DWIDTH 8 0
BBX 6 6 1 0
BITMAP
10
B8
E4
E4
A4
D8
ENDCHAR
STARTCHAR 3082
ENCODING 12418
SWIDTH 1000 0
DWIDTH 8 0
BBX 6 6 1 0
BITMAP
20
F0
40
70
44
38
ENDCHAR
STARTCHAR 3083
ENCODING 12419
SWIDTH 1000 0
DWIDTH 8 0
BBX 6 5 1 0
BITMAP
50
78
C4
38
20
ENDCHAR
STARTCHAR 3084
ENCODING 12420
SWIDTH 1000 0
DWIDTH 8 0
BBX 6 6 1 0
BITMAP
10
5C
E4
2C
20
20
ENDCHAR
STARTCHAR 3085
ENCODING 12421
SWIDTH 1000 0
DWIDTH 8 0
BBX 4 5 2 0
BITMAP
20
F0
B0
F0
40
ENDCHAR
STARTCHAR 3086
ENCODING 12422
SWIDTH 1000 0
DWIDTH 8 0
BBX 6 7 1 -1
BITMAP
10
B8
D4
94
B4
18
20
ENDCHAR
STARTCHAR 3087
ENCODING 12423
SWIDTH 1000 0
DWIDTH 8 0
BBX 4 5 2 0
BITMAP
40
30
40
E0
D0
ENDCHAR
STARTCHAR 3088
ENCODING 12424
SWIDTH 1000 0
DWIDTH 8 0
BBX 6 6 1 0
BITMAP
20
20
38
20
F0
EC
ENDCHAR
STARTCHAR 3089
ENCODING 12425
SWIDTH 1000 0
DWIDTH 8 0
BBX 5 6 2 0
BITMAP
60
80
80
F0
08
70
ENDCHAR
STARTCHAR 308A
ENCODING 12426
SWIDTH 1000 0
DWIDTH 8 0
BBX 4 6 2 -1
BITMAP
90
90
90
90
10
20
ENDCHAR
STARTCHAR 308B
ENCODING 12427
SWIDTH 1000 0
DWIDTH 8 0
BBX 5 6 2 0
BITMAP
E0
20
70
88
C8
70
ENDCHAR
STARTCHAR 308C
ENCODING 12428
SWIDTH 1000 0
DWIDTH 8 0
BBX 6 6 1 0
BITMAP
40
D8
68
48
C8
4C
ENDCHAR
STARTCHAR 308D
ENCODING 12429
SWIDTH 1000 0
DWIDTH 8 0
BBX 5 6 2 0
BITMAP
F0
20
70
88
08
30
ENDCHAR
STARTCHAR 308E
ENCODING 12430
SWIDTH 1000 0
DWIDTH 8 0
BBX 6 5 1 0
BITMAP
40
D8
64
C8
58
ENDCHAR
STARTCHAR 308F
ENCODING 12431
SWIDTH 1000 0
DWIDTH 8 0
BBX 6 6 1 0
BITMAP
40
DC
64
44
C4
58
ENDCHAR
STARTCHAR 3090
ENCODING 12432
SWIDTH 1000 0
DWIDTH 8 0
BBX 6 6 1 0
BITMAP
70
10
78
A4
DC
DC
ENDCHAR
STARTCHAR 3091
ENCODING 12433
SWIDTH 1000 0
DWIDTH 8 0
BBX 6 6 1 0
BITMAP
70
38
E8
68
5C
F4
ENDCHAR
STARTCHAR 3092
ENCODING 12434
SWIDTH 1000 0
DWIDTH 8 0
BBX 6 6 1 0
BITMAP
20
D0
74
98
70
38
ENDCHAR
STARTCHAR 3093
ENCODING 12435
SWIDTH 1000 0
DWIDTH 8 0
BBX 6 6 1 0
BITMAP
20
20
40
70
D4
9C
ENDCHAR
STARTCHAR 3094
ENCODING 12436
SWIDTH 1000 0
DWIDTH 8 0
BBX 6 6 2 0
BITMAP
6C
70
90
10
10
60
ENDCHAR
STARTCHAR 3095
ENCODING 12437
SWIDTH 1000 0
DWIDTH 8 0
BBX 6 5 1 0
BITMAP
40
E8
54
50
A0
ENDCHAR
STARTCHAR 3096
ENCODING 12438
SWIDTH 1000 0
DWIDTH 8 0
BBX 5 5 2 0
BITMAP
90
98
B0
90
20
ENDCHAR
STARTCHAR 3099
ENCODING 12441
SWIDTH 1000 0
DWIDTH 8 0
BBX 2 2 5 5
BITMAP
40
80
ENDCHAR
STARTCHAR 309A
ENCODING 12442
SWIDTH 1000 0
DWIDTH 8 0
BBX 1 2 6 5
BITMAP
80
80
ENDCHAR
STARTCHAR 309B
ENCODING 12443
SWIDTH 1000 0
DWIDTH 8 0
BBX 2 2 0 5
BITMAP
40
80
ENDCHAR
STARTCHAR 309C
ENCODING 12444
SWIDTH 1000 0
DWIDTH 8 0
BBX 2 2 0 5
BITMAP
C0
C0
ENDCHAR
STARTCHAR 309D
ENCODING 12445
SWIDTH 1000 0
DWIDTH 8 0
BBX 4 4 2 1
BITMAP
80
60
10
60
ENDCHAR
STARTCHAR 309E
ENCODING 12446
SWIDTH 1000 0
DWIDTH 8 0
BBX 4 5 2 1
BITMAP
10
90
60
10
60
ENDCHAR
STARTCHAR 309F
ENCODING 12447
SWIDTH 1000 0
DWIDTH 8 0
BBX 4 7 2 -1
BITMAP
40
70
40
E0
90
10
E0
ENDCHAR
STARTCHAR 30A0
ENCODING 12448
SWIDTH 1000 0
DWIDTH 8 0
BBX 4 2 2 2
BITMAP
F0
F0
ENDCHAR
STARTCHAR 30A1
ENCODING 12449
SWIDTH 1000 0
DWIDTH 8 0
BBX 4 5 2 -1
BITMAP
F0
50
40
40
80
ENDCHAR
STARTCHAR 30A2
ENCODING 12450
SWIDTH 1000 0
DWIDTH 8 0
BBX 6 5 1 0
BITMAP
FC
28
20
20
40
ENDCHAR
STARTCHAR 30A3
ENCODING 12451
SWIDTH 1000 0
DWIDTH 8 0
BBX 3 5 2 0
BITMAP
20
40
C0
40
40
ENDCHAR
STARTCHAR 30A4
ENCODING 12452
SWIDTH 1000 0
DWIDTH 8 0
BBX 5 6 1 0
BITMAP
08
10
70
90
10
10
ENDCHAR
STARTCHAR 30A5
ENCODING 12453
SWIDTH 1000 0
DWIDTH 8 0
BBX 4 5 2 0
BITMAP
40
F0
90
10
60
ENDCHAR
STARTCHAR 30A6
ENCODING 12454
SWIDTH 1000 0
DWIDTH 8 0
BBX 6 6 1 0
BITMAP
20
FC
88
08
10
20
ENDCHAR
STARTCHAR 30A7
ENCODING 12455
SWIDTH 1000 0
DWIDTH 8 0
BBX 6 3 1 1
BITMAP
78
20
FC
ENDCHAR
STARTCHAR 30A8
ENCODING 12456
SWIDTH 1000 0
DWIDTH 8 0
BBX 6 4 1 1
BITMAP
FC
20
20
FC
ENDCHAR
STARTCHAR 30A9
ENCODING 12457
SWIDTH 1000 0
DWIDTH 8 0
BBX 4 5 2 0
BITMAP
20
F0
20
E0
60
ENDCHAR
STARTCHAR 30AA
ENCODING 12458
SWIDTH 1000 0
DWIDTH 8 0
BBX 6 6 1 0
BITMAP
10
FC
10
30
50
B0
ENDCHAR
STARTCHAR 30AB
ENCODING 12459
SWIDTH 1000 0
DWIDTH 8 0
BBX 6 6 1 0
BITMAP
20
FC
24
24
48
98
ENDCHAR
STARTCHAR 30AC
ENCODING 12460
SWIDTH 1000 0
DWIDTH 8 0
BBX 6 6 1 0
BITMAP
24
FC
24
24
48
98
ENDCHAR
STARTCHAR 30AD
ENCODING 12461
SWIDTH 1000 0
DWIDTH 8 0
BBX 6 6 1 0
BITMAP
20
78
20
7C
90
10
ENDCHAR
STARTCHAR 30AE
ENCODING 12462
SWIDTH 1000 0
DWIDTH 8 0
BBX 6 7 1 0
BITMAP
04
24
78
20
7C
90
10
ENDCHAR
STARTCHAR 30AF
ENCODING 12463
SWIDTH 1000 0
DWIDTH 8 0
BBX 5 7 1 -1
BITMAP
20
38
48
88
10
10
60
ENDCHAR
STARTCHAR 30B0
ENCODING 12464
SWIDTH 1000 0
DWIDTH 8 0
BBX 7 7 1 -1
BITMAP
26
38
48
88
10
10
60
ENDCHAR
STARTCHAR 30B1
ENCODING 12465
SWIDTH 1000 0
DWIDTH 8 0
BBX 6 6 1 1
BITMAP
40
7C
90
90
10
20
ENDCHAR
STARTCHAR 30B2
ENCODING 12466
SWIDTH 1000 0
DWIDTH 8 0
BBX 6 6 1 1
BITMAP
44
7C
90
90
10
20
ENDCHAR
STARTCHAR 30B3
ENCODING 12467
SWIDTH 1000 0
DWIDTH 8 0
BBX 5 5 1 0
BITMAP
F8
08
08
F8
08
ENDCHAR
STARTCHAR 30B4
ENCODING 12468
SWIDTH 1000 0
DWIDTH 8 0
BBX 7 6 1 1
BITMAP
06
F8
08
08
F8
08
ENDCHAR
STARTCHAR 30B5
ENCODING 12469
SWIDTH 1000 0
DWIDTH 8 0
BBX 6 6 1 0
BITMAP
48
48
FC
48
10
30
ENDCHAR
STARTCHAR 30B6
ENCODING 12470
SWIDTH 1000 0
DWIDTH 8 0
BBX 7 6 1 0
BITMAP
4E
48
FC
48
10
30
ENDCHAR
STARTCHAR 30B7
ENCODING 12471
SWIDTH 1000 0
DWIDTH 8 0
BBX 6 6 1 0
BITMAP
40
20
C4
08
10
E0
ENDCHAR
STARTCHAR 30B8
ENCODING 12472
SWIDTH 1000 0
DWIDTH 8 0
BBX 6 7 1 0
BITMAP
04
48
20
C4
08
10
E0
ENDCHAR
STARTCHAR 30B9
ENCODING 12473
SWIDTH 1000 0
DWIDTH 8 0
BBX 6 6 1 0
BITMAP
78
08
10
10
28
C4
ENDCHAR
STARTCHAR 30BA
ENCODING 12474
SWIDTH 1000 0
DWIDTH 8 0
BBX 6 6 1 1
BITMAP
7C
08
10
10
28
C4
ENDCHAR
STARTCHAR 30BB
ENCODING 12475
SWIDTH 1000 0
DWIDTH 8 0
BBX 6 6 1 0
BITMAP
40
44
F8
48
40
3C
ENDCHAR
STARTCHAR 30BC
ENCODING 12476
SWIDTH 1000 0
DWIDTH 8 0
BBX 6 6 1 1
BITMAP
44
44
F8
48
40
3C
ENDCHAR
STARTCHAR 30BD
ENCODING 12477
SWIDTH 1000 0
DWIDTH 8 0
BBX 5 6 2 0
BITMAP
08
90
90
10
20
C0
ENDCHAR
STARTCHAR 30BE
ENCODING 12478
SWIDTH 1000 0
DWIDTH 8 0
BBX 5 6 2 1
BITMAP
08
90
90
10
20
C0
ENDCHAR
STARTCHAR 30BF
ENCODING 12479
SWIDTH 1000 0
DWIDTH 8 0
BBX 5 7 1 -1
BITMAP
20
38
48
A8
10
10
60
ENDCHAR
STARTCHAR 30C0
ENCODING 12480
SWIDTH 1000 0
DWIDTH 8 0
BBX 7 7 1 0
BITMAP
26
38
48
A8
10
10
60
ENDCHAR
STARTCHAR 30C1
ENCODING 12481
SWIDTH 1000 0
DWIDTH 8 0
BBX 6 6 1 0
BITMAP
78
10
FC
20
20
60
ENDCHAR
STARTCHAR 30C2
ENCODING 12482
SWIDTH 1000 0
DWIDTH 8 0
BBX 6 6 1 1
BITMAP
74
10
FC
20
20
60
ENDCHAR
STARTCHAR 30C3
ENCODING 12483
SWIDTH 1000 0
DWIDTH 8 0
BBX 4 5 2 0
BITMAP
40
D0
10
20
C0
ENDCHAR
STARTCHAR 30C4
ENCODING 12484
SWIDTH 1000 0
DWIDTH 8 0
BBX 6 6 1 0
BITMAP
24
A4
08
08
10
20
ENDCHAR
STARTCHAR 30C5
ENCODING 12485
SWIDTH 1000 0
DWIDTH 8 0
BBX 6 6 1 1
BITMAP
20
A4
08
08
10
20
ENDCHAR
STARTCHAR 30C6
ENCODING 12486
SWIDTH 1000 0
DWIDTH 8 0
BBX 6 7 1 -1
BITMAP
78
00
FC
20
20
20
40
ENDCHAR
STARTCHAR 30C7
ENCODING 12487
SWIDTH 1000 0
DWIDTH 8 0
BBX 7 8 1 -1
BITMAP
02
7C
00
FC
20
20
20
40
ENDCHAR
STARTCHAR 30C8
ENCODING 12488
SWIDTH 1000 0
DWIDTH 8 0
BBX 3 6 3 0
BITMAP
80
80
80
E0
80
80
ENDCHAR
STARTCHAR 30C9
ENCODING 12489
SWIDTH 1000 0
DWIDTH 8 0
BBX 4 6 3 0
BITMAP
90
80
80
E0
80
80
ENDCHAR
STARTCHAR 30CA
ENCODING 12490
SWIDTH 1000 0
DWIDTH 8 0
BBX 6 7 1 -1
BITMAP
10
10
FC
10
20
20
40
ENDCHAR
STARTCHAR 30CB
ENCODING 12491
SWIDTH 1000 0
DWIDTH 8 0
BBX 6 4 1 1
BITMAP
78
00
00
FC
ENDCHAR
STARTCHAR 30CC
ENCODING 12492
SWIDTH 1000 0
DWIDTH 8 0
BBX 4 6 2 0
BITMAP
F0
10
D0
20
50
80
ENDCHAR
STARTCHAR 30CD
ENCODING 12493
SWIDTH 1000 0
DWIDTH 8 0
BBX 6 6 1 1
BITMAP
30
78
10
28
E4
20
ENDCHAR
STARTCHAR 30CE
ENCODING 12494
SWIDTH 1000 0
DWIDTH 8 0
BBX 4 6 2 0
BITMAP
10
10
20
20
40
80
ENDCHAR
STARTCHAR 30CF
ENCODING 12495
SWIDTH 1000 0
DWIDTH 8 0
BBX 6 4 1 1
BITMAP
50
48
84
84
ENDCHAR
STARTCHAR 30D0
ENCODING 12496
SWIDTH 1000 0
DWIDTH 8 0
BBX 7 5 1 1
BITMAP
02
50
48
84
84
ENDCHAR
STARTCHAR 30D1
ENCODING 12497
SWIDTH 1000 0
DWIDTH 8 0
BBX 6 6 1 1
BITMAP
04
04
50
48
84
84
ENDCHAR
STARTCHAR 30D2
ENCODING 12498
SWIDTH 1000 0
DWIDTH 8 0
BBX 5 6 2 0
BITMAP
80
90
E0
80
80
F8
ENDCHAR
STARTCHAR 30D3
ENCODING 12499
SWIDTH 1000 0
DWIDTH 8 0
BBX 6 6 2 0
BITMAP
8C
90
E0
80
80
F8
ENDCHAR
STARTCHAR 30D4
ENCODING 12500
SWIDTH 1000 0
DWIDTH 8 0
BBX 6 7 2 0
BITMAP
0C
8C
90
E0
80
80
F8
ENDCHAR
STARTCHAR 30D5
ENCODING 12501
SWIDTH 1000 0
DWIDTH 8 0
BBX 4 5 2 0
BITMAP
F0
10
10
20
C0
ENDCHAR
STARTCHAR 30D6
ENCODING 12502
SWIDTH 1000 0
DWIDTH 8 0
BBX 5 6 2 1
BITMAP
08
F0
10
10
20
C0
ENDCHAR
STARTCHAR 30D7
ENCODING 12503
SWIDTH 1000 0
DWIDTH 8 0
BBX 6 7 2 0
BITMAP
0C
0C
F0
10
10
20
C0
ENDCHAR
STARTCHAR 30D8
ENCODING 12504
SWIDTH 1000 0
DWIDTH 8 0
BBX 6 4 1 1
BITMAP
20
50
88
04
ENDCHAR
STARTCHAR 30D9
ENCODING 12505
SWIDTH 1000 0
DWIDTH 8 0
BBX 6 5 1 1
BITMAP
04
28
50
88
04
ENDCHAR
STARTCHAR 30DA
ENCODING 12506
SWIDTH 1000 0
DWIDTH 8 0
BBX 6 5 1 1
BITMAP
0C
2C
50
88
04
ENDCHAR
STARTCHAR 30DB
ENCODING 12507
SWIDTH 1000 0
DWIDTH 8 0
BBX 6 6 1 0
BITMAP
20
FC
20
A8
A4
60
ENDCHAR
STARTCHAR 30DC
ENCODING 12508
SWIDTH 1000 0
DWIDTH 8 0
BBX 6 6 1 0
BITMAP
24
FC
20
A8
A4
60
ENDCHAR
STARTCHAR 30DD
ENCODING 12509
SWIDTH 1000 0
DWIDTH 8 0
BBX 6 7 1 0
BITMAP
04
24
FC
20
A8
A4
60
ENDCHAR
STARTCHAR 30DE
ENCODING 12510
SWIDTH 1000 0
DWIDTH 8 0
BBX 6 5 1 0
BITMAP
FC
08
50
20
10
ENDCHAR
STARTCHAR 30DF
ENCODING 12511
SWIDTH 1000 0
DWIDTH 8 0
BBX 4 6 2 0
BITMAP
C0
30
C0
20
C0
30
ENDCHAR
STARTCHAR 30E0
ENCODING 12512
SWIDTH 1000 0
DWIDTH 8 0
BBX 6 6 1 0
BITMAP
20
20
40
48
4C
B0
ENDCHAR
STARTCHAR 30E1
ENCODING 12513
SWIDTH 1000 0
DWIDTH 8 0
BBX 5 6 1 0
BITMAP
08
10
30
10
28
C0
ENDCHAR
STARTCHAR 30E2
ENCODING 12514
SWIDTH 1000 0
DWIDTH 8 0
BBX 6 6 1 0
BITMAP
78
20
FC
20
20
3C
ENDCHAR
STARTCHAR 30E3
ENCODING 12515
SWIDTH 1000 0
DWIDTH 8 0
BBX 4 4 2 1
BITMAP
70
D0
40
40
ENDCHAR
STARTCHAR 30E4
ENCODING 12516
SWIDTH 1000 0
DWIDTH 8 0
BBX 6 6 1 0
BITMAP
40
5C
A4
28
20
20
ENDCHAR
STARTCHAR 30E5
ENCODING 12517
SWIDTH 1000 0
DWIDTH 8 0
BBX 6 3 1 1
BITMAP
70
10
FC
ENDCHAR
STARTCHAR 30E6
ENCODING 12518
SWIDTH 1000 0
DWIDTH 8 0
BBX 6 4 1 1
BITMAP
78
08
10
FC
ENDCHAR
STARTCHAR 30E7
ENCODING 12519
SWIDTH 1000 0
DWIDTH 8 0
BBX 4 4 2 0
BITMAP
F0
F0
10
F0
ENDCHAR
STARTCHAR 30E8
ENCODING 12520
SWIDTH 1000 0
DWIDTH 8 0
BBX 5 5 1 0
BITMAP
F8
08
78
F8
08
ENDCHAR
STARTCHAR 30E9
ENCODING 12521
SWIDTH 1000 0
DWIDTH 8 0
BBX 6 7 1 -1
BITMAP
78
00
FC
04
08
10
20
ENDCHAR
STARTCHAR 30EA
ENCODING 12522
SWIDTH 1000 0
DWIDTH 8 0
BBX 4 7 2 -1
BITMAP
90
90
90
90
10
20
40
ENDCHAR
STARTCHAR 30EB
ENCODING 12523
SWIDTH 1000 0
DWIDTH 8 0
BBX 7 6 0 0
BITMAP
28
28
28
2A
4C
C8
ENDCHAR
STARTCHAR 30EC
ENCODING 12524
SWIDTH 1000 0
DWIDTH 8 0
BBX 5 6 2 0
BITMAP
80
80
88
90
A0
C0
ENDCHAR
STARTCHAR 30ED
ENCODING 12525
SWIDTH 1000 0
DWIDTH 8 0
BBX 6 5 1 0
BITMAP
FC
84
84
FC
84
ENDCHAR
STARTCHAR 30EE
ENCODING 12526
SWIDTH 1000 0
DWIDTH 8 0
BBX 4 4 2 0
BITMAP
F0
90
10
60
ENDCHAR
STARTCHAR 30EF
ENCODING 12527
SWIDTH 1000 0
DWIDTH 8 0
BBX 6 5 1 0
BITMAP
FC
84
08
08
30
ENDCHAR
STARTCHAR 30F0
ENCODING 12528
SWIDTH 1000 0
DWIDTH 8 0
BBX 6 6 1 0
BITMAP
10
FC
50
FC
10
10
ENDCHAR
STARTCHAR 30F1
ENCODING 12529
SWIDTH 1000 0
DWIDTH 8 0
BBX 6 4 1 1
BITMAP
FC
28
20
FC
ENDCHAR
STARTCHAR 30F2
ENCODING 12530
SWIDTH 1000 0
DWIDTH 8 0
BBX 6 6 1 0
BITMAP
FC
08
78
08
10
60
ENDCHAR
STARTCHAR 30F3
ENCODING 12531
SWIDTH 1000 0
DWIDTH 8 0
BBX 5 5 2 1
BITMAP
88
08
10
20
C0
ENDCHAR
STARTCHAR 30F4
ENCODING 12532
SWIDTH 1000 0
DWIDTH 8 0
BBX 6 6 1 1
BITMAP
24
FC
88
08
10
20
ENDCHAR
STARTCHAR 30F5
ENCODING 12533
SWIDTH 1000 0
DWIDTH 8 0
BBX 4 5 2 0
BITMAP
40
F0
50
50
B0
ENDCHAR
STARTCHAR 30F6
ENCODING 12534
SWIDTH 1000 0
DWIDTH 8 0
BBX 5 5 2 0
BITMAP
80
F8
A0
20
40
ENDCHAR
STARTCHAR 30F7
ENCODING 12535
SWIDTH 1000 0
DWIDTH 8 0
BBX 7 6 1 0
BITMAP
06
FC
88
08
08
30
ENDCHAR
STARTCHAR 30F8
ENCODING 12536
SWIDTH 1000 0
DWIDTH 8 0
BBX 6 6 1 0
BITMAP
14
FC
50
FC
10
10
ENDCHAR
STARTCHAR 30F9
ENCODING 12537
SWIDTH 1000 0
DWIDTH 8 0
BBX 6 5 1 2
BITMAP
04
FC
28
20
FC
ENDCHAR
STARTCHAR 30FA
ENCODING 12538
SWIDTH 1000 0
DWIDTH 8 0
BBX 7 7 1 0
BITMAP
06
F8
08
78
08
10
60
ENDCHAR
STARTCHAR 30FB
ENCODING 12539
SWIDTH 1000 0
DWIDTH 8 0
BBX 2 1 3 3
BITMAP
C0
ENDCHAR
STARTCHAR 30FC
ENCODING 12540
SWIDTH 1000 0
DWIDTH 8 0
BBX 6 1 1 2
BITMAP
FC
ENDCHAR
STARTCHAR 30FD
ENCODING 12541
SWIDTH 1000 0
DWIDTH 8 0
BBX 3 3 2 1
BITMAP
80
40
20
ENDCHAR
STARTCHAR 30FE
ENCODING 12542
SWIDTH 1000 0
DWIDTH 8 0
BBX 4 4 2 1
BITMAP
10
A0
40
20
ENDCHAR
STARTCHAR 30FF
ENCODING 12543
SWIDTH 1000 0
DWIDTH 8 0
BBX 5 6 1 0
BITMAP
F8
08
08
08
08
08
ENDCHAR
STARTCHAR 31F0
ENCODING 12784
SWIDTH 1000 0
DWIDTH 8 0
BBX 4 6 2 -1
BITMAP
40
70
90
20
20
C0
ENDCHAR
STARTCHAR 31F1
ENCODING 12785
SWIDTH 1000 0
DWIDTH 8 0
BBX 4 4 2 1
BITMAP
40
90
20
C0
ENDCHAR
STARTCHAR 31F2
ENCODING 12786
SWIDTH 1000 0
DWIDTH 8 0
BBX 4 4 2 0
BITMAP
60
20
60
90
ENDCHAR
STARTCHAR 31F3
ENCODING 12787
SWIDTH 1000 0
DWIDTH 8 0
BBX 3 5 3 0
BITMAP
80
80
C0
A0
80
ENDCHAR
STARTCHAR 31F4
ENCODING 12788
SWIDTH 1000 0
DWIDTH 8 0
BBX 4 4 2 0
BITMAP
60
60
20
D0
ENDCHAR
STARTCHAR 31F5
ENCODING 12789
SWIDTH 1000 0
DWIDTH 8 0
BBX 6 3 1 0
BITMAP
50
48
84
ENDCHAR
STARTCHAR 31F6
ENCODING 12790
SWIDTH 1000 0
DWIDTH 8 0
BBX 4 5 2 0
BITMAP
80
B0
C0
80
70
ENDCHAR
STARTCHAR 31F7
ENCODING 12791
SWIDTH 1000 0
DWIDTH 8 0
BBX 4 4 2 0
BITMAP
F0
10
20
40
ENDCHAR
STARTCHAR 31F8
ENCODING 12792
SWIDTH 1000 0
DWIDTH 8 0
BBX 5 3 2 1
BITMAP
40
A0
18
ENDCHAR
STARTCHAR 31F9
ENCODING 12793
SWIDTH 1000 0
DWIDTH 8 0
BBX 4 5 2 0
BITMAP
40
F0
C0
D0
40
ENDCHAR
STARTCHAR 31FA
ENCODING 12794
SWIDTH 1000 0
DWIDTH 8 0
BBX 5 4 2 1
BITMAP
40
80
90
E8
ENDCHAR
STARTCHAR 31FB
ENCODING 12795
SWIDTH 1000 0
DWIDTH 8 0
BBX 4 6 2 -1
BITMAP
F0
00
F0
10
20
40
ENDCHAR
STARTCHAR 31FC
ENCODING 12796
SWIDTH 1000 0
DWIDTH 8 0
BBX 2 5 3 0
BITMAP
C0
C0
C0
40
C0
ENDCHAR
STARTCHAR 31FD
ENCODING 12797
SWIDTH 1000 0
DWIDTH 8 0
BBX 6 5 1 0
BITMAP
10
50
54
58
90
ENDCHAR
STARTCHAR 31FE
ENCODING 12798
SWIDTH 1000 0
DWIDTH 8 0
BBX 4 5 2 0
BITMAP
80
80
90
A0
C0
ENDCHAR
STARTCHAR 31FF
ENCODING 12799
SWIDTH 1000 0
DWIDTH 8 0
BBX 4 4 2 0
BITMAP
F0
90
F0
90
ENDCHAR
STARTCHAR 3231
ENCODING 12849
SWIDTH 1000 0
DWIDTH 8 0
BBX 8 8 0 -1
BITMAP
42
AA
ED
A9
BF
ED
BA
42
ENDCHAR
STARTCHAR 3232
ENCODING 12850
SWIDTH 1000 0
DWIDTH 8 0
BBX 8 8 0 -1
BITMAP
42
92
FF
9D
BD
9D
AE
42
ENDCHAR
STARTCHAR 3239
ENCODING 12857
SWIDTH 1000 0
DWIDTH 8 0
BBX 8 8 0 -1
BITMAP
42
AE
A9
BD
E9
A9
A6
42
ENDCHAR
STARTCHAR 3251
ENCODING 12881
SWIDTH 1000 0
DWIDTH 8 0
BBX 8 7 0 0
BITMAP
3C
76
D5
A5
C5
B6
7C
ENDCHAR
STARTCHAR 3252
ENCODING 12882
SWIDTH 1000 0
DWIDTH 8 0
BBX 8 7 0 0
BITMAP
3C
76
DD
A5
C9
BE
7C
ENDCHAR
STARTCHAR 3253
ENCODING 12883
SWIDTH 1000 0
DWIDTH 8 0
BBX 8 7 0 0
BITMAP
3C
42
BD
A5
A5
BE
7C
ENDCHAR
STARTCHAR 3254
ENCODING 12884
SWIDTH 1000 0
DWIDTH 8 0
BBX 8 7 0 0
BITMAP
3C
76
D5
AD
CD
B6
7C
ENDCHAR
STARTCHAR 3255
ENCODING 12885
SWIDTH 1000 0
DWIDTH 8 0
BBX 8 7 0 0
BITMAP
3C
7E
D9
AD
C5
BE
7C
ENDCHAR
STARTCHAR 3256
ENCODING 12886
SWIDTH 1000 0
DWIDTH 8 0
BBX 8 6 0 0
BITMAP
7C
7E
AD
AD
BE
7C
ENDCHAR
STARTCHAR 3257
ENCODING 12887
SWIDTH 1000 0
DWIDTH 8 0
BBX 8 7 0 0
BITMAP
3C
7E
D5
A5
C9
BA
7C
ENDCHAR
STARTCHAR 3258
ENCODING 12888
SWIDTH 1000 0
DWIDTH 8 0
BBX 8 7 0 0
BITMAP
3C
7E
DD
A5
CD
BE
7C
ENDCHAR
STARTCHAR 3259
ENCODING 12889
SWIDTH 1000 0
DWIDTH 8 0
BBX 8 7 0 0
BITMAP
3C
7E
DD
AF
C5
BE
7C
ENDCHAR
STARTCHAR 325A
ENCODING 12890
SWIDTH 1000 0
DWIDTH 8 0
BBX 8 8 0 -1
BITMAP
3C
42
BE
9D
AD
BE
42
3C
ENDCHAR
STARTCHAR 325B
ENCODING 12891
SWIDTH 1000 0
DWIDTH 8 0
BBX 8 7 0 0
BITMAP
3C
76
D5
95
A5
76
3C
ENDCHAR
STARTCHAR 325C
ENCODING 12892
SWIDTH 1000 0
DWIDTH 8 0
BBX 8 7 0 0
BITMAP
3C
42
BD
95
A9
7E
3C
ENDCHAR
STARTCHAR 325D
ENCODING 12893
SWIDTH 1000 0
DWIDTH 8 0
BBX 8 8 0 -1
BITMAP
3C
42
BE
95
A5
BE
42
3C
ENDCHAR
STARTCHAR 325E
ENCODING 12894
SWIDTH 1000 0
DWIDTH 8 0
BBX 8 7 0 0
BITMAP
3C
66
D5
9D
AF
72
3C
ENDCHAR
STARTCHAR 325F
ENCODING 12895
SWIDTH 1000 0
DWIDTH 8 0
BBX 8 8 0 -1
BITMAP
3C
6E
DA
99
AD
BE
42
3C
ENDCHAR
STARTCHAR 32A4
ENCODING 12964
SWIDTH 1000 0
DWIDTH 8 0
BBX 8 8 0 -1
BITMAP
3C
52
92
8D
91
BE
42
3C
ENDCHAR
STARTCHAR 32A5
ENCODING 12965
SWIDTH 1000 0
DWIDTH 8 0
BBX 8 8 0 -1
BITMAP
3C
52
BE
D5
BD
92
52
3C
ENDCHAR
STARTCHAR 32A6
ENCODING 12966
SWIDTH 1000 0
DWIDTH 8 0
BBX 8 8 0 -1
BITMAP
3C
42
BE
91
99
96
52
3C
ENDCHAR
STARTCHAR 32A7
ENCODING 12967
SWIDTH 1000 0
DWIDTH 8 0
BBX 8 8 0 -1
BITMAP
3C
52
BE
A1
BD
BE
42
3C
ENDCHAR
STARTCHAR 32A8
ENCODING 12968
SWIDTH 1000 0
DWIDTH 8 0
BBX 8 7 0 0
BITMAP
3C
52
BD
A1
BD
5E
3C
ENDCHAR
STARTCHAR 32B1
ENCODING 12977
SWIDTH 1000 0
DWIDTH 8 0
BBX 8 7 0 -1
BITMAP
7C
7E
99
AD
BD
42
3C
ENDCHAR
STARTCHAR 32B2
ENCODING 12978
SWIDTH 1000 0
DWIDTH 8 0
BBX 8 7 0 0
BITMAP
3C
6E
D5
95
A9
7A
3C
ENDCHAR
STARTCHAR 32B3
ENCODING 12979
SWIDTH 1000 0
DWIDTH 8 0
BBX 8 8 0 -1
BITMAP
3C
42
BE
9D
A5
BE
42
3C
ENDCHAR
STARTCHAR 32B4
ENCODING 12980
SWIDTH 1000 0
DWIDTH 8 0
BBX 8 8 0 -1
BITMAP
3C
42
BE
9B
AF
BE
42
3C
ENDCHAR
STARTCHAR 32B5
ENCODING 12981
SWIDTH 1000 0
DWIDTH 8 0
BBX 8 7 0 0
BITMAP
3C
6E
ED
ED
FD
6E
3C
ENDCHAR
STARTCHAR 32B6
ENCODING 12982
SWIDTH 1000 0
DWIDTH 8 0
BBX 8 7 0 0
BITMAP
3C
66
A5
E5
F5
66
3C
ENDCHAR
STARTCHAR 32B7
ENCODING 12983
SWIDTH 1000 0
DWIDTH 8 0
BBX 8 7 0 0
BITMAP
3C
66
AD
E5
F9
6E
3C
ENDCHAR
STARTCHAR 32B8
ENCODING 12984
SWIDTH 1000 0
DWIDTH 8 0
BBX 8 7 0 0
BITMAP
3C
6E
AD
E5
F5
6E
3C
ENDCHAR
STARTCHAR 32B9
ENCODING 12985
SWIDTH 1000 0
DWIDTH 8 0
BBX 8 7 0 0
BITMAP
3C
66
ED
ED
FF
62
3C
ENDCHAR
STARTCHAR 32BA
ENCODING 12986
SWIDTH 1000 0
DWIDTH 8 0
BBX 8 7 0 0
BITMAP
3C
6E
A9
ED
F5
6E
3C
ENDCHAR
STARTCHAR 32BB
ENCODING 12987
SWIDTH 1000 0
DWIDTH 8 0
BBX 8 7 0 0
BITMAP
3C
6E
AD
ED
FD
6E
3C
ENDCHAR
STARTCHAR 32BC
ENCODING 12988
SWIDTH 1000 0
DWIDTH 8 0
BBX 8 7 0 0
BITMAP
3C
6E
A5
E5
F9
6A
3C
ENDCHAR
STARTCHAR 32BD
ENCODING 12989
SWIDTH 1000 0
DWIDTH 8 0
BBX 8 7 0 0
BITMAP
3C
6E
AD
ED
FD
6E
3C
ENDCHAR
STARTCHAR 32BE
ENCODING 12990
SWIDTH 1000 0
DWIDTH 8 0
BBX 8 7 0 0
BITMAP
3C
6E
AD
EF
F5
6E
3C
ENDCHAR
STARTCHAR 32BF
ENCODING 12991
SWIDTH 1000 0
DWIDTH 8 0
BBX 8 8 0 -1
BITMAP
3C
76
CE
BB
9D
B6
42
3C
ENDCHAR
STARTCHAR 32D0
ENCODING 13008
SWIDTH 1000 0
DWIDTH 8 0
BBX 8 8 0 -1
BITMAP
3C
42
BE
95
91
92
62
3C
ENDCHAR
STARTCHAR 32D1
ENCODING 13009
SWIDTH 1000 0
DWIDTH 8 0
BBX 8 8 0 -1
BITMAP
3C
42
8A
91
F1
92
52
3C
ENDCHAR
STARTCHAR 32D2
ENCODING 13010
SWIDTH 1000 0
DWIDTH 8 0
BBX 8 7 0 0
BITMAP
3C
52
BD
A5
85
4A
3C
ENDCHAR
STARTCHAR 32D3
ENCODING 13011
SWIDTH 1000 0
DWIDTH 8 0
BBX 8 8 0 -1
BITMAP
3C
42
BE
91
91
FE
42
3C
ENDCHAR
STARTCHAR 32D4
ENCODING 13012
SWIDTH 1000 0
DWIDTH 8 0
BBX 8 9 0 -2
BITMAP
3C
4A
8A
BD
89
99
AA
42
3C
ENDCHAR
STARTCHAR 32D5
ENCODING 13013
SWIDTH 1000 0
DWIDTH 8 0
BBX 8 9 0 -2
BITMAP
3C
52
92
BD
95
95
AE
42
3C
ENDCHAR
STARTCHAR 32D6
ENCODING 13014
SWIDTH 1000 0
DWIDTH 8 0
BBX 8 8 0 -1
BITMAP
3C
52
9E
B1
BD
8A
4A
3C
ENDCHAR
STARTCHAR 32D7
ENCODING 13015
SWIDTH 1000 0
DWIDTH 8 0
BBX 8 8 0 -1
BITMAP
3C
52
9E
A5
89
8A
72
3C
ENDCHAR
STARTCHAR 32D8
ENCODING 13016
SWIDTH 1000 0
DWIDTH 8 0
BBX 8 8 0 -2
BITMAP
3C
62
BE
A9
89
92
42
3C
ENDCHAR
STARTCHAR 32D9
ENCODING 13017
SWIDTH 1000 0
DWIDTH 8 0
BBX 8 8 0 -1
BITMAP
3C
42
BE
85
85
BE
42
3C
ENDCHAR
STARTCHAR 32DA
ENCODING 13018
SWIDTH 1000 0
DWIDTH 8 0
BBX 8 8 0 -1
BITMAP
3C
4A
AA
FF
A9
8A
52
3C
ENDCHAR
STARTCHAR 32DB
ENCODING 13019
SWIDTH 1000 0
DWIDTH 8 0
BBX 8 8 0 -1
BITMAP
3C
42
92
A3
85
9A
42
3C
ENDCHAR
STARTCHAR 32DC
ENCODING 13020
SWIDTH 1000 0
DWIDTH 8 0
BBX 8 8 0 -1
BITMAP
3C
42
9E
89
89
B6
42
3C
ENDCHAR
STARTCHAR 32DD
ENCODING 13021
SWIDTH 1000 0
DWIDTH 8 0
BBX 8 7 0 -1
BITMAP
3C
62
9D
A5
A1
5E
3C
ENDCHAR
STARTCHAR 32DE
ENCODING 13022
SWIDTH 1000 0
DWIDTH 8 0
BBX 8 8 0 -1
BITMAP
3C
42
A6
85
89
8A
52
3C
ENDCHAR
STARTCHAR 32DF
ENCODING 13023
SWIDTH 1000 0
DWIDTH 8 0
BBX 8 8 0 -1
BITMAP
3C
42
9E
A5
B5
8A
52
3C
ENDCHAR
STARTCHAR 32E0
ENCODING 13024
SWIDTH 1000 0
DWIDTH 8 0
BBX 8 8 0 -1
BITMAP
3C
5E
92
FF
91
92
42
3C
ENDCHAR
STARTCHAR 32E1
ENCODING 13025
SWIDTH 1000 0
DWIDTH 8 0
BBX 8 8 0 -1
BITMAP
3C
42
96
A5
85
8A
52
3C
ENDCHAR
STARTCHAR 32E2
ENCODING 13026
SWIDTH 1000 0
DWIDTH 8 0
BBX 8 7 0 -1
BITMAP
7C
7E
FF
89
91
62
3C
ENDCHAR
STARTCHAR 32E3
ENCODING 13027
SWIDTH 1000 0
DWIDTH 8 0
BBX 8 8 0 -1
BITMAP
3C
52
92
99
95
92
52
3C
ENDCHAR
STARTCHAR 32E5
ENCODING 13029
SWIDTH 1000 0
DWIDTH 8 0
BBX 8 8 0 -1
BITMAP
3C
42
BE
81
81
BE
42
3C
ENDCHAR
STARTCHAR 32E9
ENCODING 13033
SWIDTH 1000 0
DWIDTH 8 0
BBX 8 8 0 -1
BITMAP
3C
42
8A
A5
A3
C2
42
3C
ENDCHAR
STARTCHAR 32EC
ENCODING 13036
SWIDTH 1000 0
DWIDTH 8 0
BBX 8 8 0 -1
BITMAP
3C
42
92
A9
C5
82
42
3C
ENDCHAR
STARTCHAR 32ED
ENCODING 13037
SWIDTH 1000 0
DWIDTH 8 0
BBX 8 9 0 -2
BITMAP
3C
52
92
BD
B5
B5
92
42
3C
ENDCHAR
STARTCHAR 32FA
ENCODING 13050
SWIDTH 1000 0
DWIDTH 8 0
BBX 8 8 0 -1
BITMAP
3C
42
BE
A5
A5
BE
42
3C
ENDCHAR
STARTCHAR 3303
ENCODING 13059
SWIDTH 1000 0
DWIDTH 8 0
BBX 7 6 0 0
BITMAP
70
5E
40
60
68
B0
ENDCHAR
STARTCHAR 330D
ENCODING 13069
SWIDTH 1000 0
DWIDTH 8 0
BBX 6 6 1 1
BITMAP
EC
B4
4C
00
5C
40
ENDCHAR
STARTCHAR 3314
ENCODING 13076
SWIDTH 1000 0
DWIDTH 8 0
BBX 6 6 1 0
BITMAP
60
60
C0
5C
14
1C
ENDCHAR
STARTCHAR 3318
ENCODING 13080
SWIDTH 1000 0
DWIDTH 8 0
BBX 6 6 1 1
BITMAP
4C
DC
44
88
80
E0
ENDCHAR
STARTCHAR 3322
ENCODING 13090
SWIDTH 1000 0
DWIDTH 8 0
BBX 7 8 0 -1
BITMAP
48
F2
64
00
20
F0
20
40
ENDCHAR
STARTCHAR 3323
ENCODING 13091
SWIDTH 1000 0
DWIDTH 8 0
BBX 7 8 0 -1
BITMAP
48
F2
42
74
40
60
40
40
ENDCHAR
STARTCHAR 3326
ENCODING 13094
SWIDTH 1000 0
DWIDTH 8 0
BBX 6 8 1 -1
BITMAP
80
80
C0
80
98
18
2C
28
ENDCHAR
STARTCHAR 3327
ENCODING 13095
SWIDTH 1000 0
DWIDTH 8 0
BBX 6 8 1 -1
BITMAP
80
80
C0
80
90
04
04
18
ENDCHAR
STARTCHAR 332B
ENCODING 13099
SWIDTH 1000 0
DWIDTH 8 0
BBX 8 8 0 -1
BITMAP
10
40
9F
80
10
E6
8D
70
ENDCHAR
STARTCHAR 3336
ENCODING 13110
SWIDTH 1000 0
DWIDTH 8 0
BBX 8 6 0 0
BITMAP
62
96
04
64
FD
4E
ENDCHAR
STARTCHAR 333B
ENCODING 13115
SWIDTH 1000 0
DWIDTH 8 0
BBX 7 8 1 -1
BITMAP
20
80
DE
20
00
00
A0
C0
ENDCHAR
STARTCHAR 3349
ENCODING 13129
SWIDTH 1000 0
DWIDTH 8 0
BBX 6 7 1 -1
BITMAP
40
80
40
84
54
14
04
ENDCHAR
STARTCHAR 334A
ENCODING 13130
SWIDTH 1000 0
DWIDTH 8 0
BBX 8 7 0 -1
BITMAP
22
4A
22
24
00
3D
AE
ENDCHAR
STARTCHAR 334D
ENCODING 13133
SWIDTH 1000 0
DWIDTH 8 0
BBX 7 7 1 -1
BITMAP
C0
5C
80
80
88
9A
84
ENDCHAR
STARTCHAR 3351
ENCODING 13137
SWIDTH 1000 0
DWIDTH 8 0
BBX 7 7 1 0
BITMAP
D8
44
48
80
98
DA
84
ENDCHAR
STARTCHAR 3357
ENCODING 13143
SWIDTH 1000 0
DWIDTH 8 0
BBX 6 7 1 -1
BITMAP
E0
44
88
80
80
C0
80
ENDCHAR
STARTCHAR 337B
ENCODING 13179
SWIDTH 1000 0
DWIDTH 8 0
BBX 8 8 0 -1
BITMAP
06
FF
5C
EC
4E
FE
5A
55
ENDCHAR
STARTCHAR 337C
ENCODING 13180
SWIDTH 1000 0
DWIDTH 8 0
BBX 8 7 0 -1
BITMAP
FB
FD
FD
FD
FD
BB
30
ENDCHAR
STARTCHAR 337D
ENCODING 13181
SWIDTH 1000 0
DWIDTH 8 0
BBX 8 7 0 0
BITMAP
40
4F
F4
4C
2A
6C
DF
ENDCHAR
STARTCHAR 337E
ENCODING 13182
SWIDTH 1000 0
DWIDTH 8 0
BBX 7 7 0 -1
BITMAP
FC
F4
FE
F6
BE
5E
5C
ENDCHAR
STARTCHAR 338E
ENCODING 13198
SWIDTH 1000 0
DWIDTH 8 0
BBX 6 5 1 -1
BITMAP
EC
D4
EC
E4
0C
ENDCHAR
STARTCHAR 338F
ENCODING 13199
SWIDTH 1000 0
DWIDTH 8 0
BBX 6 7 1 -1
BITMAP
80
80
CC
D4
DC
A4
1C
ENDCHAR
STARTCHAR 339C
ENCODING 13212
SWIDTH 1000 0
DWIDTH 8 0
BBX 6 4 1 0
BITMAP
FC
BC
BC
BC
ENDCHAR
STARTCHAR 339D
ENCODING 13213
SWIDTH 1000 0
DWIDTH 8 0
BBX 6 4 1 0
BITMAP
DC
AC
EC
EC
ENDCHAR
STARTCHAR 339E
ENCODING 13214
SWIDTH 1000 0
DWIDTH 8 0
BBX 6 6 1 0
BITMAP
80
80
DC
AC
EC
EC
ENDCHAR
STARTCHAR 33A1
ENCODING 13217
SWIDTH 1000 0
DWIDTH 8 0
BBX 6 7 1 0
BITMAP
0C
08
0C
F8
A4
A4
A4
ENDCHAR
STARTCHAR 33C4
ENCODING 13252
SWIDTH 1000 0
DWIDTH 8 0
BBX 6 3 1 1
BITMAP
CC
90
EC
ENDCHAR
STARTCHAR 33CB
ENCODING 13259
SWIDTH 1000 0
DWIDTH 8 0
BBX 6 6 1 0
BITMAP
9C
94
FC
90
90
90
ENDCHAR
STARTCHAR 33CD
ENCODING 13261
SWIDTH 1000 0
DWIDTH 8 0
BBX 7 6 1 0
BITMAP
D8
98
98
98
D8
F6
ENDCHAR
STARTCHAR 3402
ENCODING 13314
SWIDTH 1000 0
DWIDTH 8 0
BBX 7 6 0 0
BITMAP
20
3C
1E
44
EE
76
ENDCHAR
STARTCHAR 3406
ENCODING 13318
SWIDTH 1000 0
DWIDTH 8 0
BBX 5 6 1 0
BITMAP
70
78
78
78
48
98
ENDCHAR
STARTCHAR 342C
ENCODING 13356
SWIDTH 1000 0
DWIDTH 8 0
BBX 6 7 1 0
BITMAP
20
FC
48
F4
A8
A8
AC
ENDCHAR
STARTCHAR 342E
ENCODING 13358
SWIDTH 1000 0
DWIDTH 8 0
BBX 8 7 0 0
BITMAP
10
7E
24
7E
FF
2A
7E
ENDCHAR
STARTCHAR 3468
ENCODING 13416
SWIDTH 1000 0
DWIDTH 8 0
BBX 7 7 1 -1
BITMAP
3C
BC
A0
FE
98
98
E4
ENDCHAR
STARTCHAR 346A
ENCODING 13418
SWIDTH 1000 0
DWIDTH 8 0
BBX 8 8 0 -1
BITMAP
08
5E
54
DB
5E
5E
52
62
ENDCHAR
STARTCHAR 3492
ENCODING 13458
SWIDTH 1000 0
DWIDTH 8 0
BBX 7 8 0 -1
BITMAP
0E
5E
7E
5E
FE
4C
5A
68
ENDCHAR
STARTCHAR 34B5
ENCODING 13493
SWIDTH 1000 0
DWIDTH 8 0
BBX 6 7 1 -1
BITMAP
20
FC
FC
84
F8
48
84
ENDCHAR
STARTCHAR 34BC
ENCODING 13500
SWIDTH 1000 0
DWIDTH 8 0
BBX 6 8 1 -1
BITMAP
48
FC
78
FC
EC
EC
A4
84
ENDCHAR
STARTCHAR 34C1
ENCODING 13505
SWIDTH 1000 0
DWIDTH 8 0
BBX 6 4 1 1
BITMAP
FC
94
5C
80
ENDCHAR
STARTCHAR 34C7
ENCODING 13511
SWIDTH 1000 0
DWIDTH 8 0
BBX 8 7 0 -1
BITMAP
02
5C
08
1F
04
4C
92
ENDCHAR
STARTCHAR 34DB
ENCODING 13531
SWIDTH 1000 0
DWIDTH 8 0
BBX 6 6 1 -1
BITMAP
FC
94
94
94
D4
2C
ENDCHAR
STARTCHAR 351F
ENCODING 13599
SWIDTH 1000 0
DWIDTH 8 0
BBX 7 8 1 -1
BITMAP
C8
FC
4C
FC
76
FC
24
DC
ENDCHAR
STARTCHAR 355D
ENCODING 13661
SWIDTH 1000 0
DWIDTH 8 0
BBX 6 8 1 -1
BITMAP
20
FC
FC
84
FC
FC
48
FC
ENDCHAR
STARTCHAR 355E
ENCODING 13662
SWIDTH 1000 0
DWIDTH 8 0
BBX 8 7 0 -1
BITMAP
7E
7A
A6
76
74
F6
29
ENDCHAR
STARTCHAR 3563
ENCODING 13667
SWIDTH 1000 0
DWIDTH 8 0
BBX 6 7 1 -1
BITMAP
38
48
84
78
88
78
88
ENDCHAR
STARTCHAR 356E
ENCODING 13678
SWIDTH 1000 0
DWIDTH 8 0
BBX 7 6 1 0
BITMAP
E8
E4
C0
D8
D8
26
ENDCHAR
STARTCHAR 35A6
ENCODING 13734
SWIDTH 1000 0
DWIDTH 8 0
BBX 7 8 1 -1
BITMAP
10
FE
FC
FC
FC
D8
36
10
ENDCHAR
STARTCHAR 35A8
ENCODING 13736
SWIDTH 1000 0
DWIDTH 8 0
BBX 7 8 1 -1
BITMAP
10
D8
D8
FE
EC
D4
32
10
ENDCHAR
STARTCHAR 35C5
ENCODING 13765
SWIDTH 1000 0
DWIDTH 8 0
BBX 6 6 1 0
BITMAP
AC
FC
AC
BC
DC
3C
ENDCHAR
STARTCHAR 35DA
ENCODING 13786
SWIDTH 1000 0
DWIDTH 8 0
BBX 7 7 1 -1
BITMAP
FC
FC
FC
FC
FE
36
10
ENDCHAR
STARTCHAR 35F4
ENCODING 13812
SWIDTH 1000 0
DWIDTH 8 0
BBX 6 7 1 -1
BITMAP
BC
BC
BC
DC
DC
54
44
ENDCHAR
STARTCHAR 3605
ENCODING 13829
SWIDTH 1000 0
DWIDTH 8 0
BBX 8 8 0 -1
BITMAP
08
EB
F4
DB
FE
EE
3E
22
ENDCHAR
STARTCHAR 364A
ENCODING 13898
SWIDTH 1000 0
DWIDTH 8 0
BBX 8 8 0 -1
BITMAP
40
4E
EE
4E
5F
56
F4
1B
ENDCHAR
STARTCHAR 3691
ENCODING 13969
SWIDTH 1000 0
DWIDTH 8 0
BBX 6 6 1 0
BITMAP
78
FC
78
FC
30
CC
ENDCHAR
STARTCHAR 3696
ENCODING 13974
SWIDTH 1000 0
DWIDTH 8 0
BBX 8 7 0 0
BITMAP
10
7E
7E
42
FF
18
66
ENDCHAR
STARTCHAR 3699
ENCODING 13977
SWIDTH 1000 0
DWIDTH 8 0
BBX 8 8 0 -1
BITMAP
20
7E
5A
7E
10
FF
18
66
ENDCHAR
STARTCHAR 36CF
ENCODING 14031
SWIDTH 1000 0
DWIDTH 8 0
BBX 7 8 0 -1
BITMAP
48
4A
FE
64
AE
6A
3A
48
ENDCHAR
STARTCHAR 3761
ENCODING 14177
SWIDTH 1000 0
DWIDTH 8 0
BBX 6 8 1 -1
BITMAP
20
FC
84
FC
F4
A8
EC
30
ENDCHAR
STARTCHAR 3762
ENCODING 14178
SWIDTH 1000 0
DWIDTH 8 0
BBX 6 8 1 -1
BITMAP
20
FC
00
78
FC
AC
FC
8C
ENDCHAR
STARTCHAR 376B
ENCODING 14187
SWIDTH 1000 0
DWIDTH 8 0
BBX 7 8 1 -1
BITMAP
20
FC
DC
88
DC
FC
BE
80
ENDCHAR
STARTCHAR 376C
ENCODING 14188
SWIDTH 1000 0
DWIDTH 8 0
BBX 8 8 0 -1
BITMAP
24
F4
3E
74
FF
74
7B
88
ENDCHAR
STARTCHAR 3775
ENCODING 14197
SWIDTH 1000 0
DWIDTH 8 0
BBX 8 7 0 -1
BITMAP
7E
7E
7E
FF
24
04
0C
ENDCHAR
STARTCHAR 378D
ENCODING 14221
SWIDTH 1000 0
DWIDTH 8 0
BBX 7 7 1 -1
BITMAP
FC
FC
A0
F8
A8
B8
C6
ENDCHAR
STARTCHAR 37C1
ENCODING 14273
SWIDTH 1000 0
DWIDTH 8 0
BBX 7 8 1 -1
BITMAP
80
BE
BC
A8
BE
E8
28
48
ENDCHAR
STARTCHAR 37E2
ENCODING 14306
SWIDTH 1000 0
DWIDTH 8 0
BBX 8 7 0 0
BITMAP
10
7E
7E
1C
FF
3C
3C
ENDCHAR
STARTCHAR 37E8
ENCODING 14312
SWIDTH 1000 0
DWIDTH 8 0
BBX 7 8 1 -1
BITMAP
08
AC
FC
FE
FC
FC
34
24
ENDCHAR
STARTCHAR 37F4
ENCODING 14324
SWIDTH 1000 0
DWIDTH 8 0
BBX 7 8 1 -1
BITMAP
90
BC
B4
BC
BC
DC
A8
2E
ENDCHAR
STARTCHAR 37FD
ENCODING 14333
SWIDTH 1000 0
DWIDTH 8 0
BBX 7 8 1 -1
BITMAP
80
BC
FC
FC
FE
CC
2C
18
ENDCHAR
STARTCHAR 3800
ENCODING 14336
SWIDTH 1000 0
DWIDTH 8 0
BBX 7 8 1 -1
BITMAP
20
F8
F8
FE
FC
20
FC
84
ENDCHAR
STARTCHAR 382F
ENCODING 14383
SWIDTH 1000 0
DWIDTH 8 0
BBX 4 6 2 0
BITMAP
F0
90
F0
F0
90
F0
ENDCHAR
STARTCHAR 3836
ENCODING 14390
SWIDTH 1000 0
DWIDTH 8 0
BBX 7 8 1 -1
BITMAP
90
98
E8
E8
E8
E8
AA
A6
ENDCHAR
STARTCHAR 3840
ENCODING 14400
SWIDTH 1000 0
DWIDTH 8 0
BBX 6 8 1 -1
BITMAP
20
68
A4
FC
A4
EC
AC
80
ENDCHAR
STARTCHAR 385C
ENCODING 14428
SWIDTH 1000 0
DWIDTH 8 0
BBX 7 8 0 -1
BITMAP
44
4E
FA
EE
F0
FE
56
48
ENDCHAR
STARTCHAR 3861
ENCODING 14433
SWIDTH 1000 0
DWIDTH 8 0
BBX 8 8 0 -1
BITMAP
40
5E
EE
EB
FA
EA
66
6A
ENDCHAR
STARTCHAR 38FA
ENCODING 14586
SWIDTH 1000 0
DWIDTH 8 0
BBX 7 7 0 -1
BITMAP
20
20
6A
6A
A4
20
60
ENDCHAR
STARTCHAR 3917
ENCODING 14615
SWIDTH 1000 0
DWIDTH 8 0
BBX 8 7 0 0
BITMAP
7E
7E
FF
32
7C
5A
30
ENDCHAR
STARTCHAR 391A
ENCODING 14618
SWIDTH 1000 0
DWIDTH 8 0
BBX 8 8 0 -1
BITMAP
40
56
60
77
D2
52
52
56
ENDCHAR
STARTCHAR 396F
ENCODING 14703
SWIDTH 1000 0
DWIDTH 8 0
BBX 8 7 0 0
BITMAP
7E
7E
7E
FF
12
6E
1C
ENDCHAR
STARTCHAR 3A6E
ENCODING 14958
SWIDTH 1000 0
DWIDTH 8 0
BBX 8 7 0 0
BITMAP
48
5E
FE
7F
DE
7F
48
ENDCHAR
STARTCHAR 3A73
ENCODING 14963
SWIDTH 1000 0
DWIDTH 8 0
BBX 8 8 0 -1
BITMAP
46
5F
FE
5E
5F
DE
4C
5E
ENDCHAR
STARTCHAR 3AD6
ENCODING 15062
SWIDTH 1000 0
DWIDTH 8 0
BBX 8 8 0 -1
BITMAP
10
0E
10
FF
3C
3C
3C
44
ENDCHAR
STARTCHAR 3AD7
ENCODING 15063
SWIDTH 1000 0
DWIDTH 8 0
BBX 8 7 0 -1
BITMAP
7E
7E
7E
3C
FF
10
10
ENDCHAR
STARTCHAR 3AEA
ENCODING 15082
SWIDTH 1000 0
DWIDTH 8 0
BBX 8 7 0 0
BITMAP
7E
7E
FF
5D
5C
5C
54
ENDCHAR
STARTCHAR 3B0E
ENCODING 15118
SWIDTH 1000 0
DWIDTH 8 0
BBX 6 7 1 -1
BITMAP
FC
FC
88
D8
FC
94
20
ENDCHAR
STARTCHAR 3B1A
ENCODING 15130
SWIDTH 1000 0
DWIDTH 8 0
BBX 7 8 1 -1
BITMAP
20
B8
BE
8C
BC
B4
DC
1A
ENDCHAR
STARTCHAR 3B1C
ENCODING 15132
SWIDTH 1000 0
DWIDTH 8 0
BBX 7 7 1 -1
BITMAP
FC
FC
FC
DE
FC
FC
84
ENDCHAR
STARTCHAR 3B22
ENCODING 15138
SWIDTH 1000 0
DWIDTH 8 0
BBX 7 7 1 0
BITMAP
FC
FC
FE
E8
FE
A4
2C
ENDCHAR
STARTCHAR 3B6D
ENCODING 15213
SWIDTH 1000 0
DWIDTH 8 0
BBX 7 8 0 -1
BITMAP
40
5E
EE
5E
7E
DE
5A
6A
ENDCHAR
STARTCHAR 3B77
ENCODING 15223
SWIDTH 1000 0
DWIDTH 8 0
BBX 7 8 0 -1
BITMAP
40
5E
FE
7E
C6
DA
CA
56
ENDCHAR
STARTCHAR 3B87
ENCODING 15239
SWIDTH 1000 0
DWIDTH 8 0
BBX 8 8 0 -1
BITMAP
46
48
FE
74
DB
DE
6D
48
ENDCHAR
STARTCHAR 3B88
ENCODING 15240
SWIDTH 1000 0
DWIDTH 8 0
BBX 8 8 0 -1
BITMAP
48
48
FF
4E
60
5E
CA
58
ENDCHAR
STARTCHAR 3B8D
ENCODING 15245
SWIDTH 1000 0
DWIDTH 8 0
BBX 8 8 0 -1
BITMAP
24
FF
7A
7A
56
FF
34
D2
ENDCHAR
STARTCHAR 3BA4
ENCODING 15268
SWIDTH 1000 0
DWIDTH 8 0
BBX 8 8 0 -1
BITMAP
10
7E
18
7F
3C
FF
34
D2
ENDCHAR
STARTCHAR 3BB6
ENCODING 15286
SWIDTH 1000 0
DWIDTH 8 0
BBX 7 8 0 -1
BITMAP
48
5A
FE
52
5A
D6
56
46
ENDCHAR
STARTCHAR 3BC3
ENCODING 15299
SWIDTH 1000 0
DWIDTH 8 0
BBX 7 8 0 -1
BITMAP
48
5E
EC
46
FA
C8
5A
48
ENDCHAR
STARTCHAR 3BCD
ENCODING 15309
SWIDTH 1000 0
DWIDTH 8 0
BBX 8 8 0 -1
BITMAP
54
76
FA
56
77
F6
76
76
ENDCHAR
STARTCHAR 3BF0
ENCODING 15344
SWIDTH 1000 0
DWIDTH 8 0
BBX 8 8 0 -1
BITMAP
40
5E
FE
5E
6E
6E
5F
60
ENDCHAR
STARTCHAR 3C0F
ENCODING 15375
SWIDTH 1000 0
DWIDTH 8 0
BBX 8 8 0 -1
BITMAP
54
5F
FF
4E
6E
DE
6E
62
ENDCHAR
STARTCHAR 3C26
ENCODING 15398
SWIDTH 1000 0
DWIDTH 8 0
BBX 7 8 0 -2
BITMAP
28
28
7E
26
F6
4C
5A
2A
ENDCHAR
STARTCHAR 3CC3
ENCODING 15555
SWIDTH 1000 0
DWIDTH 8 0
BBX 7 8 1 -1
BITMAP
10
90
B8
14
B0
FE
90
10
ENDCHAR
STARTCHAR 3CD2
ENCODING 15570
SWIDTH 1000 0
DWIDTH 8 0
BBX 6 7 1 -1
BITMAP
90
BC
28
B4
10
A8
BC
ENDCHAR
STARTCHAR 3D11
ENCODING 15633
SWIDTH 1000 0
DWIDTH 8 0
BBX 7 8 1 -1
BITMAP
10
BE
54
BC
6C
DC
D0
10
ENDCHAR
STARTCHAR 3D1E
ENCODING 15646
SWIDTH 1000 0
DWIDTH 8 0
BBX 6 7 1 -1
BITMAP
BC
34
A8
5C
DC
DC
54
ENDCHAR
STARTCHAR 3D64
ENCODING 15716
SWIDTH 1000 0
DWIDTH 8 0
BBX 7 7 0 -1
BITMAP
7E
2A
58
7E
1A
6E
B2
ENDCHAR
STARTCHAR 3D9A
ENCODING 15770
SWIDTH 1000 0
DWIDTH 8 0
BBX 8 7 0 -1
BITMAP
7F
3E
7E
16
7E
7E
9A
ENDCHAR
STARTCHAR 3DC0
ENCODING 15808
SWIDTH 1000 0
DWIDTH 8 0
BBX 7 8 1 -1
BITMAP
48
FC
D8
94
F8
F8
46
44
ENDCHAR
STARTCHAR 3DD4
ENCODING 15828
SWIDTH 1000 0
DWIDTH 8 0
BBX 7 8 0 -1
BITMAP
42
5C
B6
C2
DE
7E
5E
9A
ENDCHAR
STARTCHAR 3E05
ENCODING 15877
SWIDTH 1000 0
DWIDTH 8 0
BBX 8 8 0 -1
BITMAP
50
5F
6E
DA
DE
5E
62
9C
ENDCHAR
STARTCHAR 3E3F
ENCODING 15935
SWIDTH 1000 0
DWIDTH 8 0
BBX 8 8 0 -1
BITMAP
48
5E
68
DE
7E
4C
4D
52
ENDCHAR
STARTCHAR 3E60
ENCODING 15968
SWIDTH 1000 0
DWIDTH 8 0
BBX 7 8 0 -1
BITMAP
28
6A
5C
5A
7E
B8
26
40
ENDCHAR
STARTCHAR 3E66
ENCODING 15974
SWIDTH 1000 0
DWIDTH 8 0
BBX 6 7 1 -1
BITMAP
FC
94
6C
FC
64
7C
E4
ENDCHAR
STARTCHAR 3E68
ENCODING 15976
SWIDTH 1000 0
DWIDTH 8 0
BBX 7 6 0 0
BITMAP
64
5E
B6
7E
B6
5E
ENDCHAR
STARTCHAR 3E83
ENCODING 16003
SWIDTH 1000 0
DWIDTH 8 0
BBX 8 7 0 0
BITMAP
2C
5F
50
5E
6E
AE
46
ENDCHAR
STARTCHAR 3E94
ENCODING 16020
SWIDTH 1000 0
DWIDTH 8 0
BBX 7 8 0 -1
BITMAP
3E
52
5E
D4
3E
7E
56
42
ENDCHAR
STARTCHAR 3F57
ENCODING 16215
SWIDTH 1000 0
DWIDTH 8 0
BBX 6 7 1 -1
BITMAP
F0
B0
E8
A8
F8
A4
20
ENDCHAR
STARTCHAR 3F72
ENCODING 16242
SWIDTH 1000 0
DWIDTH 8 0
BBX 8 8 0 -1
BITMAP
08
3F
40
DE
4E
52
42
0C
ENDCHAR
STARTCHAR 3F75
ENCODING 16245
SWIDTH 1000 0
DWIDTH 8 0
BBX 8 7 0 0
BITMAP
08
3F
C8
48
5E
48
7F
ENDCHAR
STARTCHAR 3F77
ENCODING 16247
SWIDTH 1000 0
DWIDTH 8 0
BBX 7 8 0 -1
BITMAP
08
3E
C8
C8
3A
54
6A
08
ENDCHAR
STARTCHAR 3FAE
ENCODING 16302
SWIDTH 1000 0
DWIDTH 8 0
BBX 8 7 0 0
BITMAP
08
3E
DE
DE
DE
5E
7F
ENDCHAR
STARTCHAR 3FC9
ENCODING 16329
SWIDTH 1000 0
DWIDTH 8 0
BBX 7 8 1 -1
BITMAP
10
7C
BC
7E
BC
BC
BC
E4
ENDCHAR
STARTCHAR 3FD7
ENCODING 16343
SWIDTH 1000 0
DWIDTH 8 0
BBX 8 7 0 -1
BITMAP
08
7F
D7
7E
7E
66
76
ENDCHAR
STARTCHAR 4039
ENCODING 16441
SWIDTH 1000 0
DWIDTH 8 0
BBX 6 7 1 -1
BITMAP
10
D0
FC
F4
F8
D8
24
ENDCHAR
STARTCHAR 4058
ENCODING 16472
SWIDTH 1000 0
DWIDTH 8 0
BBX 7 7 1 -1
BITMAP
DC
EC
D0
FE
C8
BC
24
ENDCHAR
STARTCHAR 4093
ENCODING 16531
SWIDTH 1000 0
DWIDTH 8 0
BBX 8 7 0 -1
BITMAP
6E
4E
EE
4E
2C
4B
10
ENDCHAR
STARTCHAR 4105
ENCODING 16645
SWIDTH 1000 0
DWIDTH 8 0
BBX 8 6 0 0
BITMAP
34
7E
FF
7F
34
52
ENDCHAR
STARTCHAR 4148
ENCODING 16712
SWIDTH 1000 0
DWIDTH 8 0
BBX 8 7 0 -1
BITMAP
34
7E
FF
7A
7E
14
72
ENDCHAR
STARTCHAR 414F
ENCODING 16719
SWIDTH 1000 0
DWIDTH 8 0
BBX 8 7 0 -1
BITMAP
7E
5E
F0
5C
BC
DE
67
ENDCHAR
STARTCHAR 4163
ENCODING 16739
SWIDTH 1000 0
DWIDTH 8 0
BBX 8 7 0 0
BITMAP
7E
5E
FE
BE
DE
5F
40
ENDCHAR
STARTCHAR 41B4
ENCODING 16820
SWIDTH 1000 0
DWIDTH 8 0
BBX 8 8 0 -1
BITMAP
10
7E
38
7E
FE
7E
7F
0F
ENDCHAR
STARTCHAR 41BF
ENCODING 16831
SWIDTH 1000 0
DWIDTH 8 0
BBX 8 8 0 -1
BITMAP
10
7E
24
6E
EE
7F
6C
B6
ENDCHAR
STARTCHAR 41E6
ENCODING 16870
SWIDTH 1000 0
DWIDTH 8 0
BBX 8 8 0 -1
BITMAP
08
7E
10
3C
54
FF
18
66
ENDCHAR
STARTCHAR 41EE
ENCODING 16878
SWIDTH 1000 0
DWIDTH 8 0
BBX 8 8 0 -1
BITMAP
40
7F
00
4C
FF
48
5E
40
ENDCHAR
STARTCHAR 41F3
ENCODING 16883
SWIDTH 1000 0
DWIDTH 8 0
BBX 6 7 1 0
BITMAP
90
FC
20
7C
7C
68
FC
ENDCHAR
STARTCHAR 4207
ENCODING 16903
SWIDTH 1000 0
DWIDTH 8 0
BBX 8 8 0 -1
BITMAP
08
7E
0E
7E
7E
FF
10
10
ENDCHAR
STARTCHAR 420E
ENCODING 16910
SWIDTH 1000 0
DWIDTH 8 0
BBX 8 8 0 -1
BITMAP
48
7E
54
FF
3E
FF
34
D2
ENDCHAR
STARTCHAR 4264
ENCODING 16996
SWIDTH 1000 0
DWIDTH 8 0
BBX 8 8 0 -1
BITMAP
48
7E
78
77
7A
F4
66
08
ENDCHAR
STARTCHAR 42C6
ENCODING 17094
SWIDTH 1000 0
DWIDTH 8 0
BBX 8 7 0 0
BITMAP
4F
6E
52
6E
F0
D0
50
ENDCHAR
STARTCHAR 42D6
ENCODING 17110
SWIDTH 1000 0
DWIDTH 8 0
BBX 8 8 0 -1
BITMAP
44
4E
7F
46
7E
5F
C4
44
ENDCHAR
STARTCHAR 42DD
ENCODING 17117
SWIDTH 1000 0
DWIDTH 8 0
BBX 8 7 0 0
BITMAP
56
6A
68
5F
4A
C6
58
ENDCHAR
STARTCHAR 4302
ENCODING 17154
SWIDTH 1000 0
DWIDTH 8 0
BBX 8 7 0 -1
BITMAP
5E
BE
5E
7E
DE
5F
40
ENDCHAR
STARTCHAR 432B
ENCODING 17195
SWIDTH 1000 0
DWIDTH 8 0
BBX 8 7 0 -1
BITMAP
7F
7E
78
BE
3E
CD
53
ENDCHAR
STARTCHAR 4343
ENCODING 17219
SWIDTH 1000 0
DWIDTH 8 0
BBX 8 7 0 0
BITMAP
1E
6C
30
FF
10
7E
42
ENDCHAR
STARTCHAR 43EE
ENCODING 17390
SWIDTH 1000 0
DWIDTH 8 0
BBX 7 8 0 -1
BITMAP
08
7E
AA
62
72
A8
AA
30
ENDCHAR
STARTCHAR 43F0
ENCODING 17392
SWIDTH 1000 0
DWIDTH 8 0
BBX 8 6 0 -1
BITMAP
7E
AA
6E
64
BA
BF
ENDCHAR
STARTCHAR 4408
ENCODING 17416
SWIDTH 1000 0
DWIDTH 8 0
BBX 8 7 0 -1
BITMAP
7F
AE
7E
7A
BE
7F
B0
ENDCHAR
STARTCHAR 4417
ENCODING 17431
SWIDTH 1000 0
DWIDTH 8 0
BBX 8 8 0 -1
BITMAP
08
7C
AA
7F
6E
BE
AE
B2
ENDCHAR
STARTCHAR 441C
ENCODING 17436
SWIDTH 1000 0
DWIDTH 8 0
BBX 8 7 0 0
BITMAP
12
6E
AE
7E
7E
BF
FA
ENDCHAR
STARTCHAR 4422
ENCODING 17442
SWIDTH 1000 0
DWIDTH 8 0
BBX 7 6 0 0
BITMAP
6E
B2
6E
6E
AE
AA
ENDCHAR
STARTCHAR 4453
ENCODING 17491
SWIDTH 1000 0
DWIDTH 8 0
BBX 8 7 0 0
BITMAP
24
7E
3C
3C
7E
7E
FF
ENDCHAR
STARTCHAR 445B
ENCODING 17499
SWIDTH 1000 0
DWIDTH 8 0
BBX 8 7 0 -1
BITMAP
6E
4C
FF
6C
AC
6F
82
ENDCHAR
STARTCHAR 4476
ENCODING 17526
SWIDTH 1000 0
DWIDTH 8 0
BBX 8 8 0 -1
BITMAP
44
6E
AE
AF
EE
AE
AA
AA
ENDCHAR
STARTCHAR 447A
ENCODING 17530
SWIDTH 1000 0
DWIDTH 8 0
BBX 8 7 0 -1
BITMAP
7E
7A
BE
FA
B7
BD
01
ENDCHAR
STARTCHAR 4491
ENCODING 17553
SWIDTH 1000 0
DWIDTH 8 0
BBX 8 3 0 2
BITMAP
24
08
FF
ENDCHAR
STARTCHAR 44B3
ENCODING 17587
SWIDTH 1000 0
DWIDTH 8 0
BBX 8 8 0 -1
BITMAP
28
7E
7C
26
50
FF
34
D2
ENDCHAR
STARTCHAR 44BE
ENCODING 17598
SWIDTH 1000 0
DWIDTH 8 0
BBX 8 8 0 -1
BITMAP
28
7E
38
FF
1A
24
64
72
ENDCHAR
STARTCHAR 44D4
ENCODING 17620
SWIDTH 1000 0
DWIDTH 8 0
BBX 8 8 0 -1
BITMAP
28
7E
3C
FF
3C
7E
08
18
ENDCHAR
STARTCHAR 4508
ENCODING 17672
SWIDTH 1000 0
DWIDTH 8 0
BBX 8 7 0 0
BITMAP
28
FF
7E
7E
3C
3C
66
ENDCHAR
STARTCHAR 450D
ENCODING 17677
SWIDTH 1000 0
DWIDTH 8 0
BBX 8 8 0 -1
BITMAP
28
FF
7E
7E
7E
02
B6
06
ENDCHAR
STARTCHAR 4525
ENCODING 17701
SWIDTH 1000 0
DWIDTH 8 0
BBX 8 8 0 -1
BITMAP
28
7E
7C
FF
7E
7E
7E
82
ENDCHAR
STARTCHAR 4543
ENCODING 17731
SWIDTH 1000 0
DWIDTH 8 0
BBX 8 8 0 -1
BITMAP
28
FF
6C
BF
CE
BF
AA
9D
ENDCHAR
STARTCHAR 459D
ENCODING 17821
SWIDTH 1000 0
DWIDTH 8 0
BBX 6 7 1 -1
BITMAP
38
E0
FC
A4
FC
24
D8
ENDCHAR
STARTCHAR 45B8
ENCODING 17848
SWIDTH 1000 0
DWIDTH 8 0
BBX 6 8 1 -1
BITMAP
F4
7C
D4
CC
FC
FC
24
D8
ENDCHAR
STARTCHAR 45E5
ENCODING 17893
SWIDTH 1000 0
DWIDTH 8 0
BBX 8 7 0 -1
BITMAP
56
F6
F9
FC
7A
7C
1B
ENDCHAR
STARTCHAR 45EA
ENCODING 17898
SWIDTH 1000 0
DWIDTH 8 0
BBX 8 8 0 -1
BITMAP
08
7E
7E
5C
7E
BE
AA
FF
ENDCHAR
STARTCHAR 460F
ENCODING 17935
SWIDTH 1000 0
DWIDTH 8 0
BBX 7 8 0 -1
BITMAP
20
76
FA
FC
FA
FA
DA
A8
ENDCHAR
STARTCHAR 4641
ENCODING 17985
SWIDTH 1000 0
DWIDTH 8 0
BBX 6 8 1 -1
BITMAP
98
94
DC
8C
D4
BC
88
B4
ENDCHAR
STARTCHAR 4665
ENCODING 18021
SWIDTH 1000 0
DWIDTH 8 0
BBX 8 8 0 -1
BITMAP
40
5E
FE
5E
6D
7E
4A
48
ENDCHAR
STARTCHAR 46A1
ENCODING 18081
SWIDTH 1000 0
DWIDTH 8 0
BBX 8 6 0 0
BITMAP
6E
7E
DE
7E
9A
B7
ENDCHAR
STARTCHAR 46AF
ENCODING 18095
SWIDTH 1000 0
DWIDTH 8 0
BBX 6 7 1 -1
BITMAP
F4
F4
F4
F4
B4
E4
8C
ENDCHAR
STARTCHAR 470C
ENCODING 18188
SWIDTH 1000 0
DWIDTH 8 0
BBX 8 7 0 -1
BITMAP
58
A6
7A
FF
6F
DE
42
ENDCHAR
STARTCHAR 4764
ENCODING 18276
SWIDTH 1000 0
DWIDTH 8 0
BBX 8 8 0 -1
BITMAP
28
5F
3C
5E
EE
66
B6
68
ENDCHAR
STARTCHAR 47FD
ENCODING 18429
SWIDTH 1000 0
DWIDTH 8 0
BBX 8 7 0 0
BITMAP
04
7E
A8
6A
BE
DA
FB
ENDCHAR
STARTCHAR 4816
ENCODING 18454
SWIDTH 1000 0
DWIDTH 8 0
BBX 7 7 0 -1
BITMAP
76
AE
76
28
CE
CE
92
ENDCHAR
STARTCHAR 4844
ENCODING 18500
SWIDTH 1000 0
DWIDTH 8 0
BBX 8 8 0 -1
BITMAP
40
7E
7A
DA
7A
FB
4B
53
ENDCHAR
STARTCHAR 484E
ENCODING 18510
SWIDTH 1000 0
DWIDTH 8 0
BBX 8 8 0 -1
BITMAP
40
7F
7E
DA
7E
F8
48
50
ENDCHAR
STARTCHAR 48B5
ENCODING 18613
SWIDTH 1000 0
DWIDTH 8 0
BBX 7 7 0 -1
BITMAP
76
0A
FA
4A
5A
78
08
ENDCHAR
STARTCHAR 49B0
ENCODING 18864
SWIDTH 1000 0
DWIDTH 8 0
BBX 6 7 1 -1
BITMAP
FC
FC
FC
FC
FC
FC
9C
ENDCHAR
STARTCHAR 49E7
ENCODING 18919
SWIDTH 1000 0
DWIDTH 8 0
BBX 7 7 1 -1
BITMAP
FC
BC
BE
FC
FE
D4
AC
ENDCHAR
STARTCHAR 49FA
ENCODING 18938
SWIDTH 1000 0
DWIDTH 8 0
BBX 8 7 0 -1
BITMAP
4C
FE
5E
6E
EC
6F
08
ENDCHAR
STARTCHAR 4A04
ENCODING 18948
SWIDTH 1000 0
DWIDTH 8 0
BBX 8 7 0 -1
BITMAP
2A
FF
F6
76
BC
77
08
ENDCHAR
STARTCHAR 4A29
ENCODING 18985
SWIDTH 1000 0
DWIDTH 8 0
BBX 7 7 0 -1
BITMAP
7E
B6
64
FE
EE
F6
44
ENDCHAR
STARTCHAR 4ABC
ENCODING 19132
SWIDTH 1000 0
DWIDTH 8 0
BBX 7 7 1 0
BITMAP
80
BE
BC
FC
9C
BC
F4
ENDCHAR
STARTCHAR 4B3B
ENCODING 19259
SWIDTH 1000 0
DWIDTH 8 0
BBX 8 8 0 -1
BITMAP
48
6A
CE
EA
64
66
85
6A
ENDCHAR
STARTCHAR 4BC2
ENCODING 19394
SWIDTH 1000 0
DWIDTH 8 0
BBX 8 8 0 -1
BITMAP
7E
7C
7E
7E
7E
FF
34
D2
ENDCHAR
STARTCHAR 4BCA
ENCODING 19402
SWIDTH 1000 0
DWIDTH 8 0
BBX 8 7 0 -1
BITMAP
6F
A2
FE
6E
6E
62
66
ENDCHAR
STARTCHAR 4BD2
ENCODING 19410
SWIDTH 1000 0
DWIDTH 8 0
BBX 8 7 0 -1
BITMAP
6E
A0
FF
6A
7A
AA
AE
ENDCHAR
STARTCHAR 4BE8
ENCODING 19432
SWIDTH 1000 0
DWIDTH 8 0
BBX 8 8 0 -1
BITMAP
10
7E
3C
7E
7E
FF
18
66
ENDCHAR
STARTCHAR 4C17
ENCODING 19479
SWIDTH 1000 0
DWIDTH 8 0
BBX 6 8 1 -1
BITMAP
84
FC
FC
FC
FC
FC
EC
9C
ENDCHAR
STARTCHAR 4C20
ENCODING 19488
SWIDTH 1000 0
DWIDTH 8 0
BBX 8 8 0 -1
BITMAP
44
64
EE
6E
6E
4E
B5
BF
ENDCHAR
STARTCHAR 4CC4
ENCODING 19652
SWIDTH 1000 0
DWIDTH 8 0
BBX 8 8 0 -1
BITMAP
04
6E
5E
AE
EF
EE
BA
42
ENDCHAR
STARTCHAR 4CD1
ENCODING 19665
SWIDTH 1000 0
DWIDTH 8 0
BBX 8 8 0 -1
BITMAP
04
4E
FE
7E
7F
FE
52
62
ENDCHAR
STARTCHAR 4D07
ENCODING 19719
SWIDTH 1000 0
DWIDTH 8 0
BBX 8 7 0 -1
BITMAP
7E
FE
7E
7F
7E
5A
42
ENDCHAR
STARTCHAR 4D77
ENCODING 19831
SWIDTH 1000 0
DWIDTH 8 0
BBX 8 8 0 -1
BITMAP
40
4E
6A
FA
5A
7A
69
07
ENDCHAR
STARTCHAR 4E00
ENCODING 19968
SWIDTH 1000 0
DWIDTH 8 0
BBX 6 1 1 3
BITMAP
FC
ENDCHAR
STARTCHAR 4E01
ENCODING 19969
SWIDTH 1000 0
DWIDTH 8 0
BBX 6 7 1 -1
BITMAP
FC
20
20
20
20
20
60
ENDCHAR
STARTCHAR 4E02
ENCODING 19970
SWIDTH 1000 0
DWIDTH 8 0
BBX 6 7 1 -1
BITMAP
FC
40
38
48
08
08
18
ENDCHAR
STARTCHAR 4E03
ENCODING 19971
SWIDTH 1000 0
DWIDTH 8 0
BBX 6 6 1 0
BITMAP
40
40
FC
40
44
3C
ENDCHAR
STARTCHAR 4E07
ENCODING 19975
SWIDTH 1000 0
DWIDTH 8 0
BBX 6 7 1 -1
BITMAP
FC
20
3C
44
44
48
98
ENDCHAR
STARTCHAR 4E08
ENCODING 19976
SWIDTH 1000 0
DWIDTH 8 0
BBX 6 7 1 -1
BITMAP
10
FC
10
50
20
30
CC
ENDCHAR
STARTCHAR 4E09
ENCODING 19977
SWIDTH 1000 0
DWIDTH 8 0
BBX 6 6 1 0
BITMAP
FC
00
00
FC
00
FC
ENDCHAR
STARTCHAR 4E0A
ENCODING 19978
SWIDTH 1000 0
DWIDTH 8 0
BBX 7 6 0 0
BITMAP
10
10
1E
10
10
FE
ENDCHAR
STARTCHAR 4E0B
ENCODING 19979
SWIDTH 1000 0
DWIDTH 8 0
BBX 6 7 1 -1
BITMAP
FC
20
30
28
24
20
20
ENDCHAR
STARTCHAR 4E0D
ENCODING 19981
SWIDTH 1000 0
DWIDTH 8 0
BBX 6 7 1 -1
BITMAP
FC
20
28
64
A0
20
20
ENDCHAR
STARTCHAR 4E0E
ENCODING 19982
SWIDTH 1000 0
DWIDTH 8 0
BBX 8 7 0 0
BITMAP
20
3E
20
3C
FF
04
1C
ENDCHAR
STARTCHAR 4E0F
ENCODING 19983
SWIDTH 1000 0
DWIDTH 8 0
BBX 6 6 1 0
BITMAP
FC
20
9C
FC
84
18
ENDCHAR
STARTCHAR 4E10
ENCODING 19984
SWIDTH 1000 0
DWIDTH 8 0
BBX 6 7 1 -1
BITMAP
FC
20
9C
FC
84
04
18
ENDCHAR
STARTCHAR 4E11
ENCODING 19985
SWIDTH 1000 0
DWIDTH 8 0
BBX 8 6 0 0
BITMAP
7C
14
24
FF
24
7E
ENDCHAR
STARTCHAR 4E12
ENCODING 19986
SWIDTH 1000 0
DWIDTH 8 0
BBX 6 6 1 0
BITMAP
FC
14
64
5C
1C
FC
ENDCHAR
STARTCHAR 4E14
ENCODING 19988
SWIDTH 1000 0
DWIDTH 8 0
BBX 8 6 0 0
BITMAP
3C
44
3C
44
3C
FF
ENDCHAR
STARTCHAR 4E15
ENCODING 19989
SWIDTH 1000 0
DWIDTH 8 0
BBX 7 6 1 0
BITMAP
FC
20
68
A4
20
FE
ENDCHAR
STARTCHAR 4E16
ENCODING 19990
SWIDTH 1000 0
DWIDTH 8 0
BBX 8 6 0 0
BITMAP
54
54
FF
54
4C
3E
ENDCHAR
STARTCHAR 4E17
ENCODING 19991
SWIDTH 1000 0
DWIDTH 8 0
BBX 8 6 0 0
BITMAP
52
52
FF
52
52
7E
ENDCHAR
STARTCHAR 4E18
ENCODING 19992
SWIDTH 1000 0
DWIDTH 8 0
BBX 8 6 0 0
BITMAP
3C
40
3E
48
48
FF
ENDCHAR
STARTCHAR 4E19
ENCODING 19993
SWIDTH 1000 0
DWIDTH 8 0
BBX 6 6 1 0
BITMAP
FC
20
FC
A4
DC
8C
ENDCHAR
STARTCHAR 4E1E
ENCODING 19998
SWIDTH 1000 0
DWIDTH 8 0
BBX 7 6 0 0
BITMAP
7E
08
6A
34
D2
7E
ENDCHAR
STARTCHAR 4E21
ENCODING 20001
SWIDTH 1000 0
DWIDTH 8 0
BBX 8 6 0 0
BITMAP
FF
7E
52
76
7E
46
ENDCHAR
STARTCHAR 4E26
ENCODING 20006
SWIDTH 1000 0
DWIDTH 8 0
BBX 6 7 1 0
BITMAP
48
08
FC
B4
B4
30
FC
ENDCHAR
STARTCHAR 4E28
ENCODING 20008
SWIDTH 1000 0
DWIDTH 8 0
BBX 1 6 3 0
BITMAP
80
80
80
80
80
80
ENDCHAR
STARTCHAR 4E29
ENCODING 20009
SWIDTH 1000 0
DWIDTH 8 0
BBX 3 8 2 -1
BITMAP
20
A0
A0
A0
A0
E0
20
20
ENDCHAR
STARTCHAR 4E2A
ENCODING 20010
SWIDTH 1000 0
DWIDTH 8 0
BBX 6 7 1 -1
BITMAP
30
48
A4
20
20
20
20
ENDCHAR
STARTCHAR 4E2B
ENCODING 20011
SWIDTH 1000 0
DWIDTH 8 0
BBX 4 7 2 -1
BITMAP
90
60
40
40
40
40
40
ENDCHAR
STARTCHAR 4E2C
ENCODING 20012
SWIDTH 1000 0
DWIDTH 8 0
BBX 3 8 2 -1
BITMAP
20
A0
60
20
20
E0
20
20
ENDCHAR
STARTCHAR 4E2D
ENCODING 20013
SWIDTH 1000 0
DWIDTH 8 0
BBX 6 8 1 -1
BITMAP
20
20
FC
A4
FC
A4
20
20
ENDCHAR
STARTCHAR 4E2E
ENCODING 20014
SWIDTH 1000 0
DWIDTH 8 0
BBX 7 6 1 0
BITMAP
F8
48
F8
F8
46
44
ENDCHAR
STARTCHAR 4E2F
ENCODING 20015
SWIDTH 1000 0
DWIDTH 8 0
BBX 6 7 1 -1
BITMAP
20
18
E8
34
58
E0
20
ENDCHAR
STARTCHAR 4E30
ENCODING 20016
SWIDTH 1000 0
DWIDTH 8 0
BBX 7 7 0 -1
BITMAP
10
7E
7E
10
FE
10
10
ENDCHAR
STARTCHAR 4E31
ENCODING 20017
SWIDTH 1000 0
DWIDTH 8 0
BBX 6 6 1 0
BITMAP
50
D4
D4
DC
50
90
ENDCHAR
STARTCHAR 4E32
ENCODING 20018
SWIDTH 1000 0
DWIDTH 8 0
BBX 6 8 1 -1
BITMAP
20
FC
A4
FC
FC
FC
20
20
ENDCHAR
STARTCHAR 4E36
ENCODING 20022
SWIDTH 1000 0
DWIDTH 8 0
BBX 4 4 2 1
BITMAP
80
40
20
10
ENDCHAR
STARTCHAR 4E38
ENCODING 20024
SWIDTH 1000 0
DWIDTH 8 0
BBX 6 7 1 -1
BITMAP
20
F8
28
68
28
4C
8C
ENDCHAR
STARTCHAR 4E39
ENCODING 20025
SWIDTH 1000 0
DWIDTH 8 0
BBX 8 7 0 -1
BITMAP
3C
54
4C
FF
44
44
4C
ENDCHAR
STARTCHAR 4E3B
ENCODING 20027
SWIDTH 1000 0
DWIDTH 8 0
BBX 6 6 1 1
BITMAP
30
FC
20
FC
20
FC
ENDCHAR
STARTCHAR 4E3C
ENCODING 20028
SWIDTH 1000 0
DWIDTH 8 0
BBX 6 7 1 0
BITMAP
48
48
FC
68
58
FC
48
ENDCHAR
STARTCHAR 4E3F
ENCODING 20031
SWIDTH 1000 0
DWIDTH 8 0
BBX 3 7 2 -1
BITMAP
20
20
20
20
40
40
80
ENDCHAR
STARTCHAR 4E40
ENCODING 20032
SWIDTH 1000 0
DWIDTH 8 0
BBX 6 6 1 0
BITMAP
80
40
40
20
10
0C
ENDCHAR
STARTCHAR 4E42
ENCODING 20034
SWIDTH 1000 0
DWIDTH 8 0
BBX 6 5 1 1
BITMAP
48
50
30
30
CC
ENDCHAR
STARTCHAR 4E43
ENCODING 20035
SWIDTH 1000 0
DWIDTH 8 0
BBX 6 7 1 -1
BITMAP
F8
48
4C
44
44
84
1C
ENDCHAR
STARTCHAR 4E45
ENCODING 20037
SWIDTH 1000 0
DWIDTH 8 0
BBX 6 8 1 -1
BITMAP
20
38
50
90
10
28
44
80
ENDCHAR
STARTCHAR 4E47
ENCODING 20039
SWIDTH 1000 0
DWIDTH 8 0
BBX 6 6 1 0
BITMAP
78
A0
24
F8
20
3C
ENDCHAR
STARTCHAR 4E48
ENCODING 20040
SWIDTH 1000 0
DWIDTH 8 0
BBX 6 6 1 0
BITMAP
20
40
90
28
28
7C
ENDCHAR
STARTCHAR 4E4B
ENCODING 20043
SWIDTH 1000 0
DWIDTH 8 0
BBX 6 6 1 0
BITMAP
20
FC
08
B0
C0
3C
ENDCHAR
STARTCHAR 4E4D
ENCODING 20045
SWIDTH 1000 0
DWIDTH 8 0
BBX 6 7 1 -1
BITMAP
40
7C
9C
20
1C
20
20
ENDCHAR
STARTCHAR 4E4E
ENCODING 20046
SWIDTH 1000 0
DWIDTH 8 0
BBX 8 8 0 -1
BITMAP
06
78
54
34
FF
10
10
30
ENDCHAR
STARTCHAR 4E4F
ENCODING 20047
SWIDTH 1000 0
DWIDTH 8 0
BBX 6 6 1 -1
BITMAP
F8
20
FC
08
B0
FC
ENDCHAR
STARTCHAR 4E51
ENCODING 20049
SWIDTH 1000 0
DWIDTH 8 0
BBX 6 6 1 0
BITMAP
78
94
E8
28
64
A0
ENDCHAR
STARTCHAR 4E55
ENCODING 20053
SWIDTH 1000 0
DWIDTH 8 0
BBX 8 8 0 -1
BITMAP
02
7C
7E
7F
48
7E
6A
88
ENDCHAR
STARTCHAR 4E56
ENCODING 20054
SWIDTH 1000 0
DWIDTH 8 0
BBX 6 7 1 0
BITMAP
78
FC
68
EC
68
EC
20
ENDCHAR
STARTCHAR 4E57
ENCODING 20055
SWIDTH 1000 0
DWIDTH 8 0
BBX 8 7 0 -1
BITMAP
3C
7E
FF
34
7E
34
52
ENDCHAR
STARTCHAR 4E58
ENCODING 20056
SWIDTH 1000 0
DWIDTH 8 0
BBX 6 7 1 0
BITMAP
78
FC
F4
6C
70
6C
A0
ENDCHAR
STARTCHAR 4E59
ENCODING 20057
SWIDTH 1000 0
DWIDTH 8 0
BBX 6 6 1 0
BITMAP
F8
10
20
40
84
FC
ENDCHAR
STARTCHAR 4E5A
ENCODING 20058
SWIDTH 1000 0
DWIDTH 8 0
BBX 5 6 2 0
BITMAP
80
80
80
80
88
F8
ENDCHAR
STARTCHAR 4E5D
ENCODING 20061
SWIDTH 1000 0
DWIDTH 8 0
BBX 6 6 1 -1
BITMAP
40
F8
48
48
48
8C
ENDCHAR
STARTCHAR 4E5E
ENCODING 20062
SWIDTH 1000 0
DWIDTH 8 0
BBX 6 7 1 -1
BITMAP
40
7C
F8
10
60
84
7C
ENDCHAR
STARTCHAR 4E5F
ENCODING 20063
SWIDTH 1000 0
DWIDTH 8 0
BBX 6 8 1 -1
BITMAP
20
A0
9C
E4
A4
AC
84
7C
ENDCHAR
STARTCHAR 4E62
ENCODING 20066
SWIDTH 1000 0
DWIDTH 8 0
BBX 6 7 1 -1
BITMAP
90
B0
B0
B0
F4
94
0C
ENDCHAR
STARTCHAR 4E69
ENCODING 20073
SWIDTH 1000 0
DWIDTH 8 0
BBX 6 7 1 -1
BITMAP
90
70
90
F0
B0
F4
AC
ENDCHAR
STARTCHAR 4E71
ENCODING 20081
SWIDTH 1000 0
DWIDTH 8 0
BBX 8 7 0 -1
BITMAP
78
28
F8
78
99
76
80
ENDCHAR
STARTCHAR 4E73
ENCODING 20083
SWIDTH 1000 0
DWIDTH 8 0
BBX 8 7 0 -1
BITMAP
64
74
74
24
F4
25
66
ENDCHAR
STARTCHAR 4E7E
ENCODING 20094
SWIDTH 1000 0
DWIDTH 8 0
BBX 8 8 0 -1
BITMAP
48
78
7E
7C
94
F9
4A
4E
ENDCHAR
STARTCHAR 4E80
ENCODING 20096
SWIDTH 1000 0
DWIDTH 8 0
BBX 8 7 0 0
BITMAP
38
7E
FE
7E
7E
51
0E
ENDCHAR
STARTCHAR 4E82
ENCODING 20098
SWIDTH 1000 0
DWIDTH 8 0
BBX 8 7 0 -1
BITMAP
74
7C
34
7C
BD
BD
9E
ENDCHAR
STARTCHAR 4E85
ENCODING 20101
SWIDTH 1000 0
DWIDTH 8 0
BBX 2 7 2 -1
BITMAP
40
40
40
40
40
40
C0
ENDCHAR
STARTCHAR 4E86
ENCODING 20102
SWIDTH 1000 0
DWIDTH 8 0
BBX 6 7 1 -1
BITMAP
FC
08
10
20
20
20
60
ENDCHAR
STARTCHAR 4E88
ENCODING 20104
SWIDTH 1000 0
DWIDTH 8 0
BBX 6 7 1 -1
BITMAP
F8
30
FC
24
28
20
60
ENDCHAR
STARTCHAR 4E89
ENCODING 20105
SWIDTH 1000 0
DWIDTH 8 0
BBX 8 6 0 1
BITMAP
3C
48
BE
FF
7E
10
ENDCHAR
STARTCHAR 4E8A
ENCODING 20106
SWIDTH 1000 0
DWIDTH 8 0
BBX 8 7 0 0
BITMAP
10
7E
34
7E
FF
7E
10
ENDCHAR
STARTCHAR 4E8B
ENCODING 20107
SWIDTH 1000 0
DWIDTH 8 0
BBX 8 7 0 0
BITMAP
10
7E
7E
7E
FF
7E
10
ENDCHAR
STARTCHAR 4E8C
ENCODING 20108
SWIDTH 1000 0
DWIDTH 8 0
BBX 6 5 1 0
BITMAP
FC
00
00
00
FC
ENDCHAR
STARTCHAR 4E8D
ENCODING 20109
SWIDTH 1000 0
DWIDTH 8 0
BBX 6 7 1 -1
BITMAP
FC
00
FC
20
20
20
60
ENDCHAR
STARTCHAR 4E8E
ENCODING 20110
SWIDTH 1000 0
DWIDTH 8 0
BBX 6 6 1 0
BITMAP
FC
20
FC
20
20
20
ENDCHAR
STARTCHAR 4E91
ENCODING 20113
SWIDTH 1000 0
DWIDTH 8 0
BBX 6 7 1 -1
BITMAP
FC
00
FC
20
48
44
B8
ENDCHAR
STARTCHAR 4E92
ENCODING 20114
SWIDTH 1000 0
DWIDTH 8 0
BBX 8 6 0 0
BITMAP
7E
20
3C
24
3C
FF
ENDCHAR
STARTCHAR 4E94
ENCODING 20116
SWIDTH 1000 0
DWIDTH 8 0
BBX 7 6 1 0
BITMAP
FC
20
F8
48
48
FE
ENDCHAR
STARTCHAR 4E95
ENCODING 20117
SWIDTH 1000 0
DWIDTH 8 0
BBX 6 7 1 0
BITMAP
48
48
FC
48
FC
48
88
ENDCHAR
STARTCHAR 4E98
ENCODING 20120
SWIDTH 1000 0
DWIDTH 8 0
BBX 6 6 1 0
BITMAP
FC
78
88
78
78
FC
ENDCHAR
STARTCHAR 4E99
ENCODING 20121
SWIDTH 1000 0
DWIDTH 8 0
BBX 8 6 0 0
BITMAP
7E
3C
34
4C
0C
FF
ENDCHAR
STARTCHAR 4E9B
ENCODING 20123
SWIDTH 1000 0
DWIDTH 8 0
BBX 6 7 1 0
BITMAP
50
D4
E8
D0
8C
FC
FC
ENDCHAR
STARTCHAR 4E9C
ENCODING 20124
SWIDTH 1000 0
DWIDTH 8 0
BBX 8 6 0 0
BITMAP
7E
28
7E
6A
7E
FF
ENDCHAR
STARTCHAR 4E9D
ENCODING 20125
SWIDTH 1000 0
DWIDTH 8 0
BBX 6 7 1 0
BITMAP
20
48
34
B4
48
FC
FC
ENDCHAR
STARTCHAR 4E9E
ENCODING 20126
SWIDTH 1000 0
DWIDTH 8 0
BBX 8 6 0 0
BITMAP
7E
28
66
42
66
FF
ENDCHAR
STARTCHAR 4E9F
ENCODING 20127
SWIDTH 1000 0
DWIDTH 8 0
BBX 8 6 0 0
BITMAP
7E
16
76
76
5A
FF
ENDCHAR
STARTCHAR 4EA0
ENCODING 20128
SWIDTH 1000 0
DWIDTH 8 0
BBX 6 2 1 3
BITMAP
20
FC
ENDCHAR
STARTCHAR 4EA1
ENCODING 20129
SWIDTH 1000 0
DWIDTH 8 0
BBX 6 6 1 0
BITMAP
20
FC
80
80
80
7C
ENDCHAR
STARTCHAR 4EA2
ENCODING 20130
SWIDTH 1000 0
DWIDTH 8 0
BBX 6 7 1 -1
BITMAP
20
FC
70
50
50
54
8C
ENDCHAR
STARTCHAR 4EA4
ENCODING 20132
SWIDTH 1000 0
DWIDTH 8 0
BBX 6 8 1 -1
BITMAP
20
20
FC
48
84
50
30
EC
ENDCHAR
STARTCHAR 4EA5
ENCODING 20133
SWIDTH 1000 0
DWIDTH 8 0
BBX 6 8 1 -1
BITMAP
20
20
FC
20
50
28
D0
6C
ENDCHAR
STARTCHAR 4EA6
ENCODING 20134
SWIDTH 1000 0
DWIDTH 8 0
BBX 6 7 1 -1
BITMAP
20
FC
30
D4
D4
50
B0
ENDCHAR
STARTCHAR 4EA8
ENCODING 20136
SWIDTH 1000 0
DWIDTH 8 0
BBX 7 8 0 -1
BITMAP
10
FE
3C
3C
7E
08
10
10
ENDCHAR
STARTCHAR 4EAB
ENCODING 20139
SWIDTH 1000 0
DWIDTH 8 0
BBX 8 8 0 -1
BITMAP
10
7E
3C
3C
7E
FF
10
10
ENDCHAR
STARTCHAR 4EAC
ENCODING 20140
SWIDTH 1000 0
DWIDTH 8 0
BBX 6 8 1 -1
BITMAP
20
FC
00
78
78
68
A4
20
ENDCHAR
STARTCHAR 4EAD
ENCODING 20141
SWIDTH 1000 0
DWIDTH 8 0
BBX 6 7 1 0
BITMAP
20
FC
78
78
FC
20
20
ENDCHAR
STARTCHAR 4EAE
ENCODING 20142
SWIDTH 1000 0
DWIDTH 8 0
BBX 6 7 1 0
BITMAP
20
FC
78
78
FC
50
DC
ENDCHAR
STARTCHAR 4EB0
ENCODING 20144
SWIDTH 1000 0
DWIDTH 8 0
BBX 6 8 1 -1
BITMAP
20
FC
78
78
78
68
A4
20
ENDCHAR
STARTCHAR 4EB3
ENCODING 20147
SWIDTH 1000 0
DWIDTH 8 0
BBX 8 8 0 -1
BITMAP
10
FF
3C
3C
7E
10
FE
1F
ENDCHAR
STARTCHAR 4EB6
ENCODING 20150
SWIDTH 1000 0
DWIDTH 8 0
BBX 8 7 0 0
BITMAP
10
FF
7E
5A
7E
3C
FF
ENDCHAR
STARTCHAR 4EB9
ENCODING 20153
SWIDTH 1000 0
DWIDTH 8 0
BBX 8 7 0 0
BITMAP
10
7E
7E
7E
7E
3C
FF
ENDCHAR
STARTCHAR 4EBA
ENCODING 20154
SWIDTH 1000 0
DWIDTH 8 0
BBX 6 7 1 -1
BITMAP
20
20
30
30
48
44
80
ENDCHAR
STARTCHAR 4EBB
ENCODING 20155
SWIDTH 1000 0
DWIDTH 8 0
BBX 4 7 2 -1
BITMAP
10
20
40
C0
40
40
40
ENDCHAR
STARTCHAR 4EBC
ENCODING 20156
SWIDTH 1000 0
DWIDTH 8 0
BBX 6 6 1 0
BITMAP
30
48
84
00
00
FC
ENDCHAR
STARTCHAR 4EC0
ENCODING 20160
SWIDTH 1000 0
DWIDTH 8 0
BBX 7 6 1 0
BITMAP
50
90
BE
90
90
90
ENDCHAR
STARTCHAR 4EC1
ENCODING 20161
SWIDTH 1000 0
DWIDTH 8 0
BBX 8 6 0 0
BITMAP
20
5E
40
C0
40
7F
ENDCHAR
STARTCHAR 4EC2
ENCODING 20162
SWIDTH 1000 0
DWIDTH 8 0
BBX 7 8 0 -1
BITMAP
28
48
5E
4A
CA
4A
52
66
ENDCHAR
STARTCHAR 4EC3
ENCODING 20163
SWIDTH 1000 0
DWIDTH 8 0
BBX 8 8 0 -1
BITMAP
20
3F
44
44
C4
44
44
4C
ENDCHAR
STARTCHAR 4EC4
ENCODING 20164
SWIDTH 1000 0
DWIDTH 8 0
BBX 6 7 1 -1
BITMAP
FC
90
90
90
A8
A8
44
ENDCHAR
STARTCHAR 4EC6
ENCODING 20166
SWIDTH 1000 0
DWIDTH 8 0
BBX 6 6 1 0
BITMAP
50
50
98
94
90
90
ENDCHAR
STARTCHAR 4EC7
ENCODING 20167
SWIDTH 1000 0
DWIDTH 8 0
BBX 8 8 0 -1
BITMAP
28
48
7C
54
D4
54
55
62
ENDCHAR
STARTCHAR 4EC8
ENCODING 20168
SWIDTH 1000 0
DWIDTH 8 0
BBX 7 7 0 -1
BITMAP
2C
44
54
D4
52
52
20
ENDCHAR
STARTCHAR 4ECA
ENCODING 20170
SWIDTH 1000 0
DWIDTH 8 0
BBX 6 7 1 -1
BITMAP
30
48
FC
FC
08
10
10
ENDCHAR
STARTCHAR 4ECB
ENCODING 20171
SWIDTH 1000 0
DWIDTH 8 0
BBX 6 6 1 0
BITMAP
30
48
CC
48
48
88
ENDCHAR
STARTCHAR 4ECD
ENCODING 20173
SWIDTH 1000 0
DWIDTH 8 0
BBX 7 7 0 -1
BITMAP
5C
4C
4A
D2
52
52
66
ENDCHAR
STARTCHAR 4ECE
ENCODING 20174
SWIDTH 1000 0
DWIDTH 8 0
BBX 6 6 1 -1
BITMAP
48
48
88
48
B4
94
ENDCHAR
STARTCHAR 4ECF
ENCODING 20175
SWIDTH 1000 0
DWIDTH 8 0
BBX 6 7 1 -1
BITMAP
50
90
A0
A8
A4
FC
80
ENDCHAR
STARTCHAR 4ED0
ENCODING 20176
SWIDTH 1000 0
DWIDTH 8 0
BBX 6 7 1 -1
BITMAP
30
48
A4
20
FC
20
20
ENDCHAR
STARTCHAR 4ED4
ENCODING 20180
SWIDTH 1000 0
DWIDTH 8 0
BBX 7 7 1 0
BITMAP
BC
88
90
FE
90
90
B0
ENDCHAR
STARTCHAR 4ED5
ENCODING 20181
SWIDTH 1000 0
DWIDTH 8 0
BBX 7 7 0 -1
BITMAP
28
48
7E
C8
48
5E
40
ENDCHAR
STARTCHAR 4ED6
ENCODING 20182
SWIDTH 1000 0
DWIDTH 8 0
BBX 6 8 1 -1
BITMAP
90
B0
AC
F4
B4
B0
A4
BC
ENDCHAR
STARTCHAR 4ED7
ENCODING 20183
SWIDTH 1000 0
DWIDTH 8 0
BBX 7 7 0 -1
BITMAP
44
3E
44
D8
48
4C
72
ENDCHAR
STARTCHAR 4ED8
ENCODING 20184
SWIDTH 1000 0
DWIDTH 8 0
BBX 8 7 0 -1
BITMAP
44
5F
44
D4
4C
44
4C
ENDCHAR
STARTCHAR 4ED9
ENCODING 20185
SWIDTH 1000 0
DWIDTH 8 0
BBX 6 7 1 -1
BITMAP
90
D4
D4
D4
D4
BC
80
ENDCHAR
STARTCHAR 4EDA
ENCODING 20186
SWIDTH 1000 0
DWIDTH 8 0
BBX 8 7 0 -1
BITMAP
18
24
D3
52
52
7E
42
ENDCHAR
STARTCHAR 4EDD
ENCODING 20189
SWIDTH 1000 0
DWIDTH 8 0
BBX 6 6 1 0
BITMAP
30
48
84
78
20
FC
ENDCHAR
STARTCHAR 4EDE
ENCODING 20190
SWIDTH 1000 0
DWIDTH 8 0
BBX 7 7 0 -1
BITMAP
5E
4A
5A
DA
4A
52
56
ENDCHAR
STARTCHAR 4EDF
ENCODING 20191
SWIDTH 1000 0
DWIDTH 8 0
BBX 8 7 0 -1
BITMAP
26
58
48
DF
48
48
48
ENDCHAR
STARTCHAR 4EE1
ENCODING 20193
SWIDTH 1000 0
DWIDTH 8 0
BBX 7 7 0 -1
BITMAP
50
5E
7C
C4
48
52
5E
ENDCHAR
STARTCHAR 4EE3
ENCODING 20195
SWIDTH 1000 0
DWIDTH 8 0
BBX 7 7 0 -1
BITMAP
54
4A
7E
C8
48
46
42
ENDCHAR
STARTCHAR 4EE4
ENCODING 20196
SWIDTH 1000 0
DWIDTH 8 0
BBX 6 8 1 -1
BITMAP
30
30
48
FC
FC
24
28
20
ENDCHAR
STARTCHAR 4EE5
ENCODING 20197
SWIDTH 1000 0
DWIDTH 8 0
BBX 6 6 1 0
BITMAP
88
A8
88
88
E8
B4
ENDCHAR
STARTCHAR 4EEB
ENCODING 20203
SWIDTH 1000 0
DWIDTH 8 0
BBX 7 7 0 -1
BITMAP
20
48
54
C4
48
52
5C
ENDCHAR
STARTCHAR 4EED
ENCODING 20205
SWIDTH 1000 0
DWIDTH 8 0
BBX 8 7 0 0
BITMAP
5E
4A
5A
CA
56
53
64
ENDCHAR
STARTCHAR 4EEE
ENCODING 20206
SWIDTH 1000 0
DWIDTH 8 0
BBX 6 7 1 -1
BITMAP
BC
A0
BC
B4
B8
C8
D4
ENDCHAR
STARTCHAR 4EF0
ENCODING 20208
SWIDTH 1000 0
DWIDTH 8 0
BBX 7 8 0 -1
BITMAP
20
56
66
66
E6
66
76
44
ENDCHAR
STARTCHAR 4EF1
ENCODING 20209
SWIDTH 1000 0
DWIDTH 8 0
BBX 6 7 1 -1
BITMAP
58
A8
9C
BC
84
88
80
ENDCHAR
STARTCHAR 4EF2
ENCODING 20210
SWIDTH 1000 0
DWIDTH 8 0
BBX 6 8 1 -1
BITMAP
90
90
BC
D4
BC
D4
90
90
ENDCHAR
STARTCHAR 4EF5
ENCODING 20213
SWIDTH 1000 0
DWIDTH 8 0
BBX 8 7 0 -1
BITMAP
50
5E
48
FF
48
48
48
ENDCHAR
STARTCHAR 4EF6
ENCODING 20214
SWIDTH 1000 0
DWIDTH 8 0
BBX 7 8 1 -1
BITMAP
50
B0
BC
90
BE
90
90
90
ENDCHAR
STARTCHAR 4EF7
ENCODING 20215
SWIDTH 1000 0
DWIDTH 8 0
BBX 6 7 1 -1
BITMAP
58
A4
A8
A8
A8
A8
A0
ENDCHAR
STARTCHAR 4EFB
ENCODING 20219
SWIDTH 1000 0
DWIDTH 8 0
BBX 7 7 1 -1
BITMAP
4C
B0
90
FE
90
BC
80
ENDCHAR
STARTCHAR 4EFC
ENCODING 20220
SWIDTH 1000 0
DWIDTH 8 0
BBX 8 8 0 -1
BITMAP
20
5E
48
48
DE
48
7F
40
ENDCHAR
STARTCHAR 4EFD
ENCODING 20221
SWIDTH 1000 0
DWIDTH 8 0
BBX 6 7 1 -1
BITMAP
98
84
A4
FC
94
A4
A8
ENDCHAR
STARTCHAR 4EFF
ENCODING 20223
SWIDTH 1000 0
DWIDTH 8 0
BBX 7 8 1 -1
BITMAP
50
90
BE
9C
94
94
A4
CC
ENDCHAR
STARTCHAR 4F00
ENCODING 20224
SWIDTH 1000 0
DWIDTH 8 0
BBX 6 7 1 -1
BITMAP
98
A8
A4
90
90
A4
B8
ENDCHAR
STARTCHAR 4F01
ENCODING 20225
SWIDTH 1000 0
DWIDTH 8 0
BBX 7 6 0 0
BITMAP
18
34
D2
4E
50
7E
ENDCHAR
STARTCHAR 4F03
ENCODING 20227
SWIDTH 1000 0
DWIDTH 8 0
BBX 6 7 1 -1
BITMAP
BC
98
BC
94
90
90
90
ENDCHAR
STARTCHAR 4F09
ENCODING 20233
SWIDTH 1000 0
DWIDTH 8 0
BBX 8 8 0 -1
BITMAP
48
48
7E
4C
D4
54
55
66
ENDCHAR
STARTCHAR 4F0A
ENCODING 20234
SWIDTH 1000 0
DWIDTH 8 0
BBX 7 7 1 0
BITMAP
BC
94
FE
BC
90
90
A0
ENDCHAR
STARTCHAR 4F0B
ENCODING 20235
SWIDTH 1000 0
DWIDTH 8 0
BBX 8 7 0 -1
BITMAP
5C
54
4E
DA
5C
54
6B
ENDCHAR
STARTCHAR 4F0D
ENCODING 20237
SWIDTH 1000 0
DWIDTH 8 0
BBX 7 7 1 0
BITMAP
BC
90
BC
A4
A4
FE
80
ENDCHAR
STARTCHAR 4F0E
ENCODING 20238
SWIDTH 1000 0
DWIDTH 8 0
BBX 7 8 0 -1
BITMAP
28
48
5E
5E
D2
4C
4C
52
ENDCHAR
STARTCHAR 4F0F
ENCODING 20239
SWIDTH 1000 0
DWIDTH 8 0
BBX 6 7 1 -1
BITMAP
98
94
FC
90
98
A8
C4
ENDCHAR
STARTCHAR 4F10
ENCODING 20240
SWIDTH 1000 0
DWIDTH 8 0
BBX 8 7 0 -1
BITMAP
4C
4A
7C
CA
44
4D
52
ENDCHAR
STARTCHAR 4F11
ENCODING 20241
SWIDTH 1000 0
DWIDTH 8 0
BBX 7 7 0 -1
BITMAP
48
5E
48
D4
5A
68
48
ENDCHAR
STARTCHAR 4F16
ENCODING 20246
SWIDTH 1000 0
DWIDTH 8 0
BBX 8 8 0 -1
BITMAP
28
48
5E
4E
CA
5C
54
6B
ENDCHAR
STARTCHAR 4F1A
ENCODING 20250
SWIDTH 1000 0
DWIDTH 8 0
BBX 7 7 1 -1
BITMAP
30
48
FE
FC
48
4C
B0
ENDCHAR
STARTCHAR 4F1C
ENCODING 20252
SWIDTH 1000 0
DWIDTH 8 0
BBX 6 8 1 -1
BITMAP
50
90
B8
AC
90
FC
90
90
ENDCHAR
STARTCHAR 4F1D
ENCODING 20253
SWIDTH 1000 0
DWIDTH 8 0
BBX 7 7 0 0
BITMAP
5E
40
7E
C8
54
52
7C
ENDCHAR
STARTCHAR 4F2F
ENCODING 20271
SWIDTH 1000 0
DWIDTH 8 0
BBX 6 7 1 -1
BITMAP
50
BC
A4
BC
A4
BC
A4
ENDCHAR
STARTCHAR 4F30
ENCODING 20272
SWIDTH 1000 0
DWIDTH 8 0
BBX 7 8 0 -1
BITMAP
28
48
7E
48
DE
52
5E
52
ENDCHAR
STARTCHAR 4F34
ENCODING 20276
SWIDTH 1000 0
DWIDTH 8 0
BBX 7 8 1 -1
BITMAP
10
B4
B0
BC
FE
90
90
90
ENDCHAR
STARTCHAR 4F36
ENCODING 20278
SWIDTH 1000 0
DWIDTH 8 0
BBX 7 8 0 -1
BITMAP
48
54
54
6E
DE
4A
4E
48
ENDCHAR
STARTCHAR 4F37
ENCODING 20279
SWIDTH 1000 0
DWIDTH 8 0
BBX 6 8 1 -1
BITMAP
50
90
BC
D4
BC
D4
BC
80
ENDCHAR
STARTCHAR 4F38
ENCODING 20280
SWIDTH 1000 0
DWIDTH 8 0
BBX 6 8 1 -1
BITMAP
50
90
BC
BC
D4
BC
90
90
ENDCHAR
STARTCHAR 4F39
ENCODING 20281
SWIDTH 1000 0
DWIDTH 8 0
BBX 7 7 1 -1
BITMAP
BC
A4
BC
BC
A4
FE
80
ENDCHAR
STARTCHAR 4F3A
ENCODING 20282
SWIDTH 1000 0
DWIDTH 8 0
BBX 6 7 1 0
BITMAP
7C
BC
BC
AC
BC
84
8C
ENDCHAR
STARTCHAR 4F3C
ENCODING 20284
SWIDTH 1000 0
DWIDTH 8 0
BBX 6 7 1 -1
BITMAP
B4
B4
A4
A4
B8
CC
B0
ENDCHAR
STARTCHAR 4F3D
ENCODING 20285
SWIDTH 1000 0
DWIDTH 8 0
BBX 7 7 0 -1
BITMAP
50
7E
5E
DE
6E
7E
40
ENDCHAR
STARTCHAR 4F3E
ENCODING 20286
SWIDTH 1000 0
DWIDTH 8 0
BBX 6 7 1 0
BITMAP
BC
90
94
B0
90
BC
80
ENDCHAR
STARTCHAR 4F43
ENCODING 20291
SWIDTH 1000 0
DWIDTH 8 0
BBX 6 7 1 0
BITMAP
BC
D4
D4
BC
D4
BC
80
ENDCHAR
STARTCHAR 4F46
ENCODING 20294
SWIDTH 1000 0
DWIDTH 8 0
BBX 8 7 0 -1
BITMAP
5E
52
5E
D2
5E
7F
40
ENDCHAR
STARTCHAR 4F47
ENCODING 20295
SWIDTH 1000 0
DWIDTH 8 0
BBX 7 8 1 -1
BITMAP
90
90
BC
80
BE
90
90
90
ENDCHAR
STARTCHAR 4F48
ENCODING 20296
SWIDTH 1000 0
DWIDTH 8 0
BBX 7 7 1 -1
BITMAP
90
BE
9C
AC
EC
AC
88
ENDCHAR
STARTCHAR 4F49
ENCODING 20297
SWIDTH 1000 0
DWIDTH 8 0
BBX 8 8 0 -1
BITMAP
28
48
5E
48
FF
48
52
5C
ENDCHAR
STARTCHAR 4F4D
ENCODING 20301
SWIDTH 1000 0
DWIDTH 8 0
BBX 7 7 1 -1
BITMAP
90
BC
A0
A8
88
FE
80
ENDCHAR
STARTCHAR 4F4E
ENCODING 20302
SWIDTH 1000 0
DWIDTH 8 0
BBX 8 8 0 -1
BITMAP
20
5C
54
5E
D4
75
5E
42
ENDCHAR
STARTCHAR 4F4F
ENCODING 20303
SWIDTH 1000 0
DWIDTH 8 0
BBX 7 8 1 -1
BITMAP
40
98
BC
90
BC
90
FE
80
ENDCHAR
STARTCHAR 4F50
ENCODING 20304
SWIDTH 1000 0
DWIDTH 8 0
BBX 8 7 0 0
BITMAP
48
7E
50
DE
68
5F
40
ENDCHAR
STARTCHAR 4F51
ENCODING 20305
SWIDTH 1000 0
DWIDTH 8 0
BBX 8 7 0 -1
BITMAP
48
5F
50
DE
72
4E
52
ENDCHAR
STARTCHAR 4F53
ENCODING 20307
SWIDTH 1000 0
DWIDTH 8 0
BBX 6 8 1 -1
BITMAP
90
90
FC
A8
B4
FC
90
90
ENDCHAR
STARTCHAR 4F54
ENCODING 20308
SWIDTH 1000 0
DWIDTH 8 0
BBX 7 8 0 -1
BITMAP
28
28
46
48
DE
52
5E
52
ENDCHAR
STARTCHAR 4F55
ENCODING 20309
SWIDTH 1000 0
DWIDTH 8 0
BBX 8 8 0 -1
BITMAP
20
5F
42
5A
DA
5A
42
46
ENDCHAR
STARTCHAR 4F56
ENCODING 20310
SWIDTH 1000 0
DWIDTH 8 0
BBX 8 8 0 -1
BITMAP
20
4A
54
76
F6
69
52
6C
ENDCHAR
STARTCHAR 4F57
ENCODING 20311
SWIDTH 1000 0
DWIDTH 8 0
BBX 7 7 0 -1
BITMAP
48
5E
72
D4
58
52
4E
ENDCHAR
STARTCHAR 4F58
ENCODING 20312
SWIDTH 1000 0
DWIDTH 8 0
BBX 6 8 1 -1
BITMAP
30
30
48
FC
FC
68
A4
20
ENDCHAR
STARTCHAR 4F59
ENCODING 20313
SWIDTH 1000 0
DWIDTH 8 0
BBX 6 8 1 -1
BITMAP
30
30
48
FC
FC
68
A4
20
ENDCHAR
STARTCHAR 4F5A
ENCODING 20314
SWIDTH 1000 0
DWIDTH 8 0
BBX 8 8 0 -1
BITMAP
28
58
5E
68
FF
4C
4C
72
ENDCHAR
STARTCHAR 4F5B
ENCODING 20315
SWIDTH 1000 0
DWIDTH 8 0
BBX 6 8 1 -1
BITMAP
A8
FC
AC
BC
FC
EC
AC
E8
ENDCHAR
STARTCHAR 4F5C
ENCODING 20316
SWIDTH 1000 0
DWIDTH 8 0
BBX 7 7 0 -1
BITMAP
30
5E
D6
48
46
48
48
ENDCHAR
STARTCHAR 4F5D
ENCODING 20317
SWIDTH 1000 0
DWIDTH 8 0
BBX 7 7 0 -1
BITMAP
50
5E
7E
D6
5E
42
46
ENDCHAR
STARTCHAR 4F5E
ENCODING 20318
SWIDTH 1000 0
DWIDTH 8 0
BBX 8 7 0 -1
BITMAP
5E
7E
48
FF
54
4C
52
ENDCHAR
STARTCHAR 4F5F
ENCODING 20319
SWIDTH 1000 0
DWIDTH 8 0
BBX 7 8 0 -1
BITMAP
28
4E
54
4C
CA
58
42
4C
ENDCHAR
STARTCHAR 4F60
ENCODING 20320
SWIDTH 1000 0
DWIDTH 8 0
BBX 8 7 0 -1
BITMAP
30
5F
5A
CA
5A
68
48
ENDCHAR
STARTCHAR 4F64
ENCODING 20324
SWIDTH 1000 0
DWIDTH 8 0
BBX 7 7 1 0
BITMAP
BC
A0
98
A8
B8
A6
FC
ENDCHAR
STARTCHAR 4F69
ENCODING 20329
SWIDTH 1000 0
DWIDTH 8 0
BBX 7 7 1 -1
BITMAP
BC
BC
BC
BC
FE
D2
C0
ENDCHAR
STARTCHAR 4F6A
ENCODING 20330
SWIDTH 1000 0
DWIDTH 8 0
BBX 6 7 1 0
BITMAP
BC
C4
DC
DC
C4
BC
C4
ENDCHAR
STARTCHAR 4F6C
ENCODING 20332
SWIDTH 1000 0
DWIDTH 8 0
BBX 8 8 0 -1
BITMAP
28
4A
5C
7F
C8
5C
68
4E
ENDCHAR
STARTCHAR 4F6F
ENCODING 20335
SWIDTH 1000 0
DWIDTH 8 0
BBX 7 7 1 -1
BITMAP
68
BC
BC
90
FE
90
90
ENDCHAR
STARTCHAR 4F70
ENCODING 20336
SWIDTH 1000 0
DWIDTH 8 0
BBX 7 7 1 -1
BITMAP
BE
90
BC
A4
BC
BC
A4
ENDCHAR
STARTCHAR 4F73
ENCODING 20339
SWIDTH 1000 0
DWIDTH 8 0
BBX 6 8 1 -1
BITMAP
50
90
BC
FC
BC
90
FC
80
ENDCHAR
STARTCHAR 4F75
ENCODING 20341
SWIDTH 1000 0
DWIDTH 8 0
BBX 7 8 1 -1
BITMAP
40
88
BC
A8
FE
A8
A8
A0
ENDCHAR
STARTCHAR 4F76
ENCODING 20342
SWIDTH 1000 0
DWIDTH 8 0
BBX 8 8 0 -1
BITMAP
28
48
5F
5E
C0
5E
5E
52
ENDCHAR
STARTCHAR 4F77
ENCODING 20343
SWIDTH 1000 0
DWIDTH 8 0
BBX 6 7 1 -1
BITMAP
BC
BC
A4
BC
B0
AC
F4
ENDCHAR
STARTCHAR 4F78
ENCODING 20344
SWIDTH 1000 0
DWIDTH 8 0
BBX 7 7 1 -1
BITMAP
58
B0
BE
BC
A4
BC
A4
ENDCHAR
STARTCHAR 4F7A
ENCODING 20346
SWIDTH 1000 0
DWIDTH 8 0
BBX 6 7 1 -1
BITMAP
78
9C
FC
BC
90
BC
80
ENDCHAR
STARTCHAR 4F7B
ENCODING 20347
SWIDTH 1000 0
DWIDTH 8 0
BBX 7 8 1 -1
BITMAP
A8
A8
AC
A8
AC
E8
AA
CC
ENDCHAR
STARTCHAR 4F7C
ENCODING 20348
SWIDTH 1000 0
DWIDTH 8 0
BBX 6 8 1 -1
BITMAP
50
90
BC
88
A4
98
98
A4
ENDCHAR
STARTCHAR 4F7D
ENCODING 20349
SWIDTH 1000 0
DWIDTH 8 0
BBX 8 7 0 -1
BITMAP
48
7E
4C
C4
5C
4A
51
ENDCHAR
STARTCHAR 4F7E
ENCODING 20350
SWIDTH 1000 0
DWIDTH 8 0
BBX 8 7 0 -1
BITMAP
4C
52
5F
DE
5E
52
66
ENDCHAR
STARTCHAR 4F7F
ENCODING 20351
SWIDTH 1000 0
DWIDTH 8 0
BBX 7 8 1 -1
BITMAP
90
7C
90
BC
BC
B0
90
EE
ENDCHAR
STARTCHAR 4F82
ENCODING 20354
SWIDTH 1000 0
DWIDTH 8 0
BBX 7 8 1 -1
BITMAP
50
90
BE
C4
C8
DC
CA
CC
ENDCHAR
STARTCHAR 4F83
ENCODING 20355
SWIDTH 1000 0
DWIDTH 8 0
BBX 7 7 1 -1
BITMAP
BC
A4
BC
B8
B8
BA
C6
ENDCHAR
STARTCHAR 4F85
ENCODING 20357
SWIDTH 1000 0
DWIDTH 8 0
BBX 7 8 0 -1
BITMAP
28
28
5E
48
D4
4A
54
5A
ENDCHAR
STARTCHAR 4F86
ENCODING 20358
SWIDTH 1000 0
DWIDTH 8 0
BBX 6 8 1 -1
BITMAP
20
20
FC
60
68
B4
68
24
ENDCHAR
STARTCHAR 4F88
ENCODING 20360
SWIDTH 1000 0
DWIDTH 8 0
BBX 7 8 0 -1
BITMAP
08
4E
54
48
D6
4A
54
58
ENDCHAR
STARTCHAR 4F8A
ENCODING 20362
SWIDTH 1000 0
DWIDTH 8 0
BBX 8 8 0 -1
BITMAP
48
5A
58
7F
D4
54
55
66
ENDCHAR
STARTCHAR 4F8B
ENCODING 20363
SWIDTH 1000 0
DWIDTH 8 0
BBX 7 7 0 -1
BITMAP
3E
5E
6E
FE
56
52
62
ENDCHAR
STARTCHAR 4F8D
ENCODING 20365
SWIDTH 1000 0
DWIDTH 8 0
BBX 7 8 1 -1
BITMAP
50
90
BC
FE
BC
A8
98
98
ENDCHAR
STARTCHAR 4F8F
ENCODING 20367
SWIDTH 1000 0
DWIDTH 8 0
BBX 7 8 1 -1
BITMAP
50
B0
BC
90
FE
98
B6
90
ENDCHAR
STARTCHAR 4F91
ENCODING 20369
SWIDTH 1000 0
DWIDTH 8 0
BBX 7 7 1 -1
BITMAP
50
BE
9C
BC
9C
A4
A4
ENDCHAR
STARTCHAR 4F92
ENCODING 20370
SWIDTH 1000 0
DWIDTH 8 0
BBX 7 8 1 -1
BITMAP
90
BC
D4
90
FE
A8
B8
A4
ENDCHAR
STARTCHAR 4F94
ENCODING 20372
SWIDTH 1000 0
DWIDTH 8 0
BBX 8 7 0 -1
BITMAP
48
7E
58
DE
7F
48
48
ENDCHAR
STARTCHAR 4F96
ENCODING 20374
SWIDTH 1000 0
DWIDTH 8 0
BBX 6 8 1 -1
BITMAP
30
48
FC
00
FC
FC
D4
84
ENDCHAR
STARTCHAR 4F97
ENCODING 20375
SWIDTH 1000 0
DWIDTH 8 0
BBX 6 7 1 -1
BITMAP
BC
DC
DC
EC
DC
C4
CC
ENDCHAR
STARTCHAR 4F98
ENCODING 20376
SWIDTH 1000 0
DWIDTH 8 0
BBX 7 8 1 -1
BITMAP
10
BC
C4
B8
96
B8
92
8C
ENDCHAR
STARTCHAR 4F9A
ENCODING 20378
SWIDTH 1000 0
DWIDTH 8 0
BBX 6 8 1 -1
BITMAP
A0
BC
C4
FC
BC
BC
84
8C
ENDCHAR
STARTCHAR 4F9B
ENCODING 20379
SWIDTH 1000 0
DWIDTH 8 0
BBX 7 7 1 -1
BITMAP
A8
BC
A8
FE
80
A4
C0
ENDCHAR
STARTCHAR 4F9D
ENCODING 20381
SWIDTH 1000 0
DWIDTH 8 0
BBX 7 7 0 -1
BITMAP
48
7E
48
D6
74
52
78
ENDCHAR
STARTCHAR 4FA0
ENCODING 20384
SWIDTH 1000 0
DWIDTH 8 0
BBX 7 8 1 -1
BITMAP
50
90
BC
B4
FE
98
98
E6
ENDCHAR
STARTCHAR 4FA1
ENCODING 20385
SWIDTH 1000 0
DWIDTH 8 0
BBX 8 7 0 0
BITMAP
7F
54
5E
F6
76
5E
40
ENDCHAR
STARTCHAR 4FAB
ENCODING 20395
SWIDTH 1000 0
DWIDTH 8 0
BBX 7 8 1 -1
BITMAP
90
BC
C0
B8
FE
A8
98
F4
ENDCHAR
STARTCHAR 4FAD
ENCODING 20397
SWIDTH 1000 0
DWIDTH 8 0
BBX 7 7 1 -1
BITMAP
BC
A4
BC
A8
DC
D2
88
ENDCHAR
STARTCHAR 4FAE
ENCODING 20398
SWIDTH 1000 0
DWIDTH 8 0
BBX 8 8 0 -1
BITMAP
10
5E
7E
5A
FF
5E
42
46
ENDCHAR
STARTCHAR 4FAF
ENCODING 20399
SWIDTH 1000 0
DWIDTH 8 0
BBX 7 7 1 -1
BITMAP
B8
7E
A0
FE
98
98
E4
ENDCHAR
STARTCHAR 4FB2
ENCODING 20402
SWIDTH 1000 0
DWIDTH 8 0
BBX 7 7 1 0
BITMAP
BC
BC
A0
BC
B8
DC
DE
ENDCHAR
STARTCHAR 4FB5
ENCODING 20405
SWIDTH 1000 0
DWIDTH 8 0
BBX 6 7 1 -1
BITMAP
BC
BC
BC
FC
BC
98
B4
ENDCHAR
STARTCHAR 4FB6
ENCODING 20406
SWIDTH 1000 0
DWIDTH 8 0
BBX 6 7 1 -1
BITMAP
BC
A4
BC
BC
C4
BC
C4
ENDCHAR
STARTCHAR 4FBE
ENCODING 20414
SWIDTH 1000 0
DWIDTH 8 0
BBX 8 8 0 -1
BITMAP
28
5E
4C
5F
CE
5F
44
4C
ENDCHAR
STARTCHAR 4FBF
ENCODING 20415
SWIDTH 1000 0
DWIDTH 8 0
BBX 7 7 1 -1
BITMAP
BC
BC
BC
BC
B0
90
AE
ENDCHAR
STARTCHAR 4FC2
ENCODING 20418
SWIDTH 1000 0
DWIDTH 8 0
BBX 6 8 1 -1
BITMAP
4C
B0
A8
94
B8
B4
D4
90
ENDCHAR
STARTCHAR 4FC3
ENCODING 20419
SWIDTH 1000 0
DWIDTH 8 0
BBX 8 7 0 0
BITMAP
5E
52
5E
C8
56
58
6F
ENDCHAR
STARTCHAR 4FC4
ENCODING 20420
SWIDTH 1000 0
DWIDTH 8 0
BBX 8 8 0 -1
BITMAP
4C
36
54
7E
D6
56
55
5A
ENDCHAR
STARTCHAR 4FC5
ENCODING 20421
SWIDTH 1000 0
DWIDTH 8 0
BBX 7 8 0 -1
BITMAP
28
4A
5E
48
D6
4C
7A
48
ENDCHAR
STARTCHAR 4FC9
ENCODING 20425
SWIDTH 1000 0
DWIDTH 8 0
BBX 8 7 0 -1
BITMAP
5E
5E
4A
FF
52
5E
52
ENDCHAR
STARTCHAR 4FCA
ENCODING 20426
SWIDTH 1000 0
DWIDTH 8 0
BBX 6 8 1 -1
BITMAP
90
A4
B8
BC
9C
B8
88
B4
ENDCHAR
STARTCHAR 4FCB
ENCODING 20427
SWIDTH 1000 0
DWIDTH 8 0
BBX 7 7 0 -1
BITMAP
5E
5E
5E
EA
5E
60
5E
ENDCHAR
STARTCHAR 4FCD
ENCODING 20429
SWIDTH 1000 0
DWIDTH 8 0
BBX 8 8 0 -1
BITMAP
08
5E
52
5E
DE
58
56
73
ENDCHAR
STARTCHAR 4FCE
ENCODING 20430
SWIDTH 1000 0
DWIDTH 8 0
BBX 8 6 0 0
BITMAP
4E
52
AE
2E
52
9F
ENDCHAR
STARTCHAR 4FCF
ENCODING 20431
SWIDTH 1000 0
DWIDTH 8 0
BBX 7 8 0 -1
BITMAP
28
5A
5A
5E
DE
5E
52
56
ENDCHAR
STARTCHAR 4FD0
ENCODING 20432
SWIDTH 1000 0
DWIDTH 8 0
BBX 7 7 0 -1
BITMAP
56
56
7E
D6
7E
52
52
ENDCHAR
STARTCHAR 4FD1
ENCODING 20433
SWIDTH 1000 0
DWIDTH 8 0
BBX 7 7 0 -1
BITMAP
5E
4C
5E
DE
5E
6A
62
ENDCHAR
STARTCHAR 4FD2
ENCODING 20434
SWIDTH 1000 0
DWIDTH 8 0
BBX 7 8 1 -1
BITMAP
50
BC
C4
BC
BC
98
AA
EC
ENDCHAR
STARTCHAR 4FD4
ENCODING 20436
SWIDTH 1000 0
DWIDTH 8 0
BBX 7 7 1 -1
BITMAP
BC
BC
BC
BC
98
AA
EC
ENDCHAR
STARTCHAR 4FD7
ENCODING 20439
SWIDTH 1000 0
DWIDTH 8 0
BBX 8 7 0 0
BITMAP
52
4C
D2
7F
52
5E
52
ENDCHAR
STARTCHAR 4FD8
ENCODING 20440
SWIDTH 1000 0
DWIDTH 8 0
BBX 7 8 1 -1
BITMAP
0C
F4
C0
BC
88
FE
90
90
ENDCHAR
STARTCHAR 4FDA
ENCODING 20442
SWIDTH 1000 0
DWIDTH 8 0
BBX 8 7 0 -1
BITMAP
1E
5E
6A
DE
5E
7F
40
ENDCHAR
STARTCHAR 4FDB
ENCODING 20443
SWIDTH 1000 0
DWIDTH 8 0
BBX 7 7 1 0
BITMAP
B8
BC
F4
BC
88
9A
AC
ENDCHAR
STARTCHAR 4FDD
ENCODING 20445
SWIDTH 1000 0
DWIDTH 8 0
BBX 6 7 1 -1
BITMAP
BC
A4
BC
FC
A8
B4
90
ENDCHAR
STARTCHAR 4FDF
ENCODING 20447
SWIDTH 1000 0
DWIDTH 8 0
BBX 7 8 1 -1
BITMAP
50
A4
98
BC
FE
98
98
E4
ENDCHAR
STARTCHAR 4FE0
ENCODING 20448
SWIDTH 1000 0
DWIDTH 8 0
BBX 7 8 1 -1
BITMAP
50
90
FC
B4
B8
DC
A8
C6
ENDCHAR
STARTCHAR 4FE1
ENCODING 20449
SWIDTH 1000 0
DWIDTH 8 0
BBX 7 7 1 -1
BITMAP
BC
FE
BC
BC
C4
BC
C4
ENDCHAR
STARTCHAR 4FE3
ENCODING 20451
SWIDTH 1000 0
DWIDTH 8 0
BBX 7 7 1 -1
BITMAP
3C
BC
80
FE
98
A8
E4
ENDCHAR
STARTCHAR 4FE4
ENCODING 20452
SWIDTH 1000 0
DWIDTH 8 0
BBX 8 7 0 -1
BITMAP
54
5E
5E
E8
5F
5A
48
ENDCHAR
STARTCHAR 4FE5
ENCODING 20453
SWIDTH 1000 0
DWIDTH 8 0
BBX 7 8 1 -1
BITMAP
10
BC
BC
D4
BC
FE
90
90
ENDCHAR
STARTCHAR 4FE6
ENCODING 20454
SWIDTH 1000 0
DWIDTH 8 0
BBX 7 8 1 -1
BITMAP
50
BC
BC
FE
94
FC
B4
CC
ENDCHAR
STARTCHAR 4FEE
ENCODING 20462
SWIDTH 1000 0
DWIDTH 8 0
BBX 7 8 0 -1
BITMAP
08
4E
7C
64
FE
7C
7A
5C
ENDCHAR
STARTCHAR 4FEF
ENCODING 20463
SWIDTH 1000 0
DWIDTH 8 0
BBX 7 8 1 -1
BITMAP
90
BE
D4
EE
A4
EC
E4
EC
ENDCHAR
STARTCHAR 4FF1
ENCODING 20465
SWIDTH 1000 0
DWIDTH 8 0
BBX 8 7 0 -1
BITMAP
5E
5E
5E
DE
7F
44
73
ENDCHAR
STARTCHAR 4FF2
ENCODING 20466
SWIDTH 1000 0
DWIDTH 8 0
BBX 7 8 0 -1
BITMAP
54
54
7E
6E
D6
56
6E
6A
ENDCHAR
STARTCHAR 4FF3
ENCODING 20467
SWIDTH 1000 0
DWIDTH 8 0
BBX 7 8 1 -1
BITMAP
08
A8
EC
AC
A8
AE
A8
A8
ENDCHAR
STARTCHAR 4FF5
ENCODING 20469
SWIDTH 1000 0
DWIDTH 8 0
BBX 7 8 1 -1
BITMAP
90
7C
BC
90
FE
A8
EC
B6
ENDCHAR
STARTCHAR 4FF6
ENCODING 20470
SWIDTH 1000 0
DWIDTH 8 0
BBX 8 8 0 -1
BITMAP
50
56
5E
7E
D2
7A
56
79
ENDCHAR
STARTCHAR 4FF8
ENCODING 20472
SWIDTH 1000 0
DWIDTH 8 0
BBX 7 8 1 -1
BITMAP
10
FC
BC
FE
D4
BC
90
90
ENDCHAR
STARTCHAR 4FFA
ENCODING 20474
SWIDTH 1000 0
DWIDTH 8 0
BBX 7 8 1 -1
BITMAP
90
7C
B8
BE
BC
BC
D2
9C
ENDCHAR
STARTCHAR 4FFE
ENCODING 20478
SWIDTH 1000 0
DWIDTH 8 0
BBX 7 8 1 -1
BITMAP
10
BC
BC
D4
BC
FE
88
88
ENDCHAR
STARTCHAR 4FFF
ENCODING 20479
SWIDTH 1000 0
DWIDTH 8 0
BBX 8 8 0 -1
BITMAP
48
46
5F
6C
EE
6C
6D
77
ENDCHAR
STARTCHAR 5000
ENCODING 20480
SWIDTH 1000 0
DWIDTH 8 0
BBX 8 7 0 -1
BITMAP
5E
5E
5E
FF
58
56
5B
ENDCHAR
STARTCHAR 5001
ENCODING 20481
SWIDTH 1000 0
DWIDTH 8 0
BBX 7 7 0 0
BITMAP
66
5E
76
FE
56
5E
60
ENDCHAR
STARTCHAR 5002
ENCODING 20482
SWIDTH 1000 0
DWIDTH 8 0
BBX 7 8 1 -1
BITMAP
54
A8
BC
A8
BE
A8
A8
C8
ENDCHAR
STARTCHAR 5005
ENCODING 20485
SWIDTH 1000 0
DWIDTH 8 0
BBX 8 8 0 -1
BITMAP
08
5E
40
54
EE
7F
48
48
ENDCHAR
STARTCHAR 5006
ENCODING 20486
SWIDTH 1000 0
DWIDTH 8 0
BBX 7 7 1 -1
BITMAP
FE
FC
EC
FC
FC
D4
C4
ENDCHAR
STARTCHAR 5009
ENCODING 20489
SWIDTH 1000 0
DWIDTH 8 0
BBX 6 8 1 -1
BITMAP
30
48
F4
78
78
FC
FC
44
ENDCHAR
STARTCHAR 500B
ENCODING 20491
SWIDTH 1000 0
DWIDTH 8 0
BBX 7 7 0 -1
BITMAP
5E
6A
5E
EE
6E
5E
62
ENDCHAR
STARTCHAR 500D
ENCODING 20493
SWIDTH 1000 0
DWIDTH 8 0
BBX 7 8 1 -1
BITMAP
10
BC
A8
FE
80
BC
BC
A4
ENDCHAR
STARTCHAR 500E
ENCODING 20494
SWIDTH 1000 0
DWIDTH 8 0
BBX 8 8 0 -1
BITMAP
4C
4C
5E
5E
EE
7F
44
73
ENDCHAR
STARTCHAR 500F
ENCODING 20495
SWIDTH 1000 0
DWIDTH 8 0
BBX 6 8 1 -1
BITMAP
10
9C
F8
D4
FC
C8
94
A0
ENDCHAR
STARTCHAR 5010
ENCODING 20496
SWIDTH 1000 0
DWIDTH 8 0
BBX 7 8 1 -1
BITMAP
10
9C
F8
D4
C8
EC
94
A2
ENDCHAR
STARTCHAR 5011
ENCODING 20497
SWIDTH 1000 0
DWIDTH 8 0
BBX 6 7 1 -1
BITMAP
BC
BC
BC
C4
C4
C4
C4
ENDCHAR
STARTCHAR 5012
ENCODING 20498
SWIDTH 1000 0
DWIDTH 8 0
BBX 7 7 0 -1
BITMAP
3E
5E
7E
D6
7E
5A
42
ENDCHAR
STARTCHAR 5013
ENCODING 20499
SWIDTH 1000 0
DWIDTH 8 0
BBX 8 8 0 -1
BITMAP
28
5A
58
4E
D8
5A
4C
53
ENDCHAR
STARTCHAR 5014
ENCODING 20500
SWIDTH 1000 0
DWIDTH 8 0
BBX 7 7 0 0
BITMAP
5E
5E
76
F6
6E
6E
72
ENDCHAR
STARTCHAR 5016
ENCODING 20502
SWIDTH 1000 0
DWIDTH 8 0
BBX 7 8 1 -1
BITMAP
10
BC
90
FE
FC
BC
90
90
ENDCHAR
STARTCHAR 5018
ENCODING 20504
SWIDTH 1000 0
DWIDTH 8 0
BBX 8 8 0 -1
BITMAP
48
5A
69
7E
EE
6E
62
66
ENDCHAR
STARTCHAR 5019
ENCODING 20505
SWIDTH 1000 0
DWIDTH 8 0
BBX 7 7 1 -1
BITMAP
18
FE
D0
FE
C8
D4
A2
ENDCHAR
STARTCHAR 501A
ENCODING 20506
SWIDTH 1000 0
DWIDTH 8 0
BBX 7 8 1 -1
BITMAP
50
BC
9C
FE
B4
B4
A4
8C
ENDCHAR
STARTCHAR 501C
ENCODING 20508
SWIDTH 1000 0
DWIDTH 8 0
BBX 6 7 1 -1
BITMAP
BC
DC
DC
DC
DC
C4
C4
ENDCHAR
STARTCHAR 501E
ENCODING 20510
SWIDTH 1000 0
DWIDTH 8 0
BBX 7 8 1 -1
BITMAP
10
7E
80
BC
BC
B4
D4
90
ENDCHAR
STARTCHAR 501F
ENCODING 20511
SWIDTH 1000 0
DWIDTH 8 0
BBX 7 8 1 -1
BITMAP
A8
A8
BC
FE
BC
BC
BC
A4
ENDCHAR
STARTCHAR 5021
ENCODING 20513
SWIDTH 1000 0
DWIDTH 8 0
BBX 6 7 1 -1
BITMAP
BC
BC
BC
BC
BC
BC
C4
ENDCHAR
STARTCHAR 5022
ENCODING 20514
SWIDTH 1000 0
DWIDTH 8 0
BBX 8 8 0 -1
BITMAP
48
7E
5E
7F
DE
56
58
6E
ENDCHAR
STARTCHAR 5023
ENCODING 20515
SWIDTH 1000 0
DWIDTH 8 0
BBX 8 8 0 -1
BITMAP
54
54
7F
5E
EA
6A
72
75
ENDCHAR
STARTCHAR 5024
ENCODING 20516
SWIDTH 1000 0
DWIDTH 8 0
BBX 8 7 0 0
BITMAP
5E
4E
6E
F2
6E
5F
60
ENDCHAR
STARTCHAR 5025
ENCODING 20517
SWIDTH 1000 0
DWIDTH 8 0
BBX 8 8 0 -1
BITMAP
48
5E
66
D6
5E
48
7F
40
ENDCHAR
STARTCHAR 5026
ENCODING 20518
SWIDTH 1000 0
DWIDTH 8 0
BBX 7 8 1 -1
BITMAP
10
94
FC
FE
BC
E8
A0
BC
ENDCHAR
STARTCHAR 5027
ENCODING 20519
SWIDTH 1000 0
DWIDTH 8 0
BBX 8 8 0 -1
BITMAP
28
48
5E
5E
DF
5A
6A
48
ENDCHAR
STARTCHAR 5028
ENCODING 20520
SWIDTH 1000 0
DWIDTH 8 0
BBX 7 7 1 0
BITMAP
BC
BC
C8
BE
E4
DC
E4
ENDCHAR
STARTCHAR 5029
ENCODING 20521
SWIDTH 1000 0
DWIDTH 8 0
BBX 8 8 0 -1
BITMAP
28
5E
5E
7F
DE
5E
52
56
ENDCHAR
STARTCHAR 502A
ENCODING 20522
SWIDTH 1000 0
DWIDTH 8 0
BBX 7 7 1 0
BITMAP
AC
BC
C4
BC
A8
AA
CC
ENDCHAR
STARTCHAR 502B
ENCODING 20523
SWIDTH 1000 0
DWIDTH 8 0
BBX 6 8 1 -1
BITMAP
90
A8
DC
C0
BC
EC
EC
C4
ENDCHAR
STARTCHAR 502C
ENCODING 20524
SWIDTH 1000 0
DWIDTH 8 0
BBX 8 8 0 -1
BITMAP
28
4E
5E
5E
E2
7F
48
48
ENDCHAR
STARTCHAR 502D
ENCODING 20525
SWIDTH 1000 0
DWIDTH 8 0
BBX 7 7 0 0
BITMAP
4C
7E
5A
C8
7E
54
5E
ENDCHAR
STARTCHAR 502E
ENCODING 20526
SWIDTH 1000 0
DWIDTH 8 0
BBX 6 7 1 -1
BITMAP
BC
BC
BC
FC
98
B4
D0
ENDCHAR
STARTCHAR 5036
ENCODING 20534
SWIDTH 1000 0
DWIDTH 8 0
BBX 7 7 1 -1
BITMAP
BC
BC
BC
BC
FE
88
E6
ENDCHAR
STARTCHAR 5039
ENCODING 20537
SWIDTH 1000 0
DWIDTH 8 0
BBX 6 8 1 -1
BITMAP
90
A8
BC
BC
D4
BC
98
A4
ENDCHAR
STARTCHAR 503B
ENCODING 20539
SWIDTH 1000 0
DWIDTH 8 0
BBX 7 7 0 -1
BITMAP
7E
5E
6E
DE
6E
5E
6C
ENDCHAR
STARTCHAR 5040
ENCODING 20544
SWIDTH 1000 0
DWIDTH 8 0
BBX 8 8 0 -1
BITMAP
54
5E
5C
5E
DA
7F
4C
53
ENDCHAR
STARTCHAR 5041
ENCODING 20545
SWIDTH 1000 0
DWIDTH 8 0
BBX 8 7 0 -1
BITMAP
5C
62
5E
DE
7F
52
56
ENDCHAR
STARTCHAR 5042
ENCODING 20546
SWIDTH 1000 0
DWIDTH 8 0
BBX 8 7 0 -1
BITMAP
54
7F
5E
DE
5E
6A
4A
ENDCHAR
STARTCHAR 5043
ENCODING 20547
SWIDTH 1000 0
DWIDTH 8 0
BBX 7 7 1 -1
BITMAP
BC
DC
DC
BE
C8
BE
C0
ENDCHAR
STARTCHAR 5046
ENCODING 20550
SWIDTH 1000 0
DWIDTH 8 0
BBX 7 7 1 0
BITMAP
BC
BC
FE
BC
F8
B8
A8
ENDCHAR
STARTCHAR 5047
ENCODING 20551
SWIDTH 1000 0
DWIDTH 8 0
BBX 7 7 0 -1
BITMAP
7E
6A
7E
F6
7E
66
68
ENDCHAR
STARTCHAR 5048
ENCODING 20552
SWIDTH 1000 0
DWIDTH 8 0
BBX 7 7 0 -1
BITMAP
5E
5E
5E
DE
7E
5E
46
ENDCHAR
STARTCHAR 5049
ENCODING 20553
SWIDTH 1000 0
DWIDTH 8 0
BBX 7 8 1 -1
BITMAP
10
B8
FC
BC
FC
FE
88
88
ENDCHAR
STARTCHAR 504E
ENCODING 20558
SWIDTH 1000 0
DWIDTH 8 0
BBX 7 7 1 -1
BITMAP
BC
BC
BC
FE
AC
A8
B6
ENDCHAR
STARTCHAR 504F
ENCODING 20559
SWIDTH 1000 0
DWIDTH 8 0
BBX 7 7 0 -1
BITMAP
3E
5E
5E
DE
5E
7E
52
ENDCHAR
STARTCHAR 5050
ENCODING 20560
SWIDTH 1000 0
DWIDTH 8 0
BBX 7 8 1 -1
BITMAP
90
BC
98
BE
C8
D4
DC
F8
ENDCHAR
STARTCHAR 5053
ENCODING 20563
SWIDTH 1000 0
DWIDTH 8 0
BBX 7 7 1 -1
BITMAP
BC
BC
BC
BC
BC
FE
C0
ENDCHAR
STARTCHAR 5055
ENCODING 20565
SWIDTH 1000 0
DWIDTH 8 0
BBX 7 8 1 -1
BITMAP
C8
C8
BC
BE
BC
BC
BC
A4
ENDCHAR
STARTCHAR 5056
ENCODING 20566
SWIDTH 1000 0
DWIDTH 8 0
BBX 7 8 1 -1
BITMAP
90
BC
98
FE
9C
BC
BC
A4
ENDCHAR
STARTCHAR 5057
ENCODING 20567
SWIDTH 1000 0
DWIDTH 8 0
BBX 6 8 1 -1
BITMAP
90
B4
D4
98
BC
BC
BC
A4
ENDCHAR
STARTCHAR 505A
ENCODING 20570
SWIDTH 1000 0
DWIDTH 8 0
BBX 8 8 0 -1
BITMAP
50
54
7F
56
FA
6A
7E
49
ENDCHAR
STARTCHAR 505C
ENCODING 20572
SWIDTH 1000 0
DWIDTH 8 0
BBX 7 8 1 -1
BITMAP
90
7C
BC
BC
FE
BC
90
90
ENDCHAR
STARTCHAR 5063
ENCODING 20579
SWIDTH 1000 0
DWIDTH 8 0
BBX 8 8 0 -1
BITMAP
48
5E
54
7F
DE
5E
5E
52
ENDCHAR
STARTCHAR 5065
ENCODING 20581
SWIDTH 1000 0
DWIDTH 8 0
BBX 8 8 0 -1
BITMAP
44
7E
6F
7E
FE
7F
54
6F
ENDCHAR
STARTCHAR 5066
ENCODING 20582
SWIDTH 1000 0
DWIDTH 8 0
BBX 7 7 1 -1
BITMAP
BC
AC
DE
BC
BC
A4
AC
ENDCHAR
STARTCHAR 506A
ENCODING 20586
SWIDTH 1000 0
DWIDTH 8 0
BBX 7 7 0 -1
BITMAP
5E
5E
5E
DE
5E
5E
62
ENDCHAR
STARTCHAR 506C
ENCODING 20588
SWIDTH 1000 0
DWIDTH 8 0
BBX 7 7 1 0
BITMAP
BC
DC
AC
9C
AC
EA
98
ENDCHAR
STARTCHAR 5070
ENCODING 20592
SWIDTH 1000 0
DWIDTH 8 0
BBX 7 7 1 -1
BITMAP
BC
BC
A4
FE
90
A8
C4
ENDCHAR
STARTCHAR 5072
ENCODING 20594
SWIDTH 1000 0
DWIDTH 8 0
BBX 7 7 1 -1
BITMAP
BC
BC
D4
BC
AC
E2
98
ENDCHAR
STARTCHAR 5074
ENCODING 20596
SWIDTH 1000 0
DWIDTH 8 0
BBX 7 7 0 -1
BITMAP
1E
5E
6E
DE
5E
6A
62
ENDCHAR
STARTCHAR 5075
ENCODING 20597
SWIDTH 1000 0
DWIDTH 8 0
BBX 6 8 1 -1
BITMAP
50
8C
BC
BC
BC
BC
88
E4
ENDCHAR
STARTCHAR 5076
ENCODING 20598
SWIDTH 1000 0
DWIDTH 8 0
BBX 7 7 0 -1
BITMAP
5E
5E
5E
FE
6A
7E
62
ENDCHAR
STARTCHAR 5078
ENCODING 20600
SWIDTH 1000 0
DWIDTH 8 0
BBX 7 7 0 -1
BITMAP
1C
4E
5E
DE
6C
7E
5C
ENDCHAR
STARTCHAR 507D
ENCODING 20605
SWIDTH 1000 0
DWIDTH 8 0
BBX 7 7 1 -1
BITMAP
B0
F8
9C
BE
C4
DC
84
ENDCHAR
STARTCHAR 5080
ENCODING 20608
SWIDTH 1000 0
DWIDTH 8 0
BBX 8 8 0 -1
BITMAP
08
5E
6A
5E
DE
58
57
67
ENDCHAR
STARTCHAR 5085
ENCODING 20613
SWIDTH 1000 0
DWIDTH 8 0
BBX 8 8 0 -1
BITMAP
4A
7E
5E
5E
DE
7F
54
44
ENDCHAR
STARTCHAR 5088
ENCODING 20616
SWIDTH 1000 0
DWIDTH 8 0
BBX 7 7 1 -1
BITMAP
7C
BC
DC
BC
FE
B8
94
ENDCHAR
STARTCHAR 508D
ENCODING 20621
SWIDTH 1000 0
DWIDTH 8 0
BBX 7 8 1 -1
BITMAP
90
BC
A8
FC
FE
9C
A4
AC
ENDCHAR
STARTCHAR 5091
ENCODING 20625
SWIDTH 1000 0
DWIDTH 8 0
BBX 7 8 0 -1
BITMAP
54
5E
7C
5E
C8
7E
5A
68
ENDCHAR
STARTCHAR 5092
ENCODING 20626
SWIDTH 1000 0
DWIDTH 8 0
BBX 7 8 1 -1
BITMAP
0C
F4
90
9C
90
FE
98
E6
ENDCHAR
STARTCHAR 5093
ENCODING 20627
SWIDTH 1000 0
DWIDTH 8 0
BBX 7 7 0 -1
BITMAP
5C
5E
5E
DE
6A
7E
6A
ENDCHAR
STARTCHAR 5094
ENCODING 20628
SWIDTH 1000 0
DWIDTH 8 0
BBX 8 7 0 -1
BITMAP
54
7E
5E
FF
5E
54
76
ENDCHAR
STARTCHAR 5095
ENCODING 20629
SWIDTH 1000 0
DWIDTH 8 0
BBX 7 8 1 -1
BITMAP
50
BC
EC
BC
FC
BC
BE
A0
ENDCHAR
STARTCHAR 5096
ENCODING 20630
SWIDTH 1000 0
DWIDTH 8 0
BBX 6 8 1 -1
BITMAP
90
A8
BC
BC
BC
BC
FC
A4
ENDCHAR
STARTCHAR 5098
ENCODING 20632
SWIDTH 1000 0
DWIDTH 8 0
BBX 8 8 0 -1
BITMAP
18
24
F7
48
76
FF
10
10
ENDCHAR
STARTCHAR 5099
ENCODING 20633
SWIDTH 1000 0
DWIDTH 8 0
BBX 7 8 1 -1
BITMAP
A8
BC
A8
FE
FC
FC
F4
A4
ENDCHAR
STARTCHAR 509A
ENCODING 20634
SWIDTH 1000 0
DWIDTH 8 0
BBX 8 8 0 -1
BITMAP
50
54
7F
4E
E6
52
5A
65
ENDCHAR
STARTCHAR 509C
ENCODING 20636
SWIDTH 1000 0
DWIDTH 8 0
BBX 7 7 1 0
BITMAP
9C
B8
90
FE
90
BC
A4
ENDCHAR
STARTCHAR 50A3
ENCODING 20643
SWIDTH 1000 0
DWIDTH 8 0
BBX 7 8 1 -1
BITMAP
10
BC
BC
FE
B4
90
B4
90
ENDCHAR
STARTCHAR 50AA
ENCODING 20650
SWIDTH 1000 0
DWIDTH 8 0
BBX 6 8 1 -1
BITMAP
10
BC
CC
B8
A4
BC
B8
B0
ENDCHAR
STARTCHAR 50AC
ENCODING 20652
SWIDTH 1000 0
DWIDTH 8 0
BBX 7 8 1 -1
BITMAP
90
D4
BC
BC
FC
BC
BE
A0
ENDCHAR
STARTCHAR 50AD
ENCODING 20653
SWIDTH 1000 0
DWIDTH 8 0
BBX 8 8 0 -1
BITMAP
48
7E
7E
7F
FE
7E
72
72
ENDCHAR
STARTCHAR 50B1
ENCODING 20657
SWIDTH 1000 0
DWIDTH 8 0
BBX 8 7 0 -1
BITMAP
5A
7E
5C
EC
6E
6C
73
ENDCHAR
STARTCHAR 50B2
ENCODING 20658
SWIDTH 1000 0
DWIDTH 8 0
BBX 7 8 1 -1
BITMAP
A0
F8
AE
FC
F4
B4
D4
FA
ENDCHAR
STARTCHAR 50B3
ENCODING 20659
SWIDTH 1000 0
DWIDTH 8 0
BBX 7 8 1 -1
BITMAP
90
7C
BC
BC
BC
FE
A8
88
ENDCHAR
STARTCHAR 50B4
ENCODING 20660
SWIDTH 1000 0
DWIDTH 8 0
BBX 8 7 0 -1
BITMAP
5E
6E
6E
DA
5A
5F
60
ENDCHAR
STARTCHAR 50B5
ENCODING 20661
SWIDTH 1000 0
DWIDTH 8 0
BBX 8 8 0 -1
BITMAP
48
5E
5E
7F
DE
5E
56
60
ENDCHAR
STARTCHAR 50B7
ENCODING 20663
SWIDTH 1000 0
DWIDTH 8 0
BBX 8 8 0 -1
BITMAP
10
5E
5E
5E
FF
6E
5A
4E
ENDCHAR
STARTCHAR 50BA
ENCODING 20666
SWIDTH 1000 0
DWIDTH 8 0
BBX 7 7 0 0
BITMAP
5E
72
5E
E0
5E
5A
48
ENDCHAR
STARTCHAR 50BB
ENCODING 20667
SWIDTH 1000 0
DWIDTH 8 0
BBX 6 8 1 -1
BITMAP
10
BC
C4
BC
9C
A8
98
E4
ENDCHAR
STARTCHAR 50BE
ENCODING 20670
SWIDTH 1000 0
DWIDTH 8 0
BBX 8 7 0 -1
BITMAP
2F
6E
7E
EE
6E
76
49
ENDCHAR
STARTCHAR 50C2
ENCODING 20674
SWIDTH 1000 0
DWIDTH 8 0
BBX 8 8 0 -1
BITMAP
08
5E
7F
5E
DE
7F
5C
72
ENDCHAR
STARTCHAR 50C4
ENCODING 20676
SWIDTH 1000 0
DWIDTH 8 0
BBX 8 7 0 -1
BITMAP
3E
5E
5E
DE
7F
5A
68
ENDCHAR
STARTCHAR 50C5
ENCODING 20677
SWIDTH 1000 0
DWIDTH 8 0
BBX 8 8 0 -1
BITMAP
54
7E
4C
5E
DE
5E
7F
40
ENDCHAR
STARTCHAR 50C7
ENCODING 20679
SWIDTH 1000 0
DWIDTH 8 0
BBX 7 7 0 -1
BITMAP
3E
6E
7A
D4
6E
5C
58
ENDCHAR
STARTCHAR 50C9
ENCODING 20681
SWIDTH 1000 0
DWIDTH 8 0
BBX 6 8 1 -2
BITMAP
30
48
FC
FC
B4
FC
48
B4
ENDCHAR
STARTCHAR 50CA
ENCODING 20682
SWIDTH 1000 0
DWIDTH 8 0
BBX 8 7 0 -1
BITMAP
3E
5E
5E
FF
7D
52
5E
ENDCHAR
STARTCHAR 50CC
ENCODING 20684
SWIDTH 1000 0
DWIDTH 8 0
BBX 8 8 0 -1
BITMAP
54
7C
7F
7E
FA
7A
56
59
ENDCHAR
STARTCHAR 50CD
ENCODING 20685
SWIDTH 1000 0
DWIDTH 8 0
BBX 7 8 0 -1
BITMAP
4C
54
7E
7E
FE
7E
56
6A
ENDCHAR
STARTCHAR 50CE
ENCODING 20686
SWIDTH 1000 0
DWIDTH 8 0
BBX 7 7 1 -1
BITMAP
BC
BC
BC
BC
FE
98
E4
ENDCHAR
STARTCHAR 50CF
ENCODING 20687
SWIDTH 1000 0
DWIDTH 8 0
BBX 7 7 0 0
BITMAP
5C
5E
5E
DC
5E
56
48
ENDCHAR
STARTCHAR 50D0
ENCODING 20688
SWIDTH 1000 0
DWIDTH 8 0
BBX 7 7 1 0
BITMAP
BC
BC
FC
FE
BC
BC
C4
ENDCHAR
STARTCHAR 50D1
ENCODING 20689
SWIDTH 1000 0
DWIDTH 8 0
BBX 7 7 0 -1
BITMAP
5C
7E
5E
FE
6E
6E
62
ENDCHAR
STARTCHAR 50D4
ENCODING 20692
SWIDTH 1000 0
DWIDTH 8 0
BBX 8 7 0 -1
BITMAP
5C
7E
76
DE
7F
54
44
ENDCHAR
STARTCHAR 50D5
ENCODING 20693
SWIDTH 1000 0
DWIDTH 8 0
BBX 8 8 0 -1
BITMAP
16
56
7E
7E
DE
7E
4C
73
ENDCHAR
STARTCHAR 50D6
ENCODING 20694
SWIDTH 1000 0
DWIDTH 8 0
BBX 8 8 0 -1
BITMAP
48
3E
5E
5E
FF
5E
5E
62
ENDCHAR
STARTCHAR 50D8
ENCODING 20696
SWIDTH 1000 0
DWIDTH 8 0
BBX 8 8 0 -1
BITMAP
50
7C
77
7E
FA
7A
6E
6D
ENDCHAR
STARTCHAR 50D9
ENCODING 20697
SWIDTH 1000 0
DWIDTH 8 0
BBX 8 8 0 -1
BITMAP
54
5E
4C
7F
DE
5E
40
72
ENDCHAR
STARTCHAR 50DA
ENCODING 20698
SWIDTH 1000 0
DWIDTH 8 0
BBX 6 8 1 -1
BITMAP
90
FC
E8
BC
FC
B0
D4
D0
ENDCHAR
STARTCHAR 50DE
ENCODING 20702
SWIDTH 1000 0
DWIDTH 8 0
BBX 6 8 1 -1
BITMAP
BC
D4
F8
C8
BC
BC
BC
E4
ENDCHAR
STARTCHAR 50E1
ENCODING 20705
SWIDTH 1000 0
DWIDTH 8 0
BBX 7 8 0 -1
BITMAP
48
7E
5E
5E
DE
7E
52
4C
ENDCHAR
STARTCHAR 50E3
ENCODING 20707
SWIDTH 1000 0
DWIDTH 8 0
BBX 7 8 1 -1
BITMAP
A8
FC
FE
DC
BC
BC
BC
C4
ENDCHAR
STARTCHAR 50E5
ENCODING 20709
SWIDTH 1000 0
DWIDTH 8 0
BBX 8 8 0 -1
BITMAP
48
5E
7E
7E
F7
7E
54
76
ENDCHAR
STARTCHAR 50E6
ENCODING 20710
SWIDTH 1000 0
DWIDTH 8 0
BBX 8 8 0 -1
BITMAP
50
56
7F
F4
F4
74
7D
5B
ENDCHAR
STARTCHAR 50E7
ENCODING 20711
SWIDTH 1000 0
DWIDTH 8 0
BBX 6 8 1 -1
BITMAP
A8
BC
D4
BC
BC
BC
BC
A4
ENDCHAR
STARTCHAR 50E9
ENCODING 20713
SWIDTH 1000 0
DWIDTH 8 0
BBX 7 7 0 -1
BITMAP
5E
5E
5E
EE
6E
76
62
ENDCHAR
STARTCHAR 50ED
ENCODING 20717
SWIDTH 1000 0
DWIDTH 8 0
BBX 6 8 1 -1
BITMAP
A8
FC
FC
9C
BC
BC
BC
C4
ENDCHAR
STARTCHAR 50EE
ENCODING 20718
SWIDTH 1000 0
DWIDTH 8 0
BBX 7 8 1 -1
BITMAP
90
BC
FE
BC
BC
BC
FE
80
ENDCHAR
STARTCHAR 50F2
ENCODING 20722
SWIDTH 1000 0
DWIDTH 8 0
BBX 8 7 0 -1
BITMAP
3F
5E
5E
D6
7F
52
62
ENDCHAR
STARTCHAR 50F3
ENCODING 20723
SWIDTH 1000 0
DWIDTH 8 0
BBX 7 7 1 -1
BITMAP
7C
BC
BC
FE
98
B4
90
ENDCHAR
STARTCHAR 50F4
ENCODING 20724
SWIDTH 1000 0
DWIDTH 8 0
BBX 7 7 0 -1
BITMAP
3E
7E
7E
EE
6E
62
62
ENDCHAR
STARTCHAR 50F5
ENCODING 20725
SWIDTH 1000 0
DWIDTH 8 0
BBX 7 7 1 -1
BITMAP
7C
BC
BC
FC
BC
FE
80
ENDCHAR
STARTCHAR 50F9
ENCODING 20729
SWIDTH 1000 0
DWIDTH 8 0
BBX 7 7 1 -1
BITMAP
7E
BC
BC
BC
BC
9C
E2
ENDCHAR
STARTCHAR 50FB
ENCODING 20731
SWIDTH 1000 0
DWIDTH 8 0
BBX 8 8 0 -1
BITMAP
44
77
70
76
F7
77
54
44
ENDCHAR
STARTCHAR 5100
ENCODING 20736
SWIDTH 1000 0
DWIDTH 8 0
BBX 8 8 0 -1
BITMAP
10
7E
5E
7E
F6
7F
5E
56
ENDCHAR
STARTCHAR 5101
ENCODING 20737
SWIDTH 1000 0
DWIDTH 8 0
BBX 7 8 1 -1
BITMAP
28
BC
FC
BC
BE
DC
D4
C4
ENDCHAR
STARTCHAR 5102
ENCODING 20738
SWIDTH 1000 0
DWIDTH 8 0
BBX 7 8 0 -1
BITMAP
04
5E
5E
7E
FE
76
74
7A
ENDCHAR
STARTCHAR 5103
ENCODING 20739
SWIDTH 1000 0
DWIDTH 8 0
BBX 8 8 0 -1
BITMAP
48
7F
5E
6E
DE
5E
7F
40
ENDCHAR
STARTCHAR 5104
ENCODING 20740
SWIDTH 1000 0
DWIDTH 8 0
BBX 7 8 1 -1
BITMAP
10
FC
FE
BC
BC
84
A4
D8
ENDCHAR
STARTCHAR 5106
ENCODING 20742
SWIDTH 1000 0
DWIDTH 8 0
BBX 8 8 0 -1
BITMAP
54
7C
77
FE
FA
7A
4E
5D
ENDCHAR
STARTCHAR 5108
ENCODING 20744
SWIDTH 1000 0
DWIDTH 8 0
BBX 7 8 0 -1
BITMAP
48
54
5E
7E
DE
5E
5E
62
ENDCHAR
STARTCHAR 5109
ENCODING 20745
SWIDTH 1000 0
DWIDTH 8 0
BBX 8 8 0 -1
BITMAP
48
54
5F
56
FA
56
54
6A
ENDCHAR
STARTCHAR 510B
ENCODING 20747
SWIDTH 1000 0
DWIDTH 8 0
BBX 8 7 0 -1
BITMAP
5C
5E
6E
DF
6E
6E
72
ENDCHAR
STARTCHAR 5112
ENCODING 20754
SWIDTH 1000 0
DWIDTH 8 0
BBX 8 7 0 -1
BITMAP
5E
7E
56
FF
5E
6E
62
ENDCHAR
STARTCHAR 5114
ENCODING 20756
SWIDTH 1000 0
DWIDTH 8 0
BBX 8 8 0 -1
BITMAP
48
7E
7F
5E
FE
7E
52
46
ENDCHAR
STARTCHAR 5115
ENCODING 20757
SWIDTH 1000 0
DWIDTH 8 0
BBX 7 8 1 -1
BITMAP
90
FE
FC
BC
A4
BC
C4
C4
ENDCHAR
STARTCHAR 5116
ENCODING 20758
SWIDTH 1000 0
DWIDTH 8 0
BBX 7 7 1 -1
BITMAP
78
FC
F0
FC
DC
FE
80
ENDCHAR
STARTCHAR 5117
ENCODING 20759
SWIDTH 1000 0
DWIDTH 8 0
BBX 8 7 0 -1
BITMAP
66
7C
67
D2
7C
54
6B
ENDCHAR
STARTCHAR 5118
ENCODING 20760
SWIDTH 1000 0
DWIDTH 8 0
BBX 8 8 0 -1
BITMAP
48
5E
7E
5E
FE
5E
7F
40
ENDCHAR
STARTCHAR 511A
ENCODING 20762
SWIDTH 1000 0
DWIDTH 8 0
BBX 8 8 0 -1
BITMAP
54
7F
5E
5E
FF
54
4C
58
ENDCHAR
STARTCHAR 511B
ENCODING 20763
SWIDTH 1000 0
DWIDTH 8 0
BBX 8 8 0 -1
BITMAP
10
5E
7F
5E
FE
5F
52
62
ENDCHAR
STARTCHAR 511E
ENCODING 20766
SWIDTH 1000 0
DWIDTH 8 0
BBX 6 7 1 -1
BITMAP
FC
FC
AC
AC
D4
C4
C4
ENDCHAR
STARTCHAR 511F
ENCODING 20767
SWIDTH 1000 0
DWIDTH 8 0
BBX 6 8 1 -1
BITMAP
B4
FC
FC
B8
BC
BC
A8
C4
ENDCHAR
STARTCHAR 5121
ENCODING 20769
SWIDTH 1000 0
DWIDTH 8 0
BBX 7 7 0 -1
BITMAP
5E
5E
5E
FE
7E
7E
6C
ENDCHAR
STARTCHAR 512A
ENCODING 20778
SWIDTH 1000 0
DWIDTH 8 0
BBX 8 7 0 -1
BITMAP
3E
5E
7F
FB
4E
7C
73
ENDCHAR
STARTCHAR 5132
ENCODING 20786
SWIDTH 1000 0
DWIDTH 8 0
BBX 8 8 0 -1
BITMAP
04
76
76
7F
FE
76
76
6A
ENDCHAR
STARTCHAR 5135
ENCODING 20789
SWIDTH 1000 0
DWIDTH 8 0
BBX 7 8 1 -1
BITMAP
10
9C
E8
FC
DC
FE
C0
B0
ENDCHAR
STARTCHAR 5137
ENCODING 20791
SWIDTH 1000 0
DWIDTH 8 0
BBX 8 7 0 -1
BITMAP
7E
7C
7E
FE
7E
75
5E
ENDCHAR
STARTCHAR 513A
ENCODING 20794
SWIDTH 1000 0
DWIDTH 8 0
BBX 8 7 0 -1
BITMAP
7E
77
7E
FE
7E
6F
6C
ENDCHAR
STARTCHAR 513B
ENCODING 20795
SWIDTH 1000 0
DWIDTH 8 0
BBX 7 8 1 -1
BITMAP
B0
FC
FC
BC
BC
FE
8C
EA
ENDCHAR
STARTCHAR 513C
ENCODING 20796
SWIDTH 1000 0
DWIDTH 8 0
BBX 7 7 1 -1
BITMAP
BC
FE
F0
F6
FC
F4
9A
ENDCHAR
STARTCHAR 513F
ENCODING 20799
SWIDTH 1000 0
DWIDTH 8 0
BBX 6 6 1 0
BITMAP
50
50
50
50
50
8C
ENDCHAR
STARTCHAR 5140
ENCODING 20800
SWIDTH 1000 0
DWIDTH 8 0
BBX 7 6 1 -1
BITMAP
FC
50
50
50
52
8C
ENDCHAR
STARTCHAR 5141
ENCODING 20801
SWIDTH 1000 0
DWIDTH 8 0
BBX 6 7 1 -1
BITMAP
20
48
FC
50
50
54
8C
ENDCHAR
STARTCHAR 5143
ENCODING 20803
SWIDTH 1000 0
DWIDTH 8 0
BBX 7 7 1 -1
BITMAP
FC
00
FC
50
50
52
8C
ENDCHAR
STARTCHAR 5144
ENCODING 20804
SWIDTH 1000 0
DWIDTH 8 0
BBX 6 8 1 -2
BITMAP
FC
84
84
FC
50
50
4C
80
ENDCHAR
STARTCHAR 5145
ENCODING 20805
SWIDTH 1000 0
DWIDTH 8 0
BBX 6 7 1 0
BITMAP
20
20
FC
F4
50
50
8C
ENDCHAR
STARTCHAR 5146
ENCODING 20806
SWIDTH 1000 0
DWIDTH 8 0
BBX 6 7 1 -1
BITMAP
30
B4
38
78
D4
50
9C
ENDCHAR
STARTCHAR 5147
ENCODING 20807
SWIDTH 1000 0
DWIDTH 8 0
BBX 6 7 1 -1
BITMAP
D4
B4
EC
FC
50
54
8C
ENDCHAR
STARTCHAR 5148
ENCODING 20808
SWIDTH 1000 0
DWIDTH 8 0
BBX 7 8 1 -1
BITMAP
20
A0
FC
A0
FC
50
52
8C
ENDCHAR
STARTCHAR 5149
ENCODING 20809
SWIDTH 1000 0
DWIDTH 8 0
BBX 6 7 1 -1
BITMAP
A4
68
FC
50
50
4C
80
ENDCHAR
STARTCHAR 514A
ENCODING 20810
SWIDTH 1000 0
DWIDTH 8 0
BBX 6 7 1 -1
BITMAP
38
8C
28
F4
50
54
8C
ENDCHAR
STARTCHAR 514B
ENCODING 20811
SWIDTH 1000 0
DWIDTH 8 0
BBX 6 8 1 -1
BITMAP
20
FC
20
FC
FC
50
5C
80
ENDCHAR
STARTCHAR 514C
ENCODING 20812
SWIDTH 1000 0
DWIDTH 8 0
BBX 7 7 1 -1
BITMAP
78
48
FC
78
50
52
8C
ENDCHAR
STARTCHAR 514D
ENCODING 20813
SWIDTH 1000 0
DWIDTH 8 0
BBX 6 6 1 1
BITMAP
78
FC
A4
7C
50
CC
ENDCHAR
STARTCHAR 514E
ENCODING 20814
SWIDTH 1000 0
DWIDTH 8 0
BBX 6 8 1 -1
BITMAP
0C
F0
FC
A4
FC
38
5C
80
ENDCHAR
STARTCHAR 5150
ENCODING 20816
SWIDTH 1000 0
DWIDTH 8 0
BBX 6 7 1 -1
BITMAP
BC
BC
A4
BC
50
50
8C
ENDCHAR
STARTCHAR 5152
ENCODING 20818
SWIDTH 1000 0
DWIDTH 8 0
BBX 6 7 1 -1
BITMAP
DC
FC
84
FC
50
4C
80
ENDCHAR
STARTCHAR 5154
ENCODING 20820
SWIDTH 1000 0
DWIDTH 8 0
BBX 6 6 1 1
BITMAP
78
FC
A4
7C
38
DC
ENDCHAR
STARTCHAR 5155
ENCODING 20821
SWIDTH 1000 0
DWIDTH 8 0
BBX 6 7 1 -1
BITMAP
CC
B4
84
FC
50
5C
80
ENDCHAR
STARTCHAR 5157
ENCODING 20823
SWIDTH 1000 0
DWIDTH 8 0
BBX 6 7 1 0
BITMAP
20
FC
78
FC
78
50
DC
ENDCHAR
STARTCHAR 515A
ENCODING 20826
SWIDTH 1000 0
DWIDTH 8 0
BBX 6 8 1 -1
BITMAP
20
68
FC
FC
88
78
50
CC
ENDCHAR
STARTCHAR 515C
ENCODING 20828
SWIDTH 1000 0
DWIDTH 8 0
BBX 7 7 0 0
BITMAP
5E
9A
AA
5E
28
2A
46
ENDCHAR
STARTCHAR 5160
ENCODING 20832
SWIDTH 1000 0
DWIDTH 8 0
BBX 8 7 0 0
BITMAP
5C
6A
5C
DB
28
2A
46
ENDCHAR
STARTCHAR 5162
ENCODING 20834
SWIDTH 1000 0
DWIDTH 8 0
BBX 8 8 0 -1
BITMAP
44
FF
44
7E
7E
6C
7D
AB
ENDCHAR
STARTCHAR 5164
ENCODING 20836
SWIDTH 1000 0
DWIDTH 8 0
BBX 8 8 0 -1
BITMAP
44
FE
7E
FF
5E
5E
BF
80
ENDCHAR
STARTCHAR 5165
ENCODING 20837
SWIDTH 1000 0
DWIDTH 8 0
BBX 6 7 1 -1
BITMAP
60
20
10
30
30
48
84
ENDCHAR
STARTCHAR 5168
ENCODING 20840
SWIDTH 1000 0
DWIDTH 8 0
BBX 7 7 1 0
BITMAP
30
50
48
FE
FC
20
FC
ENDCHAR
STARTCHAR 5169
ENCODING 20841
SWIDTH 1000 0
DWIDTH 8 0
BBX 8 7 0 -1
BITMAP
FF
7E
B6
B6
DA
92
86
ENDCHAR
STARTCHAR 516A
ENCODING 20842
SWIDTH 1000 0
DWIDTH 8 0
BBX 6 7 1 -1
BITMAP
70
3C
F4
B8
F8
F4
F0
ENDCHAR
STARTCHAR 516B
ENCODING 20843
SWIDTH 1000 0
DWIDTH 8 0
BBX 7 6 1 0
BITMAP
30
10
48
48
84
82
ENDCHAR
STARTCHAR 516C
ENCODING 20844
SWIDTH 1000 0
DWIDTH 8 0
BBX 6 6 1 0
BITMAP
50
48
A4
20
48
FC
ENDCHAR
STARTCHAR 516D
ENCODING 20845
SWIDTH 1000 0
DWIDTH 8 0
BBX 6 6 1 0
BITMAP
20
FC
00
48
84
84
ENDCHAR
STARTCHAR 516E
ENCODING 20846
SWIDTH 1000 0
DWIDTH 8 0
BBX 6 7 1 -1
BITMAP
38
48
FC
78
48
08
38
ENDCHAR
STARTCHAR 5171
ENCODING 20849
SWIDTH 1000 0
DWIDTH 8 0
BBX 6 6 1 0
BITMAP
48
FC
48
FC
08
C4
ENDCHAR
STARTCHAR 5173
ENCODING 20851
SWIDTH 1000 0
DWIDTH 8 0
BBX 6 8 1 -1
BITMAP
08
08
FC
20
FC
30
28
C4
ENDCHAR
STARTCHAR 5175
ENCODING 20853
SWIDTH 1000 0
DWIDTH 8 0
BBX 8 6 0 0
BITMAP
1C
20
3E
FF
04
62
ENDCHAR
STARTCHAR 5176
ENCODING 20854
SWIDTH 1000 0
DWIDTH 8 0
BBX 6 8 1 -1
BITMAP
48
FC
48
78
78
FC
58
84
ENDCHAR
STARTCHAR 5177
ENCODING 20855
SWIDTH 1000 0
DWIDTH 8 0
BBX 8 7 0 -1
BITMAP
3C
3C
3C
3C
FF
24
42
ENDCHAR
STARTCHAR 5178
ENCODING 20856
SWIDTH 1000 0
DWIDTH 8 0
BBX 8 8 0 -1
BITMAP
28
28
7E
7E
6A
FF
04
62
ENDCHAR
STARTCHAR 517B
ENCODING 20859
SWIDTH 1000 0
DWIDTH 8 0
BBX 7 8 1 -1
BITMAP
48
FC
FC
FC
48
CE
48
48
ENDCHAR
STARTCHAR 517C
ENCODING 20860
SWIDTH 1000 0
DWIDTH 8 0
BBX 6 8 1 -1
BITMAP
48
FC
FC
54
FC
FC
58
D4
ENDCHAR
STARTCHAR 5180
ENCODING 20864
SWIDTH 1000 0
DWIDTH 8 0
BBX 8 7 0 0
BITMAP
28
6E
6C
7E
7E
FF
66
ENDCHAR
STARTCHAR 5182
ENCODING 20866
SWIDTH 1000 0
DWIDTH 8 0
BBX 6 6 1 0
BITMAP
FC
84
84
84
84
8C
ENDCHAR
STARTCHAR 5183
ENCODING 20867
SWIDTH 1000 0
DWIDTH 8 0
BBX 6 7 1 -1
BITMAP
FC
84
FC
84
FC
84
8C
ENDCHAR
STARTCHAR 5185
ENCODING 20869
SWIDTH 1000 0
DWIDTH 8 0
BBX 6 6 1 0
BITMAP
20
FC
A4
B4
CC
8C
ENDCHAR
STARTCHAR 5186
ENCODING 20870
SWIDTH 1000 0
DWIDTH 8 0
BBX 6 6 1 0
BITMAP
FC
A4
A4
FC
84
8C
ENDCHAR
STARTCHAR 5189
ENCODING 20873
SWIDTH 1000 0
DWIDTH 8 0
BBX 8 8 0 -1
BITMAP
10
10
7E
7E
FF
42
42
46
ENDCHAR
STARTCHAR 518A
ENCODING 20874
SWIDTH 1000 0
DWIDTH 8 0
BBX 8 7 0 -1
BITMAP
7E
6A
6A
FF
6A
6A
46
ENDCHAR
STARTCHAR 518B
ENCODING 20875
SWIDTH 1000 0
DWIDTH 8 0
BBX 6 7 1 -1
BITMAP
FC
84
F4
F4
C4
84
8C
ENDCHAR
STARTCHAR 518C
ENCODING 20876
SWIDTH 1000 0
DWIDTH 8 0
BBX 8 7 0 -1
BITMAP
7E
5A
5A
FF
5A
5A
BE
ENDCHAR
STARTCHAR 518D
ENCODING 20877
SWIDTH 1000 0
DWIDTH 8 0
BBX 8 7 0 -1
BITMAP
7E
7E
52
7E
FF
42
46
ENDCHAR
STARTCHAR 518F
ENCODING 20879
SWIDTH 1000 0
DWIDTH 8 0
BBX 6 7 1 -1
BITMAP
FC
D4
DC
FC
FC
C4
8C
ENDCHAR
STARTCHAR 5190
ENCODING 20880
SWIDTH 1000 0
DWIDTH 8 0
BBX 6 7 1 -1
BITMAP
FC
FC
78
78
78
88
98
ENDCHAR
STARTCHAR 5191
ENCODING 20881
SWIDTH 1000 0
DWIDTH 8 0
BBX 6 8 1 -1
BITMAP
20
FC
FC
FC
78
78
88
88
ENDCHAR
STARTCHAR 5192
ENCODING 20882
SWIDTH 1000 0
DWIDTH 8 0
BBX 6 7 1 -1
BITMAP
FC
FC
FC
78
78
78
88
ENDCHAR
STARTCHAR 5193
ENCODING 20883
SWIDTH 1000 0
DWIDTH 8 0
BBX 8 8 0 -1
BITMAP
28
7E
7E
FF
7E
FF
42
44
ENDCHAR
STARTCHAR 5195
ENCODING 20885
SWIDTH 1000 0
DWIDTH 8 0
BBX 7 6 1 0
BITMAP
FC
FC
38
FC
7C
FE
ENDCHAR
STARTCHAR 5196
ENCODING 20886
SWIDTH 1000 0
DWIDTH 8 0
BBX 6 2 1 2
BITMAP
FC
84
ENDCHAR
STARTCHAR 5197
ENCODING 20887
SWIDTH 1000 0
DWIDTH 8 0
BBX 6 7 1 -1
BITMAP
FC
84
70
50
50
50
8C
ENDCHAR
STARTCHAR 5198
ENCODING 20888
SWIDTH 1000 0
DWIDTH 8 0
BBX 6 8 1 -1
BITMAP
20
20
FC
B4
30
50
54
9C
ENDCHAR
STARTCHAR 5199
ENCODING 20889
SWIDTH 1000 0
DWIDTH 8 0
BBX 8 7 0 -1
BITMAP
7E
BE
20
3C
FF
04
1C
ENDCHAR
STARTCHAR 519D
ENCODING 20893
SWIDTH 1000 0
DWIDTH 8 0
BBX 8 6 0 0
BITMAP
7E
BE
24
3C
3C
FF
ENDCHAR
STARTCHAR 51A0
ENCODING 20896
SWIDTH 1000 0
DWIDTH 8 0
BBX 6 7 1 -1
BITMAP
FC
E8
1C
E8
D8
C8
BC
ENDCHAR
STARTCHAR 51A2
ENCODING 20898
SWIDTH 1000 0
DWIDTH 8 0
BBX 6 7 1 -1
BITMAP
FC
78
34
E8
B8
54
B0
ENDCHAR
STARTCHAR 51A3
ENCODING 20899
SWIDTH 1000 0
DWIDTH 8 0
BBX 6 7 1 -1
BITMAP
FC
E0
FC
B4
F4
A8
74
ENDCHAR
STARTCHAR 51A4
ENCODING 20900
SWIDTH 1000 0
DWIDTH 8 0
BBX 7 7 1 -1
BITMAP
FC
78
7C
A4
7C
32
DC
ENDCHAR
STARTCHAR 51A5
ENCODING 20901
SWIDTH 1000 0
DWIDTH 8 0
BBX 6 7 1 -1
BITMAP
FC
FC
78
78
FC
48
84
ENDCHAR
STARTCHAR 51A6
ENCODING 20902
SWIDTH 1000 0
DWIDTH 8 0
BBX 7 7 1 -2
BITMAP
FC
EC
10
FC
D8
C8
BE
ENDCHAR
STARTCHAR 51A8
ENCODING 20904
SWIDTH 1000 0
DWIDTH 8 0
BBX 6 7 1 -1
BITMAP
FC
78
78
FC
FC
FC
84
ENDCHAR
STARTCHAR 51A9
ENCODING 20905
SWIDTH 1000 0
DWIDTH 8 0
BBX 6 7 1 -1
BITMAP
FC
58
78
7C
8C
B4
0C
ENDCHAR
STARTCHAR 51AA
ENCODING 20906
SWIDTH 1000 0
DWIDTH 8 0
BBX 8 7 0 -1
BITMAP
7E
3C
3C
FF
3E
54
10
ENDCHAR
STARTCHAR 51AB
ENCODING 20907
SWIDTH 1000 0
DWIDTH 8 0
BBX 4 6 2 0
BITMAP
80
40
10
20
40
40
ENDCHAR
STARTCHAR 51AC
ENCODING 20908
SWIDTH 1000 0
DWIDTH 8 0
BBX 6 8 1 -1
BITMAP
20
78
50
B0
48
94
60
18
ENDCHAR
STARTCHAR 51AD
ENCODING 20909
SWIDTH 1000 0
DWIDTH 8 0
BBX 7 7 1 -1
BITMAP
20
FC
50
68
96
08
70
ENDCHAR
STARTCHAR 51B0
ENCODING 20912
SWIDTH 1000 0
DWIDTH 8 0
BBX 7 7 0 -1
BITMAP
08
48
3A
1C
5C
6A
88
ENDCHAR
STARTCHAR 51B1
ENCODING 20913
SWIDTH 1000 0
DWIDTH 8 0
BBX 8 6 0 0
BITMAP
3E
50
1E
14
5C
BF
ENDCHAR
STARTCHAR 51B2
ENCODING 20914
SWIDTH 1000 0
DWIDTH 8 0
BBX 7 8 0 -1
BITMAP
08
48
5E
2A
5E
6A
88
08
ENDCHAR
STARTCHAR 51B3
ENCODING 20915
SWIDTH 1000 0
DWIDTH 8 0
BBX 8 8 0 -1
BITMAP
08
88
5E
0A
3F
08
54
33
ENDCHAR
STARTCHAR 51B4
ENCODING 20916
SWIDTH 1000 0
DWIDTH 8 0
BBX 7 7 1 -1
BITMAP
3C
A8
7E
18
98
A8
08
ENDCHAR
STARTCHAR 51B5
ENCODING 20917
SWIDTH 1000 0
DWIDTH 8 0
BBX 7 7 0 -1
BITMAP
1E
62
22
1E
14
D6
20
ENDCHAR
STARTCHAR 51B6
ENCODING 20918
SWIDTH 1000 0
DWIDTH 8 0
BBX 7 8 0 -1
BITMAP
08
4C
12
0C
1E
52
9E
12
ENDCHAR
STARTCHAR 51B7
ENCODING 20919
SWIDTH 1000 0
DWIDTH 8 0
BBX 6 8 1 -1
BITMAP
10
A8
A8
7C
3C
94
9C
10
ENDCHAR
STARTCHAR 51BC
ENCODING 20924
SWIDTH 1000 0
DWIDTH 8 0
BBX 8 8 0 -1
BITMAP
08
98
5E
28
3F
54
54
16
ENDCHAR
STARTCHAR 51BD
ENCODING 20925
SWIDTH 1000 0
DWIDTH 8 0
BBX 7 7 0 -1
BITMAP
7E
5E
2E
3E
56
92
22
ENDCHAR
STARTCHAR 51BE
ENCODING 20926
SWIDTH 1000 0
DWIDTH 8 0
BBX 8 8 0 -1
BITMAP
08
4C
12
0D
5E
52
9E
12
ENDCHAR
STARTCHAR 51C3
ENCODING 20931
SWIDTH 1000 0
DWIDTH 8 0
BBX 8 8 0 -1
BITMAP
08
54
52
1D
3E
58
AA
08
ENDCHAR
STARTCHAR 51C4
ENCODING 20932
SWIDTH 1000 0
DWIDTH 8 0
BBX 8 8 0 -1
BITMAP
08
BE
5E
3F
3F
54
8C
32
ENDCHAR
STARTCHAR 51C5
ENCODING 20933
SWIDTH 1000 0
DWIDTH 8 0
BBX 7 7 0 -1
BITMAP
3E
6A
3E
2E
6E
BE
22
ENDCHAR
STARTCHAR 51C6
ENCODING 20934
SWIDTH 1000 0
DWIDTH 8 0
BBX 8 7 0 0
BITMAP
14
5E
3E
5E
54
9F
10
ENDCHAR
STARTCHAR 51C9
ENCODING 20937
SWIDTH 1000 0
DWIDTH 8 0
BBX 8 8 0 -1
BITMAP
08
7F
40
1E
1E
58
AA
08
ENDCHAR
STARTCHAR 51CA
ENCODING 20938
SWIDTH 1000 0
DWIDTH 8 0
BBX 8 8 0 -1
BITMAP
08
9E
5E
3F
1E
5E
92
16
ENDCHAR
STARTCHAR 51CB
ENCODING 20939
SWIDTH 1000 0
DWIDTH 8 0
BBX 6 6 1 0
BITMAP
3C
DC
3C
DC
DC
44
ENDCHAR
STARTCHAR 51CC
ENCODING 20940
SWIDTH 1000 0
DWIDTH 8 0
BBX 7 9 0 -2
BITMAP
08
5E
7E
14
1E
4E
5C
8C
12
ENDCHAR
STARTCHAR 51CD
ENCODING 20941
SWIDTH 1000 0
DWIDTH 8 0
BBX 7 8 0 -1
BITMAP
08
7E
5E
1E
5E
4C
9A
28
ENDCHAR
STARTCHAR 51D6
ENCODING 20950
SWIDTH 1000 0
DWIDTH 8 0
BBX 8 8 0 -1
BITMAP
14
5E
3E
1E
DE
FF
10
10
ENDCHAR
STARTCHAR 51DB
ENCODING 20955
SWIDTH 1000 0
DWIDTH 8 0
BBX 8 8 0 -1
BITMAP
08
3F
5E
2E
1E
7F
9A
28
ENDCHAR
STARTCHAR 51DC
ENCODING 20956
SWIDTH 1000 0
DWIDTH 8 0
BBX 8 8 0 -1
BITMAP
08
3F
5E
2E
1E
7F
9C
2B
ENDCHAR
STARTCHAR 51DD
ENCODING 20957
SWIDTH 1000 0
DWIDTH 8 0
BBX 8 6 0 0
BITMAP
26
7C
27
3A
9C
AF
ENDCHAR
STARTCHAR 51DE
ENCODING 20958
SWIDTH 1000 0
DWIDTH 8 0
BBX 8 7 0 -1
BITMAP
3E
7E
3E
7B
D0
86
25
ENDCHAR
STARTCHAR 51E0
ENCODING 20960
SWIDTH 1000 0
DWIDTH 8 0
BBX 7 7 1 -1
BITMAP
78
48
48
48
48
8A
0C
ENDCHAR
STARTCHAR 51E1
ENCODING 20961
SWIDTH 1000 0
DWIDTH 8 0
BBX 7 7 1 -1
BITMAP
78
48
48
A8
88
8A
0C
ENDCHAR
STARTCHAR 51E2
ENCODING 20962
SWIDTH 1000 0
DWIDTH 8 0
BBX 6 7 1 -1
BITMAP
20
70
50
50
50
90
8C
ENDCHAR
STARTCHAR 51E6
ENCODING 20966
SWIDTH 1000 0
DWIDTH 8 0
BBX 7 6 0 0
BITMAP
6C
5C
6C
EC
32
5E
ENDCHAR
STARTCHAR 51E7
ENCODING 20967
SWIDTH 1000 0
DWIDTH 8 0
BBX 8 6 0 0
BITMAP
7E
52
7E
76
6F
93
ENDCHAR
STARTCHAR 51E9
ENCODING 20969
SWIDTH 1000 0
DWIDTH 8 0
BBX 8 6 0 0
BITMAP
7E
52
7E
52
7F
93
ENDCHAR
STARTCHAR 51EA
ENCODING 20970
SWIDTH 1000 0
DWIDTH 8 0
BBX 8 6 0 -1
BITMAP
7C
54
74
6E
72
BF
ENDCHAR
STARTCHAR 51EC
ENCODING 20972
SWIDTH 1000 0
DWIDTH 8 0
BBX 7 6 1 0
BITMAP
F8
F8
B8
D4
B4
36
ENDCHAR
STARTCHAR 51ED
ENCODING 20973
SWIDTH 1000 0
DWIDTH 8 0
BBX 7 7 1 0
BITMAP
4C
B0
FE
90
FC
48
8C
ENDCHAR
STARTCHAR 51EE
ENCODING 20974
SWIDTH 1000 0
DWIDTH 8 0
BBX 8 6 0 -1
BITMAP
7E
7E
7A
6A
7A
BB
ENDCHAR
STARTCHAR 51F0
ENCODING 20976
SWIDTH 1000 0
DWIDTH 8 0
BBX 8 6 0 0
BITMAP
7E
7E
7E
7E
7F
BD
ENDCHAR
STARTCHAR 51F1
ENCODING 20977
SWIDTH 1000 0
DWIDTH 8 0
BBX 8 7 0 0
BITMAP
20
B6
7A
FA
7A
4B
7B
ENDCHAR
STARTCHAR 51F3
ENCODING 20979
SWIDTH 1000 0
DWIDTH 8 0
BBX 7 7 0 -1
BITMAP
3C
7E
3C
7E
38
28
C6
ENDCHAR
STARTCHAR 51F4
ENCODING 20980
SWIDTH 1000 0
DWIDTH 8 0
BBX 8 7 0 -1
BITMAP
9E
5E
5E
BA
38
28
47
ENDCHAR
STARTCHAR 51F5
ENCODING 20981
SWIDTH 1000 0
DWIDTH 8 0
BBX 6 6 1 0
BITMAP
84
84
84
84
84
FC
ENDCHAR
STARTCHAR 51F6
ENCODING 20982
SWIDTH 1000 0
DWIDTH 8 0
BBX 6 6 1 0
BITMAP
8C
F4
94
AC
C4
FC
ENDCHAR
STARTCHAR 51F8
ENCODING 20984
SWIDTH 1000 0
DWIDTH 8 0
BBX 6 6 1 0
BITMAP
78
48
CC
84
84
FC
ENDCHAR
STARTCHAR 51F9
ENCODING 20985
SWIDTH 1000 0
DWIDTH 8 0
BBX 6 6 1 0
BITMAP
CC
D4
D4
B4
84
FC
ENDCHAR
STARTCHAR 51FA
ENCODING 20986
SWIDTH 1000 0
DWIDTH 8 0
BBX 6 7 1 -1
BITMAP
A4
A4
FC
20
A4
FC
84
ENDCHAR
STARTCHAR 51FD
ENCODING 20989
SWIDTH 1000 0
DWIDTH 8 0
BBX 8 7 0 -1
BITMAP
FF
92
BE
96
92
7E
82
ENDCHAR
STARTCHAR 51FE
ENCODING 20990
SWIDTH 1000 0
DWIDTH 8 0
BBX 6 7 1 -1
BITMAP
F8
EC
EC
EC
EC
FC
84
ENDCHAR
STARTCHAR 5200
ENCODING 20992
SWIDTH 1000 0
DWIDTH 8 0
BBX 6 7 1 -1
BITMAP
FC
24
24
24
44
44
98
ENDCHAR
STARTCHAR 5201
ENCODING 20993
SWIDTH 1000 0
DWIDTH 8 0
BBX 6 7 1 -1
BITMAP
FC
04
04
74
04
04
1C
ENDCHAR
STARTCHAR 5202
ENCODING 20994
SWIDTH 1000 0
DWIDTH 8 0
BBX 4 7 2 -1
BITMAP
90
90
90
90
90
10
70
ENDCHAR
STARTCHAR 5203
ENCODING 20995
SWIDTH 1000 0
DWIDTH 8 0
BBX 6 7 1 -1
BITMAP
FC
24
64
24
34
44
9C
ENDCHAR
STARTCHAR 5204
ENCODING 20996
SWIDTH 1000 0
DWIDTH 8 0
BBX 7 7 1 -1
BITMAP
FC
24
64
24
58
4E
98
ENDCHAR
STARTCHAR 5206
ENCODING 20998
SWIDTH 1000 0
DWIDTH 8 0
BBX 6 8 1 -1
BITMAP
10
48
84
FC
28
48
58
80
ENDCHAR
STARTCHAR 5207
ENCODING 20999
SWIDTH 1000 0
DWIDTH 8 0
BBX 7 7 0 -1
BITMAP
5E
4A
EA
4A
7A
0A
16
ENDCHAR
STARTCHAR 5208
ENCODING 21000
SWIDTH 1000 0
DWIDTH 8 0
BBX 6 6 1 0
BITMAP
34
D4
54
74
84
0C
ENDCHAR
STARTCHAR 520A
ENCODING 21002
SWIDTH 1000 0
DWIDTH 8 0
BBX 7 7 0 -1
BITMAP
76
26
26
FE
26
22
26
ENDCHAR
STARTCHAR 520B
ENCODING 21003
SWIDTH 1000 0
DWIDTH 8 0
BBX 6 7 1 -1
BITMAP
CC
4C
4C
FC
4C
44
8C
ENDCHAR
STARTCHAR 520E
ENCODING 21006
SWIDTH 1000 0
DWIDTH 8 0
BBX 7 7 0 -1
BITMAP
46
7E
BE
6E
2E
4A
12
ENDCHAR
STARTCHAR 5211
ENCODING 21009
SWIDTH 1000 0
DWIDTH 8 0
BBX 7 6 0 0
BITMAP
7E
56
FE
56
56
56
ENDCHAR
STARTCHAR 5212
ENCODING 21010
SWIDTH 1000 0
DWIDTH 8 0
BBX 6 8 1 -1
BITMAP
80
AC
EC
8C
6C
4C
C4
2C
ENDCHAR
STARTCHAR 5213
ENCODING 21011
SWIDTH 1000 0
DWIDTH 8 0
BBX 7 6 0 0
BITMAP
7A
0A
FA
6A
6A
52
ENDCHAR
STARTCHAR 5214
ENCODING 21012
SWIDTH 1000 0
DWIDTH 8 0
BBX 7 7 0 -1
BITMAP
20
26
76
36
FE
26
52
ENDCHAR
STARTCHAR 5215
ENCODING 21013
SWIDTH 1000 0
DWIDTH 8 0
BBX 7 7 0 -1
BITMAP
7E
12
6C
7E
56
5A
BA
ENDCHAR
STARTCHAR 5216
ENCODING 21014
SWIDTH 1000 0
DWIDTH 8 0
BBX 6 7 1 -1
BITMAP
F4
B4
F4
B4
F4
A4
6C
ENDCHAR
STARTCHAR 5217
ENCODING 21015
SWIDTH 1000 0
DWIDTH 8 0
BBX 6 7 1 -1
BITMAP
FC
6C
AC
EC
4C
44
8C
ENDCHAR
STARTCHAR 521D
ENCODING 21021
SWIDTH 1000 0
DWIDTH 8 0
BBX 7 8 0 -1
BITMAP
40
4E
7A
2A
5A
FA
4A
56
ENDCHAR
STARTCHAR 5224
ENCODING 21028
SWIDTH 1000 0
DWIDTH 8 0
BBX 7 8 0 -1
BITMAP
20
B6
76
76
FE
26
22
26
ENDCHAR
STARTCHAR 5225
ENCODING 21029
SWIDTH 1000 0
DWIDTH 8 0
BBX 7 7 0 -1
BITMAP
76
96
76
36
56
52
B6
ENDCHAR
STARTCHAR 5227
ENCODING 21031
SWIDTH 1000 0
DWIDTH 8 0
BBX 7 7 0 -2
BITMAP
2E
76
26
F6
4A
5A
2E
ENDCHAR
STARTCHAR 5229
ENCODING 21033
SWIDTH 1000 0
DWIDTH 8 0
BBX 6 7 1 -1
BITMAP
D4
54
F4
54
F4
44
4C
ENDCHAR
STARTCHAR 522A
ENCODING 21034
SWIDTH 1000 0
DWIDTH 8 0
BBX 7 7 0 -1
BITMAP
7E
BE
BE
FE
BE
BA
8A
ENDCHAR
STARTCHAR 522E
ENCODING 21038
SWIDTH 1000 0
DWIDTH 8 0
BBX 7 7 0 -1
BITMAP
66
26
FE
76
96
72
96
ENDCHAR
STARTCHAR 5230
ENCODING 21040
SWIDTH 1000 0
DWIDTH 8 0
BBX 6 7 1 -1
BITMAP
FC
AC
FC
4C
EC
54
AC
ENDCHAR
STARTCHAR 5233
ENCODING 21043
SWIDTH 1000 0
DWIDTH 8 0
BBX 7 8 0 -1
BITMAP
20
7E
56
BE
7E
36
12
36
ENDCHAR
STARTCHAR 5236
ENCODING 21046
SWIDTH 1000 0
DWIDTH 8 0
BBX 7 8 0 -1
BITMAP
20
66
7E
FE
76
B6
B2
26
ENDCHAR
STARTCHAR 5237
ENCODING 21047
SWIDTH 1000 0
DWIDTH 8 0
BBX 7 7 0 -1
BITMAP
7E
7E
66
7E
6E
EA
26
ENDCHAR
STARTCHAR 5238
ENCODING 21048
SWIDTH 1000 0
DWIDTH 8 0
BBX 8 8 0 -1
BITMAP
34
7E
FF
24
7E
14
2C
40
ENDCHAR
STARTCHAR 5239
ENCODING 21049
SWIDTH 1000 0
DWIDTH 8 0
BBX 6 7 1 -1
BITMAP
6C
AC
4C
FC
4C
E4
4C
ENDCHAR
STARTCHAR 523A
ENCODING 21050
SWIDTH 1000 0
DWIDTH 8 0
BBX 7 8 0 -1
BITMAP
20
FE
26
76
B6
36
62
26
ENDCHAR
STARTCHAR 523B
ENCODING 21051
SWIDTH 1000 0
DWIDTH 8 0
BBX 7 8 0 -1
BITMAP
20
26
FE
46
76
56
32
46
ENDCHAR
STARTCHAR 5243
ENCODING 21059
SWIDTH 1000 0
DWIDTH 8 0
BBX 6 7 1 -1
BITMAP
2C
FC
FC
FC
5C
F4
44
ENDCHAR
STARTCHAR 5244
ENCODING 21060
SWIDTH 1000 0
DWIDTH 8 0
BBX 6 7 1 -1
BITMAP
FC
8C
EC
9C
FC
54
AC
ENDCHAR
STARTCHAR 5247
ENCODING 21063
SWIDTH 1000 0
DWIDTH 8 0
BBX 7 7 0 -1
BITMAP
76
76
56
76
76
52
86
ENDCHAR
STARTCHAR 5249
ENCODING 21065
SWIDTH 1000 0
DWIDTH 8 0
BBX 7 7 0 -1
BITMAP
66
76
BE
26
76
2A
52
ENDCHAR
STARTCHAR 524A
ENCODING 21066
SWIDTH 1000 0
DWIDTH 8 0
BBX 6 8 1 -1
BITMAP
40
EC
EC
EC
EC
EC
A4
AC
ENDCHAR
STARTCHAR 524B
ENCODING 21067
SWIDTH 1000 0
DWIDTH 8 0
BBX 8 7 0 -1
BITMAP
20
F6
26
76
76
66
5F
ENDCHAR
STARTCHAR 524C
ENCODING 21068
SWIDTH 1000 0
DWIDTH 8 0
BBX 7 8 0 -1
BITMAP
20
FE
26
76
76
26
7A
26
ENDCHAR
STARTCHAR 524D
ENCODING 21069
SWIDTH 1000 0
DWIDTH 8 0
BBX 8 7 0 -1
BITMAP
28
FF
7A
7A
7A
52
76
ENDCHAR
STARTCHAR 524F
ENCODING 21071
SWIDTH 1000 0
DWIDTH 8 0
BBX 8 7 0 -1
BITMAP
6E
76
6A
F6
6E
6B
B6
ENDCHAR
STARTCHAR 5254
ENCODING 21076
SWIDTH 1000 0
DWIDTH 8 0
BBX 7 7 0 -1
BITMAP
76
76
76
7E
BE
6A
16
ENDCHAR
STARTCHAR 5255
ENCODING 21077
SWIDTH 1000 0
DWIDTH 8 0
BBX 7 7 0 -1
BITMAP
56
DE
5E
56
5E
52
52
ENDCHAR
STARTCHAR 5256
ENCODING 21078
SWIDTH 1000 0
DWIDTH 8 0
BBX 7 8 0 -1
BITMAP
20
7E
56
FE
06
76
72
56
ENDCHAR
STARTCHAR 5257
ENCODING 21079
SWIDTH 1000 0
DWIDTH 8 0
BBX 7 8 0 -1
BITMAP
50
7E
36
5E
56
66
3A
DA
ENDCHAR
STARTCHAR 525B
ENCODING 21083
SWIDTH 1000 0
DWIDTH 8 0
BBX 6 7 1 -1
BITMAP
FC
DC
FC
FC
FC
94
B4
ENDCHAR
STARTCHAR 525C
ENCODING 21084
SWIDTH 1000 0
DWIDTH 8 0
BBX 7 8 0 -1
BITMAP
20
7E
8E
7E
AE
EE
6A
1A
ENDCHAR
STARTCHAR 525D
ENCODING 21085
SWIDTH 1000 0
DWIDTH 8 0
BBX 7 7 0 -1
BITMAP
36
76
FE
6E
26
EA
20
ENDCHAR
STARTCHAR 525E
ENCODING 21086
SWIDTH 1000 0
DWIDTH 8 0
BBX 7 8 0 -1
BITMAP
20
7E
16
FE
76
76
52
16
ENDCHAR
STARTCHAR 5261
ENCODING 21089
SWIDTH 1000 0
DWIDTH 8 0
BBX 7 8 0 -1
BITMAP
20
76
A6
56
26
76
52
82
ENDCHAR
STARTCHAR 5263
ENCODING 21091
SWIDTH 1000 0
DWIDTH 8 0
BBX 7 7 0 -1
BITMAP
76
7E
7E
AE
76
32
46
ENDCHAR
STARTCHAR 5264
ENCODING 21092
SWIDTH 1000 0
DWIDTH 8 0
BBX 7 8 0 -1
BITMAP
20
7E
56
6E
76
76
52
96
ENDCHAR
STARTCHAR 5265
ENCODING 21093
SWIDTH 1000 0
DWIDTH 8 0
BBX 7 7 0 -1
BITMAP
76
76
FE
2E
66
EA
20
ENDCHAR
STARTCHAR 5269
ENCODING 21097
SWIDTH 1000 0
DWIDTH 8 0
BBX 6 7 1 -1
BITMAP
6C
FC
DC
DC
6C
D4
44
ENDCHAR
STARTCHAR 526A
ENCODING 21098
SWIDTH 1000 0
DWIDTH 8 0
BBX 8 8 0 -1
BITMAP
24
FF
7A
7A
76
7E
12
66
ENDCHAR
STARTCHAR 526C
ENCODING 21100
SWIDTH 1000 0
DWIDTH 8 0
BBX 7 8 0 -1
BITMAP
20
B6
76
FE
7E
EE
8A
88
ENDCHAR
STARTCHAR 526F
ENCODING 21103
SWIDTH 1000 0
DWIDTH 8 0
BBX 7 7 0 -1
BITMAP
FE
76
76
7E
7E
7A
8E
ENDCHAR
STARTCHAR 5270
ENCODING 21104
SWIDTH 1000 0
DWIDTH 8 0
BBX 7 7 0 -1
BITMAP
36
7E
FE
76
7E
6A
22
ENDCHAR
STARTCHAR 5271
ENCODING 21105
SWIDTH 1000 0
DWIDTH 8 0
BBX 8 6 0 0
BITMAP
3E
76
7E
B6
6D
5E
ENDCHAR
STARTCHAR 5272
ENCODING 21106
SWIDTH 1000 0
DWIDTH 8 0
BBX 7 8 0 -1
BITMAP
20
7E
76
76
FE
76
76
40
ENDCHAR
STARTCHAR 5273
ENCODING 21107
SWIDTH 1000 0
DWIDTH 8 0
BBX 7 8 0 -1
BITMAP
50
FE
56
76
F6
56
76
56
ENDCHAR
STARTCHAR 5274
ENCODING 21108
SWIDTH 1000 0
DWIDTH 8 0
BBX 7 8 0 -1
BITMAP
20
AE
7E
7E
76
76
52
62
ENDCHAR
STARTCHAR 5275
ENCODING 21109
SWIDTH 1000 0
DWIDTH 8 0
BBX 7 7 0 -1
BITMAP
76
7E
7E
7E
7E
BE
40
ENDCHAR
STARTCHAR 5277
ENCODING 21111
SWIDTH 1000 0
DWIDTH 8 0
BBX 7 8 0 -1
BITMAP
20
7E
36
7E
BE
BE
A2
12
ENDCHAR
STARTCHAR 527D
ENCODING 21117
SWIDTH 1000 0
DWIDTH 8 0
BBX 7 7 0 -1
BITMAP
7E
7E
7E
7E
FE
6A
22
ENDCHAR
STARTCHAR 527F
ENCODING 21119
SWIDTH 1000 0
DWIDTH 8 0
BBX 7 7 0 -1
BITMAP
4E
7E
7E
7E
FE
6A
22
ENDCHAR
STARTCHAR 5282
ENCODING 21122
SWIDTH 1000 0
DWIDTH 8 0
BBX 7 7 0 -1
BITMAP
7E
B6
7E
56
6E
D2
42
ENDCHAR
STARTCHAR 5283
ENCODING 21123
SWIDTH 1000 0
DWIDTH 8 0
BBX 7 8 0 -1
BITMAP
20
7E
FE
7E
FE
7E
7A
FA
ENDCHAR
STARTCHAR 5284
ENCODING 21124
SWIDTH 1000 0
DWIDTH 8 0
BBX 7 7 0 -1
BITMAP
7E
86
76
F6
56
72
40
ENDCHAR
STARTCHAR 5287
ENCODING 21127
SWIDTH 1000 0
DWIDTH 8 0
BBX 7 8 0 -1
BITMAP
20
1E
7E
BE
7E
5E
BA
90
ENDCHAR
STARTCHAR 5288
ENCODING 21128
SWIDTH 1000 0
DWIDTH 8 0
BBX 7 7 1 0
BITMAP
08
FC
FE
FC
FC
24
CC
ENDCHAR
STARTCHAR 5289
ENCODING 21129
SWIDTH 1000 0
DWIDTH 8 0
BBX 7 7 0 -1
BITMAP
7E
DE
76
7E
7E
72
42
ENDCHAR
STARTCHAR 528D
ENCODING 21133
SWIDTH 1000 0
DWIDTH 8 0
BBX 7 6 0 -1
BITMAP
76
3E
7E
BE
7E
7A
ENDCHAR
STARTCHAR 5291
ENCODING 21137
SWIDTH 1000 0
DWIDTH 8 0
BBX 7 8 0 -1
BITMAP
20
FE
6E
4E
4E
7E
4A
8A
ENDCHAR
STARTCHAR 5292
ENCODING 21138
SWIDTH 1000 0
DWIDTH 8 0
BBX 8 7 0 -1
BITMAP
20
5F
35
56
FE
5E
56
ENDCHAR
STARTCHAR 5293
ENCODING 21139
SWIDTH 1000 0
DWIDTH 8 0
BBX 7 7 0 -1
BITMAP
76
76
76
7E
FE
52
92
ENDCHAR
STARTCHAR 5294
ENCODING 21140
SWIDTH 1000 0
DWIDTH 8 0
BBX 8 7 0 0
BITMAP
3E
76
5E
F6
56
6B
20
ENDCHAR
STARTCHAR 5298
ENCODING 21144
SWIDTH 1000 0
DWIDTH 8 0
BBX 7 8 0 -1
BITMAP
20
7E
7E
5E
7E
7E
7A
D2
ENDCHAR
STARTCHAR 529B
ENCODING 21147
SWIDTH 1000 0
DWIDTH 8 0
BBX 6 7 1 -1
BITMAP
20
FC
24
24
24
44
9C
ENDCHAR
STARTCHAR 529C
ENCODING 21148
SWIDTH 1000 0
DWIDTH 8 0
BBX 8 7 0 -1
BITMAP
48
78
58
58
58
59
B6
ENDCHAR
STARTCHAR 529F
ENCODING 21151
SWIDTH 1000 0
DWIDTH 8 0
BBX 7 8 0 -1
BITMAP
08
E8
5E
4A
4A
6A
12
06
ENDCHAR
STARTCHAR 52A0
ENCODING 21152
SWIDTH 1000 0
DWIDTH 8 0
BBX 6 6 1 0
BITMAP
80
EC
B4
B4
B4
6C
ENDCHAR
STARTCHAR 52A3
ENCODING 21155
SWIDTH 1000 0
DWIDTH 8 0
BBX 6 7 1 0
BITMAP
20
A4
AC
30
E0
3C
FC
ENDCHAR
STARTCHAR 52A4
ENCODING 21156
SWIDTH 1000 0
DWIDTH 8 0
BBX 7 7 0 0
BITMAP
34
44
4E
76
66
6A
AE
ENDCHAR
STARTCHAR 52A6
ENCODING 21158
SWIDTH 1000 0
DWIDTH 8 0
BBX 6 9 1 -2
BITMAP
20
FC
24
D8
6C
BC
AC
B4
64
ENDCHAR
STARTCHAR 52A9
ENCODING 21161
SWIDTH 1000 0
DWIDTH 8 0
BBX 7 7 0 -1
BITMAP
04
74
5E
76
76
5A
EE
ENDCHAR
STARTCHAR 52AA
ENCODING 21162
SWIDTH 1000 0
DWIDTH 8 0
BBX 6 6 1 1
BITMAP
FC
B4
6C
E0
3C
FC
ENDCHAR
STARTCHAR 52AB
ENCODING 21163
SWIDTH 1000 0
DWIDTH 8 0
BBX 7 8 0 -2
BITMAP
04
24
7E
26
F6
46
5A
6E
ENDCHAR
STARTCHAR 52AC
ENCODING 21164
SWIDTH 1000 0
DWIDTH 8 0
BBX 7 7 0 0
BITMAP
44
44
7E
F6
76
76
3E
ENDCHAR
STARTCHAR 52AD
ENCODING 21165
SWIDTH 1000 0
DWIDTH 8 0
BBX 7 8 0 -1
BITMAP
04
74
5E
36
76
96
76
8A
ENDCHAR
STARTCHAR 52AF
ENCODING 21167
SWIDTH 1000 0
DWIDTH 8 0
BBX 7 7 0 0
BITMAP
08
68
5E
6A
EA
6A
76
ENDCHAR
STARTCHAR 52B1
ENCODING 21169
SWIDTH 1000 0
DWIDTH 8 0
BBX 7 8 0 -1
BITMAP
04
74
76
A6
B6
B6
D6
DA
ENDCHAR
STARTCHAR 52B4
ENCODING 21172
SWIDTH 1000 0
DWIDTH 8 0
BBX 6 7 1 0
BITMAP
48
FC
A4
FC
24
24
D8
ENDCHAR
STARTCHAR 52B5
ENCODING 21173
SWIDTH 1000 0
DWIDTH 8 0
BBX 6 6 1 1
BITMAP
68
FC
FC
7C
A8
58
ENDCHAR
STARTCHAR 52B9
ENCODING 21177
SWIDTH 1000 0
DWIDTH 8 0
BBX 7 8 0 -1
BITMAP
24
24
7E
56
C6
2A
5A
16
ENDCHAR
STARTCHAR 52BA
ENCODING 21178
SWIDTH 1000 0
DWIDTH 8 0
BBX 7 8 0 -1
BITMAP
44
54
FE
66
76
F6
2A
2E
ENDCHAR
STARTCHAR 52BB
ENCODING 21179
SWIDTH 1000 0
DWIDTH 8 0
BBX 6 7 1 0
BITMAP
08
E8
FC
CC
EC
F4
F4
ENDCHAR
STARTCHAR 52BC
ENCODING 21180
SWIDTH 1000 0
DWIDTH 8 0
BBX 7 8 0 -1
BITMAP
24
24
FE
76
76
96
7A
8A
ENDCHAR
STARTCHAR 52BE
ENCODING 21182
SWIDTH 1000 0
DWIDTH 8 0
BBX 6 7 1 -1
BITMAP
48
48
FC
AC
6C
CC
B4
ENDCHAR
STARTCHAR 52C0
ENCODING 21184
SWIDTH 1000 0
DWIDTH 8 0
BBX 7 8 0 -1
BITMAP
24
F4
2E
76
76
66
5A
82
ENDCHAR
STARTCHAR 52C1
ENCODING 21185
SWIDTH 1000 0
DWIDTH 8 0
BBX 7 8 0 -1
BITMAP
04
F4
7E
D6
66
76
2A
7E
ENDCHAR
STARTCHAR 52C3
ENCODING 21187
SWIDTH 1000 0
DWIDTH 8 0
BBX 7 8 0 -1
BITMAP
24
74
F6
96
76
26
66
6A
ENDCHAR
STARTCHAR 52C5
ENCODING 21189
SWIDTH 1000 0
DWIDTH 8 0
BBX 7 8 0 -1
BITMAP
24
F4
2E
76
76
26
FA
2A
ENDCHAR
STARTCHAR 52C7
ENCODING 21191
SWIDTH 1000 0
DWIDTH 8 0
BBX 6 7 1 -1
BITMAP
F8
FC
FC
FC
FC
24
CC
ENDCHAR
STARTCHAR 52C8
ENCODING 21192
SWIDTH 1000 0
DWIDTH 8 0
BBX 6 8 1 -1
BITMAP
08
E8
5C
EC
EC
EC
D4
B0
ENDCHAR
STARTCHAR 52C9
ENCODING 21193
SWIDTH 1000 0
DWIDTH 8 0
BBX 8 7 0 -1
BITMAP
34
6E
F6
76
6A
6B
9F
ENDCHAR
STARTCHAR 52CA
ENCODING 21194
SWIDTH 1000 0
DWIDTH 8 0
BBX 8 8 0 -1
BITMAP
20
F4
2E
76
76
6A
6B
9E
ENDCHAR
STARTCHAR 52CC
ENCODING 21196
SWIDTH 1000 0
DWIDTH 8 0
BBX 7 9 0 -2
BITMAP
34
B4
F6
FE
56
76
F6
7A
08
ENDCHAR
ENDFONT
